<svg width="232" height="50" fill="none" xmlns="http://www.w3.org/2000/svg"><path d="M105.059 2.573c1.128.151 2.181.377 3.234.452 2.331.3 4.662.527 6.993.828 1.203.15 2.406.376 3.609.451.376.075.526.301.752.602.301.527.226.903.075 1.43-.752 2.031-1.428 4.063-2.256 6.094a878.082 878.082 0 01-3.158 8.051c-1.579 3.913-3.158 7.9-4.211 11.964-.601 2.332-1.128 4.665-1.654 7.073-.226 1.053-.451 2.031-.677 3.085-.15.602-.3 1.128-.526 1.655-.075.376 0 .527.376.376.526-.226 1.053-.376 1.504-.677 1.353-.828 2.632-1.73 3.684-3.01.451-.526.677-1.128.827-1.73.151-.678.226-.753.903-.753.376 0 .752-.075 1.128 0 .601.075.827.377.752.979-.226 1.354-.151 2.708 0 4.063.075.602.15 1.279.3 1.88.076.302-.075.527-.225.753-.376.451-.827.677-1.504.677-1.429-.075-2.782-.15-4.211-.226-2.105-.075-4.211-.526-6.316-.225-.903.075-1.504-.075-2.106-.753-.977-.978-.827-.526-.601-1.806.451-2.407 1.128-4.74 1.955-7.072.601-1.806 1.053-3.612 1.579-5.418 1.203-3.837 2.256-7.75 3.684-11.437.978-2.407 1.88-4.815 2.933-7.148.978-2.332 2.105-4.665 3.158-6.997.075-.226.151-.377.301-.678-.226 0-.376-.075-.526-.075-1.279.15-2.557.376-3.61 1.204-.977.753-2.03 1.43-2.857 2.408-.226.3-.677.451-.978.527-.225.075-.526-.226-.752-.301 0 .15-.075.451-.075.602-.451.15-.601-.15-.677-.452-.15-.451-.3-.978-.451-1.43-.301-.902-.526-1.88-.827-2.783l-.225-.678c-.076-.225-.076-.451.075-.602.075-.225.376-.526.601-.903zM67.086 4.078V3.1h.903c.601 0 1.127.226 1.503.677.076.15.15.301.301.377.075.075.226.075.301.075.075 0 .15-.15.15-.226-.075-.376 0-.602.376-.752.376-.15.978.075 1.203.376.602.677.903 1.58 1.053 2.408.075.602.075 1.203.15 1.805.076.903.076 1.806.151 2.71.226 2.181.3 4.363.075 6.545-.15 1.505-.225 3.085-.3 4.59 0 .677.075 1.43.15 2.182.45-.602.752-1.279.977-1.956.452-1.204.827-2.483 1.354-3.612a148.705 148.705 0 013.383-6.997c.903-1.806.978-3.612.527-5.493-.15-.602-.451-1.204-.902-1.655-.376-.377-.376-.753 0-1.13.376-.375.676-.752 1.052-1.053.677-.451 1.203-.978 1.73-1.58.45-.451.902-.526 1.428-.15.752.451 1.279 1.129 1.655 1.881.075.226.075.527.075.828.225 1.73-.3 3.386-1.053 4.966-1.053 2.107-2.256 4.063-3.308 6.17a237.971 237.971 0 00-3.76 7.6c-.752 1.58-1.278 3.235-2.18 4.74-.527.902-.377 1.88-.151 2.783.752 3.01 1.128 6.095 1.579 9.18.3 1.806.526 3.687.902 5.493.301 1.204.752 2.407 1.128 3.611.075.15.075.301.15.452.226.828-.3 1.58-1.127 1.655-.451.075-.752-.15-.903-.526a15.178 15.178 0 01-.526-1.731c0-.075-.075-.226-.226-.301 0 .602.076 1.204.076 1.806 0 .526-.301.827-.828.903-.376.075-.676 0-.827-.452-.075-.225-.15-.451-.376-.602v.527c0 .226.076.527-.225.677-.301.15-.752.15-.978-.15-.526-.452-.977-.978-.977-1.73-.075-1.13-.226-2.183-.226-3.312-.15-2.859-.451-5.643-.827-8.427a27.048 27.048 0 01-.226-3.536c-.075-3.236-.225-6.471-.676-9.707-.301-2.182-.602-4.288-.677-6.47 0-.602-.15-1.13-.226-1.731l-.45-4.289a23.114 23.114 0 00-.377-2.408c-.225-.978-.601-1.88-1.128-2.784-.225-.451-.526-.827-.827-1.279-.225-.3-.15-.526.15-.677.527-.376 1.053-.3 1.58.15l.15.151c-.075.301 0 .301.075.376z" fill="#E97F54"/><path d="M133.558 36.056c-.15.301-.15.678-.301.753-.376.15-.827.3-1.278.376-.075 0-.225-.15-.376-.3l-.526-.528c-.075.226-.075.377-.075.452-.151.451-.452.677-.903.752-.752 0-1.804-.752-1.804-1.505 0-.376-.151-.752-.226-1.279a6.084 6.084 0 01-1.053.678c-.225.15-.526.3-.752.45-1.353.904-2.782.904-4.361.603-1.429-.301-2.707-.978-3.609-2.107-.602-.828-.903-1.806-1.053-2.784-.451-2.558 0-4.966 1.128-7.299.075-.225.226-.45.376-.677 1.278-1.58 2.632-3.01 4.662-3.687 1.128-.376 2.181-.827 3.158-1.504.526-.377 1.053-.678 1.429-1.13.601-.676 1.053-1.353 1.128-2.256.075-.979.075-1.957.225-2.935.151-.978.151-1.956.076-2.934 0-.527-.076-.978-.151-1.505-.075-.978-1.353-1.58-2.105-1.505-.827.15-1.429.527-1.88 1.28-.677 1.203-.602 2.407-.301 3.61.075.377.451.753.752 1.13a.954.954 0 010 1.354c-.677.752-1.354 1.505-2.03 2.182-.602.602-1.429.903-2.106-.15-.3-.452-.601-.828-.752-1.28a4.273 4.273 0 01-.225-1.354c0-.527 0-.978.075-1.505.075-.451.226-.978.376-1.43.15-.526.376-1.053.601-1.504.903-1.806 2.332-2.784 4.287-3.16.376-.076.676-.226 1.052-.226.677 0 1.354 0 2.031.15.977.226 1.804.677 2.556 1.28.301.225.602.601.827.977.451.828.752 1.806.827 2.784.151 2.784.151 5.493-.15 8.202-.226 2.031-.526 3.988-.677 6.02-.075 1.203 0 2.407.075 3.61.151 1.732.376 3.537.978 5.193.226.526.526 1.128.902 1.58.527.752.527.827-.225 1.354-.075.075-.075.075-.226.15 0-.075-.15-.225-.376-.376zm-5.038-16.854c-.677.451-1.278.828-1.88 1.129-1.353.752-2.18 1.956-2.932 3.235-.301.602-.602 1.204-.827 1.881a4.312 4.312 0 00-.376 1.054c-.151.978-.301 1.956-.301 2.934 0 .978-.301 2.032.225 3.01v.15c.151.978.752 1.43 1.73 1.656.451.075.902-.076 1.353-.15.903-.151 1.279-.753 1.429-1.506.15-.677 0-1.354-.526-1.88.15-.076.301-.227.451-.302.526-.226.752-.602.752-1.204 0-1.204.075-2.407.15-3.611.151-1.806.376-3.687.602-5.493.15-.301.15-.602.15-.903zm2.181-8.277c.075-.3.075-.602.075-.903h-.075v.903zM96.036 3.777c.301-.301.451-.602.677-.677.376-.075.827 0 1.203.225l.902.903c.978 1.054 1.805 2.258 2.181 3.687.15.602.451 1.204.602 1.881.3 1.129.526 2.333.676 3.537.151 1.505.226 3.01.151 4.514a21.99 21.99 0 01-.903 6.245c-.075.151-.075.377-.15.527-.15 1.28-.752 2.258-1.504 3.236-.902 1.128-2.03 1.956-3.459 2.407-.526.226-1.128.301-1.73.452-.225.075-.526.075-.751.075-1.955-.226-3.76-.828-4.963-2.483-.827-1.053-1.429-2.332-1.654-3.687-.301-2.257-.602-4.44-.827-6.696-.15-1.355-.226-2.71.15-4.063.075-.151 0-.301.075-.377 0-.903.226-1.655.602-2.483.3-.752.601-1.505.977-2.182a9.891 9.891 0 011.654-1.88c1.43-1.13 3.083-1.506 4.888-1.581h.451c-.15-.15-.225-.226-.3-.226-.602-.3-.677-.526-.15-.978.45-.226.751-.527 1.202-.376zm-.601 4.59c-.301-.301-.527-.602-.828-.903-.751-.677-1.579-.677-2.18.075-.226.226-.376.452-.451.753-.301.827-.527 1.655-.602 2.558 0 .677-.15 1.354-.15 2.107-.076 1.88-.15 3.686-.15 5.567.075 1.882.225 3.763.375 5.644.076.978.15 1.88.602 2.784a7.32 7.32 0 001.128 1.806c.977 1.053 2.857.752 3.383-.527.377-.978.677-1.956.677-2.935.075-1.203.075-2.483.15-3.686a33.357 33.357 0 000-5.493c-.075-1.204-.15-2.408-.3-3.537-.15-1.505-.226-3.085-.978-4.514-.15.075-.376.15-.676.3zM87.69 46.365c.15.3.225.602.376.903.075.226.15.451-.076.602-.3.226-.526.15-.751-.15-.15-.226-.377-.377-.602-.603.075.377.075.602.075.903.075.301-.075.452-.3.527-.301.15-.677.3-.978.376-.677.301-1.128.226-1.58-.376a16.472 16.472 0 01-2.48-4.515c-.377-1.128-.828-2.257-1.129-3.385-.3-.903-.45-1.882-.676-2.785-.226-.902-.527-1.73-.828-2.633-.225-.752-.375-1.58-.601-2.408-.451-1.505-.902-2.934-1.353-4.44-.15-.375-.301-.752-.677-.977-.376-.301-.827-.301-1.279-.076-.15.076-.225.226-.376.226-.15 0-.3-.075-.376-.15-.075-.076 0-.226.076-.301.526-.452 1.052-.828 1.579-1.28.075-.075.15-.075.225-.15.752-.752 1.655-1.128 2.482-1.655.601-.376 1.428-.376 2.03.075.226.15.526.376.752.602.15.15.225.376.3.602.151 1.58.452 3.085.978 4.59.527 1.655 1.128 3.31 1.73 4.966.827 2.407 1.804 4.815 3.083 7.073.376.677.977 1.354 1.504 1.956.376.451.902.903 1.353 1.354.3.301.526.602.3.978-.225.452-.526.828-1.127.903-.3 0-.526-.075-.677-.3-.225-.302-.451-.527-.677-.753-.225.226-.225.3-.3.3zm6.767-9.782c1.053 0 1.955.226 2.857.677.677.301 1.053.903 1.279 1.505.376.978.601 1.956.3 3.01-.3 1.204-1.127 2.407-2.857 2.483-.677.075-1.353.15-2.03 0-1.504-.377-2.557-1.129-2.858-2.709-.075-.376-.225-.677-.3-1.053-.376-2.032 1.353-3.988 3.609-3.913zm31.657 9.857c-1.354.075-2.181-.451-2.858-1.279-.676-.978-.827-2.107-.827-3.235.075-1.505 1.504-2.784 3.158-2.935 1.655-.15 2.858.376 3.685 1.806.451.752.827 1.43.752 2.333-.075.376-.151.827-.376 1.128-.752 1.354-2.03 2.257-3.534 2.182z" fill="#E97F54"/><path d="M154.776 7.163c-.075-.075-.15-.075-.225-.075-1.354-.3-2.707-.677-4.136-.978-.301-.075-.602 0-.978-.075-.526 0-.827-.452-.451-.828.151-.226.151-.451.226-.677.075-.15.15-.376.225-.527.151-.3.301-.376.602-.226.376.076.677.301 1.128.15-.376-.526-1.128-.375-1.504-.827 0-.15.075-.3.075-.451.151-.677.677-.978 1.354-.753.601.15 1.128.452 1.729.678.903.3 1.73.677 2.632.978.902.376 1.729.752 2.481 1.354.151.075.226.301.226.452.526 4.89.526 9.781.376 14.672v.376c.226 2.107-.075 4.214-.075 6.32 0 .678.075 1.355.075 1.957.075 1.354.301 2.633.376 3.988.075 1.88.075 3.762.15 5.718v.301c.677.075 1.279.15 1.88.15.752 0 1.203.377 1.429 1.054l.451.903c.15.3.15.527-.075.752-1.429 1.43-2.331 3.236-3.384 4.966-.075.15-.15.226-.225.377-.151.15-.301.3-.452.225-.225-.075-.451-.15-.451-.451v-.677c-.15.15-.225.3-.376.3-.15.076-.301.151-.451.076-.226-.075-.226-.226-.226-.452.076-.978.151-1.956-.075-2.859-.225-.752-.526-1.505-.827-2.257-.075-.15-.301-.226-.451-.301-.827-.15-1.579-.226-2.406-.301-1.279-.075-2.482-.075-3.76-.075-.526 0-.827.376-1.128.752-.677.828-1.128 1.73-1.128 2.86 0 .677 0 1.354.075 2.031 0 .451-.225.677-1.052.828-.527.075-.677-.076-.752-.527-.151-.677-.226-1.43-.376-2.107-.301-1.279-.903-2.408-1.655-3.386-.3-.376-.3-.451 0-.828.301-.3.527-.601.828-.902a1.07 1.07 0 01.902-.452c.902-.075 1.729-.226 2.632-.3.075-.302.15-.603.15-.979.075-1.58.226-3.16.301-4.74.225-3.913 0-7.75.075-11.663v-3.461c0-.602.226-1.129.752-1.58 1.579-1.28 2.707-3.01 3.76-4.74.677-1.13 1.203-2.258 1.579-3.537.15-.075.15-.15.15-.226zm-.225 5.644h-.151c-.225.3-.376.526-.601.827-.376.452-.752.978-1.203 1.43-.602.602-1.128 1.204-1.805 1.73-.376.301-.451.602-.376.979 0 .677.075 1.43.075 2.106v9.33c0 1.58-.075 3.236-.15 4.816 0 .075 0 .226-.075.301-.151 1.28-.301 2.483-.376 3.762.15 0 .3.075.451.075 1.052 0 2.105.076 3.233.076 1.429 0 1.278.225 1.278-1.28 0-1.504-.075-3.084-.075-4.59 0-1.203.075-2.482.075-3.686 0-.452.076-.828.076-1.28.225-1.58.376-3.16.3-4.815-.075-2.408-.225-4.815-.376-7.223-.075-.903-.225-1.73-.3-2.558zm25.942-6.923c.827-.677 1.654-1.204 2.331-1.881.526-.452 1.128-.602 1.729-.753.301-.075.677.076.978.226.902.527 1.504 1.204 1.955 2.032.451 1.053.601 2.107.827 3.16.301 1.053.376 2.182.451 3.31.075 1.205 0 2.333.075 3.537 0 .527.151 1.053.151 1.505 0 1.053-.151 2.182-.226 3.235 0 .226-.075.452-.075.602a28.791 28.791 0 01-.451 6.245c-.226 1.355-.677 2.634-1.354 3.913-.451.828-1.128 1.43-2.18 1.655-.151 0-.301.15-.527.226-.977.376-1.955.527-2.857-.15-.075-.076-.226-.076-.376-.226 0 .226-.075.301-.075.451.075 2.333.225 4.666.3 7.073.076.753.151 1.58.301 2.333 0 .075.075.225.075.3.301.678.076 1.13-.676 1.355-.226.075-.376.15-.527.301-.301.301-.677.301-1.052.15-.151-.075-.376-.075-.452-.075-.601.377-1.203.15-1.804 0-.301-.075-.602-.15-.978-.15-.902.075-1.203-.376-.977-1.129.3-.978.451-1.956.601-2.934.226-1.73.301-3.461.527-5.267.225-2.634.526-5.267.751-7.9.076-1.205.151-2.409.151-3.612.075-3.01.075-6.02.075-9.03 0-1.58-.15-3.16-.226-4.815-.075-.753-.075-1.505-.075-2.333 0-.827-.075-1.73-.225-2.558-.151-.677.075-.978.902-1.053.526-.076.978-.15 1.504-.226.226 0 .526-.075.752 0 .15.075.376.301.376.376 0 .828.15 1.43.301 2.107zm.376 22.573s.075 0 0 0c.075.677.075 1.279.075 1.956 0 .301.376.753.677.828.376.075.827.15 1.127-.226.301-.376.602-.828.752-1.204.226-.752.376-1.505.527-2.257.526-1.881.752-3.837.827-5.794 0-1.053-.075-2.182 0-3.235.075-2.408-.15-4.74-.677-7.148-.15-.828-.376-1.656-.451-2.559-.075-.752-.376-1.504-.752-2.182-.15-.225-.301-.3-.602-.3-.601.075-1.203.225-1.729.526-.226.15-.301.301-.301.527 0 2.182 0 4.364.075 6.621 0 .753.151 1.505.301 2.257.151.903 0 1.882-.075 2.86 0 .677-.226 1.354-.15 1.956.075 2.558.225 4.966.376 7.374zm33.085-22.799c-1.278.076-2.406.15-3.384.753-1.128.752-2.331 1.505-3.233 2.633-.075.075-.15.075-.226.15h-.15s-.075-.075-.075-.15l-.451-2.709a18.215 18.215 0 00-.602-1.88c-.225-.678.301-1.28.902-1.204l2.482.451c1.429.226 2.857.451 4.211.677 1.278.226 2.481.452 3.76.677.376.076.601.301.752.678.225.451.225.827 0 1.354l-2.256 5.869a239.46 239.46 0 01-3.234 7.75c-1.579 3.762-3.158 7.6-4.286 11.512-.677 2.257-1.203 4.515-1.729 6.847-.226.978-.527 2.032-.752 3.01-.151.602-.376 1.128-.527 1.655-.15.376 0 .527.376.376a10.68 10.68 0 001.88-.902c.978-.602 1.955-1.28 2.707-2.183.527-.602.903-1.203 1.053-1.956.15-.677.226-.752.902-.752h.903c.601.075.827.3.752.978-.076.828-.151 1.655-.226 2.408-.15 1.053.15 2.106.226 3.235.075.752-.527 1.43-1.279 1.43-2.18-.076-4.286-.301-6.466-.602-1.429-.226-2.858-.301-4.362-.15-.301 0-.451-.076-.677-.227a5.98 5.98 0 00-.977-.978c-.226-.225-.301-.376-.226-.677.527-2.182 1.053-4.364 1.805-6.47.677-1.806 1.128-3.612 1.729-5.418 1.354-4.063 2.557-8.202 4.211-12.19 1.354-3.31 2.783-6.546 4.211-9.781.527-1.204 1.203-2.483 1.73-3.687.301-.075.376-.226.526-.527z" fill="#3A4336"/><path d="M230.873 38.54l-.15-.15c-.226-.227-.452-.151-.376.074.075.452-.226.527-.527.602-.15 0-.3.075-.376.075-.451.151-.752.076-.977-.376-.075-.15-.226-.225-.451-.451-.076.226-.076.3-.076.376-.15.602-.526.903-1.052.753-.752-.151-1.579-.903-1.579-1.731 0-.376-.076-.753-.151-1.28-.376.302-.752.527-1.128.753-.902.602-1.804 1.204-2.857 1.204-2.181 0-4.136-.527-5.489-2.558-.602-.828-.828-1.881-.978-2.935-.376-2.708.15-5.267 1.278-7.674.076-.226.151-.377.301-.527 1.278-1.58 2.557-3.085 4.587-3.837 1.128-.377 2.256-.828 3.233-1.58.527-.377 1.053-.753 1.429-1.28.527-.677.978-1.43 1.053-2.332.075-.978.075-1.957.301-2.935.15-1.053.15-2.031.15-3.085 0-.451-.075-.903-.075-1.354-.075-.978-.677-1.655-1.579-1.73-.827-.076-1.504.075-2.03.827-.602.978-.903 1.956-.752 3.16.15.903.3 1.655.977 2.333.226.225.226.903-.075 1.204-.677.752-1.354 1.58-2.106 2.332-.676.677-1.353.828-2.03-.226-.301-.451-.601-.827-.752-1.354-.15-.451-.15-.978-.15-1.43 0-.451.075-.978.15-1.504.075-.527.226-1.054.376-1.58.226-.602.451-1.204.752-1.731.902-1.73 2.256-2.709 4.061-3.01.376-.075.676-.226 1.052-.226.602 0 1.279 0 1.88.15.978.227 1.88.829 2.707 1.506.301.226.527.677.677.978.451.903.677 1.881.677 2.86.075 2.858.075 5.793-.301 8.652-.301 2.107-.601 4.214-.827 6.32a31.475 31.475 0 000 3.763c.075 1.73.301 3.46.752 5.116.225.753.526 1.43.977 2.032.076.15.226.3.226.451.075.226.075.527-.226.677-.15.377-.3.527-.526.678zm-4.963-18.134c-.526.376-.902.677-1.353.903-1.053.527-1.805 1.43-2.557 2.332a7.405 7.405 0 00-.827 1.28c-.301.602-.602 1.204-.827 1.88-.151.452-.376.904-.451 1.43-.151 1.054-.376 2.182-.301 3.311 0 .376-.075.828-.075 1.204 0 .828.3 1.505.451 2.332 0 .076.15.226.225.301.376.377.827.753 1.429.678.451 0 .902-.15 1.278-.226.452-.075.752-.301.978-.677.526-.979.526-1.881-.151-2.784.151-.15.376-.226.527-.377.451-.225.601-.601.601-1.128 0-1.28.076-2.558.226-3.838.15-1.58.376-3.085.602-4.665.15-.677.15-1.279.225-1.956zm2.181-8.653c.075 0 .075 0 0 0 .075-.3.075-.602.075-.903h-.075v.903zm-61.81 7.975c0 .828.075 1.58.075 2.408l.226 2.709c.075 1.655.225 3.31.225 4.966 0 .752.151 1.43.602 2.032.601.902 1.504.978 2.105 0 .075-.15.151-.377.226-.527.451-1.354.827-2.784.451-4.289-.075-.376-.301-.828-.451-1.204-.075-.226-.226-.451-.376-.752.301-.226.601-.377.827-.602.451-.301.902-.527 1.354-.828.376-.3.752-.3 1.278-.226.451.076.601.301.677.678.225 1.128.376 2.182 0 3.31-.226.527-.226 1.204-.301 1.73-.151.753-.376 1.506-.902 2.032-.903.828-1.805 1.73-3.159 2.032-.526.075-.902.376-1.428.376-.827 0-1.579-.376-2.407-.677-1.353-.602-1.879-1.73-2.18-3.01-.226-1.053-.376-2.107-.527-3.16-.3-2.257-.3-4.59-.3-6.922 0-1.505-.076-3.085.075-4.59.15-2.107.075-4.289.677-6.32.3-1.13.676-2.333 1.579-3.16.827-.753 1.654-1.656 2.782-1.957.301-.075.526-.15.827-.15.677.075 1.353.075 2.03.225 1.429.226 2.557.978 3.234 2.333 1.128 2.107 1.353 4.289 1.128 6.621-.076 1.054-.226 2.182-.677 3.16-.602 1.204-1.429 2.258-2.482 3.085-.601.452-1.353.602-2.03.753-.376.075-.827.225-1.278.3-.602.076-1.128-.075-1.654-.225.075 0 0-.075-.226-.15zm.15-4.514c-.075.903-.075 1.655-.15 2.483 0 .451.075.677.451.828 1.429.526 2.331 0 2.858-1.13.526-1.128.977-2.332.902-3.61a12.904 12.904 0 010-2.409c.15-.902 0-1.805-.226-2.708-.15-.527-.301-1.129-.451-1.656a1.897 1.897 0 00-1.278-1.43c-.151-.074-.301-.074-.451-.074-.602.075-1.279.752-1.354 1.354-.15.677-.225 1.354-.301 2.031-.075.602-.15 1.204-.15 1.881 0 1.43.075 2.935.15 4.44zm28.273 3.687c0 .226-.075.451 0 .677.151.377.075.753.075 1.129v.15c0 1.731-.225 3.462-.15 5.267.075 1.054.075 2.107.226 3.16l.225 1.13c.151.601.677 1.053 1.354 1.128.601.075 1.203-.15 1.504-.753.526-1.053.827-2.182.752-3.31 0-.226-.076-.376-.151-.602-.075-.15-.15-.301-.15-.452.15-.827-.301-1.505-.602-2.257-.376-.828-.075-1.505.827-1.655.827-.15 1.73-.301 2.557-.377.376-.075.677.151.677.527-.076.677.225 1.355.3 2.032a4.71 4.71 0 01-.225 2.031c-.151.602-.226 1.28-.376 1.881-.226.979-.602 1.881-1.579 2.408-.151.075-.301.226-.451.376-.527.452-1.128.828-1.805.979-.526.075-.902.376-1.504.376-.827 0-1.504-.301-2.18-.602-1.053-.452-1.655-1.28-2.031-2.333-.376-1.053-.451-2.107-.601-3.235-.301-2.634-.376-5.267-.301-7.825.075-1.129 0-2.258 0-3.311.075-2.107.075-4.289.602-6.396.3-1.128.676-2.182 1.428-3.16.075-.075.151-.3.301-.3.902-.452 1.429-1.355 2.481-1.581.151 0 .226-.075.376-.075 1.128 0 2.331 0 3.384.451 1.278.527 2.105 1.505 2.557 2.784.451 1.204.676 2.483.601 3.762-.075 1.28-.075 2.634-.601 3.838-.752 1.88-1.88 3.536-3.835 4.44-.602.3-1.203.45-1.88.526-.451.075-.978-.15-1.429-.226-.075-.451-.225-.527-.376-.602zm-.225-9.556v.978c.15 1.656.225 3.311.15 4.966v1.882c0 .3.15.526.451.601.376.076.752.226 1.053.301.226.076.451.076.602-.075.751-.602 1.428-1.279 1.579-2.257.075-.226.15-.527.225-.752a5.71 5.71 0 00.226-1.58c0-.904-.075-1.807.075-2.634.075-.903 0-1.73-.301-2.558-.15-.527-.376-1.054-.451-1.656-.075-.451-.602-1.053-.902-1.053-.376 0-.827.075-1.203.226-.978.376-1.504 1.73-1.128 2.708.15.452-.226.677-.226 1.054 0-.15-.075-.15-.15-.15zm30.754 35.139c0 1.43-1.278 2.784-2.556 2.934-.376 0-.827.075-1.203.075-.602 0-1.053-.3-1.279-.978-.075-.15-.075-.226-.15-.376-.677-1.129-.526-2.257 0-3.386.226-.527.677-1.053 1.203-1.43 1.128-.903 2.632-.526 3.384.753.301.903.601 1.73.601 2.408zm-57.148-7.976c1.88-.076 3.008 1.354 2.858 3.31-.075.602-.226 1.13-.602 1.58-.301.377-.451.828-.752 1.204-.301.452-.752.678-1.278.903-.978.301-2.03-.225-2.557-.903-1.203-1.505-.977-4.364.827-5.568.301-.3.978-.526 1.504-.526zm26.695 7.374c-1.429.075-2.557-1.204-2.858-2.483-.301-1.806.827-3.386 2.256-3.988.978-.452 2.105-.226 3.008.827.451.452.752 1.054.902 1.656.301.903.075 1.73-.451 2.483-.602 1.053-1.654 1.505-2.857 1.505z" fill="#3A4336"/><g clip-path="url(#clip0)"><path d="M20.073 10.848l-5.548 5.222a11.746 11.746 0 00-.176-1.935C13.64 9.679 10.88 3.697 9.652 1.62a1.437 1.437 0 01-.091-.15.416.416 0 01.5-.609c7.392 2.503 10.012 9.986 10.012 9.986zM40.596 1.47c-1.351 2.211-5.506 9.828-5.506 14.383l-2.028-1.91-3.52-3.312a19.907 19.907 0 018.734-9.02c.59-.29 1.197-.54 1.82-.75a.417.417 0 01.5.609z" fill="#BFA885"/><path d="M17.845 10.848l-3.496 3.287C13.64 9.679 10.88 3.698 9.652 1.62c6.007 2.987 8.193 9.228 8.193 9.228zm20.431-9.236c-1.242 2.06-4.404 7.909-5.214 12.33l-3.52-3.311a19.907 19.907 0 018.734-9.019z" fill="#FFECB3"/><path d="M14.437 15.45s-7.974 1.668-11.112-.485a.413.413 0 00-.642.26c-.464 2.413-.473 10.272 9.88 4.8l1.874-4.575z" fill="#CFD8DC"/><path d="M42.131 21.76a16.982 16.982 0 01-4.538-1.735L35.49 15.62l-.183-.393c1.578.285 3.171.472 4.772.56h.041c1.643.12 3.295.007 4.906-.334.64-.139 1.25-.39 1.802-.743a.416.416 0 01.643.267c.384 2.02.467 7.876-5.34 6.783z" fill="#9E9E9E"/><path d="M42.131 21.76a16.981 16.981 0 01-4.538-1.735L35.49 15.62c1.523.18 3.057.236 4.589.166h.041a8.654 8.654 0 004.189-1.076.415.415 0 01.642.267c.025.142.05.3.075.476.242 1.893.084 5.556-2.895 6.307z" fill="#CFD8DC"/><path d="M29.25 44.22a8.281 8.281 0 01-3.972 4.896.424.424 0 01-.4 0 7.992 7.992 0 01-1.051-.659 8.38 8.38 0 01-2.92-4.238h8.343z" fill="#424242"/><path d="M26.747 44.22a8.376 8.376 0 01-2.92 4.237 8.38 8.38 0 01-2.92-4.238h5.84z" fill="#9E9E9E"/><path d="M38.427 22.378c0 2.372-.674 4.695-1.944 6.699-.526.834-1.226 1.535-1.768 2.352-.54.82-1.002 1.689-1.377 2.595a20.2 20.2 0 00-1.41 5.64 22.223 22.223 0 00-.133 1.685 6.628 6.628 0 01-.042 1.544s-3.337 2.728-6.675 2.728a6.888 6.888 0 01-1.243-.117h-.016a13.968 13.968 0 01-5.415-2.611 37.025 37.025 0 00-.692-4.964 17.96 17.96 0 00-1.978-6.049c-.867-1.468-2.144-2.67-2.861-4.238a12.76 12.76 0 012.903-14.6 13.032 13.032 0 019.302-3.863 12.984 12.984 0 019.303 3.863 12.874 12.874 0 014.046 9.336z" fill="#9E9E9E"/><path d="M35.924 22.377c0 2.372-.674 4.696-1.944 6.7-.525.834-1.226 1.535-1.768 2.352a15.53 15.53 0 00-1.377 2.595 20.207 20.207 0 00-1.41 5.64 23.31 23.31 0 00-.134 1.685c.046.957.032 1.915-.041 2.87 0 0-2.545.75-5.415 1.285h-.016a13.968 13.968 0 01-5.415-2.611 37.025 37.025 0 00-.692-4.964 17.96 17.96 0 00-1.978-6.049c-.867-1.468-2.144-2.67-2.861-4.238a12.76 12.76 0 012.903-14.6 13.032 13.032 0 018.05-3.805 13.032 13.032 0 018.052 3.805 12.873 12.873 0 014.046 9.335z" fill="#F5F5F5"/><path d="M17.57 25.865a1.669 1.669 0 110-3.337 1.669 1.669 0 010 3.337zm15.017 0a1.669 1.669 0 110-3.337 1.669 1.669 0 010 3.337z" fill="#F5F5F5"/><path d="M3.797 14.276a1.245 1.245 0 00-1.932.79c-.37 1.913-.667 5.357 1.484 6.95a4.17 4.17 0 002.558.77 12.358 12.358 0 005.04-1.418c-.025.333-.052.667-.052 1.001a13.619 13.619 0 001.22 5.61 13.57 13.57 0 001.708 2.626c.433.54.832 1.105 1.195 1.693.96 1.8 1.595 3.757 1.874 5.778.195 1.05.387 2.125.523 3.21-9.166 1.449-13.51 4.63-13.694 4.768a.835.835 0 001 1.335c.043-.031 4.205-3.052 12.856-4.433a.835.835 0 00.3.579 15.51 15.51 0 002.201 1.445.818.818 0 00.039.334 8.896 8.896 0 004.372 4.542c.37.192.812.192 1.184 0a8.892 8.892 0 004.369-4.54.82.82 0 00.042-.324c.8-.383 1.535-.89 2.178-1.501l.031.036c.264-.263.395-.63.357-1 2.194.18 4.447.458 6.758.834l.704 3.528a.835.835 0 001.636-.334l-.577-2.886c.794.147 1.593.305 2.398.475l.715 3.579a.835.835 0 001.635-.334l-.567-2.852c.682.156 1.366.32 2.054.491a.834.834 0 00.4-1.619c-.554-.138-1.104-.267-1.654-.396l1.953-1.464a.833.833 0 00-.173-1.434.834.834 0 00-.828.1l-3.095 2.32a112.9 112.9 0 00-2.264-.453l2.278-2.279a.834.834 0 00-1.18-1.18l-3.104 3.104a84.386 84.386 0 00-7.071-.876c.025-.365.047-.732.083-1.095.19-1.859.644-3.68 1.349-5.41a14.96 14.96 0 011.304-2.454c.236-.36.512-.7.805-1.06.35-.417.676-.853.976-1.307a13.32 13.32 0 002.076-7.15c0-.346-.027-.689-.052-1.031a12.213 12.213 0 004.98 1.391c.92.03 1.825-.243 2.576-.777 2.199-1.625 1.9-5.173 1.525-7.14a1.246 1.246 0 00-1.927-.797c-2.21 1.502-7.359.91-9.635.472-.083-.114-.174-.222-.259-.334.014-4.364 3.642-10.299 4.839-12.252A1.252 1.252 0 0039.83.072c-7.641 2.586-10.388 8.3-10.5 8.542a.807.807 0 00-.072.36 14.141 14.141 0 00-8.562.074.818.818 0 00-.052-.411C20.538 8.39 17.987 2.66 10.33.069a1.242 1.242 0 00-1.387.407c-.332.41-.368.984-.09 1.432 1.395 2.282 4.64 8.045 4.64 12.277a.8.8 0 00.037.179c-.079.108-.162.215-.238.325-1.984.436-7.218 1.147-9.494-.413zm.546 6.398c-1.275-.943-1.128-3.38-.94-4.695 2.55 1.316 6.592.945 8.81.601a13.449 13.449 0 00-.97 2.782c-3.32 1.74-5.707 2.197-6.9 1.312zm20.735 27.609a8.31 8.31 0 01-2.689-2.291 8.76 8.76 0 002.69.463 9.145 9.145 0 002.717-.5 8.274 8.274 0 01-2.718 2.328zM46.75 15.724c.193 1.358.35 3.912-.976 4.892-1.202.888-3.578.44-6.87-1.285a13.42 13.42 0 00-1.068-2.968c2.363.332 6.405.636 8.914-.638zM30.84 9.322a16.61 16.61 0 018.426-7.258c-1.774 2.993-3.776 6.855-4.32 10.374a15.143 15.143 0 00-4.254-2.91.83.83 0 00.148-.206zm2.963 4.326c.563.54 1.075 1.13 1.53 1.765a.834.834 0 00.334.5 11.834 11.834 0 011.927 6.464 11.65 11.65 0 01-1.814 6.257c-.265.4-.553.784-.863 1.15-.304.377-.619.764-.9 1.192a16.552 16.552 0 00-1.45 2.728 21.314 21.314 0 00-1.47 5.87c-.063.578-.11 1.158-.138 1.74 0 .078 0 .25.01.456.006.153.02.45.018.66-.783.584-3.387 2.36-5.908 2.36-2.47 0-5.029-1.715-5.864-2.328-.013-.184-.036-.366-.053-.549v-.035a.185.185 0 00-.007-.02c-.135-1.398-.379-2.754-.622-4.075a19.021 19.021 0 00-2.077-6.321 18.63 18.63 0 00-1.31-1.863 12.212 12.212 0 01-1.514-2.302 11.914 11.914 0 012.722-13.646 12.287 12.287 0 0117.447 0l.002-.003zm-22.92-11.59a15.748 15.748 0 018.23 7.241.81.81 0 00.219.29 15.225 15.225 0 00-4.128 2.853c-.055.053-.102.111-.156.167-.503-3.68-2.573-7.814-4.164-10.552z" fill="#000"/><path d="M14.93 20.87a.834.834 0 10.274 1.646 4.01 4.01 0 01.546-.028 2.492 2.492 0 003.446 3.594c.016.205.042.396.042.617a.834.834 0 001.669 0c0-2.12-.609-3.712-1.81-4.73a5.56 5.56 0 00-4.167-1.098zm2.64 4.16a.834.834 0 110-1.668.834.834 0 010 1.669zm12.514 2.503a.834.834 0 00.835-.834c0-.221.026-.412.041-.617a2.493 2.493 0 003.448-3.593c.183-.003.366.006.548.028a.834.834 0 00.27-1.646 5.565 5.565 0 00-4.166 1.098c-1.2 1.018-1.81 2.61-1.81 4.73 0 .46.373.834.834.834zm2.503-2.502a.834.834 0 110-1.67.834.834 0 010 1.67zM22.109 41.364c.141-.066.293-.108.449-.124.013.07.018.139.018.21a.834.834 0 101.668 0 1.772 1.772 0 00-.775-1.638 2.314 2.314 0 00-2.1.057.834.834 0 00.74 1.495zm4.638.92a.834.834 0 00.834-.835c0-.07.005-.14.018-.209.155.016.307.058.449.123a.834.834 0 00.74-1.494 2.315 2.315 0 00-2.1-.057 1.772 1.772 0 00-.775 1.637c0 .461.373.835.834.835z" fill="#000"/></g><defs><clipPath id="clip0"><path fill="#fff" d="M0 0h50v50H0z"/></clipPath></defs></svg>