<svg width="138" height="26" fill="none" xmlns="http://www.w3.org/2000/svg"><path d="M1.828 7.922v10.156h22.344V7.922H1.828z" fill="#D8EC84"/><path d="M20.11 14.016a1.016 1.016 0 100-2.032 1.016 1.016 0 000 2.032z" fill="#F3EFF0"/><path d="M10.425 18.078h8.669v.072a6.35 6.35 0 01-.992 3.449c-.679 1.05-1.04 2.577-1.04 3.827v.066h-9.14c0-1.279-.602-2.787-1.625-3.555l-.813-.609a4.063 4.063 0 01-1.625-3.25V9.953A3.047 3.047 0 016.906 13v3.047c1.504 0 2.817.817 3.52 2.031z" fill="#FCE8D0"/><path d="M13 9.953c2.243 0 4.063 1.364 4.063 3.047s-1.82 3.047-4.063 3.047c-2.243 0-4.063-1.364-4.063-3.047S10.758 9.953 13 9.953z" fill="#F3EFF0"/><path d="M13 14.016c1.122 0 2.031-.455 2.031-1.016 0-.56-.91-1.016-2.031-1.016-1.122 0-2.031.455-2.031 1.016 0 .56.91 1.016 2.031 1.016z" fill="#D8EC84"/><path d="M17.57 4.57c-.841 0-1.523.682-1.523 1.524V4.062a1.523 1.523 0 10-3.047 0v-2.03a1.523 1.523 0 10-3.047 0v2.03a1.523 1.523 0 10-3.047 0v3.86h12.188V6.094c0-.842-.682-1.524-1.524-1.524z" fill="#FCE8D0"/><path d="M24.172 7.414h-4.57v-1.32a2.034 2.034 0 00-3.047-1.758v-.274a2.034 2.034 0 00-3.047-1.757V2.03c0-1.119-.911-2.03-2.031-2.03S9.445.911 9.445 2.031v.273a2.034 2.034 0 00-3.047 1.758v3.352h-4.57a.508.508 0 00-.508.508v10.156c0 .28.228.508.508.508h1.553a4.597 4.597 0 001.799 3.148l.812.61c.824.618 1.422 1.942 1.422 3.148 0 .28.227.508.508.508h2.285a.508.508 0 000-1.016H8.402c-.127-1.205-.697-2.625-1.8-3.453l-.813-.61a3.572 3.572 0 01-1.422-2.843v-7.566A2.543 2.543 0 016.398 13v3.047c0 .28.228.508.508.508a3.558 3.558 0 013.555 3.554.508.508 0 001.016 0c0-.52-.09-1.036-.262-1.524h7.356a5.767 5.767 0 01-.896 2.738c-.612.947-1.029 2.344-1.107 3.661h-1.79a.508.508 0 000 1.016h2.284c.28 0 .508-.227.508-.508v-.066c0-1.257.376-2.651.958-3.552a6.788 6.788 0 001.06-3.288h4.584c.28 0 .508-.227.508-.508V7.922a.508.508 0 00-.508-.508zM17.57 5.078c.56 0 1.016.456 1.016 1.016v1.32h-2.031v-1.32c0-.56.455-1.016 1.015-1.016zm-3.047-2.031c.56 0 1.016.455 1.016 1.015v3.352h-2.031V4.063c0-.56.455-1.016 1.015-1.016zM10.461 2.03a1.017 1.017 0 012.031 0v5.383h-2.031V2.031zM7.414 4.062a1.017 1.017 0 012.031 0v3.352h-2.03V4.063zm16.25 13.508H10.706a4.594 4.594 0 00-3.292-2.002V13A3.559 3.559 0 003.86 9.445a.508.508 0 00-.507.508v7.617H2.336V8.43h21.328v9.14z" fill="#000"/><path d="M13 9.445c-2.298 0-4.57 1.406-4.57 3.555 0 2.155 2.28 3.555 4.57 3.555 2.298 0 4.57-1.406 4.57-3.555 0-2.155-2.28-3.555-4.57-3.555zm0 6.094c-1.96 0-3.555-1.139-3.555-2.539 0-1.4 1.595-2.54 3.555-2.54 1.96 0 3.555 1.14 3.555 2.54 0 1.4-1.595 2.54-3.555 2.54z" fill="#000"/><path d="M13 11.477c-1.447 0-2.54.655-2.54 1.523 0 .868 1.092 1.523 2.54 1.523 1.447 0 2.54-.655 2.54-1.523 0-.868-1.092-1.523-2.54-1.523zm1.21 1.787c-.31.155-.751.244-1.21.244-.459 0-.9-.09-1.21-.244-.259-.13-.313-.246-.313-.264 0-.018.054-.134.314-.264.31-.155.75-.244 1.209-.244.459 0 .9.09 1.21.244.259.13.313.246.313.264 0 .018-.054.134-.314.264zM18.586 13a1.524 1.524 0 003.047 0 1.524 1.524 0 00-3.047 0zm1.523-.508a.508.508 0 110 1.017.508.508 0 010-1.017zM12.492 26a.508.508 0 100-1.016.508.508 0 000 1.016z" fill="#000"/><path d="M72.244 13A8.122 8.122 0 1156 13a8.123 8.123 0 1116.244 0z" fill="#E2574C"/><path d="M73.876 4.875a8.077 8.077 0 00-4.853 1.62l.006.001c.267.258.56.44.787.736l-1.69.026a8.359 8.359 0 00-.733.86h2.98c.227.273.436.51.626.81h-4.146a8.08 8.08 0 00-.415.81h5.033c.132.279.25.489.35.784h-5.682a7.81 7.81 0 00-.225.86h6.145c.06.28.106.54.138.805h-6.405a8.15 8.15 0 00-.041.813h6.492c0 .287-.02.554-.05.812h-6.401c.027.276.068.546.121.813h6.136a9.558 9.558 0 01-.228.802h-5.7c.086.278.19.548.305.811h5.045c-.14.296-.298.532-.472.81h-4.16c.163.284.344.555.541.815l2.993.045c-.255.306-.583.49-.88.758.015.013-.478-.001-1.449-.017a8.094 8.094 0 005.832 2.475A8.124 8.124 0 0082 13a8.124 8.124 0 00-8.124-8.125z" fill="#F4B459"/><path d="M122.411 9.131l-1.322 7.754h2.114l1.322-7.754h-2.114zm-3.094.009l-2.07 5.288-.22-.799c-.409-.962-1.567-2.343-2.928-3.214l1.893 6.466 2.236-.003 3.328-7.74-2.239.002z" fill="#A6DBFF"/><path d="M116.224 9.695c-.122-.473-.478-.613-.92-.63h-3.277l-.027.154c2.55.619 4.237 2.109 4.937 3.901l-.713-3.425zm12.584.923a3.912 3.912 0 011.582.296l.191.09.285-1.68a5.45 5.45 0 00-1.893-.326c-2.088 0-3.56 1.052-3.571 2.559-.014 1.114 1.048 1.735 1.85 2.107.824.38 1.1.622 1.096.962-.006.519-.656.757-1.264.757-.846 0-1.295-.117-1.989-.406l-.273-.124-.297 1.735c.495.217 1.407.404 2.355.413 2.221 0 3.665-1.039 3.68-2.65.009-.88-.555-1.553-1.776-2.104-.739-.36-1.191-.6-1.187-.963 0-.322.384-.666 1.211-.666zm7.482-1.478h-1.633c-.507 0-.884.138-1.107.643l-3.138 7.107h2.219s.362-.956.444-1.165l2.707.003c.063.27.257 1.162.257 1.162H138l-1.71-7.75zm-2.606 4.998c.174-.445.842-2.167.842-2.167-.012.02.172-.449.281-.74l.143.668.489 2.239h-1.755z" fill="#A6DBFF"/></svg>