<svg width="25" height="24" viewBox="0 0 25 24" fill="none" xmlns="http://www.w3.org/2000/svg">
<g clip-path="url(#clip0)">
<path d="M19.091 9.66295C17.9636 9.04345 17.3169 7.95038 17.3169 6.66403V4.07517C17.6779 4.04545 17.9617 3.74362 17.9617 3.375C17.9617 2.98669 17.6469 2.67188 17.2586 2.67188H17.1649V0.703125C17.1649 0.314812 16.85 0 16.4617 0H13.6492C13.2609 0 12.9461 0.314812 12.9461 0.703125V2.67188H12.8524C12.4641 2.67188 12.1493 2.98669 12.1493 3.375C12.1493 3.74362 12.4331 4.04545 12.7941 4.07517V6.66403C12.7941 7.95033 12.1475 9.04341 11.02 9.66295C9.49672 10.5 8.30112 11.7692 7.55093 13.2695C6.16512 12.19 4.42119 11.6543 2.64626 11.785C2.29869 11.8106 2.02231 12.087 1.99672 12.4346C1.84414 14.505 2.59784 16.5337 4.06451 18.0004C4.18301 18.1189 4.30545 18.2325 4.43117 18.3417C3.00969 18.6923 1.71673 19.4764 0.740561 20.6079C0.512936 20.8717 0.512889 21.2626 0.740561 21.5265C2.09675 23.0985 4.06414 24 6.13836 24C7.27611 24 8.39173 23.7291 9.3949 23.2133C9.6507 23.4475 9.92197 23.6674 10.2085 23.8705C10.3274 23.9547 10.4694 24 10.6151 24H19.496C19.6416 24 19.7837 23.9548 19.9025 23.8705C22.1214 22.2977 23.4461 19.7371 23.4461 17.0209C23.4462 13.9585 21.7774 11.1391 19.091 9.66295ZM14.3524 1.40625H15.7587V2.67188H14.3524V1.40625ZM11.6973 10.8954C12.4721 10.4696 13.1096 9.85917 13.5409 9.12998C13.9723 8.40075 14.2004 7.548 14.2004 6.66403V4.07934H15.9107V6.66398C15.9107 7.548 16.1387 8.40075 16.5701 9.12994C17.0015 9.85913 17.639 10.4696 18.4138 10.8953C19.7996 11.6569 20.8597 12.8479 21.4661 14.25H8.645C9.25133 12.8479 10.3115 11.6569 11.6973 10.8954ZM3.38769 13.1759C4.72733 13.2262 6.00917 13.745 7.0084 14.6483C6.78425 15.4082 6.6649 16.2058 6.6649 17.0209C6.6649 17.4045 6.69228 17.7849 6.74389 18.16C6.7324 18.159 6.72087 18.1585 6.70939 18.1575C6.09959 17.8764 5.54084 17.4879 5.05892 17.006C4.03292 15.98 3.44159 14.6111 3.38769 13.1759ZM2.24834 21.0672C3.30125 20.0905 4.68734 19.5407 6.13831 19.5407C6.45458 19.5407 6.76972 19.567 7.07951 19.6182C7.37483 20.5227 7.82126 21.3724 8.40064 22.1284C7.69025 22.4342 6.92094 22.5938 6.13826 22.5938C4.68734 22.5938 3.30125 22.0439 2.24834 21.0672ZM19.2661 22.5938H10.8449C9.10395 21.2758 8.07115 19.209 8.07115 17.0209C8.07115 16.5575 8.11765 16.1009 8.2062 15.6563H21.9048C21.9934 16.1009 22.0399 16.5575 22.0399 17.0209C22.0399 19.209 21.0071 21.2758 19.2661 22.5938Z" fill="#64552A"/>
</g>
<defs>
<clipPath id="clip0">
<rect width="24" height="24" fill="white" transform="translate(0.00830078)"/>
</clipPath>
</defs>
</svg>
