<svg width="24" height="24" viewBox="0 0 24 24" fill="none" xmlns="http://www.w3.org/2000/svg">
<g clip-path="url(#clip0)">
<path d="M7.73564 5.71698C8.00962 5.99308 8.4548 5.99387 8.73 5.72078C9.00563 5.44726 9.00736 5.00205 8.7338 4.72642C8.55736 4.54867 8.23162 3.99034 8.74641 3.44495C9.64542 2.53347 9.61294 1.09764 8.74481 0.219109C8.47261 -0.0676252 8.01755 -0.0739064 7.73765 0.205984C7.46034 0.483297 7.46512 0.929828 7.73915 1.20217C7.86169 1.32391 8.28356 1.87745 7.72012 2.48327C6.83662 3.39044 6.85406 4.82866 7.73564 5.71698Z" fill="#5E4426"/>
<path d="M11.5013 5.71698C11.7753 5.99308 12.2204 5.99387 12.4956 5.72078C12.7713 5.44726 12.773 5.00205 12.4994 4.72642C12.323 4.54867 11.9973 3.99034 12.512 3.44495C13.4111 2.53347 13.3786 1.09764 12.5104 0.219109C12.2382 -0.0676252 11.7832 -0.0739064 11.5033 0.205984C11.226 0.483297 11.2307 0.929828 11.5048 1.20217C11.6273 1.32391 12.0492 1.87745 11.4858 2.48327C10.6022 3.39044 10.6197 4.82866 11.5013 5.71698Z" fill="#5E4426"/>
<path d="M15.2669 5.71698C15.5409 5.99308 15.986 5.99387 16.2612 5.72078C16.5369 5.44726 16.5386 5.00205 16.265 4.72642C16.0886 4.54867 15.7629 3.99034 16.2777 3.44495C17.1767 2.53347 17.1442 1.09764 16.2761 0.219109C16.0039 -0.0676252 15.5488 -0.0739064 15.2689 0.205984C14.9916 0.483297 14.9964 0.929828 15.2704 1.20217C15.3929 1.32391 15.8148 1.87745 15.2514 2.48327C14.3679 3.39044 14.3853 4.82866 15.2669 5.71698Z" fill="#5E4426"/>
<path d="M22.0965 15.1548C20.9857 11.3038 17.3566 7.53149 12 7.53149C6.89681 7.53149 3.07931 11.0559 1.90673 15.1539C0.809391 15.453 0 16.4578 0 17.6487C0 18.7981 0.754125 19.7744 1.79344 20.1099C2.21306 20.5294 4.15341 22.4691 5.03728 23.3534C5.44837 23.7645 6.018 24.0002 6.60009 24.0002H17.4037C17.9919 24.0002 18.5456 23.7705 18.9629 23.3533C19.8466 22.4691 21.7869 20.5294 22.2066 20.1099C23.2459 19.7744 24 18.7982 24 17.6487C24 16.459 23.1922 15.455 22.0965 15.1548ZM12 8.93774C16.0621 8.93774 19.3819 11.5695 20.5944 15.0628H3.4087C4.62145 11.5613 7.95033 8.93774 12 8.93774ZM17.9684 22.359C17.8169 22.5105 17.6163 22.594 17.4037 22.594H6.60009C6.38817 22.594 6.18098 22.5083 6.03173 22.3591C5.51358 21.8407 4.63233 20.9596 3.90722 20.2346H20.0928C19.3677 20.9596 18.4865 21.8407 17.9684 22.359ZM21.414 18.8284H2.58595C1.93547 18.8284 1.40625 18.2992 1.40625 17.6487C1.40625 16.9982 1.93547 16.469 2.58595 16.469H21.4141C22.0646 16.469 22.5938 16.9982 22.5938 17.6487C22.5938 18.2992 22.0645 18.8284 21.414 18.8284Z" fill="#5E4426"/>
<path d="M12 10.9204C11.6117 10.9204 11.2969 11.2352 11.2969 11.6235V12.7532C11.2969 13.1415 11.6117 13.4564 12 13.4564C12.3883 13.4564 12.7031 13.1415 12.7031 12.7532V11.6235C12.7031 11.2352 12.3883 10.9204 12 10.9204Z" fill="#5E4426"/>
<path d="M8.49033 11.1261L7.73719 11.8792C7.4626 12.1538 7.4626 12.599 7.73719 12.8736C8.01174 13.1481 8.45687 13.1482 8.73155 12.8736L9.48469 12.1205C9.75928 11.8459 9.75928 11.4007 9.48469 11.1261C9.21015 10.8515 8.76493 10.8515 8.49033 11.1261Z" fill="#5E4426"/>
<path d="M15.5098 11.1261C15.2352 10.8515 14.7901 10.8515 14.5155 11.1261C14.2409 11.4007 14.2409 11.8459 14.5155 12.1205L15.2686 12.8736C15.5432 13.1481 15.9883 13.1482 16.263 12.8736C16.5375 12.599 16.5375 12.1538 16.263 11.8792L15.5098 11.1261Z" fill="#5E4426"/>
</g>
<defs>
<clipPath id="clip0">
<rect width="24" height="24" fill="white"/>
</clipPath>
</defs>
</svg>
