<svg width="24" height="24" viewBox="0 0 24 24" fill="none" xmlns="http://www.w3.org/2000/svg">
<path d="M13.4062 8.4375C13.7946 8.4375 14.1094 8.1227 14.1094 7.73438C14.1094 7.34605 13.7946 7.03125 13.4062 7.03125C13.0179 7.03125 12.7031 7.34605 12.7031 7.73438C12.7031 8.1227 13.0179 8.4375 13.4062 8.4375Z" fill="#26425F"/>
<path d="M11.2969 4.92188C11.6852 4.92188 12 4.60708 12 4.21875C12 3.83042 11.6852 3.51562 11.2969 3.51562C10.9085 3.51562 10.5938 3.83042 10.5938 4.21875C10.5938 4.60708 10.9085 4.92188 11.2969 4.92188Z" fill="#26425F"/>
<path d="M9.1875 8.4375C9.57583 8.4375 9.89062 8.1227 9.89062 7.73438C9.89062 7.34605 9.57583 7.03125 9.1875 7.03125C8.79917 7.03125 8.48438 7.34605 8.48438 7.73438C8.48438 8.1227 8.79917 8.4375 9.1875 8.4375Z" fill="#26425F"/>
<path d="M23.3117 11.2442C23.7578 10.584 24 9.88767 24 9.1875C24 7.62473 22.9558 6.13013 21.0596 4.97911C19.3773 3.95789 17.0902 3.24441 14.5933 2.95828L14.2855 2.59106C13.8471 2.0678 13.3136 1.63711 12.721 1.32098C11.9632 0.916781 11.106 0.703125 10.2422 0.703125C8.09822 0.703125 6.24919 1.98928 5.42559 3.83053C5.41509 3.83414 5.40488 3.83798 5.39437 3.84159C4.66823 2.96808 4.26562 1.86886 4.26562 0.703125C4.26562 0.314812 3.95081 0 3.5625 0C3.17419 0 2.85938 0.314812 2.85938 0.703125C2.85938 2.05022 3.27731 3.32822 4.0395 4.38844C3.11672 4.82025 2.31886 5.32917 1.68605 5.89495C0.583031 6.88106 0 8.01961 0 9.1875C0 9.90877 0.225328 10.6193 0.659719 11.2869C0.221906 11.9602 0 12.671 0 13.4062C0 14.1321 0.224391 14.8412 0.658266 15.5078C0.221391 16.1805 0 16.8906 0 17.625C0 21.3303 5.61056 24 12 24C18.4125 24 24 21.3184 24 17.625C24 16.8917 23.7794 16.1827 23.3438 15.511C23.777 14.8456 24 14.137 24 13.4062C24 12.6554 23.7682 11.9302 23.3117 11.2442ZM10.2422 2.10938C11.3895 2.10938 12.4707 2.61469 13.2076 3.4942L13.2077 3.49425L16.5941 7.53502L16.5942 7.53506C16.8055 7.7872 16.9219 8.10769 16.9219 8.4375C16.9219 9.21291 16.291 9.84375 15.5156 9.84375H10.2422C8.1098 9.84375 6.375 8.10895 6.375 5.97656C6.375 3.84417 8.1098 2.10938 10.2422 2.10938ZM12 22.5938C6.01059 22.5938 1.40625 20.1517 1.40625 17.625C1.40625 17.2923 1.4842 16.9608 1.63762 16.6337C1.71839 16.7063 1.80173 16.7782 1.88822 16.8492C2.94534 17.7163 4.40972 18.4363 6.13378 18.94C6.52064 19.4237 7.1152 19.7344 7.78125 19.7344C8.12742 19.7344 8.45409 19.65 8.74261 19.5016C10.0602 19.6938 11.4289 19.7682 12.8191 19.7198C13.1053 20.5457 13.8905 21.1406 14.8125 21.1406C15.9221 21.1406 16.8337 20.2793 16.9153 19.1902C18.8243 18.7454 20.9128 17.9395 22.3636 16.6363C22.5162 16.9626 22.5938 17.2932 22.5938 17.625C22.5938 20.1353 18.0252 22.5938 12 22.5938ZM1.40625 13.4062C1.40625 13.0725 1.48472 12.74 1.63908 12.4118C2.52783 13.2101 3.76589 13.9065 5.23238 14.4302C5.49525 14.5241 5.67188 14.7851 5.67188 15.0798V17.3129C3.04697 16.3704 1.40625 14.8945 1.40625 13.4062ZM9.80555 18.2168C9.86058 18.0289 9.89062 17.8305 9.89062 17.625V16.173C9.89062 15.7682 10.2292 15.4519 10.639 15.4761C11.0874 15.5023 11.5454 15.5156 12.0002 15.5156C12.3878 15.5156 12.7031 15.831 12.7031 16.2188V18.3167C11.7381 18.3474 10.7739 18.3158 9.80555 18.2168ZM20.8926 16.0164C19.8784 16.7479 18.5175 17.3377 16.9219 17.7416V15.5143C16.9219 15.1984 17.1353 14.9198 17.4408 14.8366C19.4846 14.2807 21.1788 13.3981 22.3332 12.3534C22.5064 12.7005 22.5938 13.0527 22.5938 13.4062C22.5938 14.5493 21.6686 15.4566 20.8926 16.0164ZM17.0717 13.4797C16.1555 13.7289 15.5156 14.5656 15.5156 15.5143C15.5156 17.3937 15.5156 18.2941 15.5156 18.6921C15.5156 18.903 15.5156 18.973 15.5156 18.9724C15.5156 18.9909 15.5156 19.0105 15.5156 19.0312C15.5156 19.4189 15.2002 19.7343 14.8125 19.7343C14.4248 19.7343 14.1094 19.4189 14.1094 19.0312V16.2187C14.1094 15.0556 13.1632 14.1093 12 14.1093C11.5726 14.1093 11.1423 14.0969 10.7211 14.0722C9.53273 14.0029 8.48438 14.9318 8.48438 16.173V17.625C8.48438 18.0127 8.16895 18.3281 7.78125 18.3281C7.39355 18.3281 7.07812 18.0127 7.07812 17.625V15.0798C7.07812 14.1923 6.52641 13.3991 5.7053 13.1059C3.83784 12.439 1.40625 11.0592 1.40625 9.1875C1.40625 8.23195 2.06808 7.43967 2.62327 6.94336C3.23358 6.39773 4.03955 5.90925 4.99022 5.50313C4.97625 5.65917 4.96875 5.817 4.96875 5.97656C4.96875 8.88436 7.33439 11.25 10.2422 11.25H15.5156C17.0664 11.25 18.3281 9.98831 18.3281 8.4375C18.3281 7.77787 18.0951 7.13658 17.6719 6.63178L17.6381 6.59147C17.638 6.59133 17.6379 6.59119 17.6378 6.59105L15.9629 4.59258C17.6499 4.92558 19.161 5.47167 20.3298 6.18122C21.7898 7.06739 22.5938 8.13506 22.5938 9.1875C22.5938 10.8042 20.2714 12.6093 17.0717 13.4797Z" fill="#26425F"/>
</svg>
