<svg width="24" height="24" viewBox="0 0 24 24" fill="none" xmlns="http://www.w3.org/2000/svg">
<path d="M8.18964 1.56289C8.63664 1.10209 9.14424 0.749886 9.77364 0.592686C10.925 0.304686 11.918 0.602884 12.767 1.40748C12.896 1.52748 12.983 1.54788 13.1468 1.48128C14.759 0.827883 16.5038 1.54549 17.1926 3.14569C17.2622 3.30769 17.3354 3.36469 17.516 3.36709C19.265 3.38929 20.615 4.73749 20.636 6.48049C20.636 6.65389 20.6816 6.73789 20.8496 6.81109C22.475 7.52209 23.174 9.23688 22.511 10.8791C22.451 11.0339 22.475 11.1191 22.5902 11.2319C23.8304 12.4847 23.8322 14.4023 22.5902 15.6533C22.4594 15.7847 22.4594 15.8753 22.5236 16.0331C23.174 17.6291 22.4636 19.3655 20.8772 20.0609C20.6918 20.1425 20.6372 20.2337 20.633 20.4353C20.629 20.8496 20.5424 21.2591 20.3784 21.6396C20.2144 22.0201 19.9762 22.3642 19.6778 22.6517C19.3793 22.9392 19.0266 23.1643 18.6402 23.314C18.2538 23.4637 17.8415 23.5349 17.4272 23.5235C16.6472 23.5013 15.9398 23.2343 15.38 22.6745C10.6908 17.9889 6.00604 13.2981 1.32564 8.60209C0.464043 7.73449 0.263043 6.63348 0.665643 5.47368C1.07304 4.30428 1.91184 3.59209 3.14784 3.42829C3.60384 3.36829 3.88344 3.25428 4.12344 2.79528C4.82784 1.44828 6.48204 0.898685 7.90884 1.44588C8.00184 1.48068 8.09124 1.52149 8.18964 1.56289ZM3.73764 4.71709C3.03324 4.69849 2.51364 4.94868 2.14524 5.47968C1.60824 6.25368 1.73004 7.14648 2.46504 7.87968C6.67184 12.0893 10.8792 16.2975 15.0872 20.5043C15.5324 20.9495 15.9632 21.4145 16.4474 21.8135C17.2274 22.4591 18.4274 22.2419 18.9896 21.3965C19.2944 20.9375 19.3586 20.4431 19.2218 19.9139C19.0928 19.4165 19.3346 19.0319 19.8098 18.9689C21.272 18.7745 21.899 17.2961 21.0314 16.0889C20.7164 15.6497 20.7752 15.2711 21.236 15.0125C22.4894 14.3099 22.5002 12.5825 21.236 11.8667C21.0608 11.7677 20.8706 11.5211 20.8658 11.3381C20.8604 11.1089 21.0098 10.8581 21.1436 10.6469C21.8402 9.55548 21.1802 8.07589 19.9202 7.91989C19.307 7.84549 19.0994 7.53049 19.235 6.93289C19.3808 6.29029 19.2554 5.71009 18.773 5.22949C18.2906 4.74889 17.7002 4.61988 17.0402 4.78128C16.5386 4.90128 16.1234 4.67748 16.0916 4.20528C16.0028 2.89548 14.4542 2.02849 13.2116 2.96569C12.758 3.30829 12.4148 3.22429 12.1046 2.72569C11.3576 1.52029 9.76824 1.51788 9.02364 2.72088C8.70444 3.23748 8.38044 3.31068 7.89324 2.95369C6.64824 2.03989 5.12364 2.90509 5.03244 4.19989C5.00184 4.63369 4.64124 4.87908 4.20744 4.80528C4.03284 4.77288 3.85764 4.73989 3.73764 4.71709Z" fill="#5C753D"/>
<path d="M10.8936 6.12946C8.99162 6.10546 7.36443 6.78946 5.98623 8.09026C5.55483 8.49646 5.02623 8.39386 4.83903 7.87006C4.73403 7.57726 4.84803 7.35166 5.05443 7.14706C6.08823 6.12166 7.30563 5.39506 8.71442 5.05246C12.123 4.22506 15.0144 5.14246 17.3262 7.77646C18.3462 8.94286 18.939 10.3385 19.1484 11.8865C19.5174 14.6087 18.7458 16.9601 16.8588 18.9466C16.4388 19.387 15.8442 19.2544 15.687 18.6994C15.6114 18.4306 15.723 18.2194 15.9066 18.0262C16.6866 17.206 17.2812 16.2742 17.5926 15.1799C18.267 12.8063 17.8806 10.6265 16.338 8.68666C15.1602 7.20526 13.593 6.38986 11.73 6.13486C11.46 6.09766 11.1732 6.12946 10.8936 6.12946Z" fill="#5C753D"/>
</svg>
