<svg width="24" height="24" viewBox="0 0 24 24" fill="none" xmlns="http://www.w3.org/2000/svg">
<g clip-path="url(#clip0)">
<path d="M2.27571 17.9442C2.03329 17.1563 1.75086 16.4006 1.56783 15.6242C1.11632 13.7127 1.04238 11.7945 1.71026 9.91147C2.20298 8.52299 3.05632 7.44359 4.50662 6.95086C5.64904 6.56238 6.7442 6.70844 7.79086 7.29026C7.85147 7.3242 7.91208 7.36359 7.97268 7.39571C7.98662 7.40299 8.01026 7.39208 8.0648 7.3848C8.0648 7.04056 8.07511 6.69087 8.0545 6.34299C8.05086 6.28238 7.91814 6.19753 7.83571 6.18541C6.93086 6.05269 6.06541 5.81632 5.31147 5.27026C4.41389 4.62056 3.9442 3.70056 3.71874 2.65026C3.62031 2.15686 3.56294 1.65616 3.54723 1.15329C3.5248 0.675714 3.81511 0.365411 4.2745 0.372684C5.47996 0.390259 6.63814 0.610255 7.63874 1.33813C8.28541 1.80662 8.71389 2.44238 8.98844 3.15086C9.37874 2.91753 9.74541 2.64299 10.1551 2.47087C10.5187 2.31753 10.9254 2.24723 11.3206 2.1951C11.4159 2.18019 11.5132 2.18516 11.6065 2.20971C11.6997 2.23426 11.7869 2.27785 11.8625 2.33774C11.9381 2.39763 12.0005 2.47252 12.0458 2.55771C12.091 2.64289 12.1181 2.73651 12.1254 2.83268C12.1521 3.20298 11.8521 3.49389 11.4084 3.52056C10.0884 3.59995 9.33571 4.70541 9.3945 5.65935C9.42965 6.23208 9.40056 6.81087 9.40056 7.41087C9.45144 7.39672 9.5011 7.37848 9.54904 7.35632C11.549 6.20177 13.7915 6.71087 15.0897 8.62481C15.7018 9.52541 16.0042 10.5394 16.1278 11.609C16.2908 13.0235 16.1908 14.4559 15.8327 15.8339C15.8276 15.8831 15.8276 15.9326 15.8327 15.9818C16.8145 16.2175 17.6412 16.7169 18.2503 17.5745C18.9848 17.2412 19.7109 16.9036 20.443 16.5812C21.7157 16.0218 23.1163 16.683 23.4909 18.0066C23.6442 18.5345 23.5849 19.1014 23.3254 19.586C23.2509 19.7321 23.2606 19.8284 23.329 19.9654C23.4845 20.2713 23.5664 20.6093 23.5681 20.9525C23.5698 21.2957 23.4913 21.6345 23.3389 21.9419C23.1865 22.2494 22.9644 22.517 22.6903 22.7234C22.4161 22.9298 22.0976 23.0694 21.76 23.1309C21.2898 23.2157 20.8048 23.1482 20.3757 22.9381C19.7406 22.6351 19.0969 22.3539 18.4581 22.0606C18.3309 22 18.2454 21.9751 18.1297 22.1212C17.1909 23.3024 15.9393 23.7139 14.466 23.62C12.3212 23.483 10.2351 22.9842 8.12662 22.626C6.25571 22.3078 4.38723 21.9721 2.51995 21.6333C1.9745 21.5339 1.39389 21.5121 0.944196 21.1054C0.401772 20.6127 0.201166 20.0072 0.392681 19.3054C0.574499 18.6387 1.02965 18.2272 1.70238 18.0636C1.90298 18.0133 2.10844 17.9781 2.27571 17.9442ZM3.73026 17.6969L6.11632 17.2727C7.64905 16.9981 9.17814 16.7078 10.7139 16.4533C11.8836 16.2593 13.0593 16.1036 14.2351 15.9515C14.4303 15.9266 14.4539 15.8254 14.4903 15.6878C14.8224 14.4193 14.946 13.1351 14.803 11.8272C14.706 10.9448 14.4757 10.1084 13.969 9.37086C13.3024 8.39753 12.3933 7.93571 11.1963 8.12238C10.6939 8.20056 10.2824 8.46117 9.88238 8.75935C9.38723 9.12784 8.81874 9.26783 8.22783 9.07571C7.89268 8.96662 7.57874 8.7642 7.2842 8.56117C6.24117 7.83996 4.90056 7.92177 3.97692 8.78056C3.07389 9.61996 2.75814 10.72 2.61632 11.8878C2.4745 13.0557 2.59753 14.2006 2.85874 15.3369C3.03572 16.1614 3.33024 16.9562 3.73329 17.6969H3.73026ZM12.1297 17.5569C11.2339 17.7139 10.3836 17.86 9.53632 18.02C9.47571 18.0309 9.41026 18.16 9.40359 18.2393C9.3842 18.4496 9.40905 18.6636 9.39268 18.8745C9.36056 19.2836 9.06359 19.5412 8.66541 19.5187C8.30177 19.4994 8.06662 19.2333 8.05935 18.8296C8.05935 18.6606 8.05935 18.4915 8.05935 18.3018C7.94601 18.3103 7.86602 18.3084 7.78905 18.3224C7.04844 18.4557 6.30844 18.5945 5.56723 18.726C4.40056 18.9327 3.23268 19.1339 2.06602 19.3412C1.83632 19.3824 1.65753 19.5181 1.65571 19.7575C1.65389 19.9969 1.81208 20.1478 2.07086 20.1909C2.7345 20.3018 3.39511 20.4272 4.05753 20.5472L5.76359 20.8575C5.76359 20.7024 5.75632 20.5824 5.76359 20.4636C5.79207 20.0672 6.11147 19.7636 6.47086 19.7848C6.85086 19.8066 7.08965 20.0763 7.09632 20.4957C7.09935 20.686 7.09632 20.8763 7.09632 21.0921L9.87693 21.5921C9.87693 21.246 9.86723 20.9351 9.87693 20.6224C9.88175 20.5221 9.91013 20.4245 9.95975 20.3372C10.0094 20.25 10.0789 20.1757 10.1625 20.1203C10.2462 20.065 10.3418 20.0301 10.4415 20.0186C10.5412 20.007 10.6422 20.0191 10.7363 20.0539C11.0842 20.18 11.206 20.4097 11.2084 20.9333C11.2084 21.2151 11.1115 21.586 11.2527 21.7545C11.4006 21.9321 11.7775 21.9363 12.0594 21.9806C12.6715 22.0836 13.2866 22.1672 13.9381 22.2642C13.9381 21.8709 13.9284 21.52 13.9381 21.1691C13.9527 20.7369 14.2412 20.4654 14.6497 20.4794C15.029 20.4921 15.2672 20.7593 15.2709 21.1824C15.2709 21.5327 15.2709 21.883 15.2709 22.2345C15.3077 22.2446 15.3455 22.2513 15.3836 22.2545C16.4581 22.1769 17.4878 21.1375 17.5654 20.0503C17.6606 18.76 16.8721 17.5509 15.6866 17.3539C15.0024 17.24 14.2836 17.329 13.5806 17.343C13.5351 17.343 13.4593 17.4824 13.4545 17.5587C13.4424 17.983 13.4545 18.4072 13.446 18.8315C13.4471 18.9512 13.4221 19.0697 13.3727 19.1787C13.2333 19.4539 12.9375 19.5751 12.6284 19.5084C12.349 19.4478 12.126 19.1721 12.1163 18.8387C12.1236 18.4284 12.1327 18.0157 12.1327 17.5569H12.1297ZM7.9842 4.83995C8.10541 3.26783 6.35147 1.53268 4.93268 1.79511C5.12783 3.69147 6.09268 4.62844 7.9842 4.83995ZM18.8242 18.7793C18.8697 19.103 18.9103 19.3951 18.9533 19.7006C19.8321 19.6133 20.6939 19.5509 21.5478 19.4339C22.0327 19.3678 22.3254 18.8466 22.2018 18.3897C22.0648 17.886 21.5818 17.5781 21.1224 17.7636C20.3448 18.0769 19.5842 18.4381 18.8242 18.7775V18.7793ZM19.4787 21L19.466 21.0606C19.9951 21.2975 20.5187 21.5454 21.0551 21.7678C21.4018 21.9097 21.7297 21.8315 21.9945 21.5587C22.2369 21.309 22.2884 20.983 22.1636 20.7103L19.4787 21Z" fill="#295826"/>
</g>
<defs>
<clipPath id="clip0">
<rect width="23.8182" height="24" fill="white" transform="translate(0.00830078)"/>
</clipPath>
</defs>
</svg>
