<svg width="24" height="24" viewBox="0 0 24 24" fill="none" xmlns="http://www.w3.org/2000/svg">
<g clip-path="url(#clip0)">
<path d="M22.8026 5.06823C21.6287 3.06541 19.7452 1.63966 17.4989 1.05358C15.2526 0.46736 12.9126 0.791125 10.9099 1.96502C7.81812 3.77711 4.54174 7.29691 2.35919 11.1507C-0.0266497 15.3636 -0.637712 19.0717 0.682569 21.3243C1.20326 22.2127 2.03871 22.8452 3.03513 23.1051C3.35955 23.1898 3.68833 23.2316 4.01496 23.2316C4.69146 23.2316 5.35873 23.052 5.95779 22.7009C6.50144 22.3823 7.11869 21.6242 7.23687 21.4755C7.24872 21.4607 7.25997 21.4452 7.27062 21.4293C8.85016 19.0719 12.4722 18.4435 15.8102 18.1409C17.1713 18.0625 18.5158 17.6547 19.6994 16.9609C21.7023 15.787 23.128 13.9036 23.7141 11.6573C24.3002 9.41102 23.9765 7.07097 22.8026 5.06823ZM22.352 11.3019C21.8608 13.1844 20.6659 14.7628 18.9876 15.7466C17.9781 16.3382 16.8785 16.6712 15.719 16.7362C15.711 16.7367 15.7031 16.7372 15.695 16.738C12.0341 17.0691 8.03594 17.7896 6.11847 20.6203C5.88776 20.9066 5.47638 21.3515 5.24604 21.4865C4.68204 21.8171 4.02297 21.9083 3.39044 21.7433C2.75787 21.5782 2.22738 21.1767 1.89687 20.6126C0.852772 18.8312 1.48343 15.5534 3.58394 11.8443C5.65141 8.19362 8.73129 4.87337 11.6216 3.17931C13.3001 2.1955 15.2611 1.92428 17.1435 2.41544C19.026 2.90669 20.6044 4.10153 21.5882 5.77994C22.5721 7.45839 22.8433 9.41945 22.352 11.3019Z" fill="#602727"/>
<path d="M20.4339 6.45651C19.6319 5.08833 18.3432 4.11384 16.805 3.7125C15.2669 3.31115 13.6663 3.53165 12.2982 4.33359C9.64021 5.89148 6.67667 9.09848 4.74819 12.5037C3.80516 14.1689 3.16189 15.7776 2.888 17.1556C2.7493 17.8534 2.58608 19.1424 3.05117 19.9357C3.25527 20.2841 3.62352 20.4847 4.00799 20.4847C4.13591 20.4847 4.26571 20.4625 4.39171 20.4161C4.48156 20.383 4.56364 20.3319 4.63311 20.266C4.74308 20.1616 4.89716 19.9953 5.02569 19.8423C5.03924 19.8261 5.05208 19.8094 5.06413 19.7921C5.708 18.8681 6.5781 18.081 7.65027 17.4525C10.0158 16.066 12.9836 15.6396 15.5738 15.4053L15.6441 15.4002C16.5893 15.3472 17.4867 15.0754 18.311 14.5922C21.1393 12.9344 22.0916 9.28481 20.4339 6.45651ZM17.5992 13.3778C16.9695 13.7468 16.2853 13.9545 15.5642 13.9948L15.5173 13.9976C15.51 13.998 15.5027 13.9986 15.4954 13.9992L15.4478 14.0034C12.7018 14.2517 9.54327 14.7114 6.93842 16.2382C5.81914 16.8942 4.88441 17.7052 4.15466 18.6525C4.14191 18.3473 4.16797 17.936 4.26852 17.43C4.51358 16.1972 5.10294 14.7336 5.97294 13.1972C7.78808 9.99215 10.5503 6.98953 13.0099 5.54789C13.7131 5.13576 14.4969 4.92497 15.2927 4.92497C15.6781 4.92497 16.0664 4.97442 16.4496 5.07445C17.6239 5.38087 18.6076 6.12445 19.2194 7.16826C20.4848 9.32695 19.7578 12.1125 17.5992 13.3778Z" fill="#602727"/>
<path d="M16.883 8.32562C16.3193 7.36384 15.0783 7.04007 14.1167 7.60379C13.1549 8.16742 12.8311 9.40843 13.3947 10.3703C13.6677 10.8361 14.1059 11.1678 14.6284 11.3041C14.7985 11.3485 14.971 11.3704 15.1422 11.3704C15.4971 11.3704 15.847 11.2762 16.1612 11.092C16.6271 10.819 16.9587 10.3809 17.0951 9.85834C17.2314 9.33577 17.1561 8.79151 16.883 8.32562ZM15.7331 9.50298C15.6917 9.6617 15.5909 9.79482 15.4494 9.87774C15.3078 9.96071 15.1424 9.98359 14.9838 9.9421C14.825 9.90067 14.6919 9.79998 14.609 9.65846C14.4378 9.36624 14.5362 8.98927 14.8283 8.81804C14.9257 8.76099 15.0325 8.73385 15.1379 8.73385C15.3489 8.73385 15.5545 8.84246 15.6687 9.03732C15.7517 9.17888 15.7745 9.34421 15.7331 9.50298Z" fill="#602727"/>
</g>
<defs>
<clipPath id="clip0">
<rect width="24" height="24" fill="white" transform="translate(-0.000732422)"/>
</clipPath>
</defs>
</svg>
