<svg width="24" height="24" viewBox="0 0 24 24" fill="none" xmlns="http://www.w3.org/2000/svg">
<g clip-path="url(#clip0)">
<path d="M18.9006 13.631C18.7675 13.4835 18.578 13.3993 18.3793 13.3993H16.5525V10.3507C16.5525 9.48628 16.3458 8.61802 15.9548 7.8398L14.0144 3.97828C14.5224 3.63239 14.8567 3.0495 14.8567 2.38992V1.92042C14.8567 0.861516 13.9952 0 12.9363 0H8.53312C7.47421 0 6.61274 0.861516 6.61274 1.92042V2.38997C6.61274 3.04959 6.9471 3.63244 7.45513 3.97833L5.51465 7.83989C5.12366 8.61806 4.91699 9.48633 4.91699 10.3508V19.8098C4.91699 22.1203 6.8646 24 9.2586 24L17.4426 23.9804C17.803 23.9804 18.1049 23.7077 18.1416 23.3492L19.0783 14.1732C19.0984 13.9755 19.0339 13.7785 18.9006 13.631ZM17.415 16.6299C16.923 16.6748 16.6078 16.7825 16.3224 16.8803C16.0028 16.9899 15.7503 17.0765 15.1846 17.0765C14.6189 17.0765 14.3664 16.9899 14.0467 16.8803C13.7839 16.7902 13.4955 16.6918 13.0671 16.6417L12.8796 14.8044H17.6014L17.415 16.6299ZM12.6086 4.3103L13.948 6.97575C13.322 6.96862 13.0282 6.83466 12.6603 6.66577C12.2122 6.46012 11.7044 6.22702 10.7345 6.22702C9.76462 6.22702 9.25677 6.46012 8.80874 6.66577C8.44087 6.83461 8.1472 6.96858 7.52132 6.97575L8.86077 4.3103H12.6086ZM8.01782 1.92042C8.01782 1.63627 8.24896 1.40513 8.53312 1.40513H12.9363C13.2204 1.40513 13.4516 1.63627 13.4516 1.92042V2.38997C13.4516 2.67412 13.2205 2.90522 12.9363 2.90522H8.53312C8.24901 2.90522 8.01782 2.67412 8.01782 2.38997V1.92042ZM9.25856 22.5949C7.63935 22.5949 6.32207 21.3455 6.32207 19.8098V10.3507C6.32207 9.70425 6.47704 9.05414 6.77015 8.47073L6.83427 8.34319C7.03279 8.36897 7.24204 8.38153 7.4692 8.38153C8.43909 8.38153 8.94693 8.14847 9.39496 7.94283C9.77315 7.76925 10.0718 7.63219 10.7346 7.63219C11.3975 7.63219 11.6961 7.76925 12.0743 7.94283C12.5224 8.14847 13.0302 8.38153 14.0001 8.38153C14.2274 8.38153 14.4367 8.36897 14.6353 8.34314L14.6993 8.47069C14.9925 9.05414 15.1475 9.7042 15.1475 10.3507V13.3993H12.1016C11.9028 13.3993 11.7134 13.4835 11.5802 13.631C11.447 13.7785 11.3825 13.9755 11.4026 14.1732L12.2622 22.5937C12.2451 22.594 12.228 22.5949 12.2109 22.5949H9.25856V22.5949ZM13.6728 22.5753L13.2152 18.0931C13.3459 18.1255 13.4631 18.1656 13.5909 18.2094C13.9629 18.337 14.3846 18.4816 15.1846 18.4816C15.9846 18.4816 16.4062 18.337 16.7783 18.2094C16.9421 18.1532 17.0885 18.1032 17.2682 18.0677L16.8081 22.5753H13.6728V22.5753Z" fill="#1C4B54"/>
</g>
<defs>
<clipPath id="clip0">
<rect width="24" height="24" fill="white" transform="translate(-0.000488281)"/>
</clipPath>
</defs>
</svg>
