<svg width="25" height="26" viewBox="0 0 25 26" fill="none" xmlns="http://www.w3.org/2000/svg">
<g clip-path="url(#clip0)">
<path d="M19.3175 9.38386L18.0665 1.4606C18.0091 1.09707 17.6958 0.829346 17.3278 0.829346H7.67217C7.3042 0.829346 6.99082 1.09707 6.93349 1.4606L5.68246 9.3839C5.36723 11.3806 5.93959 13.4072 7.25278 14.9441C8.40273 16.2898 10.0123 17.133 11.7522 17.3218V24.3337H8.45664C8.0436 24.3337 7.70879 24.6685 7.70879 25.0815C7.70879 25.4946 8.0436 25.8294 8.45664 25.8294H16.5434C16.9564 25.8294 17.2912 25.4945 17.2912 25.0815C17.2912 24.6686 16.9564 24.3337 16.5434 24.3337H13.2478V17.3218C14.9876 17.1329 16.5972 16.2898 17.7472 14.944C19.0604 13.4072 19.6327 11.3806 19.3175 9.38386ZM8.31118 2.32505H16.6887L17.3336 6.40929H7.66636L8.31118 2.32505ZM16.6101 13.9724C15.5814 15.1762 14.0834 15.8666 12.5 15.8666C10.9167 15.8666 9.41856 15.1762 8.38989 13.9724C7.36123 12.7686 6.91294 11.1812 7.15986 9.61711L7.43017 7.90499H17.5697L17.8401 9.61711C18.087 11.1812 17.6387 12.7686 16.6101 13.9724Z" fill="#4A3888"/>
</g>
<defs>
<clipPath id="clip0">
<rect width="25" height="25" fill="white" transform="translate(0 0.829346)"/>
</clipPath>
</defs>
</svg>
