<svg aria-hidden="true" style="position: absolute; width: 0; height: 0; overflow: hidden;" version="1.1" xmlns="http://www.w3.org/2000/svg" xmlns:xlink="http://www.w3.org/1999/xlink">
<defs>
<symbol id="icon-search" viewBox="0 0 32 32">
<path d="M30.978 29.147l-7.616-7.921c1.958-2.328 3.031-5.257 3.031-8.306 0-7.124-5.796-12.92-12.92-12.92s-12.92 5.796-12.92 12.92 5.796 12.92 12.92 12.92c2.674 0 5.223-0.807 7.402-2.338l7.674 7.981c0.321 0.333 0.752 0.517 1.214 0.517 0.438 0 0.853-0.167 1.168-0.47 0.67-0.644 0.691-1.713 0.047-2.383zM13.473 3.37c5.266 0 9.55 4.284 9.55 9.55s-4.284 9.55-9.55 9.55-9.55-4.284-9.55-9.55 4.284-9.55 9.55-9.55z"></path>
</symbol>
<symbol id="icon-user" viewBox="0 0 32 32">
<path d="M15.771 15.415c2.119 0 3.954-0.759 5.451-2.258 1.393-1.356 2.257-3.25 2.257-5.345 0-0.037-0-0.073-0.001-0.11l0 0.006c0-0.031 0.001-0.068 0.001-0.105 0-2.095-0.865-3.989-2.257-5.343l-0.002-0.002c-1.357-1.394-3.251-2.259-5.347-2.259-0.036 0-0.072 0-0.107 0.001l0.005-0c-2.117 0-3.95 0.759-5.449 2.258-1.394 1.357-2.259 3.251-2.259 5.347 0 0.036 0 0.072 0.001 0.107l-0-0.005c0 2.117 0.761 3.952 2.258 5.449 1.357 1.394 3.251 2.259 5.347 2.259 0.036 0 0.072-0 0.107-0.001l-0.005 0zM29.257 24.606c-0.058-0.767-0.149-1.46-0.277-2.139l0.018 0.118c-0.142-0.797-0.314-1.482-0.53-2.147l0.032 0.113c-0.237-0.728-0.519-1.356-0.86-1.945l0.026 0.048c-0.355-0.628-0.774-1.168-1.26-1.639l-0.002-0.002c-0.508-0.477-1.109-0.862-1.773-1.123l-0.038-0.013c-0.667-0.265-1.441-0.419-2.25-0.419-0.021 0-0.041 0-0.062 0l0.003-0c-0.329 0-0.645 0.133-1.255 0.53l-1.303 0.841c-0.486 0.295-1.047 0.548-1.638 0.729l-0.053 0.014c-0.616 0.21-1.325 0.333-2.062 0.336h-0.002c-0.686 0-1.381-0.114-2.064-0.334-0.644-0.196-1.204-0.449-1.722-0.764l0.033 0.019-1.305-0.841c-0.61-0.398-0.926-0.533-1.253-0.533-0.832 0-1.609 0.142-2.309 0.421-0.702 0.273-1.304 0.658-1.815 1.139l0.003-0.003c-0.475 0.457-0.898 1.008-1.259 1.643-0.316 0.541-0.599 1.169-0.816 1.826l-0.020 0.071c-0.199 0.624-0.366 1.307-0.496 2.032-0.11 0.561-0.202 1.253-0.257 1.956l-0.004 0.065c-0.041 0.613-0.064 1.248-0.064 1.89 0 1.671 0.533 3.024 1.577 4.021 1.035 0.983 2.405 1.483 4.069 1.483h15.408c1.664 0 3.033-0.498 4.069-1.483 1.045-0.997 1.577-2.35 1.577-4.021-0-0.666-0.024-1.325-0.071-1.979l0.005 0.088z"></path>
</symbol>
<symbol id="icon-heart" viewBox="0 0 32 32">
<path d="M31.226 7.345c-0.496-1.176-1.212-2.242-2.108-3.138-0.896-0.899-1.952-1.613-3.111-2.104-1.202-0.511-2.491-0.772-3.793-0.769-1.826 0-3.608 0.512-5.156 1.478-0.37 0.231-0.722 0.485-1.056 0.762-0.333-0.277-0.685-0.531-1.056-0.762-1.548-0.966-3.33-1.478-5.156-1.478-1.315 0-2.589 0.258-3.793 0.769-1.163 0.493-2.211 1.201-3.111 2.104-0.896 0.895-1.613 1.961-2.108 3.138-0.515 1.224-0.778 2.524-0.778 3.862 0 1.262 0.252 2.577 0.752 3.915 0.419 1.118 1.019 2.278 1.785 3.449 1.215 1.853 2.885 3.786 4.96 5.746 3.437 3.248 6.842 5.492 6.986 5.583l0.878 0.576c0.389 0.254 0.889 0.254 1.278 0l0.878-0.576c0.145-0.095 3.545-2.335 6.986-5.583 2.074-1.959 3.745-3.893 4.96-5.746 0.767-1.171 1.371-2.331 1.785-3.449 0.5-1.338 0.752-2.653 0.752-3.915 0.004-1.338-0.259-2.638-0.774-3.862v0zM16.002 27.478c0 0-13.187-8.645-13.187-16.271 0-3.862 3.123-6.993 6.975-6.993 2.708 0 5.056 1.546 6.212 3.805 1.156-2.259 3.504-3.805 6.212-3.805 3.852 0 6.975 3.131 6.975 6.993 0 7.626-13.187 16.271-13.187 16.271z"></path>
</symbol>
<symbol id="icon-shopping-cart" viewBox="0 0 31 32">
<path d="M11.478 27.247c0.064 0 0.116-0.052 0.116-0.116s-0.052-0.116-0.116-0.116-0.116 0.052-0.116 0.116c0 0.064 0.052 0.116 0.116 0.116zM8.811 27.131c0-1.473 1.194-2.667 2.667-2.667s2.667 1.194 2.667 2.667c0 1.473-1.194 2.667-2.667 2.667s-2.667-1.194-2.667-2.667z"></path>
<path d="M25.507 27.247c0.064 0 0.116-0.052 0.116-0.116s-0.052-0.116-0.116-0.116c-0.064 0-0.116 0.052-0.116 0.116s0.052 0.116 0.116 0.116zM22.84 27.131c0-1.473 1.194-2.667 2.667-2.667s2.667 1.194 2.667 2.667c0 1.473-1.194 2.667-2.667 2.667s-2.667-1.194-2.667-2.667z"></path>
<path d="M-0.116 1.623c0-0.768 0.623-1.391 1.391-1.391h5.101c0.663 0 1.234 0.468 1.364 1.118l1.052 5.259h20.54c0.415 0 0.808 0.185 1.072 0.504s0.372 0.74 0.295 1.147l-2.043 10.711c-0.18 0.908-0.674 1.723-1.395 2.303-0.717 0.577-1.613 0.885-2.533 0.871h-12.373c-0.92 0.014-1.816-0.294-2.533-0.871-0.72-0.58-1.214-1.395-1.394-2.302-0-0 0 0 0 0l-2.13-10.642c-0.009-0.037-0.017-0.075-0.023-0.113l-1.041-5.203h-3.961c-0.768 0-1.391-0.623-1.391-1.391zM9.35 9.391l1.809 9.038c0.053 0.267 0.198 0.507 0.41 0.677s0.477 0.261 0.749 0.256l0.027-0 12.423 0c0.272 0.005 0.537-0.085 0.749-0.256 0.211-0.17 0.356-0.408 0.409-0.673 0-0.001 0.001-0.003 0.001-0.004l1.723-9.038h-18.301z"></path>
</symbol>
<symbol id="icon-shopping-bag" viewBox="0 0 32 32">
<path d="M28.671 26.389l-1.429-18.007c-0.089-1.16-1.070-2.069-2.234-2.069h-2.823v-0.127c0-3.411-2.775-6.186-6.186-6.186s-6.186 2.775-6.186 6.186v0.127h-2.823c-1.164 0-2.145 0.909-2.233 2.066l-1.429 18.012c-0.111 1.442 0.39 2.878 1.373 3.939s2.376 1.67 3.823 1.67h14.952c1.446 0 2.84-0.609 3.823-1.67s1.483-2.497 1.372-3.942zM11.689 6.186c0-2.377 1.934-4.311 4.311-4.311s4.311 1.934 4.311 4.311v0.127h-8.622v-0.127zM25.924 29.057c-0.639 0.689-1.508 1.069-2.448 1.069h-14.952c-0.94 0-1.809-0.38-2.447-1.069s-0.951-1.585-0.879-2.52l1.429-18.012c0.014-0.19 0.175-0.338 0.365-0.338h2.823v2.308c0 0.518 0.42 0.937 0.937 0.937s0.937-0.42 0.937-0.937v-2.308h8.622v2.308c0 0.518 0.42 0.937 0.937 0.937s0.937-0.42 0.937-0.937v-2.308h2.823c0.19 0 0.35 0.148 0.365 0.34l1.429 18.007c0.072 0.937-0.24 1.833-0.879 2.522z"></path>
</symbol>
<symbol id="icon-catalog" viewBox="0 0 33 32">
<path d="M18.667 26.667h5.333v5.333h-5.333v-5.333z"></path>
<path d="M28 26.667h5.333v5.333h-5.333v-5.333z"></path>
<path d="M18.667 17.333h5.333v5.333h-5.333v-5.333z"></path>
<path d="M28 17.333h5.333v5.333h-5.333v-5.333z"></path>
<path d="M33.333 9.333h-8v-5.333c0-2.267-1.733-4-4-4h-8c-2.267 0-4 1.733-4 4v5.333h-8c-0.8 0-1.333 0.533-1.333 1.333v0.267l2.533 16.133c0.133 1.333 1.333 2.267 2.667 2.267h10.8v-2.667h-10.8l-2.267-14.667h30.4v-2.667zM12 4c0-0.8 0.533-1.333 1.333-1.333h8c0.8 0 1.333 0.533 1.333 1.333v5.333h-10.667v-5.333z"></path>
</symbol>
</defs>
</svg>
