<svg aria-hidden="true" style="position: absolute; width: 0; height: 0; overflow: hidden;" version="1.1" xmlns="http://www.w3.org/2000/svg" xmlns:xlink="http://www.w3.org/1999/xlink">
<defs>
<symbol id="icon-search" viewBox="0 0 32 32">
<path d="M30.978 29.147l-7.616-7.921c1.958-2.328 3.031-5.257 3.031-8.306 0-7.124-5.796-12.92-12.92-12.92s-12.92 5.796-12.92 12.92 5.796 12.92 12.92 12.92c2.674 0 5.223-0.807 7.402-2.338l7.674 7.981c0.321 0.333 0.752 0.517 1.214 0.517 0.438 0 0.853-0.167 1.168-0.47 0.67-0.644 0.691-1.713 0.047-2.383zM13.473 3.37c5.266 0 9.55 4.284 9.55 9.55s-4.284 9.55-9.55 9.55-9.55-4.284-9.55-9.55 4.284-9.55 9.55-9.55z"></path>
</symbol>
<symbol id="icon-user" viewBox="0 0 32 32">
<path d="M15.771 15.415c2.119 0 3.954-0.759 5.451-2.258 1.393-1.356 2.257-3.25 2.257-5.345 0-0.037-0-0.073-0.001-0.11l0 0.006c0-0.031 0.001-0.068 0.001-0.105 0-2.095-0.865-3.989-2.257-5.343l-0.002-0.002c-1.357-1.394-3.251-2.259-5.347-2.259-0.036 0-0.072 0-0.107 0.001l0.005-0c-2.117 0-3.95 0.759-5.449 2.258-1.394 1.357-2.259 3.251-2.259 5.347 0 0.036 0 0.072 0.001 0.107l-0-0.005c0 2.117 0.761 3.952 2.258 5.449 1.357 1.394 3.251 2.259 5.347 2.259 0.036 0 0.072-0 0.107-0.001l-0.005 0zM29.257 24.606c-0.058-0.767-0.149-1.46-0.277-2.139l0.018 0.118c-0.142-0.797-0.314-1.482-0.53-2.147l0.032 0.113c-0.237-0.728-0.519-1.356-0.86-1.945l0.026 0.048c-0.355-0.628-0.774-1.168-1.26-1.639l-0.002-0.002c-0.508-0.477-1.109-0.862-1.773-1.123l-0.038-0.013c-0.667-0.265-1.441-0.419-2.25-0.419-0.021 0-0.041 0-0.062 0l0.003-0c-0.329 0-0.645 0.133-1.255 0.53l-1.303 0.841c-0.486 0.295-1.047 0.548-1.638 0.729l-0.053 0.014c-0.616 0.21-1.325 0.333-2.062 0.336h-0.002c-0.686 0-1.381-0.114-2.064-0.334-0.644-0.196-1.204-0.449-1.722-0.764l0.033 0.019-1.305-0.841c-0.61-0.398-0.926-0.533-1.253-0.533-0.832 0-1.609 0.142-2.309 0.421-0.702 0.273-1.304 0.658-1.815 1.139l0.003-0.003c-0.475 0.457-0.898 1.008-1.259 1.643-0.316 0.541-0.599 1.169-0.816 1.826l-0.020 0.071c-0.199 0.624-0.366 1.307-0.496 2.032-0.11 0.561-0.202 1.253-0.257 1.956l-0.004 0.065c-0.041 0.613-0.064 1.248-0.064 1.89 0 1.671 0.533 3.024 1.577 4.021 1.035 0.983 2.405 1.483 4.069 1.483h15.408c1.664 0 3.033-0.498 4.069-1.483 1.045-0.997 1.577-2.35 1.577-4.021-0-0.666-0.024-1.325-0.071-1.979l0.005 0.088z"></path>
</symbol>
<symbol id="icon-wishlist" viewBox="0 0 32 32">
<path d="M31.226 7.345c-0.496-1.176-1.212-2.242-2.108-3.138-0.896-0.899-1.952-1.613-3.111-2.104-1.202-0.511-2.491-0.772-3.793-0.769-1.826 0-3.608 0.512-5.156 1.478-0.37 0.231-0.722 0.485-1.056 0.762-0.333-0.277-0.685-0.531-1.056-0.762-1.548-0.966-3.33-1.478-5.156-1.478-1.315 0-2.589 0.258-3.793 0.769-1.163 0.493-2.211 1.201-3.111 2.104-0.896 0.895-1.613 1.961-2.108 3.138-0.515 1.224-0.778 2.524-0.778 3.862 0 1.262 0.252 2.577 0.752 3.915 0.419 1.118 1.019 2.278 1.785 3.449 1.215 1.853 2.885 3.786 4.96 5.746 3.437 3.248 6.842 5.492 6.986 5.583l0.878 0.576c0.389 0.254 0.889 0.254 1.278 0l0.878-0.576c0.145-0.095 3.545-2.335 6.986-5.583 2.074-1.959 3.745-3.893 4.96-5.746 0.767-1.171 1.371-2.331 1.785-3.449 0.5-1.338 0.752-2.653 0.752-3.915 0.004-1.338-0.259-2.638-0.774-3.862v0zM16.002 27.478c0 0-13.187-8.645-13.187-16.271 0-3.862 3.123-6.993 6.975-6.993 2.708 0 5.056 1.546 6.212 3.805 1.156-2.259 3.504-3.805 6.212-3.805 3.852 0 6.975 3.131 6.975 6.993 0 7.626-13.187 16.271-13.187 16.271z"></path>
</symbol>
<symbol id="icon-heart" viewBox="0 0 32 32">
<path d="M29.383 3.928c-1.655-1.779-3.974-2.791-6.404-2.795-2.432 0.003-4.754 1.015-6.411 2.794l-0.565 0.597-0.565-0.597c-3.289-3.54-8.826-3.744-12.366-0.454-0.157 0.146-0.308 0.297-0.454 0.454-3.489 3.764-3.489 9.58 0 13.344l12.555 13.24c0.434 0.459 1.158 0.478 1.617 0.044 0.015-0.014 0.030-0.029 0.044-0.044l12.55-13.24c3.489-3.763 3.489-9.58-0-13.343zM27.728 15.696h-0.001l-11.725 12.366-11.726-12.366c-2.666-2.876-2.666-7.32 0-10.196 2.421-2.624 6.51-2.788 9.134-0.367 0.127 0.118 0.25 0.24 0.367 0.367l1.394 1.471c0.459 0.456 1.201 0.456 1.661 0l1.394-1.47c2.421-2.624 6.51-2.788 9.134-0.367 0.127 0.118 0.25 0.24 0.367 0.367 2.689 2.88 2.709 7.332 0 10.194z"></path>
</symbol>
<symbol id="icon-delete" viewBox="0 0 32 32">
<path d="M25.87 6.010l-1.714 23.007c-0.030 0.391-0.366 0.697-0.765 0.697h-14.819c-0.399 0-0.735-0.306-0.765-0.693l-1.676-23.010-2.28 0.166 1.677 23.014c0.121 1.575 1.458 2.808 3.044 2.808h14.819c1.586 0 2.923-1.233 3.045-2.811l1.714-23.009-2.28-0.17z"></path>
<path d="M19.162 0h-6.324c-1.47 0-2.667 1.196-2.667 2.667v3.429h2.286v-3.429c0-0.207 0.175-0.381 0.381-0.381h6.324c0.206 0 0.381 0.175 0.381 0.381v3.429h2.286v-3.429c0-1.47-1.197-2.667-2.667-2.667z"></path>
<path d="M30.324 4.952h-28.648c-0.631 0-1.143 0.512-1.143 1.143s0.512 1.143 1.143 1.143h28.648c0.631 0 1.143-0.512 1.143-1.143s-0.512-1.143-1.143-1.143z"></path>
</symbol>
<symbol id="icon-shopping-cart" viewBox="0 0 31 32">
<path d="M11.478 27.247c0.064 0 0.116-0.052 0.116-0.116s-0.052-0.116-0.116-0.116-0.116 0.052-0.116 0.116c0 0.064 0.052 0.116 0.116 0.116zM8.811 27.131c0-1.473 1.194-2.667 2.667-2.667s2.667 1.194 2.667 2.667c0 1.473-1.194 2.667-2.667 2.667s-2.667-1.194-2.667-2.667z"></path>
<path d="M25.507 27.247c0.064 0 0.116-0.052 0.116-0.116s-0.052-0.116-0.116-0.116c-0.064 0-0.116 0.052-0.116 0.116s0.052 0.116 0.116 0.116zM22.84 27.131c0-1.473 1.194-2.667 2.667-2.667s2.667 1.194 2.667 2.667c0 1.473-1.194 2.667-2.667 2.667s-2.667-1.194-2.667-2.667z"></path>
<path d="M-0.116 1.623c0-0.768 0.623-1.391 1.391-1.391h5.101c0.663 0 1.234 0.468 1.364 1.118l1.052 5.259h20.54c0.415 0 0.808 0.185 1.072 0.504s0.372 0.74 0.295 1.147l-2.043 10.711c-0.18 0.908-0.674 1.723-1.395 2.303-0.717 0.577-1.613 0.885-2.533 0.871h-12.373c-0.92 0.014-1.816-0.294-2.533-0.871-0.72-0.58-1.214-1.395-1.394-2.302-0-0 0 0 0 0l-2.13-10.642c-0.009-0.037-0.017-0.075-0.023-0.113l-1.041-5.203h-3.961c-0.768 0-1.391-0.623-1.391-1.391zM9.35 9.391l1.809 9.038c0.053 0.267 0.198 0.507 0.41 0.677s0.477 0.261 0.749 0.256l0.027-0 12.423 0c0.272 0.005 0.537-0.085 0.749-0.256 0.211-0.17 0.356-0.408 0.409-0.673 0-0.001 0.001-0.003 0.001-0.004l1.723-9.038h-18.301z"></path>
</symbol>
<symbol id="icon-shopping-bag" viewBox="0 0 32 32">
<path d="M28.25 7.5h-3.809c-0.497-4.217-4.092-7.5-8.441-7.5s-7.944 3.283-8.441 7.5h-3.809c-0.69 0-1.25 0.56-1.25 1.25v22c0 0.69 0.56 1.25 1.25 1.25h24.5c0.691 0 1.25-0.56 1.25-1.25v-22c0-0.69-0.56-1.25-1.25-1.25zM16 2.5c2.968 0 5.439 2.166 5.916 5h-11.832c0.477-2.834 2.948-5 5.916-5zM27 29.5h-22v-19.5h2.5v3.75c0 0.69 0.56 1.25 1.25 1.25s1.25-0.56 1.25-1.25v-3.75h12v3.75c0 0.69 0.56 1.25 1.25 1.25s1.25-0.56 1.25-1.25v-3.75h2.5v19.5z"></path>
</symbol>
<symbol id="icon-catalog" viewBox="0 0 33 32">
<path d="M18.667 26.667h5.333v5.333h-5.333v-5.333z"></path>
<path d="M28 26.667h5.333v5.333h-5.333v-5.333z"></path>
<path d="M18.667 17.333h5.333v5.333h-5.333v-5.333z"></path>
<path d="M28 17.333h5.333v5.333h-5.333v-5.333z"></path>
<path d="M33.333 9.333h-8v-5.333c0-2.267-1.733-4-4-4h-8c-2.267 0-4 1.733-4 4v5.333h-8c-0.8 0-1.333 0.533-1.333 1.333v0.267l2.533 16.133c0.133 1.333 1.333 2.267 2.667 2.267h10.8v-2.667h-10.8l-2.267-14.667h30.4v-2.667zM12 4c0-0.8 0.533-1.333 1.333-1.333h8c0.8 0 1.333 0.533 1.333 1.333v5.333h-10.667v-5.333z"></path>
</symbol>
<symbol id="icon-delivery" viewBox="0 0 32 32">
<path d="M25 24.5c-0.828 0.001-1.499 0.672-1.5 1.5v0c0.001 0.828 0.672 1.499 1.5 1.5h0c0.828-0.001 1.499-0.672 1.5-1.5v-0c-0.001-0.828-0.672-1.499-1.5-1.5h-0zM25 26.5c-0.276 0-0.5-0.224-0.5-0.5s0.224-0.5 0.5-0.5v0c0.276 0 0.5 0.224 0.5 0.5s-0.224 0.5-0.5 0.5v0zM9 24.5c-0.828 0.001-1.499 0.672-1.5 1.5v0c0.001 0.828 0.672 1.499 1.5 1.5h0c0.828-0.001 1.499-0.672 1.5-1.5v-0c-0.001-0.828-0.672-1.499-1.5-1.5h-0zM9 26.5c-0.276 0-0.5-0.224-0.5-0.5s0.224-0.5 0.5-0.5v0c0.276 0 0.5 0.224 0.5 0.5s-0.224 0.5-0.5 0.5v0z"></path>
<path d="M30.118 18l-0.667-0.333-0.679-4.077c-0.201-1.192-1.225-2.090-2.46-2.090-0.002 0-0.005 0-0.007 0h-5.305c-0.813 0-1.531 0.397-1.987 1h-1.513v-5h-2.999v-4.999h-7v5h-3.001v4.999h-2.998v5c-0.552 0-1 0.448-1.001 1v0.999c0 0.552 0.449 1.001 1 1.001v4.5c0.001 0.828 0.672 1.499 1.5 1.5h2.54c0.244 1.693 1.701 2.999 3.46 2.999s3.216-1.307 3.46-2.999h9.080c0.244 1.693 1.7 2.999 3.46 2.999s3.216-1.307 3.46-2.999h1.54c0.828-0.001 1.499-0.672 1.5-1.5v-4.764c0-0.002 0-0.005 0-0.008 0-0.971-0.557-1.812-1.368-2.222l-0.014-0.007zM30.5 22.691l-1.001-0.5v-0.691h1.001v1.191zM10.5 13.5h1v1h-1v-1zM12.5 15.5v-2h1v4h-5v-4h0.999v2h3zM18.5 17.5h-4v-4h1v2h3v2zM18.5 14v0.5h-2v-1h2.050c-0.032 0.15-0.050 0.322-0.050 0.498 0 0.001 0 0.001 0 0.002v-0zM16.5 12.5h-5v-4h1v2h3v-2h1v4zM13.5 8.5h1v1.001h-1v-1zM10.5 3.5h1v1h-1v-1.001zM8.5 3.5h0.999v2h3v-2h1v4h-5v-4zM7.5 8.5h1.001v0.999h-1.001v-1zM5.5 8.5h1.001v2h2.999v-2h1v4h-4.999v-4zM4.5 13.5h0.999v1h-0.999v-1zM2.5 13.5h1v2h3v-2h0.999v4h-4.999v-4zM1.5 18.5h17v1.001h-17.001v-1.001zM2.5 22.5h1.86l-0.25 1.001h-1.61v-1.001zM2.5 25v-0.5h2.391l0.75-2.999h-3.141v-1.001h16v5.001h-6.039c-0.244-1.693-1.701-3.001-3.46-3.001s-3.216 1.307-3.46 3.001h-2.54c-0.276 0-0.5-0.224-0.5-0.5v0zM9 28.5c-1.38-0.002-2.499-1.12-2.5-2.5v-0c0.002-1.38 1.12-2.499 2.5-2.5h0c1.38 0.002 2.499 1.12 2.5 2.5v0c-0.002 1.38-1.12 2.499-2.5 2.5h-0zM24.5 17.5h2v1.001h-1.001c-0.552-0.001-0.999-0.448-0.999-1v-0zM24.5 16.5c-0.552 0-1.001 0.448-1.001 1 0 0.366 0.107 0.704 0.278 0.999h-2.278v-4h4.523l0.374 2h-1.897zM21.5 19.5h5.001v3.342c-0.439-0.215-0.955-0.342-1.5-0.342h-0c-1.76 0-3.216 1.307-3.46 2.999h-0.040v-6zM25 28.5c-1.38-0.002-2.498-1.12-2.5-2.5v-0c0.002-1.38 1.12-2.499 2.5-2.5h0c1.38 0.002 2.499 1.12 2.5 2.5v0c-0.002 1.38-1.12 2.499-2.5 2.5h-0zM30 25.5h-1.54c-0.112-0.764-0.458-1.432-0.961-1.945l0.001 0.001v-6.556l-0.493-2.683c-0.090-0.468-0.495-0.817-0.983-0.817h-4.523c-0.552 0-1.001 0.448-1.001 1v11h-0.999v-11.5c0.001-0.828 0.672-1.499 1.5-1.5h5.306c0.736 0 1.358 0.528 1.479 1.253l0.763 4.58 1.122 0.561c0.496 0.25 0.83 0.754 0.83 1.337 0 0.002 0 0.003 0 0.005v-0 0.264h-2v2.309l2 1v1.191c0 0.276-0.224 0.5-0.5 0.5z"></path>
</symbol>
<symbol id="icon-certificate" viewBox="0 0 32 32">
<path d="M11.5 10v-1c-2.206 0-4 1.795-4 4h0.999c0.002-1.656 1.344-2.999 3-3h0z"></path>
<path d="M30 0.5h-12c-0.828 0.001-1.499 0.672-1.5 1.5v1.245c-0.299-0.111-0.644-0.175-1.005-0.175-0.526 0-1.020 0.137-1.449 0.377l0.015-0.008c-0.531-0.88-1.492-1.439-2.587-1.439-1.072 0.002-2.011 0.573-2.529 1.427l-0.007 0.013c-0.415-0.235-0.911-0.374-1.439-0.374-0.544 0-1.053 0.147-1.491 0.403l0.014-0.008-0.044 0.025c-0.876 0.514-1.459 1.444-1.477 2.512l-0 0.003c-1.070 0.018-2.001 0.601-2.507 1.463l-0.008 0.014-0.025 0.044c-0.248 0.424-0.394 0.933-0.394 1.477 0 0.528 0.138 1.024 0.381 1.454l-0.008-0.015c-0.867 0.526-1.438 1.464-1.44 2.536v0.051c0.001 1.072 0.572 2.011 1.427 2.53l0.013 0.007c-0.235 0.415-0.373 0.911-0.373 1.439 0 0.544 0.147 1.053 0.402 1.491l-0.008-0.014 0.025 0.044c0.514 0.876 1.444 1.459 2.512 1.477l0.003 0c0.005 0.306 0.064 0.604 0.158 0.888l-4.224 6.894 4.701-1.175 1.172 4.689 4.421-7.398c0.254 0.067 0.521 0.103 0.796 0.103 0.257 0 0.508-0.035 0.749-0.098l4.418 7.393 1.173-4.689 4.701 1.175-4.224-6.894c0.093-0.264 0.15-0.568 0.157-0.885l0-0.003c1.071-0.018 2.001-0.601 2.507-1.463l0.008-0.014 0.026-0.044c0.248-0.424 0.395-0.933 0.395-1.477 0-0.528-0.139-1.024-0.381-1.454l0.008 0.015c0.73-0.447 1.246-1.183 1.391-2.045l0.002-0.017h7.546c0.828-0.001 1.499-0.672 1.5-1.5v-10.001c-0.001-0.828-0.672-1.499-1.5-1.5h-0zM24.5 2.5v1h-1v-1h-1v1h-1v-2h5v2h-1v-1h-1zM16.5 9.691c-1.075-1.62-2.914-2.691-5-2.691-3.308 0-6 2.692-6 6s2.692 6 6 6c3.173 0 5.772-2.477 5.98-5.598 0.163 0.060 0.337 0.098 0.521 0.098h0.475c-0.258 3.627-3.284 6.5-6.975 6.5-3.86 0-7-3.14-7-7s3.14-7 7-7c1.959 0.005 3.729 0.813 4.999 2.111l0.001 0.001v1.579zM16.5 13c0 2.757-2.243 5-5 5s-5-2.243-5-5c0-2.757 2.243-5 5-5s5 2.243 5 5zM6.692 28.705l-0.828-3.311-3.299 0.825 2.658-4.338c0.212 0.246 0.462 0.464 0.755 0.633l0.044 0.026c0.424 0.248 0.933 0.394 1.477 0.394 0.528 0 1.025-0.138 1.454-0.381l-0.015 0.008c0.227 0.369 0.521 0.675 0.867 0.91l0.010 0.007-3.125 5.228zM20.434 26.219l-3.298-0.825-0.828 3.311-3.122-5.224c0.356-0.243 0.649-0.55 0.868-0.907l0.007-0.013c0.415 0.235 0.911 0.373 1.439 0.373 0.544 0 1.053-0.146 1.491-0.402l-0.014 0.008 0.044-0.026c0.293-0.173 0.542-0.383 0.752-0.629l0.003-0.004 2.657 4.338zM20.151 14.886l-0.713 0.24 0.498 0.565c0.309 0.346 0.498 0.805 0.498 1.308 0 0.36-0.097 0.697-0.265 0.988l0.005-0.009-0.026 0.044c-0.347 0.589-0.977 0.979-1.699 0.979-0.141 0-0.279-0.015-0.412-0.043l0.013 0.002-0.738-0.148 0.148 0.738c0.026 0.12 0.041 0.257 0.041 0.398 0 0.722-0.389 1.353-0.968 1.696l-0.009 0.005-0.044 0.026c-0.281 0.163-0.618 0.26-0.978 0.26-0.503 0-0.962-0.189-1.31-0.499l0.002 0.002-0.565-0.498-0.24 0.713c-0.272 0.807-1.020 1.349-1.912 1.349-0.863-0.003-1.595-0.561-1.857-1.335l-0.004-0.014-0.24-0.713-0.565 0.498c-0.346 0.309-0.805 0.498-1.308 0.498-0.36 0-0.697-0.097-0.988-0.266l0.009 0.005-0.044-0.026c-0.589-0.348-0.978-0.979-0.978-1.701 0-0.141 0.015-0.278 0.043-0.411l-0.002 0.013 0.149-0.737-0.738 0.148c-0.12 0.026-0.258 0.041-0.399 0.041-0.722 0-1.353-0.389-1.695-0.969l-0.005-0.009-0.026-0.043c-0.164-0.281-0.26-0.618-0.26-0.978 0-0.503 0.189-0.962 0.5-1.31l-0.002 0.002 0.498-0.565-0.713-0.24c-0.788-0.267-1.346-0.999-1.349-1.861v-0.051c0.003-0.863 0.561-1.595 1.335-1.857l0.014-0.004 0.713-0.24-0.498-0.565c-0.309-0.346-0.498-0.805-0.498-1.309 0-0.36 0.096-0.697 0.265-0.987l-0.005 0.009 0.026-0.044c0.347-0.59 0.979-0.979 1.702-0.979 0.141 0 0.278 0.015 0.41 0.043l-0.013-0.002 0.738 0.148-0.149-0.737c-0.026-0.12-0.041-0.257-0.041-0.398 0-0.722 0.389-1.354 0.969-1.696l0.009-0.005 0.044-0.026c0.281-0.164 0.619-0.261 0.979-0.261 0.503 0 0.962 0.189 1.31 0.5l-0.002-0.002 0.564 0.498 0.24-0.713c0.272-0.807 1.020-1.349 1.912-1.349 0.863 0.003 1.595 0.561 1.858 1.335l0.004 0.014 0.24 0.713 0.565-0.498c0.346-0.309 0.805-0.497 1.308-0.497 0.36 0 0.697 0.096 0.987 0.265l-0.009-0.005 0.022 0.013v2.43c-1.411-1.13-3.175-1.77-5-1.77-4.411 0-8 3.589-8 8s3.589 8 8 8c4.243 0 7.715-3.322 7.974-7.5h1.961c-0.169 0.655-0.649 1.169-1.27 1.383l-0.014 0.004zM30.5 12c0 0.276-0.224 0.5-0.5 0.5h-12c-0.276 0-0.5-0.224-0.5-0.5v0-10c0-0.276 0.224-0.5 0.5-0.5h2.5v3.001h7v-3.001h2.5c0.276 0 0.5 0.224 0.5 0.5v10.001z"></path>
<path d="M26.5 10.5h0.999v1h-0.999v-1zM28.5 10.5h0.999v1h-0.999v-1zM24.5 10.5h0.999v1h-0.999v-1zM24.5 8.5h4.999v0.999h-4.999v-1zM10.5 15.293l-1.147-1.147-0.707 0.707 1.854 1.854 4.853-4.853-0.707-0.707-4.146 4.146z"></path>
</symbol>
<symbol id="icon-payment" viewBox="0 0 32 32">
<path d="M21.5 2.5h-1.001v1h-0.999v3h2v0.999h-2v1.001h0.999v0.999h1.001v-1h0.999v-2.999h-2v-1.001h2v-0.999h-0.999v-1z"></path>
<path d="M30.5 0.5h-19.001c-0.551 0-1 0.448-1 1v4.793l-4.46 4.46c-1.26 1.253-2.040 2.989-2.040 4.906 0 0.006 0 0.013 0 0.019v-0.001c0 0.23 0.012 0.463 0.035 0.693l0.447 4.476-3.982 4.978v5.676h8.41l1.542-7.712c0.18-0.133 0.36-0.267 0.544-0.4 1.074-0.783 2.227-1.627 3.019-2.666l3.131 3.131c0.416 0.418 0.992 0.677 1.628 0.677 0.002 0 0.004 0 0.007 0h-0c0.002 0 0.004 0 0.007 0 0.636 0 1.212-0.259 1.627-0.677l5.44-5.439c0.418-0.416 0.677-0.991 0.677-1.628 0-0.002 0-0.005 0-0.007v0c0-0.617-0.24-1.197-0.677-1.634l-3.647-3.646h8.293c0.552-0.001 0.999-0.448 0.999-1v-9c0-0.552-0.448-1.001-0.999-1.001zM11.5 1.5h6.348c-1.417 0.996-2.347 2.64-2.347 4.5v0.025c-0.544 0.056-1.023 0.294-1.384 0.652l-2.465 2.465c-0.053 0.022-0.101 0.052-0.151 0.079v-7.721zM8.091 30.5h-6.591v-4.324l3.638-4.547 4.297 2.148-1.345 6.723zM10.407 22.58c-0.155 0.113-0.305 0.225-0.457 0.336l-4.48-2.24-0.441-4.405c-0.019-0.197-0.029-0.395-0.029-0.594 0-0.005-0-0.010-0-0.016 0-1.642 0.668-3.128 1.747-4.201l3.753-3.753v2.617l-1.41 1.762c-0.367 0.457-0.589 1.044-0.59 1.682v0c0 0.579 0.191 1.152 0.539 1.615l0.846 1.128c-0.344 0.309-0.814 0.487-1.385 0.487v1c1.767 0 3.001-1.234 3.001-3v-4.14c0-0.475 0.385-0.86 0.859-0.86 0.523 0 0.699 0.013 0.932 0.3 0.14 0.173 0.229 0.408 0.259 0.68 0.135 1.266 0.45 4.485 0.45 7.020 0 1.959-1.827 3.292-3.594 4.58zM10.5 11.925v3.075c0 0.204-0.030 0.391-0.072 0.57l-0.589-0.785c-0.211-0.28-0.338-0.633-0.339-1.016v-0c0-0.383 0.132-0.758 0.371-1.058l0.629-0.787zM19.707 23.147c-0.491 0.491-1.362 0.492-1.854 0l-3.295-3.295c0.185-0.374 0.317-0.773 0.385-1.201l1.204 1.203 0.707-0.707-1.861-1.861c-0.034-1.674-0.172-3.513-0.297-4.883l7.878 7.877-2.866 2.867zM23.28 19.573l-8.743-8.744c-0.055-0.446-0.215-0.847-0.469-1.159-0.295-0.363-0.612-0.527-0.927-0.603l0.61-0.61 10.323 10.323-0.793 0.794zM25.147 15.854c0.247 0.247 0.384 0.577 0.384 0.927-0.001 0.362-0.148 0.689-0.384 0.928l0-0-0.366 0.366-10.323-10.325 0.366-0.366c0.495-0.495 1.358-0.495 1.853 0l8.47 8.469zM21.197 10.491l-3.813-3.813c-0.242-0.239-0.538-0.426-0.868-0.539l-0.016-0.005v-0.133c0-2.481 2.019-4.5 4.5-4.5s4.5 2.019 4.5 4.5c0 2.414-1.913 4.386-4.303 4.49zM30.5 10.5h-6.348c1.417-0.996 2.347-2.64 2.347-4.5s-0.93-3.504-2.347-4.5h6.347v9z"></path>
<path d="M28.5 4.5h0.999v-2h-2v1h1.001v1zM29.5 7.5h-1.001v0.999h-0.999v1.001h2v-2zM13.5 3.5h1v-1h-2v2h1v-1.001zM19 22.707l2.207-2.207-2.207-2.207-2.207 2.207 2.207 2.207zM19.793 20.5l-0.793 0.793-0.793-0.793 0.793-0.793 0.793 0.793zM15.643 16.354l0.707-0.707 2 2-0.707 0.707-2-2z"></path>
</symbol>
<symbol id="icon-support" viewBox="0 0 32 32">
<path d="M25.97 27.871l-1.195-3.585c-0.424-1.243-1.471-2.167-2.759-2.408l-0.022-0.003-3.449-0.628v-0.267c0.609-0.358 1.12-0.815 1.529-1.354l0.009-0.013h1.042c0.855-0.001 1.548-0.693 1.549-1.548v-6.194c0-3.7-3.010-6.709-6.71-6.709s-6.709 3.010-6.709 6.709v3.613c0.001 0.991 0.7 1.819 1.632 2.019l0.014 0.002c0.302 1.493 1.214 2.73 2.459 3.461l0.024 0.013v0.267l-3.45 0.628c-1.31 0.244-2.358 1.169-2.773 2.386l-0.008 0.025-0.206 0.62-1.758-1.758c-0.093-0.094-0.151-0.223-0.151-0.365s0.058-0.272 0.151-0.365v0l2.039-2.037-3.827-3.827-2.304 2.304c-0.654 0.65-1.058 1.55-1.058 2.545 0 0.003 0 0.007 0 0.010v-0.001c0 0.965 0.376 1.872 1.058 2.555l6.976 6.976c0.65 0.654 1.55 1.058 2.545 1.058 0.003 0 0.006 0 0.010 0h-0.001c0.004 0 0.010 0 0.015 0 0.985 0 1.877-0.399 2.523-1.043l-0 0 2.514-2.303-0.784-0.782h11.075zM21.641 18.065c-0 0.285-0.231 0.516-0.516 0.516h-0.434c0.149-0.341 0.263-0.701 0.336-1.075 0.232-0.052 0.437-0.136 0.623-0.249l-0.009 0.005v0.803zM21.124 16.373v-1.778c0.307 0.179 0.516 0.508 0.516 0.889-0.001 0.378-0.206 0.709-0.511 0.886l-0.005 0.003zM10.802 16.373c-0.31-0.181-0.515-0.511-0.516-0.889v-0c0-0.38 0.209-0.709 0.516-0.889v1.778zM10.802 12.903v0.59c-0.184 0.048-0.356 0.12-0.516 0.213v-1.835c0-3.131 2.547-5.677 5.677-5.677s5.677 2.547 5.677 5.677v1.835c-0.149-0.089-0.32-0.162-0.502-0.21l-0.014-0.003v-0.589h-0.516c-0.004 0-0.010 0-0.015 0-1.573 0-2.998-0.64-4.026-1.674l-0.605-0.605-0.604 0.604c-1.029 1.034-2.453 1.674-4.026 1.674-0.005 0-0.010 0-0.016-0h-0.515zM11.834 16.516v-2.601c1.612-0.123 3.046-0.799 4.132-1.837l-0.002 0.002c1.083 1.036 2.517 1.712 4.106 1.833l0.023 0.001v2.601c-0 0.761-0.208 1.473-0.569 2.083l0.010-0.019h-3.571v1.033h2.722c-0.721 0.641-1.676 1.032-2.722 1.033h-0c-2.277 0-4.129-1.853-4.129-4.129zM17.511 21.439v0.025l-1.548 1.548-1.548-1.549v-0.023c0.463 0.151 0.995 0.238 1.548 0.238s1.085-0.087 1.585-0.248l-0.036 0.010zM8.13 24.612c0.302-0.888 1.050-1.549 1.971-1.721l0.016-0.003 3.608-0.655 2.238 2.239 2.238-2.238 3.607 0.656c0.936 0.175 1.684 0.835 1.981 1.704l0.005 0.018 0.743 2.226h-10.676l-2.011-2.010-2.234 2.021c-0.095 0.091-0.223 0.147-0.365 0.147s-0.27-0.056-0.365-0.147l0 0-1.127-1.127 0.37-1.109zM3.399 18.012l2.366 2.367-0.56 0.561-2.367-2.367 0.561-0.56zM12.449 30.213c-0.465 0.467-1.108 0.755-1.819 0.755-0.002 0-0.004 0-0.006 0h0c-0.002 0-0.004 0-0.006 0-0.711 0-1.354-0.289-1.819-0.756l-6.976-6.976c-0.467-0.464-0.755-1.107-0.755-1.817 0-0.003 0-0.005 0-0.008v0c0-0.69 0.268-1.338 0.756-1.825l0.284-0.284 2.367 2.367-0.019 0.018c-0.28 0.28-0.453 0.668-0.453 1.095s0.173 0.815 0.453 1.095l3.701 3.701c0.279 0.28 0.665 0.453 1.092 0.453 0.001 0 0.002 0 0.003 0h-0c0.003 0 0.007 0 0.011 0 0.415 0 0.791-0.166 1.066-0.436l-0 0 0.039-0.035 2.378 2.378-0.296 0.271zM13.507 29.243l-2.372-2.372 0.682-0.617 2.369 2.369-0.677 0.62zM30.414 0h-7.225c-0.855 0.001-1.547 0.694-1.548 1.548v4.129c0 0.853 0.694 1.548 1.548 1.548h1.379l-0.533 3.113 4.98-3.113h1.4c0.853 0 1.549-0.694 1.549-1.548v-4.129c0-0.853-0.695-1.548-1.549-1.548zM30.931 5.677c-0.001 0.285-0.231 0.516-0.516 0.516h-1.696l-3.278 2.048 0.352-2.048h-2.603c-0.285-0.001-0.516-0.231-0.516-0.516v-4.129c0.001-0.285 0.231-0.516 0.516-0.516h7.226c0.285 0.001 0.516 0.231 0.516 0.516v4.129z"></path>
<path d="M29.899 2.065h-6.194v1.032h6.194v-1.032zM27.834 4.129h-4.129v1.032h4.129v-1.032zM29.899 4.129h-1.033v1.032h1.032v-1.032zM15.963 1.548c-6.743 0-12.552 4.665-14.062 11.172l-0.978-1.63-0.885 0.531 1.814 3.023 3.023-1.814-0.531-0.885-1.398 0.839c1.462-5.953 6.815-10.203 13.018-10.203 1.356 0 2.693 0.201 3.976 0.598l0.306-0.986c-1.277-0.409-2.745-0.645-4.269-0.645-0.004 0-0.009 0-0.013 0h0.001zM31.712 11.428l-3.023-1.814-1.813 3.024 0.885 0.531 0.903-1.506c0.455 1.289 0.718 2.775 0.718 4.323 0 0.005 0 0.010 0 0.015v-0.001c-0.003 3.213-1.131 6.162-3.012 8.474l0.019-0.025 0.802 0.651c2.005-2.463 3.221-5.639 3.223-9.099v-0.001c0-1.579-0.254-3.121-0.75-4.597l1.517 0.91 0.531-0.885z"></path>
</symbol>
<symbol id="icon-arrow-right" viewBox="0 0 30 32">
<path d="M20.112 5.816c-0.407-0.421-1.084-0.421-1.505 0-0.407 0.407-0.407 1.084 0 1.49l7.632 7.632h-25.185c-0.587 0.001-1.054 0.468-1.054 1.055s0.467 1.069 1.054 1.069h25.185l-7.632 7.618c-0.407 0.421-0.407 1.099 0 1.505 0.421 0.421 1.099 0.421 1.505 0l9.439-9.439c0.421-0.407 0.421-1.084 0-1.49l-9.439-9.44z"></path>
</symbol>
<symbol id="icon-check" viewBox="0 0 32 32">
<path d="M11.19 27.215c-0.402 0-0.804-0.154-1.11-0.46l-9.619-9.619c-0.614-0.614-0.614-1.607 0-2.221s1.606-0.614 2.221 0l8.509 8.509 18.129-18.128c0.614-0.614 1.606-0.614 2.221 0s0.614 1.607 0 2.221l-19.239 19.239c-0.306 0.306-0.709 0.46-1.111 0.46z"></path>
</symbol>
<symbol id="icon-clock" viewBox="0 0 32 32">
<path d="M16 3.516c-6.894 0-12.484 5.589-12.484 12.484s5.589 12.484 12.484 12.484v0c6.894 0 12.484-5.589 12.484-12.484s-5.589-12.484-12.484-12.484v0zM4.686 4.686c2.895-2.895 6.895-4.686 11.314-4.686 8.837 0 16 7.163 16 16 0 4.418-1.791 8.418-4.686 11.314v0c-2.895 2.895-6.895 4.686-11.314 4.686-8.837 0-16-7.163-16-16 0-4.418 1.791-8.418 4.686-11.314v0zM16 7.913c0.971 0 1.758 0.786 1.758 1.758v5.6l4.231 4.233c0.284 0.311 0.458 0.728 0.458 1.185 0 0.972-0.788 1.76-1.76 1.76-0.456 0-0.872-0.174-1.185-0.459l0.001 0.001-4.747-4.747c-0.319-0.318-0.516-0.758-0.516-1.244 0-0 0-0 0-0.001v0-6.329c0-0.971 0.787-1.759 1.758-1.76h0z"></path>
</symbol>
<symbol id="icon-view" viewBox="0 0 32 32">
<path d="M16 20c2.209 0 4-1.791 4-4s-1.791-4-4-4v0c-2.209 0-4 1.791-4 4s1.791 4 4 4v0z"></path>
<path d="M30.94 15.66c-2.406-6.104-8.14-10.398-14.909-10.66l-0.031-0.001c-6.8 0.264-12.534 4.557-14.901 10.549l-0.039 0.113c-0.038 0.101-0.060 0.218-0.060 0.34s0.022 0.239 0.062 0.347l-0.002-0.007c2.406 6.105 8.141 10.398 14.91 10.66l0.031 0.001c6.799-0.264 12.533-4.557 14.9-10.548l0.039-0.113c0.038-0.101 0.059-0.218 0.059-0.34s-0.022-0.239-0.062-0.347l0.002 0.007zM16 22.498c-3.59 0-6.5-2.91-6.5-6.5s2.91-6.5 6.5-6.5c3.59 0 6.5 2.91 6.5 6.5 0 0 0 0.001 0 0.001v-0c-0.006 3.587-2.912 6.493-6.498 6.5h-0.001z"></path>
</symbol>
<symbol id="icon-quote" viewBox="0 0 32 32">
<path d="M0.007 22.205c0 4.207 3.41 7.617 7.617 7.617s7.617-3.41 7.617-7.617c0-4.207-3.41-7.617-7.617-7.617v0c-0.884 0.001-1.732 0.154-2.52 0.432l0.053-0.016c1.715-9.832 9.381-16.172 2.273-10.953-7.88 5.787-7.431 17.921-7.424 18.144v0.011zM16.765 22.205c0 4.207 3.41 7.617 7.617 7.617s7.617-3.41 7.617-7.617c0-4.207-3.41-7.617-7.617-7.617v0c-0.884 0.001-1.732 0.154-2.52 0.432l0.053-0.016c1.713-9.832 9.38-16.172 2.273-10.953-7.88 5.787-7.433 17.921-7.424 18.144v0.011z"></path>
</symbol>
<symbol id="icon-star" viewBox="0 0 32 32">
<path d="M31.916 12.274c-0.212-0.639-0.775-1.103-1.455-1.167l-0.007-0.001-9.238-0.84-3.65-8.546c-0.265-0.614-0.866-1.036-1.565-1.036s-1.3 0.422-1.561 1.025l-0.004 0.011-3.65 8.548-9.24 0.838c-0.869 0.085-1.543 0.812-1.543 1.696 0 0.508 0.222 0.964 0.575 1.276l6.984 6.124-2.060 9.068c-0.028 0.115-0.044 0.247-0.044 0.383 0 0.939 0.761 1.7 1.7 1.7 0.323 0 0.626-0.090 0.883-0.247l-0.008 0.004 7.966-4.762 7.964 4.764c0.25 0.153 0.552 0.243 0.876 0.243 0.939 0 1.7-0.761 1.7-1.7 0-0.136-0.016-0.268-0.046-0.394l0.002 0.012-2.060-9.068 6.984-6.122c0.356-0.314 0.58-0.771 0.58-1.28 0-0.189-0.031-0.37-0.087-0.54l0.003 0.012z"></path>
</symbol>
<symbol id="icon-facebook" viewBox="0 0 32 32">
<path d="M30.786-0.071h-29.572c-0.711 0-1.285 0.574-1.285 1.285v29.572c0 0.711 0.574 1.285 1.285 1.285h29.572c0.711 0 1.285-0.574 1.285-1.285v-29.572c0-0.711-0.574-1.285-1.285-1.285zM27.074 9.31h-2.569c-2.012 0-2.402 0.956-2.402 2.363v3.097h4.805l-0.628 4.85h-4.178v12.452h-5.010v-12.444h-4.192v-4.853h4.192v-3.58c0-4.151 2.535-6.412 6.24-6.412 1.774 0 3.298 0.132 3.744 0.192v4.336h-0.004z"></path>
</symbol>
<symbol id="icon-instagram" viewBox="0 0 32 32">
<path d="M24.542 9.378c1.060 0 1.92-0.86 1.92-1.92s-0.86-1.92-1.92-1.92v0c-1.060 0-1.92 0.86-1.92 1.92s0.86 1.92 1.92 1.92v0zM16 7.783c-4.538 0-8.216 3.678-8.216 8.216s3.678 8.216 8.216 8.216v0c4.538 0 8.216-3.678 8.216-8.216s-3.678-8.216-8.216-8.216v0zM16 21.333c-2.946 0-5.333-2.388-5.333-5.333s2.388-5.333 5.333-5.333v0c2.946 0 5.333 2.388 5.333 5.333s-2.388 5.333-5.333 5.333v0z"></path>
<path d="M16 2.882c4.272 0 4.779 0.018 6.466 0.094 1.069 0.013 2.088 0.214 3.030 0.571l-0.061-0.020c1.401 0.549 2.489 1.636 3.027 3.001l0.012 0.036c0.352 0.951 0.537 1.956 0.549 2.971 0.076 1.687 0.092 2.194 0.092 6.468s-0.016 4.777-0.092 6.464c-0.013 1.069-0.214 2.088-0.571 3.030l0.020-0.061c-0.549 1.401-1.636 2.489-3.001 3.027l-0.036 0.012c-0.951 0.352-1.956 0.537-2.971 0.549-1.687 0.076-2.194 0.092-6.466 0.092s-4.779-0.016-6.466-0.092c-1.069-0.014-2.088-0.214-3.030-0.571l0.061 0.020c-1.401-0.549-2.489-1.637-3.027-3.001l-0.013-0.036c-0.336-0.882-0.537-1.901-0.549-2.965l-0-0.005c-0.076-1.687-0.092-2.194-0.092-6.466s0.014-4.779 0.092-6.466c0.012-1.013 0.199-2.020 0.551-2.969 0.549-1.401 1.637-2.489 3.001-3.027l0.036-0.013c0.882-0.336 1.901-0.537 2.965-0.549l0.005-0c1.687-0.076 2.194-0.092 6.466-0.092zM16 0c-4.345 0-4.891 0.018-6.597 0.096-1.402 0.029-2.732 0.299-3.963 0.77l0.080-0.027c-2.157 0.85-3.832 2.526-4.662 4.627l-0.019 0.055c-0.444 1.15-0.714 2.481-0.743 3.87l-0 0.012c-0.076 1.707-0.096 2.249-0.096 6.596s0.018 4.891 0.096 6.597c0.027 1.326 0.279 2.64 0.743 3.883 0.849 2.157 2.524 3.832 4.625 4.662l0.055 0.019c1.244 0.466 2.556 0.716 3.884 0.743 1.707 0.076 2.251 0.096 6.596 0.096s4.891-0.018 6.597-0.096c1.403-0.029 2.734-0.3 3.965-0.772l-0.080 0.027c2.156-0.849 3.83-2.524 4.66-4.624l0.019-0.055c0.466-1.244 0.716-2.556 0.743-3.884 0.076-1.707 0.096-2.249 0.096-6.596s-0.018-4.891-0.096-6.597c-0.030-1.402-0.3-2.732-0.772-3.963l0.027 0.080c-0.848-2.156-2.522-3.831-4.622-4.662l-0.055-0.019c-1.152-0.444-2.483-0.714-3.874-0.741l-0.012-0c-1.707-0.080-2.249-0.098-6.596-0.098z"></path>
</symbol>
<symbol id="icon-messenger" viewBox="0 0 32 32">
<path d="M17.508 19.861l-4.096-4.256-7.892 4.363 8.649-9.177 4.096 4.256 7.888-4.364-8.647 9.179zM15.838 0c-8.745 0-15.838 6.631-15.838 14.811 0 4.652 2.293 8.805 5.884 11.52v5.669l5.404-2.999c1.44 0.404 2.969 0.622 4.551 0.622 8.747 0 15.84-6.631 15.84-14.812 0-8.18-7.093-14.811-15.84-14.811z"></path>
</symbol>
<symbol id="icon-viber" viewBox="0 0 32 32">
<path d="M15.198 0.005c-2.569 0.030-8.089 0.453-11.177 3.284-2.297 2.277-3.099 5.643-3.193 9.804-0.078 4.146-0.172 11.932 7.332 14.052v3.228s-0.048 1.292 0.805 1.557c1.052 0.334 1.653-0.661 2.652-1.728l1.865-2.11c5.134 0.427 9.067-0.556 9.52-0.702 1.042-0.332 6.912-1.084 7.87-8.871 0.985-8.041-0.48-13.108-3.12-15.401h-0.016c-0.796-0.732-4-3.067-11.156-3.093 0 0-0.532-0.036-1.387-0.021zM15.287 2.267c0.729-0.005 1.172 0.025 1.172 0.025 6.057 0.018 8.948 1.84 9.63 2.453 2.222 1.906 3.369 6.475 2.53 13.188-0.796 6.51-5.557 6.923-6.437 7.204-0.375 0.121-3.84 0.974-8.203 0.693 0 0-3.252 3.922-4.267 4.932-0.16 0.178-0.348 0.229-0.469 0.203-0.172-0.041-0.224-0.254-0.213-0.546l0.030-5.36c-6.364-1.76-5.991-8.4-5.92-11.87 0.076-3.468 0.729-6.306 2.667-8.229 2.606-2.357 7.296-2.676 9.476-2.692h0.002zM15.767 5.733c-0.002-0-0.003-0-0.005-0-0.219 0-0.396 0.178-0.396 0.396 0 0 0 0 0 0v0c0 0.224 0.181 0.402 0.4 0.402 0.043-0.001 0.094-0.001 0.145-0.001 2.035 0 3.88 0.809 5.233 2.122l-0.002-0.002c1.452 1.412 2.16 3.307 2.187 5.787 0 0.219 0.178 0.4 0.402 0.4v-0.016c0.001 0 0.001 0 0.002 0 0.219 0 0.397-0.176 0.4-0.394v-0c0.005-0.107 0.008-0.233 0.008-0.36 0-2.329-0.925-4.443-2.427-5.993l0.002 0.002c-1.582-1.547-3.589-2.343-5.948-2.343zM10.494 6.651c-0.055-0.008-0.118-0.013-0.182-0.013-0.234 0-0.454 0.064-0.641 0.176l0.006-0.003h-0.021c-0.588 0.349-1.091 0.766-1.52 1.25l-0.006 0.007c-0.364 0.421-0.564 0.848-0.615 1.259-0.009 0.065-0.014 0.14-0.014 0.216 0 0.182 0.028 0.357 0.081 0.521l-0.003-0.012 0.025 0.016c0.411 1.209 0.948 2.37 1.604 3.463 0.846 1.538 1.884 2.958 3.093 4.231l0.037 0.050 0.057 0.043 0.036 0.043 0.043 0.036c1.275 1.212 2.7 2.258 4.24 3.109 1.76 0.956 2.827 1.41 3.468 1.6v0.009c0.188 0.057 0.359 0.082 0.532 0.082 0.57-0.043 1.078-0.274 1.47-0.631l-0.002 0.002c0.488-0.435 0.9-0.939 1.225-1.501l0.016-0.029v-0.011c0.306-0.578 0.203-1.125-0.24-1.493-0.845-0.742-1.782-1.422-2.78-2.012l-0.086-0.047c-0.681-0.37-1.374-0.146-1.655 0.229l-0.599 0.756c-0.308 0.373-0.866 0.322-0.866 0.322l-0.016 0.011c-4.16-1.063-5.269-5.276-5.269-5.276s-0.052-0.572 0.334-0.864l0.75-0.604c0.357-0.292 0.608-0.985 0.224-1.668-0.632-1.083-1.311-2.020-2.072-2.884l0.017 0.020c-0.166-0.204-0.399-0.349-0.665-0.401l-0.007-0.001 0.002 0.002zM16.459 7.838c-0.533 0-0.533 0.804 0.004 0.804 1.388 0.022 2.635 0.604 3.531 1.528l0.001 0.001c0.749 0.824 1.208 1.924 1.208 3.131 0 0.104-0.003 0.208-0.010 0.311l0.001-0.014c0.004 0.219 0.181 0.395 0.4 0.396h0l0.016 0.021c0.221-0.001 0.401-0.18 0.402-0.402v-0c0.036-1.588-0.459-2.921-1.428-3.989-0.974-1.067-2.332-1.668-4.068-1.787h-0.057zM17.116 9.995c-0.549-0.016-0.569 0.802-0.027 0.818 1.316 0.069 1.956 0.734 2.041 2.105 0.004 0.216 0.18 0.39 0.396 0.391h0.016c0.214-0.009 0.385-0.185 0.385-0.401 0-0.009-0-0.018-0.001-0.026l0 0.001c-0.092-1.787-1.067-2.791-2.796-2.885h-0.016z"></path>
</symbol>
<symbol id="icon-google" viewBox="0 0 32 32">
<path d="M32 16c0-1.005-0.094-2.011-0.281-2.988-0.084-0.442-0.471-0.762-0.921-0.762h-14.735c-0.518 0-0.938 0.419-0.938 0.938v5.625c0 0.518 0.419 0.938 0.938 0.938h7.56c-0.471 0.954-1.12 1.781-1.883 2.477l5.299 5.299c3.049-2.905 4.961-6.992 4.961-11.526z"></path>
<path d="M16 7.5c1.839 0 3.589 0.584 5.059 1.69 0.372 0.279 0.896 0.245 1.226-0.087l4.001-4.001c0.186-0.186 0.286-0.441 0.274-0.704s-0.133-0.508-0.334-0.678c-2.863-2.4-6.495-3.721-10.226-3.721-5.491 0-10.341 2.791-13.209 7.028l5.503 5.503c1.313-2.957 4.267-5.031 7.706-5.031z"></path>
<path d="M16 32c3.579 0 6.875-1.2 9.538-3.199l-5.398-5.398c-1.234 0.695-2.644 1.097-4.139 1.097-3.439 0-6.393-2.074-7.706-5.031l-5.503 5.503c2.867 4.237 7.718 7.028 13.209 7.028z"></path>
<path d="M7.636 17.35c-0.072-0.442-0.136-0.888-0.136-1.35s0.065-0.908 0.136-1.35l-5.883-5.883c-1.113 2.174-1.754 4.628-1.754 7.233s0.641 5.059 1.754 7.233z"></path>
</symbol>
<symbol id="icon-gosogle" viewBox="0 0 32 32">
<path fill="#59c36a" style="fill: var(--color1, #59c36a)" d="M26.294 28.169c-2.775 2.344-6.375 3.831-10.294 3.831-5.831 0-10.95-3.212-13.725-7.9l1.039-4.789 4.605-0.855c1.069 3.45 4.294 5.981 8.081 5.981 1.837 0 3.544-0.581 4.95-1.613l4.425 0.675z"></path>
<path fill="#00a66c" style="fill: var(--color2, #00a66c)" d="M26.294 28.169l-0.919-4.669-4.425-0.675c-1.406 1.031-3.113 1.613-4.95 1.613v7.563c3.919 0 7.519-1.488 10.294-3.831z"></path>
<path fill="#ffda2d" style="fill: var(--color3, #ffda2d)" d="M7.563 16c0 0.862 0.131 1.687 0.356 2.456l-5.644 5.644c-1.406-2.363-2.275-5.138-2.275-8.1s0.869-5.738 2.275-8.1l4.53 0.78 1.114 4.864c-0.225 0.769-0.356 1.594-0.356 2.456z"></path>
<path fill="#4086f4" style="fill: var(--color4, #4086f4)" d="M32 16c0 4.875-2.256 9.244-5.706 12.169l-5.344-5.344c1.087-0.788 2.006-1.838 2.606-3.075h-7.556c-0.525 0-0.938-0.413-0.938-0.938v-5.625c0-0.525 0.412-0.938 0.938-0.938h14.8c0.45 0 0.844 0.319 0.919 0.769 0.188 0.975 0.281 1.988 0.281 2.981z"></path>
<path fill="#4175df" style="fill: var(--color5, #4175df)" d="M23.556 19.75c-0.6 1.237-1.519 2.287-2.606 3.075l5.344 5.344c3.45-2.925 5.706-7.294 5.706-12.169 0-0.994-0.094-2.006-0.281-2.981-0.075-0.45-0.469-0.769-0.919-0.769h-14.8v7.5z"></path>
<path fill="#ff641a" style="fill: var(--color6, #ff641a)" d="M26.556 4.469c0.019 0.263-0.094 0.506-0.262 0.694l-4.012 3.994c-0.319 0.338-0.844 0.375-1.219 0.094-1.481-1.106-3.225-1.687-5.063-1.687-3.788 0-7.013 2.531-8.081 5.981l-5.644-5.644c2.775-4.688 7.894-7.9 13.725-7.9 3.731 0 7.369 1.375 10.219 3.775 0.206 0.169 0.319 0.431 0.337 0.694z"></path>
<path fill="#f03800" style="fill: var(--color7, #f03800)" d="M21.063 9.25c0.375 0.281 0.9 0.244 1.219-0.094l4.012-3.994c0.169-0.187 0.281-0.431 0.262-0.694s-0.131-0.525-0.337-0.694c-2.85-2.4-6.487-3.775-10.219-3.775v7.563c1.837 0 3.581 0.581 5.063 1.687z"></path>
</symbol>
<symbol id="icon-email" viewBox="0 0 32 32">
<path d="M28 6h-24c-1.105 0-2 0.895-2 2v0 16c0 1.105 0.895 2 2 2v0h24c1.105 0 2-0.895 2-2v0-16c0-1.105-0.895-2-2-2v0zM25.799 8l-9.799 6.78-9.801-6.78h19.6zM4 24v-15.090l11.431 7.911c0.159 0.111 0.356 0.178 0.569 0.178s0.41-0.067 0.572-0.18l-0.003 0.002 11.431-7.911v15.090h-24z"></path>
</symbol>
<symbol id="icon-location" viewBox="0 0 32 32">
<path d="M16 18c-0.025 0-0.055 0.001-0.085 0.001-2.762 0-5.001-2.239-5.001-5.001s2.239-5.001 5.001-5.001c0.030 0 0.060 0 0.090 0.001l-0.005-0c2.725 0.048 4.915 2.268 4.915 5s-2.191 4.952-4.911 5l-0.005 0zM16 10c-0.020-0-0.043-0.001-0.066-0.001-1.657 0-3.001 1.343-3.001 3.001s1.343 3.001 3.001 3.001c0.023 0 0.046-0 0.070-0.001l-0.003 0c1.629-0.037 2.935-1.366 2.935-3s-1.306-2.963-2.931-3l-0.003-0z"></path>
<path d="M16 30l-8.436-9.949-0.348-0.451c-1.383-1.806-2.215-4.097-2.215-6.583 0-0.006 0-0.011 0-0.017v0.001c0-6.075 4.925-11 11-11s11 4.925 11 11v0c0 0.005 0 0.010 0 0.015 0 2.485-0.833 4.775-2.235 6.607l0.019-0.026-0.001 0.003s-0.3 0.393-0.345 0.447l-8.439 9.953zM8.812 18.396c0.003 0 0.234 0.307 0.288 0.374l6.9 8.138 6.909-8.15c0.044-0.055 0.279-0.364 0.279-0.367 1.13-1.477 1.811-3.35 1.811-5.382 0-0.004 0-0.007 0-0.011v0.001c0-4.97-4.029-8.999-8.999-8.999s-8.999 4.029-8.999 8.999v0c0 0.003 0 0.007 0 0.011 0 2.033 0.681 3.907 1.828 5.406l-0.016-0.021z"></path>
</symbol>
<symbol id="icon-phone" viewBox="0 0 32 32">
<path d="M26 29.001h-0.17c-19.648-1.132-22.439-17.712-22.829-22.771-0.006-0.071-0.009-0.154-0.009-0.237 0-1.576 1.214-2.868 2.758-2.991l0.011-0.001h5.51c0.001 0 0.003 0 0.004 0 0.838 0 1.555 0.515 1.853 1.246l0.005 0.013 1.517 3.74c0.092 0.221 0.145 0.478 0.145 0.747 0 0.551-0.223 1.051-0.584 1.413l0-0-2.129 2.15c0.701 3.876 3.708 6.89 7.524 7.591l0.058 0.009 2.169-2.15c0.36-0.35 0.852-0.567 1.395-0.567 0.28 0 0.546 0.058 0.788 0.161l-0.013-0.005 3.77 1.51c0.729 0.309 1.231 1.019 1.231 1.846 0 0.005-0 0.010-0 0.015v-0.001 5.28c0 0 0 0.001 0 0.001 0 1.656-1.343 2.999-2.999 2.999-0 0-0.001 0-0.002 0h0zM6 5.001c-0.552 0.001-0.998 0.448-0.999 0.999v0.080c0.46 5.92 3.409 19.92 20.94 20.921 0.019 0.001 0.041 0.002 0.063 0.002 0.532 0 0.967-0.416 0.998-0.94l0-0.003v-5.34l-3.77-1.51-2.87 2.851-0.48-0.061c-8.701-1.091-9.881-9.789-9.881-9.881l-0.060-0.48 2.839-2.868-1.498-3.769h-5.28z"></path>
</symbol>
<symbol id="icon-hours" viewBox="0 0 32 32">
<path d="M16 2c-7.731 0-14 6.269-14 14s6.269 14 14 14 14-6.269 14-14-6.269-14-14-14zM16 27.625c-6.419-0.002-11.623-5.205-11.625-11.625v-0c0.002-6.419 5.205-11.623 11.625-11.625h0c6.419 0.002 11.623 5.205 11.625 11.625v0c-0.002 6.419-5.205 11.623-11.625 11.625h-0z"></path>
<path d="M21.459 19.956l-4.455-3.222v-7.735c-0.001-0.138-0.113-0.249-0.25-0.249 0 0 0 0 0 0h-1.504c-0.137 0.001-0.248 0.112-0.249 0.249v8.607c-0 0.001-0 0.002-0 0.004 0 0.082 0.040 0.154 0.101 0.2l0.001 0 5.169 3.767c0.041 0.030 0.092 0.048 0.148 0.048 0.082 0 0.155-0.039 0.201-0.099l0-0.001 0.895-1.219c0.030-0.041 0.048-0.091 0.048-0.146 0-0.083-0.041-0.157-0.104-0.202l-0.001-0z"></path>
</symbol>
<symbol id="icon-phone-call" viewBox="0 0 32 32">
<path d="M9.65 21.975c-0.113-0.113-0.269-0.182-0.441-0.183h-0c-0.173 0-0.329 0.070-0.443 0.183l0-0c-0.116 0.116-0.182 0.277-0.182 0.442s0.066 0.326 0.182 0.442c0.113 0.113 0.27 0.183 0.442 0.183h0c0.172-0.001 0.329-0.071 0.442-0.183l-0 0c0.116-0.116 0.182-0.277 0.182-0.442s-0.066-0.326-0.182-0.442z"></path>
<path d="M27.748 24.429l-4.336-4.336c-1.167-1.167-3.067-1.167-4.234 0l-0.989 0.989c-0.218 0.218-0.519 0.352-0.852 0.352s-0.634-0.135-0.852-0.352l-5.567-5.567c-0.218-0.218-0.352-0.519-0.352-0.852s0.135-0.634 0.352-0.852l0.989-0.989c1.167-1.167 1.167-3.067 0-4.234l-4.336-4.336c-0.539-0.542-1.285-0.877-2.109-0.877-0.003 0-0.006 0-0.009 0h0c-0.002 0-0.005 0-0.008 0-0.824 0-1.57 0.335-2.109 0.877l-1.038 1.038c-1.42 1.413-2.3 3.369-2.3 5.53 0 0.008 0 0.015 0 0.023v-0.001c-0 0.006-0 0.014-0 0.021 0 2.161 0.879 4.117 2.299 5.53l4.726 4.726c0.113 0.113 0.269 0.183 0.442 0.183 0.345 0 0.625-0.28 0.625-0.625 0-0.173-0.070-0.329-0.183-0.442l-4.726-4.725c-1.194-1.188-1.933-2.833-1.933-4.65 0-0.006 0-0.013 0-0.019v0.001c0-1.763 0.687-3.421 1.933-4.668l1.038-1.038c0.314-0.315 0.748-0.511 1.228-0.511 0.002 0 0.003 0 0.005 0h-0c0.466 0 0.904 0.181 1.233 0.511l4.336 4.336c0.315 0.316 0.51 0.752 0.51 1.233s-0.195 0.917-0.51 1.233l-0.562 0.562-3.981-3.981c-0.113-0.113-0.269-0.183-0.442-0.183-0.345 0-0.625 0.28-0.625 0.625 0 0.173 0.070 0.329 0.183 0.442l4.042 4.042c-0.203 0.348-0.323 0.766-0.323 1.212 0 0.002 0 0.004 0 0.005v-0c0 0.002 0 0.004 0 0.007 0 0.676 0.275 1.287 0.719 1.729l0 0 5.567 5.567c0.442 0.444 1.053 0.719 1.729 0.719 0.002 0 0.005 0 0.007 0h-0c0.001 0 0.003 0 0.004 0 0.446 0 0.865-0.12 1.225-0.329l-0.012 0.006 4.588 4.588c0.113 0.113 0.269 0.183 0.442 0.183 0 0 0 0 0 0h-0c0 0 0 0 0 0 0.345 0 0.625-0.28 0.625-0.625 0-0.173-0.070-0.329-0.183-0.442l-4.526-4.527 0.562-0.562c0.316-0.315 0.752-0.51 1.233-0.51s0.917 0.195 1.233 0.51l4.336 4.336c0.316 0.314 0.511 0.748 0.511 1.229 0 0.002 0 0.003 0 0.005v-0c0 0.001 0 0.003 0 0.005 0 0.48-0.195 0.914-0.511 1.228l-1.038 1.038c-1.188 1.194-2.833 1.933-4.65 1.933-0.006 0-0.012 0-0.019-0h0.001c-1.763 0-3.421-0.687-4.668-1.933l-5.236-5.236c-0.113-0.113-0.269-0.183-0.442-0.183-0.345 0-0.625 0.28-0.625 0.625 0 0.173 0.070 0.329 0.183 0.442l5.235 5.235c1.413 1.421 3.369 2.3 5.531 2.3 0.008 0 0.015 0 0.023-0h-0.001c0.006 0 0.014 0 0.021 0 2.161 0 4.117-0.879 5.53-2.299l1.038-1.038c0.542-0.539 0.877-1.285 0.877-2.109 0-0.003 0-0.006 0-0.009v0c0-0.002 0-0.005 0-0.008 0-0.824-0.335-1.57-0.877-2.109l-0-0z"></path>
<path d="M4.947 6.987c-0.113-0.113-0.269-0.182-0.441-0.183h-0c-0.164 0-0.326 0.067-0.442 0.183-0.113 0.113-0.183 0.269-0.183 0.442v0c0 0.164 0.067 0.326 0.183 0.442s0.277 0.183 0.442 0.183 0.326-0.067 0.442-0.183c0.116-0.116 0.183-0.278 0.183-0.442s-0.067-0.326-0.183-0.442zM24.637 0h-3.789c-4.059 0-7.361 3.302-7.361 7.362 0 0.003 0 0.008 0 0.012 0 3.254 2.115 6.014 5.045 6.98l0.052 0.015v1.631c0 0 0 0 0 0 0 0.345 0.28 0.625 0.625 0.625 0.138 0 0.265-0.044 0.368-0.12l-0.002 0.001 2.464-1.782h2.598c4.059 0 7.362-3.302 7.362-7.362s-3.303-7.362-7.363-7.362zM24.637 13.474h-2.8c-0.132 0-0.26 0.042-0.366 0.118l-1.637 1.184v-0.879c0-0.287-0.195-0.537-0.473-0.606-2.677-0.684-4.624-3.074-4.624-5.919 0-0.003 0-0.007 0-0.010v0.001c0-3.37 2.742-6.112 6.112-6.112h3.789c3.37 0 6.112 2.742 6.112 6.112s-2.742 6.112-6.112 6.112z"></path>
<path d="M19.722 6.92c-0.113-0.113-0.269-0.182-0.441-0.183h-0c-0.164 0-0.326 0.067-0.442 0.183-0.113 0.113-0.183 0.269-0.183 0.441v0c0 0.165 0.067 0.326 0.183 0.442s0.277 0.183 0.442 0.183 0.326-0.067 0.442-0.183c0.116-0.116 0.183-0.277 0.183-0.442s-0.067-0.326-0.183-0.442zM23.171 6.92c-0.113-0.113-0.269-0.182-0.441-0.183h-0c-0.173 0-0.329 0.070-0.442 0.183v0c-0.112 0.113-0.182 0.269-0.182 0.441 0 0.345 0.279 0.624 0.623 0.626h0c0.165 0 0.326-0.067 0.442-0.183s0.183-0.277 0.183-0.442c-0.001-0.173-0.071-0.329-0.183-0.442l0 0zM26.619 6.92c-0.113-0.113-0.269-0.183-0.442-0.183h-0c-0.164 0-0.326 0.067-0.442 0.183-0.113 0.113-0.182 0.269-0.183 0.441v0c0 0.165 0.067 0.326 0.183 0.442s0.277 0.183 0.442 0.183c0.165 0 0.326-0.067 0.442-0.183s0.183-0.277 0.183-0.442c0-0.164-0.067-0.326-0.183-0.442z"></path>
</symbol>
<symbol id="icon-question" viewBox="0 0 32 32">
<path d="M16.938 0c0.618 0.083 1.238 0.147 1.852 0.25 2.25 0.384 4.309 1.24 6.196 2.517 0.348 0.235 0.437 0.617 0.235 0.915s-0.578 0.359-0.938 0.116c-1.556-1.070-3.39-1.864-5.368-2.262l-0.095-0.016c-7.906-1.552-15.632 3.574-17.232 11.485-0.843 4.172-0.046 8.045 2.404 11.549 0.23 0.33 0.289 0.633 0.177 1.018-0.267 0.918-0.5 1.846-0.746 2.771-0.023 0.086-0.037 0.174-0.067 0.313 0.585-0.153 1.125-0.293 1.661-0.437 0.472-0.125 0.949-0.238 1.413-0.39 0.383-0.125 0.694-0.062 1.018 0.177 1.243 0.915 2.692 1.641 4.256 2.097l0.098 0.024c8.18 2.358 16.736-2.478 18.599-11 0.881-4.028 0.136-7.791-2.101-11.258-0.051-0.079-0.106-0.154-0.152-0.236-0.179-0.317-0.108-0.669 0.17-0.858 0.098-0.069 0.219-0.111 0.351-0.111 0.222 0 0.416 0.118 0.523 0.296l0.002 0.003c0.39 0.625 0.787 1.25 1.122 1.908 0.894 1.719 1.481 3.732 1.633 5.865l0.003 0.049c0.011 0.094 0.027 0.187 0.049 0.278v1.875c-0.023 0.089-0.041 0.179-0.052 0.27-0.176 2.359-0.827 4.582-2.010 6.625-2.45 4.237-6.075 6.856-10.875 7.859-0.678 0.141-1.375 0.208-2.062 0.309h-1.938c-0.059-0.018-0.13-0.034-0.203-0.045l-0.008-0.001c-2.981-0.215-5.691-1.217-7.97-2.797l0.053 0.035c-0.085-0.051-0.188-0.081-0.297-0.081-0.044 0-0.087 0.005-0.128 0.014l0.004-0.001c-1.25 0.321-2.492 0.66-3.737 0.99-0.702 0.188-1.077-0.187-0.89-0.891 0.319-1.195 0.634-2.391 0.97-3.581 0.078-0.276 0.038-0.477-0.125-0.715-1.219-1.76-2.093-3.852-2.477-6.111l-0.013-0.091c-0.096-0.573-0.163-1.151-0.243-1.726v-2c0.021-0.081 0.041-0.184 0.056-0.289l0.002-0.015c0.135-1.714 0.516-3.375 1.221-4.94 2.368-5.254 6.388-8.428 12.058-9.522 0.57-0.109 1.151-0.157 1.727-0.234h1.875z"></path>
<path d="M22.161 12.086c-0.102 2.312-1.131 4.166-3.227 5.369-0.661 0.38-1.046 0.84-1.095 1.634-0.070 1.116-0.981 1.862-2.075 1.8-1.062-0.062-1.859-0.921-1.829-2.022 0.058-2.088 1.018-3.653 2.827-4.681 0.633-0.359 1.139-0.801 1.356-1.513 0.354-1.159-0.307-2.419-1.494-2.866-1.094-0.412-2.375 0.146-2.862 1.246-0.067 0.152-0.12 0.313-0.195 0.459-0.328 0.651-0.992 1.090-1.758 1.090-1.084 0-1.962-0.879-1.962-1.962 0-0.211 0.033-0.414 0.095-0.605l-0.004 0.014c0.73-2.383 3.094-4.205 5.584-4.303 0.083-0.004 0.181-0.006 0.279-0.006 3.203 0 5.853 2.365 6.3 5.444l0.004 0.034c0.036 0.257 0.034 0.518 0.056 0.867zM20.911 12.023c-0.080-2.013-1.015-3.511-2.759-4.452-1.702-0.918-3.412-0.779-5.033 0.256-0.951 0.607-1.602 1.475-1.975 2.542-0.141 0.404 0.028 0.786 0.392 0.933 0.375 0.152 0.77-0.022 0.949-0.42 0.029-0.066 0.049-0.137 0.076-0.204 0.707-1.764 2.675-2.678 4.437-2.062 1.843 0.643 2.871 2.612 2.305 4.437-0.309 0.996-0.967 1.693-1.875 2.191-1.427 0.782-2.197 1.995-2.245 3.637-0.013 0.437 0.259 0.738 0.656 0.762 0.419 0.026 0.721-0.242 0.771-0.687 0.018-0.165 0.012-0.334 0.044-0.5 0.181-0.92 0.717-1.563 1.535-2.007 1.751-0.951 2.623-2.452 2.724-4.424h-0.003zM15.875 26.264c-1.085 0-1.965-0.88-1.965-1.965s0.88-1.965 1.965-1.965v0c1.091-0.005 2 0.9 1.987 1.984-0.010 1.077-0.885 1.946-1.963 1.946-0.008 0-0.017-0-0.025-0h0.001zM15.888 25.014c0.003 0 0.006 0 0.009 0 0.391 0 0.709-0.316 0.71-0.707v-0c-0.006-0.393-0.323-0.71-0.716-0.716h-0.001c0 0 0 0 0 0-0.392 0-0.71 0.318-0.71 0.71 0 0.001 0 0.002 0 0.003v-0c-0 0.004-0 0.008-0 0.013 0 0.384 0.311 0.696 0.696 0.696 0.005 0 0.010-0 0.015-0h-0.001l-0.002 0.002zM26.88 4.508c0.336 0.013 0.604 0.285 0.612 0.62v0.001c-0.003 0.346-0.284 0.625-0.63 0.625-0.090 0-0.176-0.019-0.253-0.053l0.004 0.002c-0.216-0.097-0.364-0.31-0.364-0.558 0-0.014 0-0.028 0.001-0.042l-0 0.002c0.015-0.333 0.289-0.597 0.624-0.597 0.002 0 0.004 0 0.006 0h-0z"></path>
</symbol>
<symbol id="icon-clock-2" viewBox="0 0 32 32">
<path d="M27.314 4.686c-3.022-3.022-7.040-4.686-11.314-4.686s-8.292 1.664-11.314 4.686c-3.022 3.022-4.686 7.040-4.686 11.314s1.664 8.292 4.686 11.314c3.022 3.022 7.040 4.686 11.314 4.686s8.292-1.664 11.314-4.686c3.022-3.022 4.686-7.040 4.686-11.314s-1.664-8.292-4.686-11.314zM16 30.75c-8.133 0-14.75-6.617-14.75-14.75s6.617-14.75 14.75-14.75 14.75 6.617 14.75 14.75-6.617 14.75-14.75 14.75z"></path>
<path d="M25.302 6.697c-4.472-4.473-11.503-5.132-16.717-1.568-0.16 0.115-0.263 0.3-0.263 0.509 0 0.345 0.28 0.625 0.625 0.625 0.128 0 0.247-0.038 0.346-0.104l-0.002 0.001c4.718-3.225 11.080-2.628 15.128 1.42 2.249 2.249 3.487 5.238 3.487 8.419s-1.238 6.17-3.487 8.419c-2.249 2.249-5.239 3.487-8.419 3.487s-6.17-1.238-8.419-3.487c-4.006-4.006-4.632-10.326-1.488-15.028 0.062-0.095 0.099-0.212 0.099-0.338 0-0.345-0.28-0.625-0.625-0.625-0.212 0-0.399 0.105-0.512 0.266l-0.001 0.002c-3.475 5.196-2.784 12.18 1.643 16.606 2.485 2.485 5.789 3.853 9.303 3.853s6.818-1.368 9.303-3.853 3.853-5.788 3.853-9.303-1.369-6.818-3.854-9.302z"></path>
<path d="M7.101 7.803c0.161 0 0.321-0.061 0.444-0.185l0.017-0.017c0.113-0.113 0.183-0.269 0.183-0.441s-0.070-0.329-0.184-0.442l-0-0c-0.113-0.113-0.269-0.182-0.442-0.182s-0.33 0.070-0.443 0.183v0l-0.018 0.018c-0.112 0.113-0.182 0.269-0.182 0.441 0 0.345 0.28 0.625 0.625 0.625 0 0 0 0 0.001 0h-0zM26.187 16.637c0.345 0 0.625-0.28 0.625-0.625s-0.28-0.625-0.625-0.625v0h-0.883c-0.345 0-0.625 0.28-0.625 0.625s0.28 0.625 0.625 0.625h0.883zM5.812 15.363c-0.345 0-0.625 0.28-0.625 0.625s0.28 0.625 0.625 0.625h0.883c0.345 0 0.625-0.28 0.625-0.625s-0.28-0.625-0.625-0.625h-0.883zM15.363 25.305v0.883c0 0.345 0.28 0.625 0.625 0.625s0.625-0.28 0.625-0.625v-0.883c0-0.345-0.28-0.625-0.625-0.625s-0.625 0.28-0.625 0.625v0zM16.613 6.718v-0.883c0-0.345-0.28-0.625-0.625-0.625s-0.625 0.28-0.625 0.625v0 0.883c0 0.345 0.28 0.625 0.625 0.625s0.625-0.28 0.625-0.625v0zM24.541 19.499c-0.65 1.56-1.661 2.859-2.933 3.835l-0.022 0.016c-0.151 0.115-0.247 0.295-0.247 0.498 0 0.345 0.28 0.625 0.625 0.625 0.143 0 0.274-0.048 0.379-0.128l-0.002 0.001c1.469-1.127 2.617-2.602 3.33-4.304l0.026-0.069c0.029-0.070 0.047-0.151 0.047-0.237 0-0.345-0.28-0.625-0.625-0.625-0.26 0-0.483 0.159-0.577 0.384l-0.002 0.004zM19.818 25.711c0.081 0 0.163-0.016 0.242-0.049l0.053-0.022c0.226-0.098 0.38-0.318 0.38-0.575 0-0.345-0.28-0.625-0.625-0.625-0.088 0-0.172 0.018-0.249 0.051l0.004-0.002-0.048 0.020c-0.227 0.097-0.383 0.318-0.383 0.576 0 0.345 0.28 0.625 0.625 0.625 0 0 0.001 0 0.001 0h-0zM9.042 22.947c0.122 0.122 0.282 0.183 0.442 0.183s0.32-0.061 0.442-0.183l4.89-4.89c0.339 0.2 0.747 0.318 1.183 0.318 0.001 0 0.002 0 0.002 0h-0c1.309 0 2.375-1.066 2.375-2.375s-1.066-2.375-2.375-2.375c-0.001 0-0.001 0-0.002 0-0.433 0-0.838 0.116-1.187 0.32l0.011-0.006-2.474-2.474c-0.113-0.113-0.269-0.183-0.442-0.183-0.345 0-0.625 0.28-0.625 0.625 0 0.173 0.070 0.329 0.183 0.442l2.474 2.475c-0.197 0.337-0.314 0.743-0.314 1.175 0 0.001 0 0.001 0 0.002v-0c0 0.425 0.113 0.824 0.309 1.17l-4.893 4.893c-0.244 0.244-0.244 0.64 0 0.884zM17.125 16c-0.001 0.621-0.504 1.124-1.125 1.125h-0c-0.621-0.001-1.124-0.504-1.125-1.125v-0c0.001-0.621 0.504-1.124 1.125-1.125h0c0.621 0.001 1.124 0.504 1.125 1.125v0z"></path>
</symbol>
<symbol id="icon-payment-2" viewBox="0 0 32 32">
<path d="M26.667 5.65v-2.984c-0.002-1.472-1.195-2.665-2.666-2.667h-21.334c-1.472 0.002-2.665 1.195-2.667 2.666v11.734c0.004 1.371 1.045 2.498 2.38 2.638l0.012 0.001 2.005 5.204c0.396 1.008 1.361 1.708 2.489 1.708 0.345 0 0.674-0.065 0.976-0.184l-0.018 0.006 12.519-4.822c-0.323 0.818-0.509 1.765-0.509 2.756 0 1.515 0.437 2.929 1.192 4.121l-0.019-0.032 0.307 0.49v5.181c0 0.295 0.238 0.533 0.533 0.533h9.6c0.295 0 0.533-0.239 0.533-0.533v-17.604c-0.005-1.92-0.785-3.657-2.043-4.916l0 0-3.29-3.296zM26.667 8.84l1.619 4.202c0.068 0.17 0.107 0.368 0.107 0.575 0 0.677-0.42 1.256-1.014 1.489l-0.011 0.004-0.925 0.357c0.148-0.336 0.224-0.7 0.225-1.067v-5.56zM1.067 14.4v-11.733c0-0.884 0.716-1.6 1.6-1.6v0h21.333c0.884 0 1.6 0.716 1.6 1.6v0 3.39h-0.005l0.005 0.012v8.331c-0.004 0.093-0.016 0.186-0.036 0.276l-4.885-4.886c-0.512-0.498-1.212-0.806-1.984-0.806-1.572 0-2.845 1.274-2.845 2.845 0 0.729 0.274 1.394 0.725 1.898l-0.002-0.003 2.083 2.275h-15.988c-0.884 0-1.6-0.716-1.6-1.6v0zM7.899 17.067l-3.793 1.46-0.561-1.46h4.354zM7.46 22.778c-0.171 0.068-0.368 0.107-0.575 0.107-0.677 0-1.255-0.42-1.489-1.014l-0.004-0.011-0.9-2.34 6.366-2.457h8.774l0.693 0.756-12.865 4.958zM30.933 30.933h-8.533v-4.267h8.533v4.267zM30.933 25.6h-8.771l-0.231-0.37c-0.636-1.001-1.013-2.221-1.013-3.528 0-1.215 0.326-2.354 0.895-3.334l-0.017 0.032c0.115-0.202 0.087-0.454-0.070-0.625l-4.371-4.768c-0.292-0.316-0.471-0.74-0.471-1.206 0-0.982 0.796-1.779 1.779-1.779 0.493 0 0.939 0.2 1.261 0.524l0 0 8.499 8.497 0.754-0.754-1.973-1.973 0.547-0.213c1.007-0.396 1.707-1.361 1.707-2.488 0-0.344-0.065-0.673-0.184-0.976l0.006 0.018-1.805-4.688 1.728 1.731c1.066 1.065 1.726 2.535 1.731 4.16v11.739z"></path>
<path d="M6.080 7.467c0 0 0 0 0 0 0.766 0 1.387-0.621 1.387-1.387v0-2.56c0-0.766-0.621-1.387-1.387-1.387-0 0-0 0-0 0h-2.56c-0.766 0-1.387 0.621-1.387 1.387v0 2.56c0 0.766 0.621 1.387 1.387 1.387v0h2.56zM3.2 6.080v-0.747h1.067v-1.067h-1.067v-0.747c0-0.177 0.143-0.32 0.32-0.32v0h2.56c0.177 0 0.32 0.143 0.32 0.32v0 0.747h-1.067v1.067h1.067v0.747c0 0.177-0.143 0.32-0.32 0.32v0h-2.56c-0.177 0-0.32-0.143-0.32-0.32v0zM2.667 9.067h2.133v1.067h-2.133v-1.067zM2.667 12.267h2.133v1.067h-2.133v-1.067zM12.267 12.267h2.133v1.067h-2.133v-1.067zM5.867 9.067h2.133v1.067h-2.133v-1.067zM9.067 9.067h2.133v1.067h-2.133v-1.067zM12.267 9.067h2.133v1.067h-2.133v-1.067zM22.4 2.667h1.067v1.6h-1.067v-1.6zM20.267 2.667h1.067v1.6h-1.067v-1.6zM18.133 2.667h1.067v1.6h-1.067v-1.6zM16 2.667h1.067v1.6h-1.067v-1.6zM23.467 27.733h1.067v1.067h-1.067v-1.067z"></path>
</symbol>
<symbol id="icon-payment-3" viewBox="0 0 32 32">
<path d="M10.784 24.494c-0.026-0.126-0.086-0.235-0.171-0.32l0 0c-0.085-0.085-0.194-0.145-0.316-0.17l-0.004-0.001c-0.037-0.008-0.079-0.012-0.123-0.012-0.086 0-0.168 0.018-0.242 0.049l0.004-0.002c-0.079 0.033-0.146 0.079-0.203 0.135l0-0c-0.029 0.029-0.055 0.061-0.077 0.095-0.044 0.064-0.076 0.14-0.092 0.221l-0.001 0.004c-0.008 0.037-0.012 0.080-0.012 0.123 0 0.129 0.039 0.248 0.107 0.348l-0.001-0.002c0.046 0.069 0.103 0.127 0.171 0.171l0.002 0.001c0.097 0.066 0.217 0.105 0.346 0.106h0c0 0 0 0 0 0 0.086 0 0.168-0.018 0.243-0.050l-0.004 0.002c0.117-0.049 0.212-0.128 0.279-0.228l0.001-0.002c0.044-0.064 0.076-0.14 0.092-0.221l0.001-0.004c0.008-0.037 0.012-0.079 0.012-0.122s-0.004-0.085-0.013-0.126l0.001 0.004z"></path>
<path d="M28.749 24.686c-0.004-0.010-0.006-0.016-0.009-0.022l0.001 0.003c-0.575-1.346-1.924-1.844-3.521-1.298l-4.354 1.204c-0.252-0.763-0.88-1.411-1.768-1.741-0-0-0.006-0.002-0.012-0.004l-0.005-0.002-4.786-1.625c-0.398-0.515-1.646-1.832-3.983-1.832-1.633 0-3.077 1.12-3.904 2.341h-5.785c-0.345 0-0.625 0.28-0.625 0.625 0 0 0 0 0 0v-0 7.88c0 0.345 0.28 0.625 0.625 0.625h3.716c0.345 0 0.625-0.28 0.625-0.625v0-0.54h1.743c0.345 0 0.625-0.28 0.625-0.625 0-0 0-0 0-0v0-0.18c1.016 0.089 1.35 0.282 2.283 0.819 0.717 0.414 1.802 1.039 3.755 1.917 0.009 0.004 0.018 0.008 0.028 0.012 0.596 0.238 1.287 0.377 2.010 0.379h0.001c0.629 0 1.34-0.112 2.070-0.443l9.625-3.446c0.017-0.006 0.034-0.013 0.051-0.020 0.92-0.423 2.291-1.616 1.594-3.402zM3.716 29.591h-2.466v-6.63h2.466v6.63zM6.084 28.426h-1.118v-5.465h1.118v5.465zM26.656 26.942l-9.62 3.444c-0.023 0.008-0.041 0.016-0.058 0.024l0.005-0.002c-1.34 0.616-2.613 0.247-3.112 0.053-1.886-0.849-2.893-1.429-3.629-1.854-1.023-0.59-1.516-0.874-2.908-0.989v-5.034c0.592-0.971 1.741-1.965 2.98-1.965 2.124 0 3.024 1.381 3.060 1.437 0.076 0.124 0.194 0.218 0.332 0.265l4.967 1.686c0.794 0.298 1.213 0.977 1.020 1.654-0.091 0.316-0.299 0.574-0.573 0.728l-0.006 0.003c-0.282 0.157-0.607 0.196-0.918 0.11l-5.599-1.775c-0.056-0.019-0.121-0.029-0.189-0.029-0.345 0-0.625 0.28-0.625 0.625 0 0.278 0.181 0.513 0.432 0.595l0.004 0.001 5.627 1.783c0.203 0.060 0.436 0.095 0.677 0.095 0.441 0 0.854-0.116 1.212-0.319l-0.012 0.006c0.612-0.343 1.056-0.925 1.208-1.616l0.003-0.016 4.692-1.3c0.678-0.231 1.568-0.315 1.964 0.597 0.41 1.071-0.655 1.66-0.932 1.792zM22.441 8.221c-0.009-0.045-0.022-0.084-0.038-0.121l0.002 0.004c-0.017-0.041-0.036-0.077-0.059-0.11l0.001 0.002c-0.046-0.069-0.103-0.127-0.171-0.171l-0.002-0.001c-0.064-0.043-0.139-0.075-0.22-0.092l-0.004-0.001c-0.037-0.008-0.079-0.012-0.123-0.012-0.086 0-0.168 0.018-0.243 0.049l0.004-0.002c-0.116 0.049-0.212 0.128-0.279 0.228l-0.001 0.002c-0.066 0.098-0.105 0.218-0.106 0.347v0c0 0 0 0 0 0 0 0.086 0.018 0.168 0.050 0.242l-0.002-0.004c0.048 0.117 0.128 0.212 0.228 0.279l0.002 0.001c0.064 0.043 0.14 0.076 0.221 0.092l0.004 0.001c0.037 0.008 0.080 0.013 0.124 0.013 0.129 0 0.248-0.039 0.347-0.107l-0.002 0.001c0.069-0.046 0.127-0.104 0.171-0.171l0.001-0.002c0.023-0.034 0.042-0.070 0.058-0.108 0.030-0.069 0.048-0.149 0.048-0.233 0-0.002 0-0.004-0-0.006v0c0-0.041-0.004-0.082-0.012-0.122z"></path>
<path d="M31.375 2.118h-3.716c-0.345 0-0.625 0.28-0.625 0.625v0 0.54h-1.743c-0.345 0-0.625 0.28-0.625 0.625v0 0.18c-1.016-0.089-1.35-0.281-2.283-0.819-0.717-0.414-1.802-1.039-3.755-1.917-0.006-0.003-0.015-0.007-0.024-0.010l-0.004-0.001c-0.636-0.25-2.302-0.742-4.081 0.064l-2.515 0.9-2.12-2.12c-0.244-0.244-0.64-0.244-0.884 0l-6.96 6.96c-0.225 0.225-0.268 0.615 0 0.884l11.893 11.893c0.19 0.19 0.636 0.248 0.884 0l6.354-6.354c0.165 0.014 0.337 0.022 0.515 0.022 1.633 0 3.077-1.12 3.903-2.341h5.785c0.345 0 0.625-0.28 0.625-0.625v0-7.88c0-0 0-0 0-0 0-0.345-0.28-0.625-0.625-0.625v0zM9.443 1.51l1.424 1.424c-0.403 0.252-0.893 0.402-1.417 0.402-0.002 0-0.005 0-0.007 0h0c-0.002 0-0.005 0-0.008 0-0.525 0-1.014-0.15-1.428-0.409l0.011 0.007 1.425-1.424zM4.791 9.011l-1.425-1.425 1.425-1.424c0.252 0.403 0.402 0.892 0.402 1.417 0 0.003 0 0.005 0 0.008v-0c0 0.002 0 0.005 0 0.008 0 0.524-0.15 1.014-0.409 1.428l0.007-0.011zM14.376 18.595l-1.424-1.424c0.405-0.253 0.897-0.402 1.424-0.402s1.019 0.15 1.436 0.409l-0.012-0.007-1.424 1.424zM16.701 16.271c-1.381-1.002-3.268-1.002-4.65 0l-6.359-6.359c0.47-0.64 0.752-1.444 0.752-2.313 0-0.004 0-0.008-0-0.013v0.001c0-0.847-0.264-1.654-0.752-2.325l1.426-1.426c0.64 0.47 1.444 0.752 2.314 0.752 0.004 0 0.008 0 0.012-0h-0.001c0.847 0 1.654-0.264 2.325-0.752l1.352 1.352c-0.292 0.043-0.576 0.139-0.842 0.287-0.443 0.248-0.793 0.617-1.012 1.061l-0.006 0.014c-0.737 0.14-1.376 0.49-1.87 0.984v0c-1.389 1.389-1.389 3.649 0 5.038 0.643 0.644 1.531 1.042 2.513 1.042 0.002 0 0.004 0 0.007 0h-0c0.002 0 0.004 0 0.006 0 0.982 0 1.87-0.398 2.513-1.042l0-0c0.434-0.433 0.757-0.978 0.921-1.588l0.006-0.025 2.11 0.716c-0.056 0.252-0.089 0.541-0.089 0.838 0 0.875 0.282 1.684 0.759 2.342l-0.008-0.012-1.427 1.427zM12.901 10.126l0.017 0.006 1.25 0.424c-0.101 0.446-0.32 0.831-0.622 1.132l-0 0c-0.902 0.901-2.369 0.902-3.27 0s-0.902-2.369 0-3.271c0.21-0.21 0.461-0.38 0.739-0.497l0.015-0.006c0.115 0.96 0.806 1.816 1.873 2.212zM19.029 13.943c-0.231-0.371-0.376-0.816-0.399-1.293l-0-0.006c0.318 0.232 0.681 0.433 1.069 0.585l0.033 0.011-0.703 0.703zM24.666 10.374c-0.592 0.971-1.741 1.965-2.98 1.965-0.003 0-0.006 0-0.009 0-0.228 0-0.452-0.017-0.671-0.049l0.025 0.003c-1.35-0.196-2.076-0.963-2.315-1.267-0.013-0.019-0.067-0.090-0.075-0.101-0.076-0.134-0.196-0.235-0.34-0.285l-0.004-0.001-4.97-1.686c-0.793-0.298-1.212-0.977-1.020-1.654l0-0.001 0.001-0.002c0.091-0.315 0.299-0.572 0.572-0.726l0.006-0.003c0.17-0.097 0.374-0.155 0.591-0.155 0.116 0 0.228 0.016 0.335 0.047l-0.009-0.002 5.6 1.774c0.059 0.020 0.127 0.032 0.198 0.032 0.345 0 0.625-0.28 0.625-0.625 0-0.281-0.186-0.519-0.441-0.597l-0.004-0.001-4.453-1.412-0.040-0.040-2.306-2.306 1.982-0.709c0.012-0.004 0.019-0.007 0.026-0.010l-0.005 0.002 0.006-0.003 0.026-0.011c1.34-0.616 2.613-0.247 3.112-0.053 1.886 0.849 2.893 1.429 3.629 1.853 1.023 0.59 1.516 0.874 2.908 0.989v5.035zM27.034 9.998h-1.118v-5.466h1.118v5.465zM30.75 9.998h-2.466v-6.63h2.466v6.63z"></path>
</symbol>
<symbol id="icon-money" viewBox="0 0 32 32">
<path d="M28.147 7.147l0.707 0.707 2-2c0.091-0.090 0.147-0.215 0.147-0.354s-0.056-0.263-0.147-0.354v0l-2-2-0.707 0.707 1.147 1.146h-5.793v1h5.793l-1.147 1.147zM25.146 11.853l0.707-0.707-1.147-1.146h5.793v-1h-5.793l1.147-1.147-0.707-0.707-2 2c-0.091 0.090-0.147 0.216-0.147 0.354s0.056 0.263 0.147 0.354v0l2 2z"></path>
<path d="M30.415 15.585c-0.36-0.361-0.859-0.585-1.409-0.585-0.496 0-0.95 0.182-1.299 0.482l0.003-0.002c-0.351-0.59-0.985-0.98-1.71-0.98h-0c-0.007-0-0.016-0-0.025-0-0.227 0-0.443 0.042-0.643 0.12l0.012-0.004c-0.243 0.087-0.453 0.213-0.632 0.372l0.002-0.002c-0.353-0.591-0.988-0.982-1.714-0.985h-0c-0.369 0.001-0.714 0.103-1.009 0.28l0.009-0.005v-8.275c0-1.105-0.895-2-2-2v0c-0.369 0.001-0.714 0.103-1.009 0.28l0.009-0.005v-1.775c-0.003-0.828-0.673-1.498-1.5-1.5h-12c-0.827 0.003-1.497 0.673-1.5 1.5v10h-0.5c-1.381 0-2.5 1.119-2.5 2.5v2.045l1 10.48v2.975c0 0.276 0.224 0.5 0.5 0.5v0h11c0.276 0 0.5-0.224 0.5-0.5v-2.84l1.86-2.66h1.075l0.565 1.585v3.915c0 0.276 0.224 0.5 0.5 0.5h10c0.276 0 0.5-0.224 0.5-0.5v-3.915l2.295-6.43c0.129-0.35 0.204-0.753 0.205-1.175v-1.98c0-0 0-0.001 0-0.002 0-0.552-0.224-1.052-0.585-1.413l0 0zM13 30h-10v-2h10v2zM13.24 27h-10.285l-0.955-10v-2c0.003-0.828 0.673-1.498 1.5-1.5h3.5c0.829 0 1.5 0.672 1.5 1.5s-0.672 1.5-1.5 1.5h-2.5c-0.276 0-0.5 0.224-0.5 0.5v6.5c0.003 0.827 0.673 1.497 1.5 1.5h9.14l-1.4 2zM5.5 24c-0.276-0-0.5-0.224-0.5-0.5 0 0 0 0 0 0v0-1.5h9v-1h-9v-3.5h2c1.364-0.023 2.46-1.133 2.46-2.5s-1.097-2.477-2.458-2.5l-0.002-0h-2v-10c0-0.276 0.224-0.5 0.5-0.5h12c0.276 0 0.5 0.224 0.5 0.5 0 0 0 0 0 0v0 10.28c-0.287-0.175-0.634-0.279-1.005-0.28h-0c-1.101 0.003-1.992 0.894-1.995 1.995v4.485c0.001 0.423 0.076 0.829 0.213 1.205l-0.008-0.025 1.37 3.84h-11.075zM20 30h-1.5v-3h1.5v3zM22.5 30h-1.5v-3h1.5v3zM25 30h-1.5v-3h1.5v3zM27.5 30h-1.5v-3h1.5v3zM30 18.98c-0.001 0.301-0.054 0.59-0.151 0.858l0.006-0.018-2.205 6.18h-9.3l-2.205-6.175c-0.091-0.252-0.144-0.542-0.145-0.844v-4.486c0.001-0.551 0.449-0.997 1-0.997s1 0.448 1 1c0 0.001 0 0.002 0 0.003v-0 4h1v-12.5c0.004-0.551 0.449-0.996 1-1h0c0.552 0.002 0.998 0.448 1 1v12.5h1v-2.5c0.004-0.551 0.449-0.996 1-1h0c0.552 0.002 0.998 0.448 1 1v2.5h1v-2c0-0.276 0.113-0.525 0.295-0.705l0-0c0.106-0.111 0.238-0.194 0.385-0.24 0.102-0.037 0.211-0.055 0.32-0.055 0.552 0.002 0.998 0.449 1 1v2.5h1v-2c0.002-0.552 0.448-0.998 1-1h0c0.551 0.004 0.996 0.449 1 1v1.981z"></path>
<path d="M11.5 3c-0 0-0 0-0 0-2.761 0-5 2.239-5 5s2.239 5 5 5c2.761 0 5-2.239 5-5v0c-0.005-2.759-2.24-4.995-4.999-5h-0zM11.5 12c-2.209 0-4-1.791-4-4s1.791-4 4-4c2.209 0 4 1.791 4 4v0c-0.003 2.208-1.792 3.997-4 4h-0z"></path>
<path d="M13 9c-0.003 0.647-0.415 1.197-0.99 1.407l-0.010 0.003v0.59h-1v-0.59c-0.585-0.213-0.997-0.763-1-1.409v-0h1c0 0.276 0.224 0.5 0.5 0.5s0.5-0.224 0.5-0.5c0-0.276-0.224-0.5-0.5-0.5v0c-0.823-0.006-1.489-0.675-1.489-1.5 0-0.645 0.407-1.195 0.978-1.407l0.010-0.003v-0.59h1v0.59c0.585 0.213 0.997 0.763 1 1.409v0h-1c0-0.276-0.224-0.5-0.5-0.5s-0.5 0.224-0.5 0.5c0 0.276 0.224 0.5 0.5 0.5v0c0.827 0.003 1.497 0.672 1.5 1.5v0z"></path>
</symbol>
<symbol id="icon-grocery" viewBox="0 0 32 32">
<path d="M29.5 26c0.276 0 0.5-0.224 0.5-0.5 0-0 0-0 0-0v0-17c0-0 0-0 0-0 0-0.276-0.224-0.5-0.5-0.5-0.104 0-0.2 0.031-0.28 0.085l0.002-0.001-0.259 0.172c-0.114-0.842-0.494-1.58-1.050-2.141l0 0c0.102-0.032 0.226-0.060 0.353-0.079l0.014-0.002 0.285-0.039c0.246-0.034 0.433-0.243 0.433-0.496 0-0.276-0.224-0.5-0.5-0.5-0.024 0-0.047 0.002-0.070 0.005l0.003-0-0.286 0.039c-0.439 0.062-0.836 0.195-1.196 0.387l0.019-0.009c-0.496-0.265-1.085-0.421-1.71-0.421-0.414 0-0.812 0.068-1.184 0.195l0.026-0.008c0.248-0.326 0.399-0.739 0.4-1.187v-0c0-1.105-0.895-2-2-2v0c-0.156 0-0.312 0.019-0.464 0.057-0.457-0.643-1.198-1.057-2.036-1.057s-1.58 0.414-2.031 1.049l-0.005 0.008c-0.139-0.036-0.299-0.057-0.463-0.057-0 0-0 0-0 0h0c-1.105 0-2 0.895-2 2v0c0 0.156 0.019 0.312 0.057 0.463-0.643 0.454-1.057 1.194-1.057 2.031 0 0.569 0.191 1.093 0.514 1.511l-0.004-0.006c-0.066 0.088-0.13 0.187-0.188 0.29l-0.007 0.013-2.915-5.053c-0.793-1.355-2.24-2.251-3.898-2.251-0.829 0-1.606 0.224-2.274 0.616l0.021-0.012c-0.752 0.441-1.249 1.246-1.249 2.166 0 0.46 0.124 0.89 0.34 1.261l-0.006-0.012 0.572 0.989c0.088 0.15 0.249 0.25 0.433 0.25 0.276 0 0.5-0.224 0.5-0.5 0-0.092-0.025-0.178-0.068-0.252l0.001 0.002-0.573-0.989c-0.126-0.215-0.201-0.474-0.201-0.75 0-0.553 0.299-1.036 0.744-1.296l0.007-0.004c0.502-0.295 1.105-0.469 1.75-0.469 1.289 0 2.415 0.697 3.022 1.734l0.009 0.017 0.25 0.432-1.731 1c-0.151 0.088-0.25 0.249-0.25 0.433 0 0.276 0.224 0.5 0.5 0.5 0.092 0 0.178-0.025 0.252-0.068l-0.002 0.001 1.732-1 0.75 1.3-1.732 1c-0.149 0.088-0.248 0.248-0.248 0.432 0 0.238 0.167 0.438 0.39 0.488l0.003 0.001-2.223 1.481-1.534-2.657c-0.087-0.153-0.25-0.255-0.436-0.255-0.276 0-0.5 0.224-0.5 0.5 0 0.094 0.026 0.182 0.071 0.257l-0.001-0.002 0.8 1.386-1.346-0.897c-0.078-0.052-0.173-0.083-0.276-0.083-0.276 0-0.5 0.224-0.5 0.5 0 0 0 0 0 0v0 2.5c-0 0.004-0 0.008-0 0.013 0 0.276 0.224 0.5 0.5 0.5s0.5-0.224 0.5-0.5c0-0.004-0-0.009-0-0.013v0.001-1.565l2.223 1.482c0.078 0.053 0.174 0.084 0.277 0.084s0.2-0.031 0.279-0.085l-0.002 0.001 2.723-1.816 2.723 1.815c0.078 0.053 0.174 0.084 0.277 0.084s0.2-0.031 0.279-0.085l-0.002 0.001 2.723-1.815 2.723 1.815c0.078 0.053 0.174 0.084 0.277 0.084s0.2-0.031 0.279-0.085l-0.002 0.001 2.222-1.481v20.566h-6.5c-0.276 0-0.5 0.224-0.5 0.5s0.224 0.5 0.5 0.5h13c0.276 0 0.5-0.224 0.5-0.5 0-0 0-0 0-0v0-3c0-0.276-0.224-0.5-0.5-0.5s-0.5 0.224-0.5 0.5v0 1.793l-2-2v-2.793c0-0.276-0.224-0.5-0.5-0.5s-0.5 0.224-0.5 0.5v0 2.793l-2 2v-19.859l2 1.333v6.233c-0 0.004-0 0.008-0 0.013 0 0.276 0.224 0.5 0.5 0.5s0.5-0.224 0.5-0.5c0-0.004-0-0.009-0-0.013v0.001-6.232l2-1.333v16.066c0 0.276 0.224 0.5 0.5 0.5 0 0 0 0 0 0v0zM26.046 6.118c-0.175 0.184-0.332 0.388-0.466 0.608l-0.009 0.016c-0.045 0.074-0.071 0.162-0.071 0.258 0 0.276 0.224 0.5 0.5 0.5 0.181 0 0.339-0.096 0.427-0.24l0.001-0.002c0.152-0.25 0.334-0.462 0.547-0.641l0.004-0.003c0.625 0.507 1.021 1.275 1.021 2.136 0 0 0 0.001 0 0.001v-0c0 0.053-0.008 0.104-0.012 0.157l-1.488 0.993-2.723-1.815c-0.078-0.053-0.174-0.085-0.277-0.085h-0c-0-0.369-0.102-0.714-0.278-1.009l0.005 0.009c0.042-0.072 0.080-0.147 0.112-0.224 0.493-0.48 1.167-0.776 1.91-0.776 0.284 0 0.558 0.043 0.816 0.124l-0.019-0.005zM11.778 8.084c-0.040-0.027-0.087-0.049-0.137-0.063l-0.003-0.001 1.395-0.805 1.527 2.645-0.059 0.040-2.723-1.816zM20.5 9.9l-2.033-1.355c0.583-1.062 1.496-1.881 2.598-2.332l0.035-0.013c0.186-0.076 0.314-0.255 0.314-0.464 0-0.276-0.224-0.5-0.5-0.5-0.067 0-0.131 0.013-0.189 0.037l0.003-0.001c-0.608 0.249-1.133 0.565-1.6 0.949l0.011-0.009c0.010-0.13 0.016-0.282 0.016-0.435 0-0.496-0.062-0.977-0.179-1.436l0.009 0.040c-0.055-0.221-0.252-0.381-0.486-0.381-0.112 0-0.216 0.037-0.299 0.099l0.001-0.001c-0.123 0.092-0.201 0.237-0.201 0.401 0 0.044 0.006 0.087 0.017 0.128l-0.001-0.003c0.091 0.35 0.144 0.753 0.144 1.167 0 0.814-0.202 1.582-0.559 2.254l0.013-0.026c-0.035-0.009-0.076-0.014-0.117-0.014-0.101 0-0.195 0.030-0.274 0.082l0.002-0.001-1.691 1.128c0.069-0.336 0.243-0.623 0.486-0.834l0.002-0.002c0.104-0.092 0.169-0.226 0.169-0.375s-0.065-0.283-0.169-0.375l-0.001-0c-0.319-0.273-0.519-0.676-0.519-1.125 0-0.001 0-0.001 0-0.002v0c0.003-0.602 0.358-1.12 0.871-1.358l0.009-0.004c0.174-0.081 0.292-0.254 0.292-0.455 0-0.084-0.021-0.163-0.057-0.232l0.001 0.003c-0.072-0.131-0.115-0.288-0.116-0.454v-0.001c0.004-0.549 0.45-0.993 1-0.993 0.166 0 0.323 0.040 0.46 0.112l-0.006-0.003c0.067 0.035 0.146 0.056 0.229 0.056 0.201 0 0.374-0.119 0.454-0.289l0.001-0.003c0.24-0.523 0.759-0.88 1.361-0.88s1.122 0.357 1.358 0.871l0.004 0.009c0.081 0.174 0.254 0.293 0.455 0.293 0.084 0 0.163-0.021 0.232-0.057l-0.003 0.001c0.134-0.071 0.292-0.113 0.461-0.113 0.549 0 0.994 0.445 0.994 0.994 0 0.459-0.311 0.846-0.735 0.96l-0.007 0.002c-0.214 0.060-0.369 0.253-0.369 0.483 0 0.067 0.013 0.131 0.037 0.189l-0.001-0.003c0.048 0.118 0.073 0.244 0.074 0.372-0.001 0.257-0.1 0.491-0.261 0.666l0.001-0.001c-0.080 0.088-0.128 0.206-0.128 0.334s0.049 0.246 0.129 0.335l-0-0c0.162 0.176 0.262 0.413 0.262 0.672 0 0.546-0.441 0.989-0.986 0.994h-0c-0.013 0-0.066-0.007-0.078-0.008-0.010-0.001-0.021-0.001-0.033-0.001-0.274 0-0.496 0.222-0.496 0.496 0 0.046 0.006 0.091 0.018 0.134l-0.001-0.004-0.425 0.284zM26.5 28.207l1.793 1.793h-3.586l1.793-1.793z"></path>
<path d="M26.5 19.5c-0.276 0-0.5 0.224-0.5 0.5v2c0.007 0.271 0.228 0.488 0.5 0.488s0.493-0.217 0.5-0.487v-2.001c0-0.276-0.224-0.5-0.5-0.5v0zM16.026 25.73c-0.011-0.001-0.024-0.001-0.037-0.001-0.263 0-0.479 0.204-0.499 0.462l-0 0.002c-0.112 1.538-1.18 3.808-1.99 3.808-0.454-0.001-0.871-0.155-1.205-0.413l0.005 0.003c-0.083-0.063-0.188-0.101-0.302-0.101s-0.219 0.038-0.303 0.102l0.001-0.001c-0.328 0.254-0.744 0.408-1.196 0.41h-0.001c-0.9 0-2-2.678-2-4 0-1.105 0.895-2 2-2v0c0.454 0.001 0.871 0.155 1.205 0.413l-0.005-0.003c0.083 0.063 0.188 0.101 0.301 0.101s0.219-0.038 0.303-0.102l-0.001 0.001c0.329-0.248 0.746-0.398 1.197-0.398 0.586 0 1.113 0.252 1.479 0.654l0.001 0.002c0.090 0.090 0.215 0.145 0.352 0.145 0.276 0 0.5-0.224 0.5-0.5 0-0.119-0.042-0.228-0.111-0.314l0.001 0.001c-0.549-0.612-1.341-0.996-2.222-1h-0.001c-0.379 0.001-0.74 0.075-1.072 0.207l0.020-0.007c-0.042-0.266-0.104-0.501-0.186-0.727l0.009 0.027h1.23c1.38-0.002 2.498-1.12 2.5-2.5v-0c0-0.276-0.224-0.5-0.5-0.5v0h-1.5c-1.14 0.003-2.1 0.77-2.396 1.816l-0.004 0.018c-0.237-0.288-0.509-0.536-0.811-0.741l-0.013-0.009c-0.078-0.052-0.174-0.084-0.277-0.084-0.242 0-0.444 0.172-0.49 0.4l-0.001 0.003c-0.006 0.029-0.009 0.063-0.009 0.097 0 0.173 0.088 0.325 0.221 0.415l0.002 0.001c0.597 0.402 1.029 1.010 1.196 1.72l0.004 0.019c-0.274-0.096-0.591-0.153-0.92-0.155h-0.001c-0.177 0.001-0.35 0.017-0.518 0.048l0.018-0.003v-0.63c0-0.003 0-0.007 0-0.011 0-1.078-0.438-2.053-1.146-2.757l-0-0c-0.527-0.524-0.853-1.25-0.853-2.052 0-0.003 0-0.006 0-0.009v0-2.085c0.276 0 0.5-0.224 0.5-0.5v0-2c0-0.276-0.224-0.5-0.5-0.5v0h-4.5c-0.276 0-0.5 0.224-0.5 0.5 0 0 0 0 0 0v-0 2c0 0.276 0.224 0.5 0.5 0.5v0 2.085c0 0.003 0 0.005 0 0.008 0 0.802-0.326 1.528-0.854 2.052l-0 0c-0.708 0.705-1.146 1.68-1.146 2.757 0 0.004 0 0.008 0 0.011v-0.001 8.085c0 0.276 0.224 0.5 0.5 0.5h5.5c0.004 0 0.008 0 0.013 0 0.276 0 0.5-0.224 0.5-0.5s-0.224-0.5-0.5-0.5c-0.004 0-0.009 0-0.013 0h-4.999v-2.5h5.236c0.427 1.597 1.412 3.5 2.764 3.5 0 0 0 0 0 0 0.553 0 1.071-0.153 1.513-0.418l-0.013 0.007c0.429 0.258 0.947 0.411 1.5 0.411 0 0 0 0 0 0h-0c1.71 0 2.871-3.128 2.988-4.735 0.001-0.011 0.001-0.024 0.001-0.037 0-0.263-0.204-0.479-0.462-0.498l-0.002-0zM14 20.5h0.915c-0.213 0.587-0.765 0.999-1.414 1h-0.915c0.213-0.587 0.765-0.999 1.414-1h0zM4 13.5h3.5v1h-3.5v-1zM2.5 26.5v-2.5h4.5c0.004 0 0.008 0 0.013 0 0.276 0 0.5-0.224 0.5-0.5s-0.224-0.5-0.5-0.5c-0.004 0-0.009 0-0.013 0h-4.499v-0.586c0-0.002 0-0.005 0-0.008 0-0.802 0.326-1.528 0.853-2.052l0-0c0.708-0.704 1.146-1.68 1.146-2.757 0-0.004 0-0.008-0-0.012v0.001-2.085h2.5v2.085c0 0.003-0 0.007-0 0.011 0 1.077 0.438 2.052 1.146 2.756l0 0c0.527 0.524 0.853 1.25 0.853 2.053 0 0.003 0 0.006 0 0.009v-0 0.992c-0.902 0.528-1.498 1.491-1.5 2.594v0c0.003 0.167 0.015 0.334 0.037 0.5h-5.037zM20.5 13.5h-4.5c-0.268 0.010-0.482 0.23-0.482 0.5s0.214 0.49 0.481 0.5l0.001 0h4.5c0.268-0.010 0.482-0.23 0.482-0.5s-0.214-0.49-0.481-0.5l-0.001-0zM20.5 16h-3c-0.271 0.007-0.488 0.228-0.488 0.5s0.217 0.493 0.487 0.5h3.001c0.271-0.007 0.488-0.228 0.488-0.5s-0.217-0.493-0.487-0.5h-0.001z"></path>
</symbol>
<symbol id="icon-shopping-bag-2" viewBox="0 0 32 32">
<path d="M9.849 29.511c0 0.259 0.21 0.469 0.469 0.469h11.364c0.259 0 0.469-0.21 0.469-0.469s-0.21-0.469-0.469-0.469v0h-11.364c-0.259 0-0.469 0.21-0.469 0.469zM12.212 26.517c-0.259 0-0.469 0.21-0.469 0.469s0.21 0.469 0.469 0.469v0h7.576c0.259 0 0.469-0.21 0.469-0.469s-0.21-0.469-0.469-0.469v0h-7.576zM4.838 22.457l0.024 0.001c0.248 0 0.455-0.195 0.468-0.445l0.621-12.384 1.417 0.896c0.071 0.046 0.158 0.073 0.251 0.073s0.18-0.027 0.253-0.074l-0.002 0.001 1.845-1.167 1.845 1.167c0.071 0.046 0.158 0.073 0.251 0.073s0.18-0.027 0.252-0.074l-0.002 0.001 1.845-1.167 1.845 1.167c0.071 0.046 0.158 0.073 0.251 0.073s0.18-0.027 0.253-0.074l-0.002 0.001 1.845-1.167 1.845 1.167c0.071 0.046 0.158 0.073 0.251 0.073s0.18-0.027 0.253-0.074l-0.002 0.001 1.845-1.167 1.845 1.167c0.071 0.046 0.158 0.073 0.251 0.073s0.18-0.027 0.253-0.074l-0.002 0.001 1.417-0.897 0.085 1.708c0.017 0.245 0.22 0.438 0.468 0.438 0.259 0 0.469-0.21 0.469-0.469 0-0.006-0-0.011-0-0.017l0 0.001-0.126-2.51c-0.013-0.249-0.217-0.446-0.468-0.446-0.093 0-0.18 0.027-0.253 0.074l0.002-0.001-1.845 1.167-0.211-0.133v-2.144c0-0.259-0.21-0.469-0.469-0.469s-0.469 0.21-0.469 0.469v0 1.551l-0.696-0.44c-0.071-0.046-0.158-0.073-0.251-0.073s-0.18 0.027-0.252 0.074l0.002-0.001-1.845 1.167-1.845-1.167c-0.071-0.046-0.158-0.073-0.251-0.073s-0.18 0.027-0.253 0.074l0.002-0.001-1.376 0.87v-4.957c0-1.865 1.517-3.382 3.382-3.382s3.382 1.517 3.382 3.382v0.782c0 0.259 0.21 0.469 0.469 0.469s0.469-0.21 0.469-0.469v0-0.782c0-2.382-1.938-4.32-4.32-4.32s-4.32 1.938-4.32 4.32v2.043l-0.442-0.501c-0.319-0.361-0.515-0.838-0.515-1.36 0-0 0-0 0-0v0-1.279c0.339-0.175 0.568-0.524 0.568-0.925v-1.258c-0.001-0.574-0.466-1.039-1.040-1.040h-4.414c-0.574 0.001-1.039 0.466-1.039 1.039v1.258c0.001 0.402 0.229 0.75 0.562 0.923l0.006 0.003v1.279c0 0 0 0.001 0 0.001 0 0.522-0.195 0.999-0.516 1.362l0.002-0.002-0.63 0.715c-0.465 0.525-0.749 1.219-0.749 1.98 0 0 0 0 0 0.001v-0 0.83l-1.551-0.981c-0.071-0.046-0.158-0.073-0.251-0.073-0.251 0-0.455 0.197-0.468 0.444l-0 0.001-0.661 13.187c-0 0.007-0.001 0.015-0.001 0.023 0 0.251 0.197 0.455 0.444 0.468l0.001 0zM9.587 1.039c0-0.056 0.046-0.102 0.102-0.102 0 0 0 0 0 0h4.414c0.056 0 0.102 0.045 0.102 0.102v1.258c0 0 0 0 0 0 0 0.056-0.046 0.102-0.102 0.102 0 0 0 0 0 0h-4.415c0 0 0 0 0 0-0.056 0-0.102-0.046-0.102-0.102 0-0 0-0 0-0v0-1.258zM8.776 7.197l0.63-0.715c0.465-0.525 0.749-1.219 0.749-1.98 0-0 0-0.001 0-0.001v0-1.165h3.482v1.165c0 0 0 0.001 0 0.001 0 0.761 0.284 1.455 0.752 1.983l-0.003-0.003 0.631 0.715c0.319 0.361 0.515 0.838 0.515 1.36 0 0 0 0 0 0v-0 0.719l-1.376-0.87c-0.071-0.046-0.158-0.073-0.251-0.073s-0.18 0.027-0.253 0.074l0.002-0.001-1.845 1.167-1.845-1.167c-0.071-0.046-0.158-0.073-0.251-0.073s-0.18 0.027-0.252 0.074l0.002-0.001-1.202 0.76v-0.608c0-0.523 0.195-1 0.517-1.363l-0.002 0.002z"></path>
<path d="M27.182 13.48c-0.011-0.248-0.216-0.445-0.466-0.445-0.009 0-0.018 0-0.027 0.001l0.001-0c-0.259 0.013-0.458 0.233-0.445 0.492l0.879 17.535h-22.248l0.344-6.86c0-0.005 0-0.011 0-0.017 0-0.259-0.21-0.469-0.469-0.469-0.248 0-0.451 0.193-0.468 0.437l-0 0.001-0.368 7.352c-0 0.007-0.001 0.015-0.001 0.024 0 0.259 0.21 0.468 0.468 0.468h23.234c0.259-0 0.469-0.21 0.469-0.469 0-0.008-0-0.016-0.001-0.024l0 0.001-0.903-18.028zM17.488 5.393c0 0.843 1.016 1.479 2.363 1.479s2.363-0.636 2.363-1.479-1.016-1.479-2.363-1.479c-1.347 0-2.363 0.636-2.363 1.479zM21.276 5.393c0 0.157-0.499 0.541-1.425 0.541s-1.425-0.384-1.425-0.541c0-0.157 0.499-0.541 1.425-0.541s1.425 0.384 1.425 0.541z"></path>
<path d="M16 14.773c-2.522 0-4.573 2.051-4.573 4.573s2.051 4.572 4.573 4.572 4.573-2.051 4.573-4.573c0-2.521-2.051-4.572-4.573-4.572zM16 22.981c-2.004 0-3.635-1.631-3.635-3.635s1.631-3.635 3.635-3.635 3.635 1.631 3.635 3.635c0 2.004-1.631 3.635-3.635 3.635z"></path>
</symbol>
<symbol id="icon-truck-shipping" viewBox="0 0 32 32">
<path d="M0 15c0-0.531 0.607-0.938 1.307-0.943-0.413-0.75-0.727-1.491-0.462-2.348s0.869-1.366 1.698-1.666c-0.423-0.842-0.863-1.644-1.519-2.298-0.187-0.188-0.429-0.325-0.656-0.469-0.296-0.188-0.394-0.42-0.26-0.672s0.39-0.319 0.702-0.174c0.603 0.281 1.037 0.757 1.438 1.267 0.097 0.141 0.207 0.272 0.331 0.39-0.033-0.109-0.062-0.22-0.098-0.327-0.225-0.659-0.455-1.316-0.677-1.976-0.117-0.348-0.022-0.613 0.241-0.708 0.291-0.106 0.527 0.031 0.656 0.399 0.336 0.959 0.666 1.92 1.026 2.959 0.054-0.59 0.094-1.099 0.151-1.605 0.046-0.409 0.385-0.62 0.7-0.448 0.225 0.125 0.255 0.327 0.244 0.562-0.022 0.429-0.047 1.103-0.066 1.779l-0.003 0.154c0.005 0.131 0.017 0.262 0.037 0.392 1.201-0.364 2.183-0.090 2.944 0.912 0.027-0.038 0.048-0.080 0.062-0.125 0.1-0.804 0.463-1.484 1-2.075 0.651-0.718 0.776-1.581 0.743-2.5-0.034-0.844-0.072-2.159-0.101-3.476l-0.005-0.288c-0.008-0.437 0.227-0.656 0.656-0.66 0.729-0.006 1.458-0.006 2.188 0 0.424 0.004 0.66 0.235 0.663 0.659 0.006 1.093 0.010 2.188-0.003 3.281-0.005 0.442-0.083 0.883-0.075 1.323 0.011 0.616 0.263 1.156 0.674 1.606 0.788 0.861 1.142 1.868 1.088 3.027-0 0.005-0.001 0.012-0.001 0.018 0 0.065 0.024 0.124 0.063 0.17l-0-0c0.244-0.464 0.487-0.928 0.745-1.42-0.741-0.362-0.592-1.029-0.536-1.637 0.031-0.342 0.296-0.567 0.641-0.646 0.115-0.024 0.246-0.037 0.381-0.037 0.020 0 0.039 0 0.059 0.001l-0.003-0c0.756-0.001 1.651-0.002 2.547-0.002s1.791 0.001 2.686 0.002l-0.139-0c0.827 0 1.119 0.304 1.136 1.125 0.010 0.5-0.045 0.944-0.576 1.182 0.243 0.469 0.466 0.927 0.714 1.371 0.173 0.309 0.257 0.66 0.245 1.014-0.011 0.677-0.010 1.354 0.003 2.031 0 0.132 0.077 0.266 0.131 0.394 0.108 0.254 0.226 0.504 0.362 0.807h0.276c1.344 0 2.688 0.011 4.031-0.006 0.601-0.007 1.086 0.182 1.504 0.62 0.777 0.812 1.572 1.61 2.37 2.402 0.321 0.319 0.61 0.652 0.742 1.095v8c-0.183 0.485-0.452 0.901-0.993 1.024-0.265 0.052-0.535 0.071-0.804 0.057-0.209-0.005-0.313 0.056-0.383 0.261-0.457 1.318-1.64 2.162-3.009 2.161s-2.55-0.841-3.007-2.162c-0.072-0.206-0.177-0.259-0.384-0.259-4.704 0.007-9.409 0.007-14.114 0-0.207 0-0.307 0.051-0.379 0.26-0.438 1.265-1.62 2.158-3.010 2.158-1.392 0-2.575-0.895-3.006-2.141l-0.007-0.022c-0.062-0.188-0.144-0.268-0.349-0.258-0.342 0.016-0.687-0.017-1.030 0.009-0.728 0.056-1.405-0.119-1.525-0.904-0.275-0.699-0.005-12.621-0.005-12.621zM0.954 25.656c0.776 0 1.504-0.006 2.23 0.004 0.011 0.001 0.024 0.001 0.037 0.001 0.191 0 0.363-0.079 0.485-0.207l0-0c0.572-0.553 1.351-0.893 2.21-0.893 0.841 0 1.605 0.326 2.174 0.859l-0.002-0.002c0.146 0.151 0.351 0.244 0.577 0.244 0.009 0 0.017-0 0.026-0l-0.001 0c4.312-0.007 8.624-0.009 12.938-0.005h0.409v-0.371l-0.004-9.75c0-0.474-0.052-0.525-0.513-0.525h-20.030c-0.484 0-0.538 0.053-0.538 0.534v9.75l0.002 0.362zM30.016 27.568h0.415c0.5 0 0.618-0.122 0.619-0.633 0-2.333 0-4.666 0.003-7 0-0.011 0.001-0.024 0.001-0.037 0-0.281-0.118-0.534-0.307-0.713l-0-0c-0.838-0.834-1.66-1.667-2.476-2.507l-0.049-0.050c-0.186-0.208-0.455-0.338-0.754-0.338-0.015 0-0.030 0-0.044 0.001l0.002-0c-1.323 0.013-2.645 0.004-3.969 0.004h-0.441v11.25h0.596c0.217-1.759 1.511-2.974 3.153-2.984 1.716-0.009 3.008 1.17 3.251 3.008zM10.55 5.641c-0.069 0.506-0.101 0.994-0.207 1.466-0.149 0.666-0.558 1.199-0.995 1.709-0.354 0.412-0.591 0.893-0.604 1.437-0.030 1.237-0.029 2.476-0.039 3.714 0 0.027 0.026 0.053 0.034 0.069h1.050c0-0.5-0.004-0.978 0-1.456 0.008-0.711 0.375-1.072 1.084-1.075 0.812-0.004 1.625 0 2.437 0 0.109 0 0.22-0.010 0.328-0.015 0.107-1.13-0.056-2.136-0.862-2.978-0.485-0.507-0.758-1.141-0.85-1.84-0.044-0.337-0.052-0.679-0.078-1.033l-1.298 0.001zM7.606 14.051c-0.144-0.854-0.282-1.674-0.421-2.494-0.014-0.082-0.032-0.164-0.048-0.245-0.199-0.987-1-1.464-1.96-1.149-1.542 0.487-2.354 0.772-3.162 1.067l0.714-0.228c-0.661 0.234-1.087 0.782-1.017 1.408 0.039 0.348 0.233 0.678 0.356 1.018 0.072 0.199 0.184 0.223 0.384 0.15 0.713-0.261 1.432-0.5 2.151-0.744 0.352-0.118 0.611-0.024 0.71 0.241 0.107 0.283-0.038 0.532-0.394 0.662-0.258 0.094-0.519 0.18-0.78 0.27l0.012 0.044h3.456zM21.625 14.051c0-0.742 0-1.459-0.004-2.176-0.007-0.087-0.034-0.167-0.076-0.237l0.001 0.002c-0.291-0.563-0.578-1.129-0.886-1.683-0.067-0.102-0.176-0.172-0.301-0.187l-0.002-0c-0.543-0.006-1.185-0.009-1.827-0.009s-1.284 0.003-1.925 0.010l0.098-0.001c-0.136 0.020-0.25 0.098-0.32 0.206l-0.001 0.002c-0.23 0.395-0.431 0.807-0.639 1.214-0.105 0.203-0.282 0.405-0.291 0.614-0.036 0.743-0.014 1.489-0.014 2.228h0.619c0-0.431-0.004-0.837 0-1.242 0.007-0.581 0.283-0.866 0.862-0.871 1.062-0.008 2.125-0.008 3.188 0 0.613 0 0.89 0.291 0.893 0.907v1.221l0.626 0.001zM22.006 27.56v-0.924h-13.069l0.2 0.924h12.869zM24.569 27.748c-0.031 1.178 0.995 2.218 2.214 2.246 1.182 0.027 2.224-0.964 2.269-2.159 0.047-1.241-0.98-2.312-2.229-2.326-1.215-0.013-2.221 0.987-2.254 2.242l-0.001-0.003zM5.937 25.508c-1.187-0.019-2.233 0.987-2.254 2.169-0.001 0.020-0.001 0.044-0.001 0.067 0 1.226 0.98 2.223 2.2 2.249l0.002 0c1.21 0.033 2.25-0.979 2.275-2.217 0.027-1.21-0.993-2.249-2.223-2.269zM10.762 12.487v1.555h2.878v-1.555h-2.878zM11.851 4.66v-2.635h-1.334v2.635h1.334zM17.025 12.891v1.149h3.008v-1.149h-3.008zM15.823 8.788h5.408v-0.404h-5.408v0.403zM0.956 26.635c0 0.242-0.019 0.471 0.009 0.693 0.011 0.086 0.125 0.222 0.199 0.225 0.516 0.020 1.033 0.011 1.54 0.011l0.187-0.928h-1.935z"></path>
<path d="M8.842 20.084v-1.938c0-0.114-0.022-0.26 0.037-0.334 0.113-0.141 0.275-0.325 0.423-0.331s0.319 0.169 0.447 0.298c0.059 0.059 0.051 0.197 0.051 0.299 0.003 1.353 0.003 2.705 0 4.058 0.003 0.073-0.003 0.145-0.016 0.217-0.056 0.254-0.208 0.409-0.478 0.401s-0.431-0.163-0.449-0.426c-0.022-0.331-0.016-0.665-0.018-1v-1.25l0.001 0.006zM13.304 20.125c0-0.687-0.003-1.375 0-2.062 0-0.389 0.18-0.61 0.474-0.609s0.473 0.223 0.473 0.611v4.118c0 0.365-0.177 0.57-0.473 0.571s-0.468-0.202-0.47-0.572c-0.006-0.681-0.003-1.369-0.003-2.056zM4.386 21.563c0-0.229-0.012-0.458 0.003-0.688 0.021-0.307 0.232-0.507 0.492-0.5 0.25 0.010 0.447 0.201 0.456 0.5 0.006 0.192 0.010 0.418 0.010 0.645 0 0.266-0.005 0.531-0.015 0.795l0.001-0.038c-0.011 0.301-0.205 0.476-0.469 0.475s-0.454-0.179-0.475-0.476c-0.015-0.233-0.004-0.472-0.004-0.714zM18.702 18.657c0 0.25 0.011 0.5 0 0.75-0.016 0.297-0.203 0.477-0.466 0.479s-0.466-0.178-0.475-0.473c-0.007-0.218-0.011-0.475-0.011-0.732s0.004-0.514 0.012-0.769l-0.001 0.037c0.008-0.29 0.217-0.486 0.469-0.488 0.265 0 0.459 0.201 0.472 0.513 0.010 0.228 0 0.457 0 0.687l-0.001-0.004zM4.375 18.233c0.004-0.135 0.018-0.269 0.040-0.402 0.032-0.208 0.209-0.366 0.424-0.366 0.016 0 0.032 0.001 0.048 0.003l-0.002-0c0.24 0.011 0.417 0.148 0.437 0.402 0.020 0.268 0.022 0.536 0.005 0.804s-0.197 0.417-0.45 0.425c-0.253 0.007-0.428-0.144-0.472-0.403-0.018-0.154-0.028-0.308-0.030-0.462zM18.693 21.974c0.008 0.125 0.008 0.25 0 0.375-0.032 0.25-0.181 0.391-0.432 0.407s-0.441-0.112-0.475-0.353c-0.018-0.125-0.028-0.27-0.028-0.417s0.010-0.292 0.029-0.433l-0.002 0.016c0.031-0.242 0.221-0.381 0.468-0.367 0.257 0.014 0.421 0.165 0.445 0.433 0.010 0.113 0 0.228 0 0.342l-0.005-0.003zM27.003 22.764c-0.75 0-1.5 0.004-2.25 0-0.655-0.005-1-0.352-1-1.008-0.003-1.188-0.003-2.375 0-3.563 0-0.654 0.352-1 1-1.005 0.781 0 1.563 0.005 2.343-0.004 0.010-0 0.022-0.001 0.034-0.001 0.294 0 0.56 0.124 0.747 0.323l0 0c0.687 0.698 1.375 1.394 2.062 2.088 0.205 0.192 0.332 0.464 0.332 0.766 0 0.005-0 0.010-0 0.015v-0.001c-0.004 0.479 0.007 0.959-0.004 1.437-0.014 0.608-0.353 0.944-0.959 0.95-0.765 0.007-1.536 0.001-2.307 0.001zM29.316 21.801c0-0.433 0.013-0.847-0.007-1.26-0.012-0.145-0.070-0.274-0.159-0.375l0.001 0.001c-0.36-0.389-0.738-0.762-1.113-1.138-0.293-0.295-0.542-0.703-0.897-0.847-0.367-0.149-0.839-0.044-1.265-0.046h-1.15v3.667h4.591zM28.33 27.754c-0.002 0.838-0.681 1.516-1.519 1.516-0.839 0-1.519-0.68-1.519-1.519 0-0.837 0.677-1.516 1.514-1.519h0c0.003-0 0.006-0 0.009-0 0.836 0 1.514 0.678 1.514 1.514 0 0.003 0 0.005-0 0.008v-0zM27.376 27.745c-0.004-0.307-0.254-0.555-0.563-0.555-0.311 0-0.563 0.252-0.563 0.563s0.252 0.563 0.563 0.563c0.008 0 0.016-0 0.024-0l-0.001 0c0.301-0.015 0.539-0.263 0.539-0.566 0-0.001 0-0.003 0-0.004v0h0.001zM7.437 27.764c-0.005 0.835-0.683 1.509-1.518 1.509-0.008 0-0.016-0-0.024-0h0.001c-0.835-0.006-1.51-0.685-1.51-1.522 0-0.424 0.174-0.808 0.454-1.084l0-0c0.275-0.27 0.652-0.438 1.068-0.438 0.004 0 0.008 0 0.012 0h-0.001c0.839 0.002 1.518 0.683 1.518 1.522 0 0.005-0 0.009-0 0.014v-0.001zM5.912 28.315c0.316-0.001 0.572-0.257 0.572-0.574 0-0 0-0 0-0v0c-0.015-0.303-0.259-0.544-0.562-0.554l-0.001-0c-0.001 0-0.003-0-0.004-0-0.311 0-0.563 0.252-0.563 0.563 0 0.309 0.249 0.56 0.558 0.563h0l-0.001 0.003z"></path>
</symbol>
<symbol id="icon-customer-satisfaction" viewBox="0 0 32 32">
<path d="M18.403 22.538c0.101-0.231 0.16-0.501 0.16-0.785 0-1.105-0.895-2.001-1.999-2.003h-2.867l0.955-1.607c0.174-0.289 0.277-0.639 0.277-1.012 0-0.2-0.030-0.394-0.085-0.576l0.004 0.014c-0.163-0.535-0.531-0.966-1.011-1.207l-0.011-0.005c-0.255-0.128-0.556-0.203-0.875-0.203-0.326 0-0.634 0.078-0.905 0.217l0.011-0.005c-1.641 0.845-3.038 1.916-4.216 3.193l-0.009 0.010c-0.109-0.192-0.312-0.32-0.545-0.32-0 0-0 0-0 0h-5.5c-0.345 0-0.625 0.279-0.625 0.625v3.437c0.010 0.337 0.286 0.607 0.625 0.607s0.615-0.27 0.625-0.606l0-0.001v-2.812h4.251v11.25h-4.251v-2.812c-0.010-0.337-0.286-0.607-0.625-0.607s-0.615 0.27-0.625 0.606l-0 0.001v3.437c0 0.345 0.28 0.625 0.625 0.625h5.5c0.345 0 0.625-0.28 0.625-0.625v-0.022c0.705 0.405 1.55 0.645 2.45 0.647h5.769c1.104-0.001 1.998-0.895 1.999-1.999v-0c0-0.265-0.052-0.517-0.146-0.749h0.039c1.104-0.001 1.999-0.896 2.001-2v-0c0-0.532-0.21-1.017-0.55-1.375 0.34-0.357 0.55-0.841 0.55-1.375 0-0 0-0.001 0-0.001v0c-0.001-0.969-0.691-1.777-1.607-1.961l-0.013-0.002zM18.022 28.002h-4.078c-0.345 0-0.625 0.28-0.625 0.625s0.28 0.625 0.625 0.625h2.186c0.413 0 0.749 0.336 0.749 0.749s-0.336 0.749-0.749 0.749h-5.769c-0.939-0.003-1.797-0.35-2.455-0.921l0.005 0.004v-9.411l0.043-0.056c1.243-1.616 2.802-2.924 4.591-3.849l0.076-0.036c0.096-0.049 0.209-0.078 0.329-0.078 0.117 0 0.228 0.028 0.327 0.077l-0.004-0.002c0.185 0.091 0.318 0.249 0.377 0.446s0.033 0.403-0.072 0.58l-1.517 2.551c-0.055 0.091-0.088 0.202-0.088 0.319 0 0.345 0.28 0.625 0.625 0.625 0 0 0 0 0 0h3.965c0.414 0 0.75 0.337 0.75 0.75s-0.337 0.75-0.75 0.75h-2.62c-0.337 0.010-0.607 0.286-0.607 0.625s0.27 0.615 0.606 0.625l0.001 0h4.078c0.414 0 0.75 0.337 0.75 0.75s-0.337 0.75-0.75 0.75h-4.078c-0.345 0-0.625 0.28-0.625 0.625s0.28 0.625 0.625 0.625h4.078c0.414 0 0.75 0.337 0.75 0.75s-0.336 0.75-0.75 0.75zM21.603 7.733l-2.682-0.389-1.199-2.43c-0.104-0.208-0.316-0.348-0.561-0.348s-0.456 0.14-0.559 0.345l-0.002 0.004-1.199 2.43-2.682 0.389c-0.305 0.045-0.536 0.305-0.536 0.619 0 0.176 0.072 0.334 0.189 0.448l0 0 1.941 1.891-0.458 2.671c-0.006 0.032-0.009 0.069-0.009 0.106 0 0.345 0.28 0.625 0.625 0.625 0.107 0 0.207-0.027 0.295-0.074l-0.003 0.002 2.399-1.261 2.398 1.261c0.084 0.045 0.184 0.072 0.291 0.072 0.138 0 0.266-0.045 0.369-0.121l-0.002 0.001c0.192-0.14 0.289-0.377 0.249-0.611l-0.458-2.67 1.941-1.892c0.116-0.114 0.189-0.272 0.189-0.448 0-0.314-0.231-0.573-0.532-0.618l-0.003-0zM18.901 10.025c-0.147 0.144-0.214 0.35-0.18 0.554l0.3 1.746-1.569-0.825c-0.084-0.045-0.184-0.072-0.291-0.072s-0.206 0.027-0.294 0.073l0.003-0.002-1.569 0.825 0.299-1.746c0.006-0.032 0.009-0.068 0.009-0.106 0-0.175-0.072-0.334-0.189-0.448l-0-0-1.269-1.237 1.754-0.254c0.204-0.030 0.38-0.158 0.47-0.342l0.784-1.589 0.785 1.589c0.091 0.185 0.267 0.312 0.471 0.341l1.753 0.255-1.269 1.237zM30.807 9.226c-0.074-0.224-0.266-0.39-0.501-0.425l-0.003-0-2.054-0.299-0.919-1.861c-0.104-0.208-0.316-0.348-0.56-0.348s-0.456 0.14-0.559 0.344l-0.002 0.004-0.919 1.861-2.054 0.299c-0.304 0.045-0.535 0.305-0.535 0.619 0 0.175 0.072 0.334 0.189 0.447l0 0 1.487 1.449-0.351 2.046c-0.006 0.032-0.009 0.068-0.009 0.106 0 0.345 0.28 0.625 0.625 0.625 0.106 0 0.206-0.027 0.294-0.073l-0.003 0.002 1.838-0.966 1.837 0.966c0.085 0.046 0.185 0.073 0.292 0.073 0.345 0 0.624-0.279 0.624-0.624 0-0.038-0.003-0.075-0.010-0.112l0.001 0.004-0.351-2.046 1.487-1.449c0.116-0.113 0.189-0.272 0.189-0.447 0-0.069-0.011-0.136-0.032-0.198l0.001 0.004zM28.055 10.65c-0.117 0.114-0.189 0.272-0.189 0.448 0 0.037 0.003 0.074 0.010 0.109l-0.001-0.004 0.192 1.122-1.007-0.53c-0.084-0.045-0.184-0.072-0.291-0.072s-0.206 0.027-0.294 0.073l0.003-0.002-1.008 0.53 0.193-1.122c0.006-0.032 0.009-0.068 0.009-0.106 0-0.175-0.072-0.334-0.189-0.448l-0-0-0.815-0.795 1.126-0.163c0.203-0.030 0.379-0.157 0.47-0.342l0.504-1.021 0.503 1.021c0.091 0.185 0.267 0.312 0.471 0.342l1.126 0.164-0.815 0.795zM5.159 11.316l-0.351 2.046c-0.006 0.032-0.009 0.068-0.009 0.106 0 0.345 0.28 0.625 0.625 0.625 0.106 0 0.206-0.027 0.294-0.073l-0.003 0.002 1.838-0.966 1.838 0.966c0.084 0.045 0.185 0.072 0.291 0.072 0.345 0 0.625-0.28 0.625-0.625 0-0.038-0.003-0.075-0.010-0.111l0.001 0.004-0.351-2.046 1.487-1.449c0.117-0.114 0.189-0.272 0.189-0.448 0-0.314-0.231-0.573-0.532-0.618l-0.003-0-2.054-0.298-0.919-1.861c-0.104-0.208-0.316-0.348-0.561-0.348s-0.456 0.14-0.559 0.345l-0.002 0.004-0.918 1.861-2.054 0.299c-0.304 0.045-0.535 0.305-0.535 0.619 0 0.175 0.072 0.334 0.189 0.447l0 0 1.486 1.449zM6.579 9.692c0.204-0.030 0.38-0.157 0.471-0.342l0.503-1.021 0.504 1.021c0.091 0.185 0.267 0.312 0.47 0.342l1.126 0.164-0.815 0.795c-0.116 0.114-0.189 0.272-0.189 0.448 0 0.037 0.003 0.074 0.010 0.109l-0.001-0.004 0.192 1.122-1.007-0.53c-0.084-0.045-0.185-0.072-0.291-0.072s-0.207 0.027-0.294 0.074l0.003-0.002-1.007 0.53 0.192-1.122c0.006-0.032 0.009-0.069 0.009-0.106 0-0.175-0.072-0.334-0.188-0.447l-0.816-0.795 1.126-0.163zM17.156 3.095c0.345 0 0.625-0.28 0.625-0.625v-1.845c0-0.345-0.28-0.625-0.625-0.625s-0.625 0.28-0.625 0.625v0 1.845c0 0.345 0.28 0.625 0.625 0.625zM12.544 4.442c0.113 0.114 0.269 0.184 0.442 0.184s0.329-0.070 0.442-0.184l0-0c0.244-0.244 0.244-0.64 0-0.884l-1.083-1.083c-0.113-0.113-0.269-0.183-0.442-0.183-0.345 0-0.625 0.28-0.625 0.625 0 0.173 0.070 0.329 0.183 0.442v0l1.083 1.083zM21.337 4.625c0.16 0 0.32-0.061 0.442-0.183l1.083-1.083c0.113-0.113 0.183-0.269 0.183-0.442 0-0.345-0.28-0.625-0.625-0.625-0.173 0-0.329 0.070-0.442 0.183l-1.083 1.083c-0.113 0.113-0.183 0.269-0.183 0.442 0 0.345 0.28 0.625 0.625 0.625 0 0 0 0 0 0h-0z"></path>
<path d="M2.228 25.567c0.113-0.113 0.183-0.27 0.183-0.442v-0c0-0.164-0.067-0.325-0.183-0.442-0.113-0.112-0.269-0.182-0.441-0.183h-0c-0.165 0-0.325 0.067-0.443 0.183-0.112 0.113-0.182 0.269-0.182 0.442v0c0 0.165 0.066 0.325 0.182 0.442 0.117 0.116 0.277 0.183 0.443 0.183 0.164 0 0.325-0.067 0.442-0.183z"></path>
</symbol>
<symbol id="icon-certificate-2" viewBox="0 0 32 32">
<path d="M9.125 8.551v3c0 0.345 0.279 0.625 0.625 0.625h12.501c0.345 0 0.625-0.28 0.625-0.625v-3c0-0.345-0.28-0.625-0.625-0.625h-12.501c-0.345 0-0.625 0.28-0.625 0.625zM10.375 9.176h11.25v1.75h-11.25v-1.749zM7.031 14.801c0 0.345 0.279 0.625 0.625 0.625h16.688c0.345 0 0.625-0.28 0.625-0.625s-0.28-0.625-0.625-0.625h-16.688c-0.345 0-0.625 0.28-0.625 0.625zM8.25 19.863c-0.164 0-0.325 0.067-0.442 0.183-0.113 0.113-0.182 0.269-0.183 0.442v0c0 0.165 0.067 0.325 0.183 0.442s0.277 0.183 0.442 0.183c0.164 0 0.325-0.067 0.442-0.183 0.113-0.113 0.183-0.27 0.183-0.442v-0c0-0.165-0.067-0.325-0.183-0.442-0.113-0.113-0.269-0.183-0.441-0.183h-0zM15.092 18.277l-1.223 1.228c-0.056 0.057-0.135 0.093-0.221 0.093s-0.165-0.035-0.221-0.093l-0.151-0.151c-0.281-0.283-0.671-0.459-1.101-0.459-0.001 0-0.002 0-0.004 0h0c-0.001 0-0.003 0-0.005 0-0.43 0-0.819 0.175-1.1 0.458l-0.694 0.694c-0.113 0.113-0.183 0.269-0.183 0.442 0 0.345 0.28 0.625 0.625 0.625 0.173 0 0.329-0.070 0.442-0.183v0l0.694-0.694c0.056-0.057 0.135-0.092 0.221-0.092s0.165 0.035 0.221 0.092l0 0 0.151 0.152c0.281 0.283 0.671 0.459 1.102 0.459 0.001 0 0.003 0 0.004 0h0.001c0.001 0 0.002 0 0.003 0 0.431 0 0.822-0.176 1.103-0.46l0-0 1.223-1.228c0.107-0.112 0.172-0.264 0.172-0.431 0-0.345-0.28-0.625-0.625-0.625-0.168 0-0.32 0.066-0.433 0.174l0-0zM16.009 6.176c0.164 0 0.325-0.067 0.442-0.183 0.113-0.113 0.183-0.27 0.183-0.442v-0c0-0.164-0.067-0.325-0.183-0.442-0.113-0.113-0.269-0.182-0.442-0.183h-0c-0.345 0.001-0.624 0.28-0.625 0.624v0c0 0.165 0.067 0.326 0.183 0.442s0.277 0.183 0.442 0.183z"></path>
<path d="M31.375 2.176h-30.75c-0.345 0-0.625 0.28-0.625 0.625v24c0 0.345 0.28 0.625 0.625 0.625h19v1.773c0 0.345 0.28 0.625 0.625 0.625 0.174 0 0.332-0.071 0.445-0.186l0-0 1.555-1.579 1.555 1.579c0.113 0.115 0.271 0.186 0.445 0.186 0.345 0 0.625-0.28 0.625-0.625v0-1.773h6.5c0.345 0 0.625-0.28 0.625-0.625v-24c0-0.345-0.28-0.625-0.625-0.625zM22.25 23.426c-1.414-0.002-2.561-1.148-2.562-2.563v-0c0.002-1.414 1.148-2.561 2.563-2.562h0c1.414 0.002 2.56 1.148 2.562 2.562v0c-0.002 1.415-1.148 2.561-2.562 2.563h-0zM23.625 27.673l-0.93-0.944c-0.113-0.115-0.271-0.186-0.445-0.186s-0.332 0.071-0.445 0.186l-0 0-0.93 0.944v-3.254c0.408 0.163 0.88 0.258 1.375 0.258s0.967-0.095 1.401-0.267l-0.026 0.009v3.254zM30.75 26.176h-5.876v-1.5h3.749c0.346 0 0.626-0.28 0.626-0.625v-18.5c0-0.345-0.28-0.625-0.625-0.625h-9.804c-0.345 0-0.625 0.28-0.625 0.625s0.28 0.625 0.625 0.625h9.18v17.25h-2.93c0.615-0.672 0.992-1.572 0.992-2.559 0-0.001 0-0.002 0-0.004v0c-0.002-2.104-1.708-3.81-3.812-3.812h-0c-2.102 0-3.813 1.71-3.813 3.812 0 0.001 0 0.002 0 0.003 0 0.987 0.377 1.887 0.995 2.562l-0.003-0.003h-15.429v-17.25h9.195c0.345 0 0.625-0.28 0.625-0.625s-0.28-0.625-0.625-0.625h-9.82c-0.345 0-0.625 0.28-0.625 0.625v18.5c0 0.345 0.28 0.625 0.625 0.625h16.25v1.5h-18.375v-22.75h29.5v22.75z"></path>
</symbol>
<symbol id="icon-review" viewBox="0 0 32 32">
<path d="M31.382 9.74c0.386-0.511 0.618-1.157 0.618-1.856 0-0.003 0-0.006 0-0.009v0-4.75c0-1.723-1.402-3.125-3.125-3.125h-25.749c-1.725 0.003-3.122 1.401-3.124 3.125v4.757c0 1.723 1.402 3.125 3.125 3.125h7.501l-0.001 1.535c-0.686-0.253-1.479-0.4-2.305-0.4-0.001 0-0.003 0-0.004 0h0c-3.79 0-6.875 3.085-6.875 6.875v8.036c-0.668 0.547-1.119 1.337-1.217 2.233l-0.001 0.015-0.22 2.005c-0.002 0.020-0.004 0.044-0.004 0.068 0 0.345 0.28 0.625 0.625 0.625 0 0 0 0 0 0h30.75c0 0 0 0 0 0 0.345 0 0.625-0.28 0.625-0.625 0-0.024-0.001-0.048-0.004-0.071l0 0.003-0.219-2.005c-0.161-1.473-1.254-2.649-2.67-2.935l-0.021-0.004-2.675-0.533c-0.275-0.057-0.478-0.296-0.479-0.583v-0.667c0-0.019-0.001-0.039-0.003-0.058l1.248-0.713 0.034-0.021c0.623-0.411 1.033-1.146 1.095-1.964 0.001-0.014 0.002-0.029 0.002-0.045 0-0.001 0-0.002 0-0.002v0-2.961c0.421-0.26 0.733-0.743 0.733-1.605l0.001-1.595c0-0.025-0.001-0.049-0.004-0.072-0.028-0.562-0.234-1.071-0.562-1.477l0.004 0.005c0.013-0.016 0.027-0.033 0.039-0.051l2.863-4.278zM3.126 9.757c-0.994-0.001-1.806-0.774-1.871-1.752l-0-0.006h5.365c0.345 0 0.625-0.28 0.625-0.625s-0.28-0.625-0.625-0.625h-5.37v-3.625c0.002-1.035 0.84-1.873 1.875-1.875h12.866c1.035 0.001 1.874 0.84 1.875 1.875v4.758c-0.002 1.035-0.84 1.873-1.875 1.875h-1.68c-0.165 0-0.325 0.066-0.442 0.183l-1.993 1.993 0.001-1.55c0-0 0-0 0-0.001 0-0.345-0.28-0.625-0.625-0.625h-8.126zM2.692 19.018c0-3.101 2.523-5.625 5.625-5.625s5.625 2.523 5.625 5.625v7.397c-0.050-0.015-0.124-0.033-0.2-0.049l-0.022-0.004-2.674-0.533c-0.275-0.057-0.478-0.296-0.479-0.583v-0.667c0-0.020-0.001-0.041-0.003-0.060l1.241-0.711 0.033-0.020c0.628-0.415 1.040-1.149 1.102-1.965 0.001-0.013 0.002-0.029 0.002-0.045 0-0.001 0-0.002 0-0.003v0-2.743c0-0.227-0.123-0.436-0.321-0.546l-2.795-1.56c-0.088-0.050-0.193-0.079-0.305-0.079-0.175 0-0.334 0.072-0.447 0.188l-0 0c-0.827 0.844-1.978 1.369-3.252 1.372h-1.506c-0.345 0-0.625 0.279-0.625 0.625v2.743c0 0.016 0.001 0.032 0.002 0.048 0.062 0.818 0.472 1.553 1.095 1.964l0.034 0.021 1.248 0.713c-0.002 0.017-0.003 0.038-0.003 0.058v0.667c0 0.283-0.202 0.528-0.479 0.583l-2.675 0.533c-0.075 0.015-0.149 0.033-0.222 0.052v-7.397zM9.817 26.507c-0.427 0.265-0.945 0.422-1.5 0.422s-1.073-0.157-1.512-0.429l0.012 0.007c0.31-0.329 0.5-0.772 0.501-1.261v-0.009c0.314 0.179 0.656 0.268 0.999 0.268s0.686-0.090 1-0.269v0.010c0 0.482 0.188 0.928 0.5 1.261zM8.783 24.099c-0.014 0.008-0.025 0.015-0.036 0.022l0.003-0.002c-0.121 0.085-0.271 0.136-0.433 0.136s-0.312-0.051-0.435-0.138l0.002 0.002c-0.009-0.006-0.020-0.013-0.031-0.019l-0.003-0.002-2.387-1.364c-0.286-0.197-0.484-0.571-0.521-0.985v-2.093h0.88c1.39 0 2.748-0.511 3.794-1.417l2.076 1.159v2.351c-0.037 0.411-0.238 0.786-0.529 0.985l-2.38 1.365zM1.322 30.75l0.144-1.313c0.102-0.926 0.789-1.666 1.679-1.846l0.014-0.002 2.39-0.476c0.726 0.662 1.697 1.067 2.761 1.067 0.002 0 0.005 0 0.007 0h-0c0.002 0 0.004 0 0.007 0 1.065 0 2.035-0.405 2.765-1.070l-0.003 0.003 2.39 0.476c0.904 0.182 1.592 0.923 1.693 1.84l0.001 0.009 0.143 1.312h-13.989zM26.452 27.113l2.39 0.476c0.904 0.182 1.592 0.922 1.692 1.839l0.001 0.009 0.143 1.313h-13.989l0.143-1.312c0.101-0.927 0.789-1.668 1.68-1.847l0.014-0.002 2.39-0.476c0.727 0.662 1.697 1.067 2.761 1.067 0.002 0 0.005 0 0.007 0h-0c0.002 0 0.004 0 0.007 0 1.065 0 2.035-0.405 2.765-1.070l-0.003 0.003zM25.183 26.507c-0.427 0.265-0.945 0.421-1.5 0.421s-1.073-0.157-1.513-0.429l0.012 0.007c0.309-0.329 0.5-0.772 0.5-1.261v-0.010c0.287 0.168 0.632 0.268 1 0.269h0c0.343 0 0.685-0.091 0.999-0.269v0.009c0 0.482 0.188 0.928 0.5 1.261zM27.058 21.749c-0.037 0.414-0.235 0.788-0.521 0.985l-2.387 1.364c-0.014 0.008-0.026 0.015-0.037 0.023l0.002-0.001c-0.275 0.181-0.59 0.181-0.865 0-0.009-0.006-0.020-0.013-0.031-0.020l-0.003-0.002-2.38-1.364c-0.291-0.199-0.492-0.574-0.529-0.985v-2.908c0.379 0.157 0.793 0.244 1.228 0.244h5.522v2.663zM27.792 17.207c0 0.364-0.073 0.482-0.104 0.517-0.065 0.071-0.247 0.112-0.499 0.112h-5.653c-1.083-0.002-1.961-0.879-1.962-1.963v-1.687c0.262 0.117 0.567 0.186 0.889 0.188h6.031c0.002 0 0.005-0 0.007-0 0.711 0 1.289 0.575 1.292 1.286v0l-0.001 1.547zM28.444 9.933c-0.113-0.113-0.269-0.183-0.442-0.183-0 0-0.001 0-0.001 0h-4.814c-0.337 0.010-0.607 0.286-0.607 0.625s0.27 0.615 0.606 0.625l0.001 0h4.189l-0.001 2.281c-0.261-0.098-0.563-0.155-0.879-0.155-0.001 0-0.002 0-0.004 0h-6.030c-0.288 0-0.55-0.149-0.72-0.274-0.146-0.109-0.33-0.175-0.53-0.175-0.147 0-0.285 0.036-0.407 0.099l0.005-0.002c-0.291 0.149-0.487 0.446-0.487 0.79 0 0.001 0 0.002 0 0.003v-0 2.309c0 0.774 0.276 1.486 0.735 2.042v3.859c0 0.016 0 0.032 0.002 0.048 0.062 0.815 0.475 1.549 1.102 1.964 0.011 0.007 0.022 0.014 0.034 0.021l1.24 0.711c-0.002 0.018-0.003 0.039-0.003 0.061v0.666c0 0.283-0.201 0.528-0.479 0.583l-2.674 0.533c-0.986 0.198-1.8 0.806-2.272 1.635l-0.009 0.017c-0.214-0.376-0.484-0.695-0.803-0.955l-0.006-0.005v-8.036c0-2.343-1.179-4.416-2.974-5.658l2.353-2.353h1.421c1.723 0 3.125-1.402 3.125-3.125v-4.756c0-0.001 0-0.002 0-0.003 0-0.706-0.235-1.357-0.632-1.879l0.006 0.008h10.385c1.035 0.002 1.873 0.84 1.875 1.875v4.75c0 0.411-0.13 0.801-0.377 1.127-0.006 0.008-0.013 0.017-0.019 0.027l-0.001 0.002-1.726 2.58 0.001-1.236c0-0.001 0-0.001 0-0.002 0-0.172-0.070-0.328-0.182-0.44v0z"></path>
<path d="M20.817 9.933c-0.113-0.113-0.269-0.182-0.442-0.183h-0c-0.164 0-0.325 0.067-0.442 0.183-0.113 0.113-0.183 0.269-0.183 0.441v0c0 0.165 0.067 0.326 0.183 0.442s0.277 0.183 0.442 0.183c0.164 0 0.325-0.067 0.442-0.183 0.113-0.113 0.183-0.27 0.183-0.442v-0c0-0.164-0.067-0.325-0.183-0.442zM9.406 6.933c-0.113-0.113-0.269-0.182-0.441-0.183h-0c-0.345 0.001-0.624 0.28-0.625 0.625v0c0.001 0.345 0.28 0.624 0.625 0.625h0c0.164 0 0.325-0.067 0.442-0.183 0.113-0.113 0.182-0.269 0.183-0.442v-0c0-0.165-0.067-0.325-0.183-0.442z"></path>
</symbol>
<symbol id="icon-product" viewBox="0 0 32 32">
<path d="M4.491 26.132l3.010 1.504v3.739c0 0.345 0.279 0.625 0.625 0.625h6.625c0.345 0 0.625-0.28 0.625-0.625v-8.534c0-0.004 0-0.008 0-0.012 0-1.916-1.456-3.491-3.321-3.68l-0.016-0.001c-0.007-0.002-2.644-0.413-3.867-1.637l-1.404-1.403c-0.45-0.453-1.073-0.733-1.761-0.733-0.002 0-0.004 0-0.006 0h0v-5c-0.002-1.38-1.12-2.498-2.5-2.5h-0c-1.38 0.002-2.498 1.12-2.5 2.5v8.49c0 0 0 0 0 0 0 3.163 1.807 5.903 4.445 7.246l0.046 0.021zM1.251 10.375c0.001-0.69 0.56-1.25 1.25-1.25h0c0.69 0.001 1.249 0.56 1.25 1.25v5.335c-0.752 0.441-1.249 1.245-1.25 2.165v0c0 0.667 0.26 1.295 0.732 1.767l3.201 3.201c0.114 0.119 0.274 0.194 0.452 0.194 0.345 0 0.625-0.28 0.625-0.625 0-0.178-0.074-0.338-0.193-0.452l-0-0-3.2-3.202c-0.227-0.225-0.367-0.537-0.367-0.881 0-0.001 0-0.001 0-0.002v0c0-0.529 0.335-1.003 0.834-1.179v-0.001c0.124-0.045 0.267-0.072 0.416-0.072 0.345 0 0.658 0.14 0.884 0.367l1.404 1.403c1.449 1.45 4.615 1.995 4.621 1.996 1.249 0.125 2.216 1.171 2.216 2.443 0 0.003 0 0.005 0 0.008v-0 7.909h-5.375v-3.5c0-0.237-0.133-0.453-0.346-0.559l-3.354-1.678c-2.27-1.144-3.8-3.456-3.8-6.126 0-0.008 0-0.016 0-0.025v0.001-8.489z"></path>
<path d="M8.5 15.375h14.999c0.346 0 0.625-0.279 0.625-0.625v-14.125c0-0.345-0.279-0.625-0.625-0.625h-14.999c-0.346 0-0.625 0.28-0.625 0.625v14.125c0 0 0 0.001 0 0.001 0 0.345 0.279 0.624 0.624 0.624 0 0 0 0 0.001 0h-0zM14.124 1.25h3.75v3.368l-1.623-0.803c-0.081-0.041-0.176-0.065-0.277-0.065-0.103 0-0.2 0.025-0.285 0.069l0.004-0.002-1.568 0.792v-3.359zM9.124 1.25h3.75v4.375c0 0.345 0.28 0.625 0.625 0.625 0.103 0 0.2-0.025 0.285-0.069l-0.004 0.002 2.195-1.109 2.245 1.111c0.081 0.041 0.176 0.065 0.277 0.065 0.345 0 0.625-0.28 0.625-0.625v0-4.375h3.75v12.875h-13.75v-12.875z"></path>
<path d="M21 11h-3.75c-0.345 0-0.625 0.28-0.625 0.625s0.28 0.625 0.625 0.625h3.75c0.345 0 0.625-0.28 0.625-0.625s-0.28-0.625-0.625-0.625v0zM28.688 25.25c0.345-0 0.625-0.28 0.625-0.625s-0.28-0.625-0.625-0.625c-0 0-0 0-0.001 0h0c-0.345 0-0.625 0.28-0.625 0.625s0.28 0.625 0.625 0.625v0z"></path>
<path d="M29.5 7.875c-1.38 0.002-2.498 1.12-2.5 2.5v5c-0.002 0-0.004 0-0.007 0-0.688 0-1.311 0.28-1.761 0.732l-1.404 1.403c-0.769 0.769-2.716 1.521-3.821 1.632l-0.042 0.004c-1.883 0.189-3.341 1.766-3.341 3.683 0 0.004 0 0.007 0 0.011v-0.001 8.534c0 0.345 0.28 0.625 0.625 0.625h6.625c0.345 0 0.625-0.28 0.625-0.625v-3.739l2.045-1.022c0.207-0.105 0.346-0.316 0.346-0.559 0-0.345-0.28-0.625-0.625-0.625-0.102 0-0.198 0.024-0.283 0.068l0.004-0.002-2.391 1.195c-0.207 0.105-0.346 0.316-0.346 0.559 0 0 0 0 0 0v-0 3.5h-5.375v-7.909c0-0.002 0-0.004 0-0.006 0-1.273 0.969-2.32 2.21-2.443l0.010-0.001 0.042-0.004c1.355-0.136 3.6-1.017 4.575-1.991l1.404-1.403c0.226-0.227 0.538-0.367 0.884-0.367 0.149 0 0.292 0.026 0.425 0.074l-0.009-0.003h0.001c0.861 0.304 1.12 1.41 0.467 2.063l-3.201 3.201c-0.107 0.112-0.173 0.264-0.173 0.431 0 0.345 0.28 0.625 0.625 0.625 0.167 0 0.32-0.066 0.432-0.173l-0 0 3.201-3.201c1.156-1.156 0.915-3.104-0.517-3.933v-5.335c0.001-0.69 0.56-1.25 1.25-1.25h0c0.69 0.001 1.249 0.56 1.25 1.25v8.49c0 1.143-0.288 2.279-0.834 3.283-0.052 0.089-0.083 0.196-0.083 0.311 0 0.345 0.28 0.625 0.625 0.625 0.241 0 0.45-0.136 0.554-0.335l0.002-0.003c0.62-1.121 0.985-2.458 0.986-3.88v-8.49c-0.002-1.38-1.12-2.498-2.5-2.5h-0z"></path>
</symbol>
<symbol id="icon-plus" viewBox="0 0 32 32">
<path d="M16 1.6c0.884 0 1.6 0.716 1.6 1.6v0 12.8c0 0.884-0.716 1.6-1.6 1.6v0h-12.8c-0.884 0-1.6-0.716-1.6-1.6s0.716-1.6 1.6-1.6v0h11.2v-11.2c0-0.884 0.716-1.6 1.6-1.6v0z"></path>
<path d="M14.4 16c0-0.884 0.716-1.6 1.6-1.6v0h12.8c0.884 0 1.6 0.716 1.6 1.6s-0.716 1.6-1.6 1.6v0h-11.2v11.2c0 0.884-0.716 1.6-1.6 1.6s-1.6-0.716-1.6-1.6v0-12.8z"></path>
</symbol>
<symbol id="icon-info" viewBox="0 0 32 32">
<path d="M16 0c-8.822 0-16 7.178-16 16s7.178 16 16 16 16-7.178 16-16-7.178-16-16-16zM16 29.092c-7.226-0.009-13.082-5.865-13.090-13.091v-0.001c0.009-7.226 5.864-13.081 13.089-13.090h0.001c7.227 0.008 13.083 5.864 13.092 13.089v0.001c-0.008 7.227-5.865 13.084-13.091 13.092h-0.001z"></path>
<path d="M16 6.788c-1.071 0-1.94 0.869-1.94 1.94s0.869 1.94 1.94 1.94v0c1.071 0 1.94-0.869 1.94-1.94s-0.869-1.94-1.94-1.94v0zM16 13.576c-0.001 0-0.001 0-0.002 0-0.803 0-1.454 0.651-1.454 1.454 0 0 0 0 0 0v0 8.728c0 0.804 0.651 1.455 1.455 1.455s1.455-0.651 1.455-1.455v0-8.728c0-0.803-0.651-1.454-1.454-1.454v0z"></path>
</symbol>
</defs>
</svg>
