<svg aria-hidden="true" style="position: absolute; width: 0; height: 0; overflow: hidden;" version="1.1" xmlns="http://www.w3.org/2000/svg" xmlns:xlink="http://www.w3.org/1999/xlink">
<defs>
<symbol id="icon-search" viewBox="0 0 32 32">
<path d="M30.978 29.147l-7.616-7.921c1.958-2.328 3.031-5.257 3.031-8.306 0-7.124-5.796-12.92-12.92-12.92s-12.92 5.796-12.92 12.92 5.796 12.92 12.92 12.92c2.674 0 5.223-0.807 7.402-2.338l7.674 7.981c0.321 0.333 0.752 0.517 1.214 0.517 0.438 0 0.853-0.167 1.168-0.47 0.67-0.644 0.691-1.713 0.047-2.383zM13.473 3.37c5.266 0 9.55 4.284 9.55 9.55s-4.284 9.55-9.55 9.55-9.55-4.284-9.55-9.55 4.284-9.55 9.55-9.55z"></path>
</symbol>
<symbol id="icon-user" viewBox="0 0 32 32">
<path d="M15.771 15.415c2.119 0 3.954-0.759 5.451-2.258 1.393-1.356 2.257-3.25 2.257-5.345 0-0.037-0-0.073-0.001-0.11l0 0.006c0-0.031 0.001-0.068 0.001-0.105 0-2.095-0.865-3.989-2.257-5.343l-0.002-0.002c-1.357-1.394-3.251-2.259-5.347-2.259-0.036 0-0.072 0-0.107 0.001l0.005-0c-2.117 0-3.95 0.759-5.449 2.258-1.394 1.357-2.259 3.251-2.259 5.347 0 0.036 0 0.072 0.001 0.107l-0-0.005c0 2.117 0.761 3.952 2.258 5.449 1.357 1.394 3.251 2.259 5.347 2.259 0.036 0 0.072-0 0.107-0.001l-0.005 0zM29.257 24.606c-0.058-0.767-0.149-1.46-0.277-2.139l0.018 0.118c-0.142-0.797-0.314-1.482-0.53-2.147l0.032 0.113c-0.237-0.728-0.519-1.356-0.86-1.945l0.026 0.048c-0.355-0.628-0.774-1.168-1.26-1.639l-0.002-0.002c-0.508-0.477-1.109-0.862-1.773-1.123l-0.038-0.013c-0.667-0.265-1.441-0.419-2.25-0.419-0.021 0-0.041 0-0.062 0l0.003-0c-0.329 0-0.645 0.133-1.255 0.53l-1.303 0.841c-0.486 0.295-1.047 0.548-1.638 0.729l-0.053 0.014c-0.616 0.21-1.325 0.333-2.062 0.336h-0.002c-0.686 0-1.381-0.114-2.064-0.334-0.644-0.196-1.204-0.449-1.722-0.764l0.033 0.019-1.305-0.841c-0.61-0.398-0.926-0.533-1.253-0.533-0.832 0-1.609 0.142-2.309 0.421-0.702 0.273-1.304 0.658-1.815 1.139l0.003-0.003c-0.475 0.457-0.898 1.008-1.259 1.643-0.316 0.541-0.599 1.169-0.816 1.826l-0.020 0.071c-0.199 0.624-0.366 1.307-0.496 2.032-0.11 0.561-0.202 1.253-0.257 1.956l-0.004 0.065c-0.041 0.613-0.064 1.248-0.064 1.89 0 1.671 0.533 3.024 1.577 4.021 1.035 0.983 2.405 1.483 4.069 1.483h15.408c1.664 0 3.033-0.498 4.069-1.483 1.045-0.997 1.577-2.35 1.577-4.021-0-0.666-0.024-1.325-0.071-1.979l0.005 0.088z"></path>
</symbol>
<symbol id="icon-heart" viewBox="0 0 32 32">
<path d="M31.226 7.345c-0.496-1.176-1.212-2.242-2.108-3.138-0.896-0.899-1.952-1.613-3.111-2.104-1.202-0.511-2.491-0.772-3.793-0.769-1.826 0-3.608 0.512-5.156 1.478-0.37 0.231-0.722 0.485-1.056 0.762-0.333-0.277-0.685-0.531-1.056-0.762-1.548-0.966-3.33-1.478-5.156-1.478-1.315 0-2.589 0.258-3.793 0.769-1.163 0.493-2.211 1.201-3.111 2.104-0.896 0.895-1.613 1.961-2.108 3.138-0.515 1.224-0.778 2.524-0.778 3.862 0 1.262 0.252 2.577 0.752 3.915 0.419 1.118 1.019 2.278 1.785 3.449 1.215 1.853 2.885 3.786 4.96 5.746 3.437 3.248 6.842 5.492 6.986 5.583l0.878 0.576c0.389 0.254 0.889 0.254 1.278 0l0.878-0.576c0.145-0.095 3.545-2.335 6.986-5.583 2.074-1.959 3.745-3.893 4.96-5.746 0.767-1.171 1.371-2.331 1.785-3.449 0.5-1.338 0.752-2.653 0.752-3.915 0.004-1.338-0.259-2.638-0.774-3.862v0zM16.002 27.478c0 0-13.187-8.645-13.187-16.271 0-3.862 3.123-6.993 6.975-6.993 2.708 0 5.056 1.546 6.212 3.805 1.156-2.259 3.504-3.805 6.212-3.805 3.852 0 6.975 3.131 6.975 6.993 0 7.626-13.187 16.271-13.187 16.271z"></path>
</symbol>
<symbol id="icon-shopping-cart" viewBox="0 0 31 32">
<path d="M11.478 27.247c0.064 0 0.116-0.052 0.116-0.116s-0.052-0.116-0.116-0.116-0.116 0.052-0.116 0.116c0 0.064 0.052 0.116 0.116 0.116zM8.811 27.131c0-1.473 1.194-2.667 2.667-2.667s2.667 1.194 2.667 2.667c0 1.473-1.194 2.667-2.667 2.667s-2.667-1.194-2.667-2.667z"></path>
<path d="M25.507 27.247c0.064 0 0.116-0.052 0.116-0.116s-0.052-0.116-0.116-0.116c-0.064 0-0.116 0.052-0.116 0.116s0.052 0.116 0.116 0.116zM22.84 27.131c0-1.473 1.194-2.667 2.667-2.667s2.667 1.194 2.667 2.667c0 1.473-1.194 2.667-2.667 2.667s-2.667-1.194-2.667-2.667z"></path>
<path d="M-0.116 1.623c0-0.768 0.623-1.391 1.391-1.391h5.101c0.663 0 1.234 0.468 1.364 1.118l1.052 5.259h20.54c0.415 0 0.808 0.185 1.072 0.504s0.372 0.74 0.295 1.147l-2.043 10.711c-0.18 0.908-0.674 1.723-1.395 2.303-0.717 0.577-1.613 0.885-2.533 0.871h-12.373c-0.92 0.014-1.816-0.294-2.533-0.871-0.72-0.58-1.214-1.395-1.394-2.302-0-0 0 0 0 0l-2.13-10.642c-0.009-0.037-0.017-0.075-0.023-0.113l-1.041-5.203h-3.961c-0.768 0-1.391-0.623-1.391-1.391zM9.35 9.391l1.809 9.038c0.053 0.267 0.198 0.507 0.41 0.677s0.477 0.261 0.749 0.256l0.027-0 12.423 0c0.272 0.005 0.537-0.085 0.749-0.256 0.211-0.17 0.356-0.408 0.409-0.673 0-0.001 0.001-0.003 0.001-0.004l1.723-9.038h-18.301z"></path>
</symbol>
<symbol id="icon-shopping-bag" viewBox="0 0 32 32">
<path d="M28.671 26.389l-1.429-18.007c-0.089-1.16-1.070-2.069-2.234-2.069h-2.823v-0.127c0-3.411-2.775-6.186-6.186-6.186s-6.186 2.775-6.186 6.186v0.127h-2.823c-1.164 0-2.145 0.909-2.233 2.066l-1.429 18.012c-0.111 1.442 0.39 2.878 1.373 3.939s2.376 1.67 3.823 1.67h14.952c1.446 0 2.84-0.609 3.823-1.67s1.483-2.497 1.372-3.942zM11.689 6.186c0-2.377 1.934-4.311 4.311-4.311s4.311 1.934 4.311 4.311v0.127h-8.622v-0.127zM25.924 29.057c-0.639 0.689-1.508 1.069-2.448 1.069h-14.952c-0.94 0-1.809-0.38-2.447-1.069s-0.951-1.585-0.879-2.52l1.429-18.012c0.014-0.19 0.175-0.338 0.365-0.338h2.823v2.308c0 0.518 0.42 0.937 0.937 0.937s0.937-0.42 0.937-0.937v-2.308h8.622v2.308c0 0.518 0.42 0.937 0.937 0.937s0.937-0.42 0.937-0.937v-2.308h2.823c0.19 0 0.35 0.148 0.365 0.34l1.429 18.007c0.072 0.937-0.24 1.833-0.879 2.522z"></path>
</symbol>
<symbol id="icon-catalog" viewBox="0 0 33 32">
<path d="M18.667 26.667h5.333v5.333h-5.333v-5.333z"></path>
<path d="M28 26.667h5.333v5.333h-5.333v-5.333z"></path>
<path d="M18.667 17.333h5.333v5.333h-5.333v-5.333z"></path>
<path d="M28 17.333h5.333v5.333h-5.333v-5.333z"></path>
<path d="M33.333 9.333h-8v-5.333c0-2.267-1.733-4-4-4h-8c-2.267 0-4 1.733-4 4v5.333h-8c-0.8 0-1.333 0.533-1.333 1.333v0.267l2.533 16.133c0.133 1.333 1.333 2.267 2.667 2.267h10.8v-2.667h-10.8l-2.267-14.667h30.4v-2.667zM12 4c0-0.8 0.533-1.333 1.333-1.333h8c0.8 0 1.333 0.533 1.333 1.333v5.333h-10.667v-5.333z"></path>
</symbol>
<symbol id="icon-delivery" viewBox="0 0 32 32">
<path d="M25 24.5c-0.828 0.001-1.499 0.672-1.5 1.5v0c0.001 0.828 0.672 1.499 1.5 1.5h0c0.828-0.001 1.499-0.672 1.5-1.5v-0c-0.001-0.828-0.672-1.499-1.5-1.5h-0zM25 26.5c-0.276 0-0.5-0.224-0.5-0.5s0.224-0.5 0.5-0.5v0c0.276 0 0.5 0.224 0.5 0.5s-0.224 0.5-0.5 0.5v0zM9 24.5c-0.828 0.001-1.499 0.672-1.5 1.5v0c0.001 0.828 0.672 1.499 1.5 1.5h0c0.828-0.001 1.499-0.672 1.5-1.5v-0c-0.001-0.828-0.672-1.499-1.5-1.5h-0zM9 26.5c-0.276 0-0.5-0.224-0.5-0.5s0.224-0.5 0.5-0.5v0c0.276 0 0.5 0.224 0.5 0.5s-0.224 0.5-0.5 0.5v0z"></path>
<path d="M30.118 18l-0.667-0.333-0.679-4.077c-0.201-1.192-1.225-2.090-2.46-2.090-0.002 0-0.005 0-0.007 0h-5.305c-0.813 0-1.531 0.397-1.987 1h-1.513v-5h-2.999v-4.999h-7v5h-3.001v4.999h-2.998v5c-0.552 0-1 0.448-1.001 1v0.999c0 0.552 0.449 1.001 1 1.001v4.5c0.001 0.828 0.672 1.499 1.5 1.5h2.54c0.244 1.693 1.701 2.999 3.46 2.999s3.216-1.307 3.46-2.999h9.080c0.244 1.693 1.7 2.999 3.46 2.999s3.216-1.307 3.46-2.999h1.54c0.828-0.001 1.499-0.672 1.5-1.5v-4.764c0-0.002 0-0.005 0-0.008 0-0.971-0.557-1.812-1.368-2.222l-0.014-0.007zM30.5 22.691l-1.001-0.5v-0.691h1.001v1.191zM10.5 13.5h1v1h-1v-1zM12.5 15.5v-2h1v4h-5v-4h0.999v2h3zM18.5 17.5h-4v-4h1v2h3v2zM18.5 14v0.5h-2v-1h2.050c-0.032 0.15-0.050 0.322-0.050 0.498 0 0.001 0 0.001 0 0.002v-0zM16.5 12.5h-5v-4h1v2h3v-2h1v4zM13.5 8.5h1v1.001h-1v-1zM10.5 3.5h1v1h-1v-1.001zM8.5 3.5h0.999v2h3v-2h1v4h-5v-4zM7.5 8.5h1.001v0.999h-1.001v-1zM5.5 8.5h1.001v2h2.999v-2h1v4h-4.999v-4zM4.5 13.5h0.999v1h-0.999v-1zM2.5 13.5h1v2h3v-2h0.999v4h-4.999v-4zM1.5 18.5h17v1.001h-17.001v-1.001zM2.5 22.5h1.86l-0.25 1.001h-1.61v-1.001zM2.5 25v-0.5h2.391l0.75-2.999h-3.141v-1.001h16v5.001h-6.039c-0.244-1.693-1.701-3.001-3.46-3.001s-3.216 1.307-3.46 3.001h-2.54c-0.276 0-0.5-0.224-0.5-0.5v0zM9 28.5c-1.38-0.002-2.499-1.12-2.5-2.5v-0c0.002-1.38 1.12-2.499 2.5-2.5h0c1.38 0.002 2.499 1.12 2.5 2.5v0c-0.002 1.38-1.12 2.499-2.5 2.5h-0zM24.5 17.5h2v1.001h-1.001c-0.552-0.001-0.999-0.448-0.999-1v-0zM24.5 16.5c-0.552 0-1.001 0.448-1.001 1 0 0.366 0.107 0.704 0.278 0.999h-2.278v-4h4.523l0.374 2h-1.897zM21.5 19.5h5.001v3.342c-0.439-0.215-0.955-0.342-1.5-0.342h-0c-1.76 0-3.216 1.307-3.46 2.999h-0.040v-6zM25 28.5c-1.38-0.002-2.498-1.12-2.5-2.5v-0c0.002-1.38 1.12-2.499 2.5-2.5h0c1.38 0.002 2.499 1.12 2.5 2.5v0c-0.002 1.38-1.12 2.499-2.5 2.5h-0zM30 25.5h-1.54c-0.112-0.764-0.458-1.432-0.961-1.945l0.001 0.001v-6.556l-0.493-2.683c-0.090-0.468-0.495-0.817-0.983-0.817h-4.523c-0.552 0-1.001 0.448-1.001 1v11h-0.999v-11.5c0.001-0.828 0.672-1.499 1.5-1.5h5.306c0.736 0 1.358 0.528 1.479 1.253l0.763 4.58 1.122 0.561c0.496 0.25 0.83 0.754 0.83 1.337 0 0.002 0 0.003 0 0.005v-0 0.264h-2v2.309l2 1v1.191c0 0.276-0.224 0.5-0.5 0.5z"></path>
</symbol>
<symbol id="icon-certificate" viewBox="0 0 32 32">
<path d="M11.5 10v-1c-2.206 0-4 1.795-4 4h0.999c0.002-1.656 1.344-2.999 3-3h0z"></path>
<path d="M30 0.5h-12c-0.828 0.001-1.499 0.672-1.5 1.5v1.245c-0.299-0.111-0.644-0.175-1.005-0.175-0.526 0-1.020 0.137-1.449 0.377l0.015-0.008c-0.531-0.88-1.492-1.439-2.587-1.439-1.072 0.002-2.011 0.573-2.529 1.427l-0.007 0.013c-0.415-0.235-0.911-0.374-1.439-0.374-0.544 0-1.053 0.147-1.491 0.403l0.014-0.008-0.044 0.025c-0.876 0.514-1.459 1.444-1.477 2.512l-0 0.003c-1.070 0.018-2.001 0.601-2.507 1.463l-0.008 0.014-0.025 0.044c-0.248 0.424-0.394 0.933-0.394 1.477 0 0.528 0.138 1.024 0.381 1.454l-0.008-0.015c-0.867 0.526-1.438 1.464-1.44 2.536v0.051c0.001 1.072 0.572 2.011 1.427 2.53l0.013 0.007c-0.235 0.415-0.373 0.911-0.373 1.439 0 0.544 0.147 1.053 0.402 1.491l-0.008-0.014 0.025 0.044c0.514 0.876 1.444 1.459 2.512 1.477l0.003 0c0.005 0.306 0.064 0.604 0.158 0.888l-4.224 6.894 4.701-1.175 1.172 4.689 4.421-7.398c0.254 0.067 0.521 0.103 0.796 0.103 0.257 0 0.508-0.035 0.749-0.098l4.418 7.393 1.173-4.689 4.701 1.175-4.224-6.894c0.093-0.264 0.15-0.568 0.157-0.885l0-0.003c1.071-0.018 2.001-0.601 2.507-1.463l0.008-0.014 0.026-0.044c0.248-0.424 0.395-0.933 0.395-1.477 0-0.528-0.139-1.024-0.381-1.454l0.008 0.015c0.73-0.447 1.246-1.183 1.391-2.045l0.002-0.017h7.546c0.828-0.001 1.499-0.672 1.5-1.5v-10.001c-0.001-0.828-0.672-1.499-1.5-1.5h-0zM24.5 2.5v1h-1v-1h-1v1h-1v-2h5v2h-1v-1h-1zM16.5 9.691c-1.075-1.62-2.914-2.691-5-2.691-3.308 0-6 2.692-6 6s2.692 6 6 6c3.173 0 5.772-2.477 5.98-5.598 0.163 0.060 0.337 0.098 0.521 0.098h0.475c-0.258 3.627-3.284 6.5-6.975 6.5-3.86 0-7-3.14-7-7s3.14-7 7-7c1.959 0.005 3.729 0.813 4.999 2.111l0.001 0.001v1.579zM16.5 13c0 2.757-2.243 5-5 5s-5-2.243-5-5c0-2.757 2.243-5 5-5s5 2.243 5 5zM6.692 28.705l-0.828-3.311-3.299 0.825 2.658-4.338c0.212 0.246 0.462 0.464 0.755 0.633l0.044 0.026c0.424 0.248 0.933 0.394 1.477 0.394 0.528 0 1.025-0.138 1.454-0.381l-0.015 0.008c0.227 0.369 0.521 0.675 0.867 0.91l0.010 0.007-3.125 5.228zM20.434 26.219l-3.298-0.825-0.828 3.311-3.122-5.224c0.356-0.243 0.649-0.55 0.868-0.907l0.007-0.013c0.415 0.235 0.911 0.373 1.439 0.373 0.544 0 1.053-0.146 1.491-0.402l-0.014 0.008 0.044-0.026c0.293-0.173 0.542-0.383 0.752-0.629l0.003-0.004 2.657 4.338zM20.151 14.886l-0.713 0.24 0.498 0.565c0.309 0.346 0.498 0.805 0.498 1.308 0 0.36-0.097 0.697-0.265 0.988l0.005-0.009-0.026 0.044c-0.347 0.589-0.977 0.979-1.699 0.979-0.141 0-0.279-0.015-0.412-0.043l0.013 0.002-0.738-0.148 0.148 0.738c0.026 0.12 0.041 0.257 0.041 0.398 0 0.722-0.389 1.353-0.968 1.696l-0.009 0.005-0.044 0.026c-0.281 0.163-0.618 0.26-0.978 0.26-0.503 0-0.962-0.189-1.31-0.499l0.002 0.002-0.565-0.498-0.24 0.713c-0.272 0.807-1.020 1.349-1.912 1.349-0.863-0.003-1.595-0.561-1.857-1.335l-0.004-0.014-0.24-0.713-0.565 0.498c-0.346 0.309-0.805 0.498-1.308 0.498-0.36 0-0.697-0.097-0.988-0.266l0.009 0.005-0.044-0.026c-0.589-0.348-0.978-0.979-0.978-1.701 0-0.141 0.015-0.278 0.043-0.411l-0.002 0.013 0.149-0.737-0.738 0.148c-0.12 0.026-0.258 0.041-0.399 0.041-0.722 0-1.353-0.389-1.695-0.969l-0.005-0.009-0.026-0.043c-0.164-0.281-0.26-0.618-0.26-0.978 0-0.503 0.189-0.962 0.5-1.31l-0.002 0.002 0.498-0.565-0.713-0.24c-0.788-0.267-1.346-0.999-1.349-1.861v-0.051c0.003-0.863 0.561-1.595 1.335-1.857l0.014-0.004 0.713-0.24-0.498-0.565c-0.309-0.346-0.498-0.805-0.498-1.309 0-0.36 0.096-0.697 0.265-0.987l-0.005 0.009 0.026-0.044c0.347-0.59 0.979-0.979 1.702-0.979 0.141 0 0.278 0.015 0.41 0.043l-0.013-0.002 0.738 0.148-0.149-0.737c-0.026-0.12-0.041-0.257-0.041-0.398 0-0.722 0.389-1.354 0.969-1.696l0.009-0.005 0.044-0.026c0.281-0.164 0.619-0.261 0.979-0.261 0.503 0 0.962 0.189 1.31 0.5l-0.002-0.002 0.564 0.498 0.24-0.713c0.272-0.807 1.020-1.349 1.912-1.349 0.863 0.003 1.595 0.561 1.858 1.335l0.004 0.014 0.24 0.713 0.565-0.498c0.346-0.309 0.805-0.497 1.308-0.497 0.36 0 0.697 0.096 0.987 0.265l-0.009-0.005 0.022 0.013v2.43c-1.411-1.13-3.175-1.77-5-1.77-4.411 0-8 3.589-8 8s3.589 8 8 8c4.243 0 7.715-3.322 7.974-7.5h1.961c-0.169 0.655-0.649 1.169-1.27 1.383l-0.014 0.004zM30.5 12c0 0.276-0.224 0.5-0.5 0.5h-12c-0.276 0-0.5-0.224-0.5-0.5v0-10c0-0.276 0.224-0.5 0.5-0.5h2.5v3.001h7v-3.001h2.5c0.276 0 0.5 0.224 0.5 0.5v10.001z"></path>
<path d="M26.5 10.5h0.999v1h-0.999v-1zM28.5 10.5h0.999v1h-0.999v-1zM24.5 10.5h0.999v1h-0.999v-1zM24.5 8.5h4.999v0.999h-4.999v-1zM10.5 15.293l-1.147-1.147-0.707 0.707 1.854 1.854 4.853-4.853-0.707-0.707-4.146 4.146z"></path>
</symbol>
<symbol id="icon-payment" viewBox="0 0 32 32">
<path d="M21.5 2.5h-1.001v1h-0.999v3h2v0.999h-2v1.001h0.999v0.999h1.001v-1h0.999v-2.999h-2v-1.001h2v-0.999h-0.999v-1z"></path>
<path d="M30.5 0.5h-19.001c-0.551 0-1 0.448-1 1v4.793l-4.46 4.46c-1.26 1.253-2.040 2.989-2.040 4.906 0 0.006 0 0.013 0 0.019v-0.001c0 0.23 0.012 0.463 0.035 0.693l0.447 4.476-3.982 4.978v5.676h8.41l1.542-7.712c0.18-0.133 0.36-0.267 0.544-0.4 1.074-0.783 2.227-1.627 3.019-2.666l3.131 3.131c0.416 0.418 0.992 0.677 1.628 0.677 0.002 0 0.004 0 0.007 0h-0c0.002 0 0.004 0 0.007 0 0.636 0 1.212-0.259 1.627-0.677l5.44-5.439c0.418-0.416 0.677-0.991 0.677-1.628 0-0.002 0-0.005 0-0.007v0c0-0.617-0.24-1.197-0.677-1.634l-3.647-3.646h8.293c0.552-0.001 0.999-0.448 0.999-1v-9c0-0.552-0.448-1.001-0.999-1.001zM11.5 1.5h6.348c-1.417 0.996-2.347 2.64-2.347 4.5v0.025c-0.544 0.056-1.023 0.294-1.384 0.652l-2.465 2.465c-0.053 0.022-0.101 0.052-0.151 0.079v-7.721zM8.091 30.5h-6.591v-4.324l3.638-4.547 4.297 2.148-1.345 6.723zM10.407 22.58c-0.155 0.113-0.305 0.225-0.457 0.336l-4.48-2.24-0.441-4.405c-0.019-0.197-0.029-0.395-0.029-0.594 0-0.005-0-0.010-0-0.016 0-1.642 0.668-3.128 1.747-4.201l3.753-3.753v2.617l-1.41 1.762c-0.367 0.457-0.589 1.044-0.59 1.682v0c0 0.579 0.191 1.152 0.539 1.615l0.846 1.128c-0.344 0.309-0.814 0.487-1.385 0.487v1c1.767 0 3.001-1.234 3.001-3v-4.14c0-0.475 0.385-0.86 0.859-0.86 0.523 0 0.699 0.013 0.932 0.3 0.14 0.173 0.229 0.408 0.259 0.68 0.135 1.266 0.45 4.485 0.45 7.020 0 1.959-1.827 3.292-3.594 4.58zM10.5 11.925v3.075c0 0.204-0.030 0.391-0.072 0.57l-0.589-0.785c-0.211-0.28-0.338-0.633-0.339-1.016v-0c0-0.383 0.132-0.758 0.371-1.058l0.629-0.787zM19.707 23.147c-0.491 0.491-1.362 0.492-1.854 0l-3.295-3.295c0.185-0.374 0.317-0.773 0.385-1.201l1.204 1.203 0.707-0.707-1.861-1.861c-0.034-1.674-0.172-3.513-0.297-4.883l7.878 7.877-2.866 2.867zM23.28 19.573l-8.743-8.744c-0.055-0.446-0.215-0.847-0.469-1.159-0.295-0.363-0.612-0.527-0.927-0.603l0.61-0.61 10.323 10.323-0.793 0.794zM25.147 15.854c0.247 0.247 0.384 0.577 0.384 0.927-0.001 0.362-0.148 0.689-0.384 0.928l0-0-0.366 0.366-10.323-10.325 0.366-0.366c0.495-0.495 1.358-0.495 1.853 0l8.47 8.469zM21.197 10.491l-3.813-3.813c-0.242-0.239-0.538-0.426-0.868-0.539l-0.016-0.005v-0.133c0-2.481 2.019-4.5 4.5-4.5s4.5 2.019 4.5 4.5c0 2.414-1.913 4.386-4.303 4.49zM30.5 10.5h-6.348c1.417-0.996 2.347-2.64 2.347-4.5s-0.93-3.504-2.347-4.5h6.347v9z"></path>
<path d="M28.5 4.5h0.999v-2h-2v1h1.001v1zM29.5 7.5h-1.001v0.999h-0.999v1.001h2v-2zM13.5 3.5h1v-1h-2v2h1v-1.001zM19 22.707l2.207-2.207-2.207-2.207-2.207 2.207 2.207 2.207zM19.793 20.5l-0.793 0.793-0.793-0.793 0.793-0.793 0.793 0.793zM15.643 16.354l0.707-0.707 2 2-0.707 0.707-2-2z"></path>
</symbol>
<symbol id="icon-support" viewBox="0 0 32 32">
<path d="M25.97 27.871l-1.195-3.585c-0.424-1.243-1.471-2.167-2.759-2.408l-0.022-0.003-3.449-0.628v-0.267c0.609-0.358 1.12-0.815 1.529-1.354l0.009-0.013h1.042c0.855-0.001 1.548-0.693 1.549-1.548v-6.194c0-3.7-3.010-6.709-6.71-6.709s-6.709 3.010-6.709 6.709v3.613c0.001 0.991 0.7 1.819 1.632 2.019l0.014 0.002c0.302 1.493 1.214 2.73 2.459 3.461l0.024 0.013v0.267l-3.45 0.628c-1.31 0.244-2.358 1.169-2.773 2.386l-0.008 0.025-0.206 0.62-1.758-1.758c-0.093-0.094-0.151-0.223-0.151-0.365s0.058-0.272 0.151-0.365v0l2.039-2.037-3.827-3.827-2.304 2.304c-0.654 0.65-1.058 1.55-1.058 2.545 0 0.003 0 0.007 0 0.010v-0.001c0 0.965 0.376 1.872 1.058 2.555l6.976 6.976c0.65 0.654 1.55 1.058 2.545 1.058 0.003 0 0.006 0 0.010 0h-0.001c0.004 0 0.010 0 0.015 0 0.985 0 1.877-0.399 2.523-1.043l-0 0 2.514-2.303-0.784-0.782h11.075zM21.641 18.065c-0 0.285-0.231 0.516-0.516 0.516h-0.434c0.149-0.341 0.263-0.701 0.336-1.075 0.232-0.052 0.437-0.136 0.623-0.249l-0.009 0.005v0.803zM21.124 16.373v-1.778c0.307 0.179 0.516 0.508 0.516 0.889-0.001 0.378-0.206 0.709-0.511 0.886l-0.005 0.003zM10.802 16.373c-0.31-0.181-0.515-0.511-0.516-0.889v-0c0-0.38 0.209-0.709 0.516-0.889v1.778zM10.802 12.903v0.59c-0.184 0.048-0.356 0.12-0.516 0.213v-1.835c0-3.131 2.547-5.677 5.677-5.677s5.677 2.547 5.677 5.677v1.835c-0.149-0.089-0.32-0.162-0.502-0.21l-0.014-0.003v-0.589h-0.516c-0.004 0-0.010 0-0.015 0-1.573 0-2.998-0.64-4.026-1.674l-0.605-0.605-0.604 0.604c-1.029 1.034-2.453 1.674-4.026 1.674-0.005 0-0.010 0-0.016-0h-0.515zM11.834 16.516v-2.601c1.612-0.123 3.046-0.799 4.132-1.837l-0.002 0.002c1.083 1.036 2.517 1.712 4.106 1.833l0.023 0.001v2.601c-0 0.761-0.208 1.473-0.569 2.083l0.010-0.019h-3.571v1.033h2.722c-0.721 0.641-1.676 1.032-2.722 1.033h-0c-2.277 0-4.129-1.853-4.129-4.129zM17.511 21.439v0.025l-1.548 1.548-1.548-1.549v-0.023c0.463 0.151 0.995 0.238 1.548 0.238s1.085-0.087 1.585-0.248l-0.036 0.010zM8.13 24.612c0.302-0.888 1.050-1.549 1.971-1.721l0.016-0.003 3.608-0.655 2.238 2.239 2.238-2.238 3.607 0.656c0.936 0.175 1.684 0.835 1.981 1.704l0.005 0.018 0.743 2.226h-10.676l-2.011-2.010-2.234 2.021c-0.095 0.091-0.223 0.147-0.365 0.147s-0.27-0.056-0.365-0.147l0 0-1.127-1.127 0.37-1.109zM3.399 18.012l2.366 2.367-0.56 0.561-2.367-2.367 0.561-0.56zM12.449 30.213c-0.465 0.467-1.108 0.755-1.819 0.755-0.002 0-0.004 0-0.006 0h0c-0.002 0-0.004 0-0.006 0-0.711 0-1.354-0.289-1.819-0.756l-6.976-6.976c-0.467-0.464-0.755-1.107-0.755-1.817 0-0.003 0-0.005 0-0.008v0c0-0.69 0.268-1.338 0.756-1.825l0.284-0.284 2.367 2.367-0.019 0.018c-0.28 0.28-0.453 0.668-0.453 1.095s0.173 0.815 0.453 1.095l3.701 3.701c0.279 0.28 0.665 0.453 1.092 0.453 0.001 0 0.002 0 0.003 0h-0c0.003 0 0.007 0 0.011 0 0.415 0 0.791-0.166 1.066-0.436l-0 0 0.039-0.035 2.378 2.378-0.296 0.271zM13.507 29.243l-2.372-2.372 0.682-0.617 2.369 2.369-0.677 0.62zM30.414 0h-7.225c-0.855 0.001-1.547 0.694-1.548 1.548v4.129c0 0.853 0.694 1.548 1.548 1.548h1.379l-0.533 3.113 4.98-3.113h1.4c0.853 0 1.549-0.694 1.549-1.548v-4.129c0-0.853-0.695-1.548-1.549-1.548zM30.931 5.677c-0.001 0.285-0.231 0.516-0.516 0.516h-1.696l-3.278 2.048 0.352-2.048h-2.603c-0.285-0.001-0.516-0.231-0.516-0.516v-4.129c0.001-0.285 0.231-0.516 0.516-0.516h7.226c0.285 0.001 0.516 0.231 0.516 0.516v4.129z"></path>
<path d="M29.899 2.065h-6.194v1.032h6.194v-1.032zM27.834 4.129h-4.129v1.032h4.129v-1.032zM29.899 4.129h-1.033v1.032h1.032v-1.032zM15.963 1.548c-6.743 0-12.552 4.665-14.062 11.172l-0.978-1.63-0.885 0.531 1.814 3.023 3.023-1.814-0.531-0.885-1.398 0.839c1.462-5.953 6.815-10.203 13.018-10.203 1.356 0 2.693 0.201 3.976 0.598l0.306-0.986c-1.277-0.409-2.745-0.645-4.269-0.645-0.004 0-0.009 0-0.013 0h0.001zM31.712 11.428l-3.023-1.814-1.813 3.024 0.885 0.531 0.903-1.506c0.455 1.289 0.718 2.775 0.718 4.323 0 0.005 0 0.010 0 0.015v-0.001c-0.003 3.213-1.131 6.162-3.012 8.474l0.019-0.025 0.802 0.651c2.005-2.463 3.221-5.639 3.223-9.099v-0.001c0-1.579-0.254-3.121-0.75-4.597l1.517 0.91 0.531-0.885z"></path>
</symbol>
<symbol id="icon-arrow-right" viewBox="0 0 30 32">
<path d="M20.112 5.816c-0.407-0.421-1.084-0.421-1.505 0-0.407 0.407-0.407 1.084 0 1.49l7.632 7.632h-25.185c-0.587 0.001-1.054 0.468-1.054 1.055s0.467 1.069 1.054 1.069h25.185l-7.632 7.618c-0.407 0.421-0.407 1.099 0 1.505 0.421 0.421 1.099 0.421 1.505 0l9.439-9.439c0.421-0.407 0.421-1.084 0-1.49l-9.439-9.44z"></path>
</symbol>
<symbol id="icon-clock" viewBox="0 0 32 32">
<path d="M16 3.516c-6.894 0-12.484 5.589-12.484 12.484s5.589 12.484 12.484 12.484v0c6.894 0 12.484-5.589 12.484-12.484s-5.589-12.484-12.484-12.484v0zM4.686 4.686c2.895-2.895 6.895-4.686 11.314-4.686 8.837 0 16 7.163 16 16 0 4.418-1.791 8.418-4.686 11.314v0c-2.895 2.895-6.895 4.686-11.314 4.686-8.837 0-16-7.163-16-16 0-4.418 1.791-8.418 4.686-11.314v0zM16 7.913c0.971 0 1.758 0.786 1.758 1.758v5.6l4.231 4.233c0.284 0.311 0.458 0.728 0.458 1.185 0 0.972-0.788 1.76-1.76 1.76-0.456 0-0.872-0.174-1.185-0.459l0.001 0.001-4.747-4.747c-0.319-0.318-0.516-0.758-0.516-1.244 0-0 0-0 0-0.001v0-6.329c0-0.971 0.787-1.759 1.758-1.76h0z"></path>
</symbol>
<symbol id="icon-view" viewBox="0 0 32 32">
<path d="M16 20c2.209 0 4-1.791 4-4s-1.791-4-4-4v0c-2.209 0-4 1.791-4 4s1.791 4 4 4v0z"></path>
<path d="M30.94 15.66c-2.406-6.104-8.14-10.398-14.909-10.66l-0.031-0.001c-6.8 0.264-12.534 4.557-14.901 10.549l-0.039 0.113c-0.038 0.101-0.060 0.218-0.060 0.34s0.022 0.239 0.062 0.347l-0.002-0.007c2.406 6.105 8.141 10.398 14.91 10.66l0.031 0.001c6.799-0.264 12.533-4.557 14.9-10.548l0.039-0.113c0.038-0.101 0.059-0.218 0.059-0.34s-0.022-0.239-0.062-0.347l0.002 0.007zM16 22.498c-3.59 0-6.5-2.91-6.5-6.5s2.91-6.5 6.5-6.5c3.59 0 6.5 2.91 6.5 6.5 0 0 0 0.001 0 0.001v-0c-0.006 3.587-2.912 6.493-6.498 6.5h-0.001z"></path>
</symbol>
<symbol id="icon-quote" viewBox="0 0 32 32">
<path d="M0.007 22.205c0 4.207 3.41 7.617 7.617 7.617s7.617-3.41 7.617-7.617c0-4.207-3.41-7.617-7.617-7.617v0c-0.884 0.001-1.732 0.154-2.52 0.432l0.053-0.016c1.715-9.832 9.381-16.172 2.273-10.953-7.88 5.787-7.431 17.921-7.424 18.144v0.011zM16.765 22.205c0 4.207 3.41 7.617 7.617 7.617s7.617-3.41 7.617-7.617c0-4.207-3.41-7.617-7.617-7.617v0c-0.884 0.001-1.732 0.154-2.52 0.432l0.053-0.016c1.713-9.832 9.38-16.172 2.273-10.953-7.88 5.787-7.433 17.921-7.424 18.144v0.011z"></path>
</symbol>
<symbol id="icon-star" viewBox="0 0 32 32">
<path d="M31.916 12.274c-0.212-0.639-0.775-1.103-1.455-1.167l-0.007-0.001-9.238-0.84-3.65-8.546c-0.265-0.614-0.866-1.036-1.565-1.036s-1.3 0.422-1.561 1.025l-0.004 0.011-3.65 8.548-9.24 0.838c-0.869 0.085-1.543 0.812-1.543 1.696 0 0.508 0.222 0.964 0.575 1.276l6.984 6.124-2.060 9.068c-0.028 0.115-0.044 0.247-0.044 0.383 0 0.939 0.761 1.7 1.7 1.7 0.323 0 0.626-0.090 0.883-0.247l-0.008 0.004 7.966-4.762 7.964 4.764c0.25 0.153 0.552 0.243 0.876 0.243 0.939 0 1.7-0.761 1.7-1.7 0-0.136-0.016-0.268-0.046-0.394l0.002 0.012-2.060-9.068 6.984-6.122c0.356-0.314 0.58-0.771 0.58-1.28 0-0.189-0.031-0.37-0.087-0.54l0.003 0.012z"></path>
</symbol>
</defs>
</svg>
