<svg width="232" height="50" viewBox="0 0 232 50" fill="none" xmlns="http://www.w3.org/2000/svg">
<path d="M105.059 2.57349C106.187 2.72397 107.24 2.94971 108.293 3.02495C110.624 3.32592 112.955 3.55163 115.286 3.8526C116.489 4.00309 117.692 4.22882 118.895 4.30406C119.271 4.3793 119.421 4.60505 119.647 4.90602C119.948 5.43272 119.873 5.80893 119.722 6.33563C118.97 8.36718 118.294 10.3987 117.466 12.4303C116.414 15.139 115.361 17.8478 114.308 20.4813C112.729 24.3939 111.15 28.3818 110.097 32.4449C109.496 34.7774 108.969 37.1099 108.443 39.5177C108.217 40.5711 107.992 41.5493 107.766 42.6027C107.616 43.2046 107.466 43.7313 107.24 44.258C107.165 44.6342 107.24 44.7847 107.616 44.6342C108.142 44.4085 108.669 44.258 109.12 43.957C110.473 43.1294 111.752 42.2265 112.804 40.9473C113.255 40.4206 113.481 39.8187 113.631 39.2167C113.782 38.5395 113.857 38.4643 114.534 38.4643C114.91 38.4643 115.286 38.3891 115.662 38.4643C116.263 38.5395 116.489 38.8405 116.414 39.4425C116.188 40.7968 116.263 42.1512 116.414 43.5056C116.489 44.1075 116.564 44.7847 116.714 45.3867C116.79 45.6876 116.639 45.9133 116.489 46.1391C116.113 46.5905 115.662 46.8163 114.985 46.8163C113.556 46.741 112.203 46.6658 110.774 46.5905C108.669 46.5153 106.563 46.0638 104.458 46.3648C103.555 46.44 102.954 46.2896 102.352 45.6124C101.375 44.6342 101.525 45.0857 101.751 43.8065C102.202 41.3988 102.879 39.0662 103.706 36.7337C104.307 34.9279 104.759 33.1221 105.285 31.3162C106.488 27.4788 107.541 23.5662 108.969 19.8793C109.947 17.4716 110.849 15.0638 111.902 12.7313C112.88 10.3987 114.007 8.0662 115.06 5.73367C115.135 5.50794 115.211 5.35746 115.361 5.05649C115.135 5.05649 114.985 4.98124 114.835 4.98124C113.556 5.13173 112.278 5.35746 111.225 6.18513C110.248 6.93756 109.195 7.61476 108.368 8.59291C108.142 8.89388 107.691 9.04436 107.39 9.1196C107.165 9.19484 106.864 8.89387 106.638 8.81863C106.638 8.96912 106.563 9.2701 106.563 9.42059C106.112 9.57107 105.962 9.2701 105.886 8.96913C105.736 8.51767 105.586 7.99097 105.435 7.53952C105.134 6.6366 104.909 5.65844 104.608 4.75552C104.533 4.5298 104.458 4.30407 104.383 4.07834C104.307 3.85261 104.307 3.62687 104.458 3.47639C104.533 3.25066 104.834 2.9497 105.059 2.57349Z" fill="#7FB627"/>
<path d="M67.0862 4.07827C67.0862 3.7773 67.0862 3.47631 67.0862 3.1001C67.387 3.1001 67.6878 3.1001 67.9886 3.1001C68.5901 3.1001 69.1165 3.32584 69.4924 3.7773C69.5676 3.92779 69.6428 4.07827 69.7932 4.15352C69.8684 4.22876 70.0188 4.22874 70.094 4.22874C70.1692 4.22874 70.2444 4.07826 70.2444 4.00302C70.1692 3.62681 70.2444 3.40108 70.6204 3.25059C70.9963 3.10011 71.5979 3.32583 71.8235 3.62681C72.425 4.30399 72.7258 5.20692 72.8762 6.03459C72.9514 6.63653 72.9514 7.23847 73.0266 7.84041C73.1018 8.74332 73.1018 9.64624 73.177 10.5492C73.4026 12.7312 73.4777 14.9132 73.2522 17.0953C73.1018 18.6001 73.0266 20.1802 72.9514 21.6851C72.9514 22.3623 73.0266 23.1147 73.1018 23.8671C73.5529 23.2652 73.8537 22.588 74.0793 21.9108C74.5305 20.7069 74.9064 19.4278 75.4328 18.2992C76.4855 15.9666 77.6134 13.6341 78.8165 11.3016C79.7189 9.49576 79.7941 7.68992 79.3429 5.80884C79.1925 5.2069 78.8917 4.60497 78.4406 4.15352C78.0646 3.7773 78.0646 3.40109 78.4406 3.02487C78.8165 2.64866 79.1173 2.27243 79.4933 1.97145C80.1701 1.52 80.6964 0.993316 81.2228 0.391373C81.6739 -0.0600842 82.1251 -0.135336 82.6515 0.240878C83.4034 0.692335 83.9298 1.36952 84.3057 2.12195C84.3809 2.34768 84.3809 2.64865 84.3809 2.94963C84.6065 4.68021 84.0802 6.33556 83.3282 7.91566C82.2755 10.0225 81.0724 11.9788 80.0197 14.0856C78.7414 16.5686 77.4631 19.1268 76.2599 21.6851C75.508 23.2652 74.9816 24.9205 74.0793 26.4254C73.5529 27.3283 73.7033 28.3065 73.9289 29.2094C74.6809 32.2191 75.0568 35.3041 75.508 38.389C75.8088 40.1948 76.0344 42.0759 76.4103 43.8817C76.7111 45.0856 77.1623 46.2895 77.5382 47.4934C77.6134 47.6439 77.6134 47.7944 77.6886 47.9448C77.9142 48.7725 77.3879 49.5249 76.5607 49.6002C76.1096 49.6754 75.8088 49.4497 75.6584 49.0735C75.4328 48.4715 75.2824 47.9448 75.132 47.3429C75.132 47.2677 75.0568 47.1172 74.9064 47.0419C74.9064 47.6439 74.9816 48.2458 74.9816 48.8478C74.9816 49.3745 74.6809 49.6754 74.1545 49.7507C73.7785 49.8259 73.4777 49.7507 73.3274 49.2992C73.2522 49.0735 73.177 48.8478 72.9514 48.6973C72.9514 48.8478 72.9514 49.0735 72.9514 49.224C72.9514 49.4497 73.0266 49.7507 72.7258 49.9012C72.425 50.0516 71.9739 50.0516 71.7483 49.7507C71.2219 49.2992 70.7707 48.7725 70.7707 48.0201C70.6956 46.8914 70.5452 45.838 70.5452 44.7094C70.3948 41.8502 70.094 39.0662 69.718 36.2822C69.5676 35.1536 69.4924 33.9497 69.4924 32.7458C69.4172 29.5104 69.2669 26.2749 68.8157 23.0395C68.5149 20.8574 68.2141 18.7506 68.1389 16.5686C68.1389 15.9666 67.9886 15.4399 67.9134 14.838C67.763 13.4084 67.6126 11.9788 67.4622 10.5492C67.387 9.72149 67.2366 8.89381 67.0862 8.14138C66.8606 7.16322 66.4847 6.2603 65.9583 5.35738C65.7327 4.90593 65.4319 4.52973 65.1312 4.07827C64.9056 3.7773 64.9808 3.55157 65.2816 3.40109C65.8079 3.02487 66.3343 3.1001 66.8606 3.55156C66.9358 3.6268 66.9358 3.62681 67.011 3.70205C66.9358 4.00303 67.011 4.00303 67.0862 4.07827Z" fill="#7FB627"/>
<path d="M133.558 36.0564C133.408 36.3574 133.408 36.7336 133.257 36.8088C132.881 36.9593 132.43 37.1098 131.979 37.1851C131.904 37.1851 131.754 37.0346 131.603 36.8841C131.453 36.7336 131.302 36.5831 131.077 36.3574C131.002 36.5831 131.002 36.7336 131.002 36.8088C130.851 37.2603 130.55 37.486 130.099 37.5613C129.347 37.5613 128.295 36.8088 128.295 36.0564C128.295 35.6802 128.144 35.304 128.069 34.7773C127.693 35.0782 127.317 35.304 127.016 35.4545C126.791 35.6049 126.49 35.7554 126.264 35.9059C124.911 36.8088 123.482 36.8088 121.903 36.5079C120.474 36.2069 119.196 35.5297 118.294 34.4011C117.692 33.5734 117.391 32.5952 117.241 31.6171C116.79 29.0588 117.241 26.651 118.369 24.3185C118.444 24.0928 118.595 23.8671 118.745 23.6413C120.023 22.0612 121.377 20.6316 123.407 19.9544C124.535 19.5782 125.588 19.1268 126.565 18.4496C127.091 18.0734 127.618 17.7724 127.994 17.3209C128.595 16.6438 129.047 15.9666 129.122 15.0637C129.197 14.0855 129.197 13.1073 129.347 12.1292C129.498 11.151 129.498 10.1729 129.423 9.1947C129.423 8.668 129.347 8.21654 129.272 7.68984C129.197 6.71169 127.919 6.10974 127.167 6.18499C126.34 6.33547 125.738 6.7117 125.287 7.46412C124.61 8.66801 124.685 9.87189 124.986 11.0758C125.061 11.452 125.437 11.8282 125.738 12.2044C126.114 12.5806 126.114 13.1826 125.738 13.5588C125.061 14.3112 124.384 15.0637 123.708 15.7408C123.106 16.3428 122.279 16.6437 121.602 15.5903C121.302 15.1389 121.001 14.7627 120.85 14.3112C120.7 13.8598 120.625 13.4083 120.625 12.9568C120.625 12.4301 120.625 11.9787 120.7 11.452C120.775 11.0005 120.926 10.4738 121.076 10.0224C121.226 9.49568 121.452 8.96898 121.677 8.51752C122.58 6.71169 124.009 5.73353 125.964 5.35731C126.34 5.28207 126.64 5.13159 127.016 5.13159C127.693 5.13159 128.37 5.1316 129.047 5.28209C130.024 5.50782 130.851 5.95926 131.603 6.5612C131.904 6.78693 132.205 7.16316 132.43 7.53937C132.881 8.36704 133.182 9.34519 133.257 10.3233C133.408 13.1073 133.408 15.8161 133.107 18.5248C132.881 20.5564 132.581 22.5127 132.43 24.5442C132.355 25.7481 132.43 26.952 132.505 28.1559C132.656 29.8865 132.881 31.6923 133.483 33.3477C133.709 33.8744 134.009 34.4763 134.385 34.9278C134.912 35.6802 134.912 35.7554 134.16 36.2821C134.085 36.3574 134.085 36.3574 133.934 36.4326C133.934 36.3574 133.784 36.2069 133.558 36.0564ZM128.52 19.202C127.843 19.6535 127.242 20.0297 126.64 20.3307C125.287 21.0831 124.46 22.287 123.708 23.5661C123.407 24.168 123.106 24.77 122.881 25.4472C122.73 25.7481 122.58 26.1243 122.505 26.5006C122.354 27.4787 122.204 28.4569 122.204 29.435C122.204 30.4132 121.903 31.4666 122.429 32.4447C122.429 32.52 122.429 32.52 122.429 32.5952C122.58 33.5734 123.181 34.0249 124.159 34.2506C124.61 34.3258 125.061 34.1753 125.512 34.1001C126.415 33.9496 126.791 33.3477 126.941 32.5952C127.091 31.918 126.941 31.2409 126.415 30.7142C126.565 30.6389 126.716 30.4884 126.866 30.4132C127.392 30.1875 127.618 29.8112 127.618 29.2093C127.618 28.0054 127.693 26.8015 127.768 25.5977C127.919 23.7918 128.144 21.9107 128.37 20.1049C128.52 19.8039 128.52 19.503 128.52 19.202ZM130.701 10.9253C130.776 10.6243 130.776 10.3233 130.776 10.0224H130.701C130.701 10.3233 130.701 10.6243 130.701 10.9253Z" fill="#7FB627"/>
<path d="M96.0362 3.77695C96.337 3.47598 96.4873 3.17499 96.7129 3.09975C97.0889 3.0245 97.5401 3.09976 97.916 3.32549C98.2168 3.62646 98.5176 3.92742 98.8184 4.22839C99.7959 5.28179 100.623 6.4857 100.999 7.91531C101.149 8.51726 101.45 9.1192 101.601 9.79639C101.901 10.925 102.127 12.1289 102.277 13.3328C102.428 14.8377 102.503 16.3425 102.428 17.8474C102.428 19.9542 102.127 22.061 101.525 24.0925C101.45 24.243 101.45 24.4687 101.375 24.6192C101.225 25.8984 100.623 26.8765 99.8711 27.8547C98.9688 28.9833 97.8408 29.811 96.4122 30.2625C95.8858 30.4882 95.2842 30.5634 94.6827 30.7139C94.4571 30.7892 94.1563 30.7892 93.9307 30.7892C91.9757 30.5634 90.171 29.9615 88.9679 28.3061C88.1408 27.2527 87.5392 25.9736 87.3136 24.6192C87.0129 22.3619 86.7121 20.1799 86.4865 17.9226C86.3361 16.5682 86.2609 15.2139 86.6369 13.8595C86.7121 13.709 86.6369 13.5585 86.7121 13.4833C86.7121 12.5804 86.9377 11.8279 87.3136 11.0003C87.6144 10.2478 87.9152 9.4954 88.2912 8.81821C88.7423 8.14103 89.3439 7.46384 89.9454 6.93714C91.3741 5.8085 93.0284 5.43228 94.8331 5.35704C94.9083 5.35704 95.0587 5.35704 95.2842 5.35704C95.1338 5.20655 95.0586 5.13132 94.9835 5.13132C94.3819 4.83034 94.3067 4.60462 94.8331 4.15317C95.2842 3.92744 95.585 3.62647 96.0362 3.77695ZM95.4346 8.36675C95.1338 8.06578 94.9083 7.76482 94.6075 7.46385C93.8555 6.78666 93.0284 6.78667 92.4268 7.5391C92.2013 7.76483 92.0509 7.99056 91.9757 8.29153C91.6749 9.1192 91.4493 9.94687 91.3741 10.8498C91.3741 11.527 91.2237 12.2041 91.2237 12.9566C91.1485 14.8377 91.0733 16.6435 91.0733 18.5245C91.1485 20.4056 91.2989 22.2867 91.4493 24.1678C91.5245 25.1459 91.5997 26.0489 92.0509 26.9518C92.3517 27.629 92.7276 28.2309 93.1788 28.7576C94.1563 29.811 96.0362 29.51 96.5625 28.2309C96.9385 27.2527 97.2393 26.2746 97.2393 25.2964C97.3145 24.0925 97.3145 22.8134 97.3897 21.6095C97.5401 19.8037 97.5401 17.9979 97.3897 16.1168C97.3145 14.9129 97.2393 13.709 97.0889 12.5804C96.9385 11.0755 96.8633 9.4954 96.1114 8.06579C95.961 8.14103 95.7354 8.21627 95.4346 8.36675Z" fill="#7FB627"/>
<path d="M87.6897 46.3649C87.8401 46.6659 87.9153 46.9669 88.0656 47.2678C88.1408 47.4936 88.216 47.7193 87.9905 47.8698C87.6897 48.0955 87.4641 48.0203 87.2385 47.7193C87.0881 47.4936 86.8625 47.3431 86.637 47.1173C86.7121 47.4936 86.7121 47.7193 86.7121 48.0203C86.7873 48.3212 86.6369 48.4717 86.4114 48.547C86.1106 48.6975 85.7346 48.8479 85.4338 48.9232C84.7571 49.2242 84.3059 49.1489 83.8548 48.547C82.802 47.1926 81.9749 45.6877 81.3733 44.0324C80.9974 42.9038 80.5462 41.7751 80.2454 40.6465C79.9447 39.7436 79.7943 38.7654 79.5687 37.8625C79.3431 36.9596 79.0423 36.1319 78.7415 35.229C78.516 34.4765 78.3656 33.6489 78.14 32.8212C77.6888 31.3163 77.2376 29.8867 76.7865 28.3819C76.6361 28.0056 76.4857 27.6294 76.1097 27.4037C75.7338 27.1027 75.2826 27.1027 74.8314 27.3285C74.681 27.4037 74.6058 27.5542 74.4555 27.5542C74.3051 27.5542 74.1547 27.479 74.0795 27.4037C74.0043 27.3285 74.0795 27.178 74.1547 27.1027C74.681 26.6513 75.2074 26.2751 75.7338 25.8236C75.809 25.7484 75.8842 25.7484 75.9593 25.6731C76.7113 24.9207 77.6136 24.5445 78.4408 24.0178C79.0423 23.6416 79.8695 23.6416 80.471 24.093C80.6966 24.2435 80.9974 24.4692 81.223 24.695C81.3733 24.8454 81.4485 25.0712 81.5237 25.2969C81.6741 26.877 81.9749 28.3819 82.5013 29.8867C83.0276 31.5421 83.6292 33.1974 84.2307 34.8528C85.0579 37.2605 86.0354 39.6683 87.3137 41.9256C87.6897 42.6028 88.2912 43.28 88.8176 43.8819C89.1936 44.3334 89.7199 44.7848 90.1711 45.2363C90.4719 45.5372 90.6974 45.8382 90.4719 46.2144C90.2463 46.6659 89.9455 47.0421 89.3439 47.1173C89.0432 47.1173 88.8176 47.0421 88.6672 46.8164C88.4416 46.5154 88.216 46.2897 87.9905 46.0639C87.7649 46.2897 87.7649 46.3649 87.6897 46.3649Z" fill="#7FB627"/>
<path d="M94.457 36.5829C95.5097 36.5829 96.4121 36.8087 97.3144 37.2601C97.9912 37.5611 98.3671 38.163 98.5927 38.765C98.9687 39.7431 99.1943 40.7213 98.8935 41.7747C98.5927 42.9786 97.7656 44.1825 96.0361 44.2577C95.3594 44.333 94.6826 44.4082 94.0059 44.2577C92.502 43.8815 91.4492 43.1291 91.1485 41.549C91.0733 41.1727 90.9229 40.8718 90.8477 40.4956C90.4717 38.464 92.2012 36.5077 94.457 36.5829Z" fill="#7FB627"/>
<path d="M126.114 46.4402C124.76 46.5154 123.933 45.9887 123.256 45.161C122.58 44.1829 122.429 43.0542 122.429 41.9256C122.504 40.4207 123.933 39.1416 125.587 38.9911C127.242 38.8406 128.445 39.3673 129.272 40.7969C129.723 41.5494 130.099 42.2265 130.024 43.1295C129.949 43.5057 129.873 43.9571 129.648 44.2581C128.896 45.6125 127.618 46.5154 126.114 46.4402Z" fill="#7FB627"/>
<path d="M154.776 7.16338C154.701 7.08813 154.626 7.08813 154.551 7.08813C153.197 6.78716 151.844 6.41093 150.415 6.10996C150.114 6.03471 149.813 6.10997 149.437 6.03473C148.911 6.03473 148.61 5.58327 148.986 5.20706C149.137 4.98133 149.137 4.7556 149.212 4.52988C149.287 4.37939 149.362 4.15365 149.437 4.00317C149.588 3.70219 149.738 3.62696 150.039 3.77745C150.415 3.85269 150.716 4.0784 151.167 3.92792C150.791 3.40122 150.039 3.5517 149.663 3.10024C149.663 2.94976 149.738 2.79929 149.738 2.6488C149.889 1.97162 150.415 1.67065 151.092 1.89637C151.693 2.04686 152.22 2.34783 152.821 2.57356C153.724 2.87453 154.551 3.25073 155.453 3.5517C156.355 3.92792 157.182 4.30415 157.934 4.90609C158.085 4.98133 158.16 5.20704 158.16 5.35753C158.686 10.2483 158.686 15.1391 158.536 20.0299C158.536 20.1804 158.536 20.2556 158.536 20.4061C158.762 22.5129 158.461 24.6197 158.461 26.7265C158.461 27.4037 158.536 28.0809 158.536 28.6828C158.611 30.0372 158.837 31.3163 158.912 32.6707C158.987 34.5518 158.987 36.4328 159.062 38.3892C159.062 38.4644 159.062 38.5396 159.062 38.6901C159.739 38.7654 160.341 38.8406 160.942 38.8406C161.694 38.8406 162.145 39.2168 162.371 39.894C162.521 40.195 162.672 40.496 162.822 40.7969C162.972 41.0979 162.972 41.3236 162.747 41.5494C161.318 42.979 160.416 44.7848 159.363 46.5154C159.288 46.6659 159.213 46.7411 159.138 46.8916C158.987 47.0421 158.837 47.1926 158.686 47.1173C158.461 47.0421 158.235 46.9669 158.235 46.6659C158.235 46.4402 158.235 46.2896 158.235 45.9887C158.085 46.1392 158.01 46.2897 157.859 46.2897C157.709 46.3649 157.558 46.4401 157.408 46.3649C157.182 46.2896 157.182 46.1392 157.182 45.9135C157.258 44.9353 157.333 43.9571 157.107 43.0542C156.882 42.3018 156.581 41.5494 156.28 40.7969C156.205 40.6464 155.979 40.5712 155.829 40.496C155.002 40.3455 154.25 40.2702 153.423 40.195C152.144 40.1197 150.941 40.1197 149.663 40.1197C149.137 40.1197 148.836 40.496 148.535 40.8722C147.858 41.6998 147.407 42.6027 147.407 43.7314C147.407 44.4086 147.407 45.0858 147.482 45.763C147.482 46.2144 147.257 46.4401 146.43 46.5906C145.903 46.6659 145.753 46.5154 145.678 46.0639C145.527 45.3867 145.452 44.6343 145.302 43.9571C145.001 42.678 144.399 41.5494 143.647 40.5712C143.347 40.195 143.347 40.1197 143.647 39.7435C143.948 39.4426 144.174 39.1416 144.475 38.8406C144.7 38.5396 145.001 38.3892 145.377 38.3892C146.279 38.3139 147.106 38.1634 148.009 38.0882C148.084 37.7872 148.159 37.4862 148.159 37.11C148.234 35.5299 148.385 33.9498 148.46 32.3697C148.685 28.4571 148.46 24.6197 148.535 20.7071C148.535 19.5784 148.535 18.3746 148.535 17.2459C148.535 16.644 148.761 16.1173 149.287 15.6658C150.866 14.3867 151.994 12.6561 153.047 10.9255C153.724 9.79688 154.25 8.66822 154.626 7.38909C154.776 7.31385 154.776 7.23862 154.776 7.16338ZM154.551 12.8066C154.475 12.8066 154.475 12.8066 154.4 12.8066C154.175 13.1076 154.024 13.3333 153.799 13.6342C153.423 14.0857 153.047 14.6124 152.596 15.0639C151.994 15.6658 151.468 16.2678 150.791 16.7945C150.415 17.0954 150.34 17.3964 150.415 17.7726C150.415 18.4498 150.49 19.2022 150.49 19.8794C150.49 22.9644 150.49 26.1246 150.49 29.2095C150.49 30.7896 150.415 32.445 150.34 34.0251C150.34 34.1003 150.34 34.2508 150.265 34.326C150.114 35.6052 149.964 36.809 149.889 38.0882C150.039 38.0882 150.189 38.1634 150.34 38.1634C151.392 38.1634 152.445 38.2387 153.573 38.2387C155.002 38.2387 154.851 38.4644 154.851 36.9595C154.851 35.4547 154.776 33.8746 154.776 32.3697C154.776 31.1658 154.851 29.8867 154.851 28.6828C154.851 28.2314 154.927 27.8552 154.927 27.4037C155.152 25.8236 155.303 24.2435 155.227 22.5882C155.152 20.1804 155.002 17.7726 154.851 15.3648C154.776 14.4619 154.626 13.6343 154.551 12.8066Z" fill="white"/>
<path d="M180.493 5.88399C181.32 5.2068 182.147 4.6801 182.824 4.00291C183.35 3.55145 183.952 3.40097 184.553 3.25048C184.854 3.17524 185.23 3.32572 185.531 3.4762C186.433 4.0029 187.035 4.6801 187.486 5.50777C187.937 6.56117 188.087 7.61458 188.313 8.66798C188.614 9.72138 188.689 10.85 188.764 11.9787C188.839 13.1826 188.764 14.3112 188.839 15.5151C188.839 16.0418 188.99 16.5685 188.99 17.0199C188.99 18.0733 188.839 19.202 188.764 20.2554C188.764 20.4811 188.689 20.7068 188.689 20.8573C188.764 22.9641 188.614 25.0709 188.238 27.1025C188.012 28.4569 187.561 29.736 186.884 31.0151C186.433 31.8428 185.756 32.4447 184.704 32.6705C184.553 32.6705 184.403 32.8209 184.177 32.8962C183.2 33.2724 182.222 33.4229 181.32 32.7457C181.245 32.6705 181.094 32.6705 180.944 32.52C180.944 32.7457 180.869 32.821 180.869 32.9714C180.944 35.304 181.094 37.6365 181.169 40.0443C181.245 40.7967 181.32 41.6244 181.47 42.3768C181.47 42.452 181.545 42.6025 181.545 42.6778C181.846 43.355 181.621 43.8064 180.869 44.0322C180.643 44.1074 180.493 44.1826 180.342 44.3331C180.041 44.6341 179.665 44.6341 179.29 44.4836C179.139 44.4084 178.914 44.4084 178.838 44.4084C178.237 44.7846 177.635 44.5589 177.034 44.4084C176.733 44.3331 176.432 44.2579 176.056 44.2579C175.154 44.3331 174.853 43.8817 175.079 43.1292C175.379 42.1511 175.53 41.1729 175.68 40.1948C175.906 38.4642 175.981 36.7336 176.207 34.9278C176.432 32.2943 176.733 29.6608 176.958 27.0273C177.034 25.8234 177.109 24.6195 177.109 23.4156C177.184 20.4059 177.184 17.3961 177.184 14.3864C177.184 12.8063 177.034 11.2262 176.958 9.57088C176.883 8.81846 176.883 8.06602 176.883 7.23835C176.883 6.41068 176.808 5.50777 176.658 4.68009C176.507 4.00291 176.733 3.70194 177.56 3.6267C178.086 3.55145 178.538 3.47622 179.064 3.40098C179.29 3.40098 179.59 3.32574 179.816 3.40098C179.966 3.47622 180.192 3.70195 180.192 3.77719C180.192 4.60486 180.342 5.2068 180.493 5.88399ZM180.869 28.4569C180.869 28.4569 180.944 28.4569 180.869 28.4569C180.944 29.134 180.944 29.736 180.944 30.4132C180.944 30.7142 181.32 31.1656 181.621 31.2409C181.997 31.3161 182.448 31.3913 182.748 31.0151C183.049 30.6389 183.35 30.1874 183.5 29.8112C183.726 29.0588 183.876 28.3064 184.027 27.5539C184.553 25.6729 184.779 23.7166 184.854 21.7602C184.854 20.7068 184.779 19.5782 184.854 18.5248C184.929 16.117 184.704 13.7845 184.177 11.3767C184.027 10.549 183.801 9.72137 183.726 8.81846C183.651 8.06603 183.35 7.3136 182.974 6.63642C182.824 6.41069 182.673 6.33545 182.372 6.33545C181.771 6.41069 181.169 6.56116 180.643 6.86213C180.417 7.01262 180.342 7.16312 180.342 7.38884C180.342 9.57089 180.342 11.7529 180.417 14.0102C180.417 14.7626 180.568 15.5151 180.718 16.2675C180.869 17.1704 180.718 18.1486 180.643 19.1267C180.643 19.8039 180.417 20.4811 180.493 21.0831C180.568 23.6413 180.718 26.0491 180.869 28.4569Z" fill="white"/>
<path d="M213.954 5.6583C212.676 5.73354 211.548 5.80878 210.57 6.41073C209.442 7.16315 208.239 7.91558 207.337 9.04422C207.262 9.11947 207.187 9.11945 207.111 9.1947C207.111 9.1947 207.036 9.1947 206.961 9.1947C206.961 9.1947 206.886 9.11947 206.886 9.04422C206.735 8.14131 206.585 7.23839 206.435 6.33548C206.284 5.73354 206.059 5.05635 205.833 4.45441C205.608 3.77722 206.134 3.17528 206.735 3.25052C207.563 3.401 208.39 3.55149 209.217 3.70198C210.646 3.92771 212.074 4.15343 213.428 4.37916C214.706 4.60489 215.909 4.83061 217.188 5.05634C217.564 5.13158 217.789 5.35731 217.94 5.73352C218.165 6.18498 218.165 6.56121 217.94 7.08791C217.188 9.04422 216.436 11.0005 215.684 12.9568C214.631 15.5903 213.578 18.1486 212.45 20.7069C210.871 24.469 209.292 28.3064 208.164 32.219C207.487 34.4763 206.961 36.7336 206.435 39.0661C206.209 40.0443 205.908 41.0977 205.683 42.0758C205.532 42.6778 205.307 43.2044 205.156 43.7311C205.006 44.1074 205.156 44.2578 205.532 44.1074C206.134 43.8816 206.811 43.5807 207.412 43.2045C208.39 42.6025 209.367 41.9253 210.119 41.0224C210.646 40.4205 211.022 39.8185 211.172 39.0661C211.322 38.3889 211.398 38.3137 212.074 38.3137C212.375 38.3137 212.676 38.3137 212.977 38.3137C213.578 38.3889 213.804 38.6146 213.729 39.2918C213.653 40.1195 213.578 40.9472 213.503 41.6996C213.353 42.753 213.653 43.8064 213.729 44.935C213.804 45.6875 213.202 46.3646 212.45 46.3646C210.27 46.2894 208.164 46.0637 205.984 45.7627C204.555 45.537 203.126 45.4617 201.622 45.6122C201.321 45.6122 201.171 45.537 200.945 45.3865C200.645 45.0103 200.344 44.7093 199.968 44.4083C199.742 44.1826 199.667 44.0321 199.742 43.7311C200.269 41.5491 200.795 39.3671 201.547 37.2603C202.224 35.4545 202.675 33.6486 203.276 31.8428C204.63 27.7797 205.833 23.6413 207.487 19.6534C208.841 16.3428 210.27 13.1073 211.698 9.87188C212.225 8.66799 212.901 7.38887 213.428 6.18498C213.729 6.10974 213.804 5.95927 213.954 5.6583Z" fill="white"/>
<path d="M230.873 38.5396C230.798 38.4643 230.723 38.3891 230.723 38.3891C230.497 38.1634 230.271 38.2386 230.347 38.4643C230.422 38.9158 230.121 38.991 229.82 39.0663C229.67 39.0663 229.52 39.1415 229.444 39.1415C228.993 39.292 228.692 39.2168 228.467 38.7653C228.392 38.6148 228.241 38.5396 228.016 38.3138C227.94 38.5396 227.94 38.6148 227.94 38.6901C227.79 39.292 227.414 39.593 226.888 39.4425C226.136 39.292 225.309 38.5396 225.309 37.7119C225.309 37.3357 225.233 36.9595 225.158 36.4328C224.782 36.7337 224.406 36.9595 224.03 37.1852C223.128 37.7871 222.226 38.3891 221.173 38.3891C218.992 38.3891 217.037 37.8624 215.684 35.8308C215.082 35.0031 214.856 33.9497 214.706 32.8963C214.33 30.1876 214.856 27.6294 215.984 25.2216C216.06 24.9958 216.135 24.8454 216.285 24.6949C217.563 23.1148 218.842 21.6099 220.872 20.8575C222 20.4813 223.128 20.0298 224.105 19.2774C224.632 18.9012 225.158 18.525 225.534 17.9983C226.061 17.3211 226.512 16.5686 226.587 15.6657C226.662 14.6876 226.662 13.7094 226.888 12.7312C227.038 11.6778 227.038 10.6997 227.038 9.64628C227.038 9.19482 226.963 8.74337 226.963 8.29192C226.888 7.31376 226.286 6.63656 225.384 6.56131C224.557 6.48607 223.88 6.63656 223.354 7.38899C222.752 8.36715 222.451 9.34532 222.602 10.5492C222.752 11.4521 222.902 12.2045 223.579 12.8817C223.805 13.1074 223.805 13.7846 223.504 14.0856C222.827 14.838 222.15 15.6657 221.398 16.4181C220.722 17.0953 220.045 17.2458 219.368 16.1924C219.067 15.741 218.767 15.3647 218.616 14.838C218.466 14.3866 218.466 13.8599 218.466 13.4084C218.466 12.957 218.541 12.4303 218.616 11.9036C218.691 11.3769 218.842 10.8502 218.992 10.3235C219.218 9.72152 219.443 9.11958 219.744 8.59288C220.646 6.86229 222 5.88414 223.805 5.58316C224.181 5.50792 224.481 5.35742 224.857 5.35742C225.459 5.35742 226.136 5.35743 226.737 5.50792C227.715 5.73365 228.617 6.33559 229.444 7.01278C229.745 7.2385 229.971 7.68995 230.121 7.99093C230.572 8.89384 230.798 9.87201 230.798 10.8502C230.873 13.7094 230.873 16.6439 230.497 19.5031C230.196 21.6099 229.896 23.7167 229.67 25.8235C229.595 27.0274 229.595 28.3065 229.67 29.5857C229.745 31.3162 229.971 33.0468 230.422 34.7022C230.647 35.4546 230.948 36.1318 231.399 36.7337C231.475 36.8842 231.625 37.0347 231.625 37.1852C231.7 37.4109 231.7 37.7119 231.399 37.8624C231.249 38.2386 231.099 38.3891 230.873 38.5396ZM225.91 20.406C225.384 20.7822 225.008 21.0832 224.557 21.3089C223.504 21.8356 222.752 22.7386 222 23.6415C221.699 24.0177 221.398 24.4691 221.173 24.9206C220.872 25.5225 220.571 26.1245 220.346 26.8017C220.195 27.2531 219.97 27.7046 219.895 28.2313C219.744 29.2847 219.519 30.4133 219.594 31.542C219.594 31.9182 219.519 32.3697 219.519 32.7459C219.519 33.5735 219.819 34.2507 219.97 35.0784C219.97 35.1536 220.12 35.3041 220.195 35.3794C220.571 35.7556 221.022 36.1318 221.624 36.0566C222.075 36.0566 222.526 35.9061 222.902 35.8308C223.354 35.7556 223.654 35.5298 223.88 35.1536C224.406 34.1755 224.406 33.2726 223.729 32.3697C223.88 32.2192 224.105 32.1439 224.256 31.9934C224.707 31.7677 224.857 31.3915 224.857 30.8648C224.857 29.5857 224.933 28.3065 225.083 27.0274C225.233 25.4473 225.459 23.9424 225.685 22.3623C225.835 21.6851 225.835 21.0832 225.91 20.406ZM228.091 11.7531C228.166 11.7531 228.166 11.7531 228.091 11.7531C228.166 11.4521 228.166 11.1511 228.166 10.8502H228.091C228.091 11.1511 228.091 11.4521 228.091 11.7531Z" fill="white"/>
<path d="M166.281 19.7284C166.281 20.5561 166.356 21.3085 166.356 22.1362C166.431 23.0391 166.507 23.9421 166.582 24.845C166.657 26.5003 166.807 28.1556 166.807 29.811C166.807 30.5634 166.958 31.2406 167.409 31.8425C168.01 32.7455 168.913 32.8207 169.514 31.8425C169.589 31.6921 169.665 31.4663 169.74 31.3158C170.191 29.9615 170.567 28.5319 170.191 27.027C170.116 26.6508 169.89 26.1993 169.74 25.8231C169.665 25.5974 169.514 25.3717 169.364 25.0707C169.665 24.845 169.965 24.6945 170.191 24.4688C170.642 24.1678 171.093 23.942 171.545 23.6411C171.921 23.3401 172.297 23.3401 172.823 23.4153C173.274 23.4906 173.424 23.7163 173.5 24.0925C173.725 25.2212 173.876 26.2746 173.5 27.4032C173.274 27.9299 173.274 28.6071 173.199 29.1338C173.048 29.8862 172.823 30.6387 172.297 31.1654C171.394 31.993 170.492 32.8959 169.138 33.1969C168.612 33.2722 168.236 33.5731 167.71 33.5731C166.883 33.5731 166.131 33.1969 165.303 32.8959C163.95 32.294 163.424 31.1654 163.123 29.8862C162.897 28.8328 162.747 27.7794 162.596 26.726C162.296 24.4688 162.296 22.1362 162.296 19.8037C162.296 18.2988 162.22 16.7187 162.371 15.2139C162.521 13.1071 162.446 10.925 163.048 8.89347C163.348 7.76482 163.724 6.56093 164.627 5.73326C165.454 4.98083 166.281 4.07793 167.409 3.77696C167.71 3.70172 167.935 3.62646 168.236 3.62646C168.913 3.70171 169.589 3.7017 170.266 3.85218C171.695 4.07791 172.823 4.83035 173.5 6.18472C174.628 8.29152 174.853 10.4736 174.628 12.8061C174.552 13.8595 174.402 14.9881 173.951 15.9663C173.349 17.1702 172.522 18.2236 171.469 19.0513C170.868 19.5027 170.116 19.6532 169.439 19.8037C169.063 19.8789 168.612 20.0294 168.161 20.1047C167.559 20.1799 167.033 20.0294 166.507 19.8789C166.582 19.8789 166.507 19.8037 166.281 19.7284ZM166.431 15.2139C166.356 16.1168 166.356 16.8692 166.281 17.6969C166.281 18.1483 166.356 18.3741 166.732 18.5245C168.161 19.0512 169.063 18.5245 169.59 17.3959C170.116 16.2673 170.567 15.0634 170.492 13.7843C170.417 12.9566 170.417 12.1289 170.492 11.3765C170.642 10.4736 170.492 9.57066 170.266 8.66775C170.116 8.14105 169.965 7.53909 169.815 7.01239C169.665 6.33521 169.214 5.80851 168.537 5.58278C168.386 5.50754 168.236 5.50754 168.086 5.50754C167.484 5.58278 166.807 6.25996 166.732 6.8619C166.582 7.53909 166.507 8.21628 166.431 8.89347C166.356 9.49541 166.281 10.0974 166.281 10.7745C166.281 12.2042 166.356 13.709 166.431 15.2139Z" fill="white"/>
<path d="M194.704 18.9011C194.704 19.1268 194.629 19.3525 194.704 19.5783C194.855 19.9545 194.779 20.3307 194.779 20.7069C194.779 20.7822 194.779 20.7821 194.779 20.8574C194.779 22.588 194.554 24.3186 194.629 26.1244C194.704 27.1778 194.704 28.2312 194.855 29.2846C194.93 29.6608 195.005 30.037 195.08 30.4132C195.231 31.0152 195.757 31.4666 196.434 31.5419C197.035 31.6171 197.637 31.3914 197.938 30.7895C198.464 29.7361 198.765 28.6074 198.69 27.4788C198.69 27.253 198.614 27.1026 198.539 26.8768C198.464 26.7263 198.389 26.5758 198.389 26.4254C198.539 25.5977 198.088 24.9205 197.787 24.1681C197.411 23.3404 197.712 22.6632 198.614 22.5127C199.441 22.3623 200.344 22.2118 201.171 22.1365C201.547 22.0613 201.848 22.287 201.848 22.6632C201.772 23.3404 202.073 24.0176 202.148 24.6948C202.224 25.372 202.148 26.0492 201.923 26.7263C201.772 27.3283 201.697 28.0055 201.547 28.6074C201.321 29.5856 200.945 30.4885 199.968 31.0152C199.817 31.0904 199.667 31.2409 199.517 31.3914C198.99 31.8429 198.389 32.2191 197.712 32.3696C197.186 32.4448 196.81 32.7458 196.208 32.7458C195.381 32.7458 194.704 32.4448 194.028 32.1438C192.975 31.6924 192.373 30.8647 191.997 29.8113C191.621 28.7579 191.546 27.7045 191.396 26.5759C191.095 23.9424 191.02 21.3089 191.095 18.7506C191.17 17.622 191.095 16.4933 191.095 15.4399C191.17 13.3331 191.17 11.1511 191.697 9.04427C191.997 7.91562 192.373 6.86221 193.125 5.88405C193.2 5.80881 193.276 5.58309 193.426 5.58309C194.328 5.13163 194.855 4.22871 195.907 4.00298C196.058 4.00298 196.133 3.92773 196.283 3.92773C197.411 3.92773 198.614 3.92774 199.667 4.3792C200.945 4.9059 201.772 5.88406 202.224 7.16319C202.675 8.36708 202.9 9.64621 202.825 10.9253C202.75 12.2045 202.75 13.5588 202.224 14.7627C201.472 16.6438 200.344 18.2991 198.389 19.2021C197.787 19.503 197.186 19.6535 196.509 19.7287C196.058 19.804 195.531 19.5783 195.08 19.503C195.005 19.0516 194.855 18.9763 194.704 18.9011ZM194.479 9.34523C194.479 9.72145 194.479 10.0224 194.479 10.3234C194.629 11.9787 194.704 13.6341 194.629 15.2894C194.629 15.8914 194.629 16.4933 194.629 17.1705C194.629 17.4715 194.779 17.6972 195.08 17.7724C195.456 17.8477 195.832 17.9982 196.133 18.0734C196.359 18.1487 196.584 18.1487 196.735 17.9982C197.486 17.3962 198.163 16.719 198.314 15.7409C198.389 15.5152 198.464 15.2142 198.539 14.9885C198.69 14.4618 198.765 13.935 198.765 13.4083C198.765 12.5054 198.69 11.6025 198.84 10.7748C198.915 9.87193 198.84 9.04426 198.539 8.21659C198.389 7.68989 198.163 7.16318 198.088 6.56124C198.013 6.10978 197.486 5.50784 197.186 5.50784C196.81 5.50784 196.359 5.58307 195.983 5.73356C195.005 6.10977 194.479 7.46415 194.855 8.44231C195.005 8.89377 194.629 9.11949 194.629 9.4957C194.629 9.34522 194.554 9.34523 194.479 9.34523Z" fill="white"/>
<path d="M225.233 44.4836C225.233 45.9132 223.955 47.2676 222.677 47.4181C222.301 47.4181 221.85 47.4933 221.474 47.4933C220.872 47.4933 220.421 47.1923 220.195 46.5151C220.12 46.3647 220.12 46.2894 220.045 46.1389C219.368 45.0103 219.519 43.8816 220.045 42.753C220.271 42.2263 220.722 41.6996 221.248 41.3234C222.376 40.4205 223.88 40.7967 224.632 42.0758C224.933 42.9787 225.233 43.8064 225.233 44.4836Z" fill="white"/>
<path d="M168.085 36.5077C169.965 36.4325 171.093 37.8621 170.943 39.8184C170.868 40.4204 170.717 40.9471 170.341 41.3985C170.04 41.7747 169.89 42.2262 169.589 42.6024C169.288 43.0539 168.837 43.2796 168.311 43.5053C167.333 43.8063 166.281 43.2796 165.754 42.6024C164.551 41.0975 164.777 38.2383 166.581 37.0344C166.882 36.7334 167.559 36.5077 168.085 36.5077Z" fill="white"/>
<path d="M194.78 43.8815C193.351 43.9568 192.223 42.6776 191.922 41.3985C191.621 39.5927 192.749 38.0126 194.178 37.4106C195.156 36.9592 196.283 37.1849 197.186 38.2383C197.637 38.6898 197.938 39.2917 198.088 39.8937C198.389 40.7966 198.163 41.6242 197.637 42.3767C197.035 43.4301 195.983 43.8815 194.78 43.8815Z" fill="white"/>
<g clip-path="url(#clip0)">
<path d="M20.0727 10.8475L14.5247 16.0701C14.5197 15.4212 14.4613 14.7735 14.3494 14.1346C13.6402 9.67926 10.8786 3.69744 9.65232 1.62024C9.61871 1.57212 9.58816 1.52171 9.56066 1.46977C9.46786 1.31853 9.48122 1.12452 9.59427 0.987419C9.70693 0.849932 9.89445 0.799138 10.0613 0.861007C17.4532 3.36365 20.0727 10.8475 20.0727 10.8475Z" fill="#BFA885"/>
<path d="M40.5958 1.46977C39.2446 3.68101 35.0899 11.2978 35.0899 15.8532L33.0623 13.9425L29.5415 10.6306C31.4041 6.76072 34.4685 3.59699 38.2765 1.61184C38.8658 1.32159 39.4734 1.07067 40.0955 0.861007C40.262 0.799138 40.4495 0.849932 40.5626 0.987419C40.6752 1.12452 40.689 1.31853 40.5958 1.46977Z" fill="#BFA885"/>
<path d="M17.845 10.8476L14.3494 14.1347C13.6402 9.67938 10.8787 3.69756 9.65234 1.62036C15.6594 4.60688 17.845 10.8476 17.845 10.8476Z" fill="#FFECB3"/>
<path d="M38.2765 1.61206C37.0338 3.67283 33.8716 9.52099 33.0623 13.9427L29.5415 10.6308C31.4041 6.76094 34.4685 3.59722 38.2765 1.61206Z" fill="#FFECB3"/>
<path d="M14.4367 15.4497C14.4367 15.4497 6.46283 17.1182 3.32508 14.9646C3.21051 14.8841 3.06271 14.8669 2.93286 14.9196C2.80339 14.9723 2.70906 15.0872 2.68348 15.2251C2.21869 17.638 2.20953 25.4969 12.5638 20.0249L14.4367 15.4497Z" fill="#CFD8DC"/>
<path d="M42.1312 21.7599C40.5428 21.402 39.0144 20.8177 37.5926 20.0248L35.4902 15.6195L35.3069 15.2273C36.8845 15.5122 38.4782 15.6986 40.0788 15.7864H40.1205C41.7634 15.9063 43.4148 15.7941 45.0261 15.4526C45.6661 15.314 46.2764 15.0627 46.8283 14.7102C46.9444 14.6319 47.0918 14.6174 47.2213 14.6713C47.3503 14.7247 47.4443 14.8397 47.4706 14.9772C47.8545 16.9963 47.9377 22.8529 42.1312 21.7599Z" fill="#9E9E9E"/>
<path d="M42.1312 21.7598C40.5429 21.402 39.0145 20.8177 37.5926 20.0248L35.4902 15.6195C37.0125 15.8006 38.5474 15.8563 40.0788 15.7864H40.1205C41.5851 15.788 43.0264 15.4175 44.3089 14.7102C44.425 14.6319 44.5724 14.6174 44.7015 14.6713C44.8309 14.7247 44.9245 14.8397 44.9512 14.9772C44.976 15.1189 45.0012 15.2777 45.0261 15.4526C45.2682 17.3465 45.1097 21.009 42.1312 21.7598Z" fill="#CFD8DC"/>
<path d="M29.2499 44.2192C28.6236 46.3113 27.1964 48.0715 25.2784 49.1164C25.1535 49.1833 25.0035 49.1833 24.8782 49.1164C24.5112 48.9243 24.1598 48.704 23.8268 48.4573C22.4332 47.386 21.4116 45.9035 20.9067 44.2192H29.2499Z" fill="#424242"/>
<path d="M26.7469 44.2192C26.2424 45.9035 25.2208 47.386 23.8268 48.4573C22.4332 47.386 21.4116 45.9035 20.9067 44.2192H26.7469Z" fill="#9E9E9E"/>
<path d="M38.4272 22.3775C38.4272 24.7495 37.7531 27.073 36.4833 29.0769C35.9574 29.911 35.2566 30.6118 34.7147 31.4294C34.1743 32.2486 33.7133 33.1175 33.3379 34.0241C32.5985 35.8263 32.1234 37.7259 31.9279 39.6637C31.861 40.2229 31.8194 40.7904 31.7946 41.3491C31.8408 41.8635 31.8267 42.3814 31.7526 42.8928C31.7526 42.8928 28.4155 45.6207 25.0784 45.6207C24.6613 45.6196 24.2454 45.5803 23.8352 45.5039H23.8188C21.8455 45.0368 19.9982 44.1458 18.4041 42.8928C18.2857 41.2242 18.0543 39.5656 17.7117 37.9287C17.4177 35.8107 16.7482 33.7625 15.7342 31.8801C14.8665 30.4116 13.5902 29.2102 12.8726 27.6417C10.6075 22.6562 11.7757 16.7814 15.7762 13.0417C17.9298 10.8675 20.78 9.52091 23.8268 9.23716C24.2427 9.19667 24.6605 9.1772 25.0784 9.17911C28.5728 9.1623 31.926 10.5551 34.3809 13.0417C36.9542 15.4661 38.4176 18.8418 38.4272 22.3775Z" fill="#9E9E9E"/>
<path d="M35.9241 22.3774C35.9241 24.7494 35.2501 27.0729 33.9802 29.0768C33.4547 29.9109 32.7539 30.6117 32.2116 31.4293C31.6712 32.2485 31.2106 33.1174 30.8348 34.024C30.0955 35.8262 29.6208 37.7258 29.4252 39.6636C29.3584 40.2228 29.3168 40.7903 29.2915 41.349C29.337 42.3057 29.3229 43.2643 29.2499 44.219C29.2499 44.219 26.7053 44.9699 23.8352 45.5038H23.8188C21.8455 45.0367 19.9982 44.1457 18.4041 42.8927C18.2857 41.2241 18.0543 39.5655 17.7117 37.9286C17.4177 35.8106 16.7482 33.7624 15.7342 31.88C14.8665 30.4116 13.5902 29.2101 12.8726 27.6416C10.6075 22.6562 11.7757 16.7813 15.7762 13.0416C17.9298 10.8674 20.78 9.52082 23.8268 9.23706C26.8741 9.52082 29.7242 10.8674 31.8778 13.0416C34.4515 15.466 35.9146 18.8417 35.9241 22.3774Z" fill="#F5F5F5"/>
<path d="M17.5697 25.8647C16.6481 25.8647 15.9011 25.1177 15.9011 24.1961C15.9011 23.2746 16.6481 22.5276 17.5697 22.5276C18.4912 22.5276 19.2382 23.2746 19.2382 24.1961C19.2382 25.1177 18.4912 25.8647 17.5697 25.8647Z" fill="#F5F5F5"/>
<path d="M32.587 25.8647C31.6655 25.8647 30.9185 25.1177 30.9185 24.1961C30.9185 23.2746 31.6655 22.5276 32.587 22.5276C33.5086 22.5276 34.2556 23.2746 34.2556 24.1961C34.2556 25.1177 33.5086 25.8647 32.587 25.8647Z" fill="#F5F5F5"/>
<path d="M3.79653 14.2756C3.45014 14.0361 3.00598 13.988 2.61644 14.1477C2.22689 14.3073 1.94428 14.6529 1.86522 15.0665C1.49554 16.9787 1.19765 20.4228 3.34932 22.0153C4.09442 22.5458 4.99305 22.8166 5.90733 22.786C7.66907 22.6787 9.38728 22.1948 10.9462 21.368C10.9222 21.7014 10.8954 22.0352 10.8954 22.369C10.8985 24.3045 11.314 26.2175 12.1145 27.9796C12.5812 28.9175 13.1544 29.7986 13.8231 30.6052C14.2558 31.1441 14.6549 31.7097 15.0177 32.2978C15.9786 34.0981 16.6134 36.0546 16.8925 38.0761C17.0869 39.1267 17.2794 40.201 17.4154 41.2864C8.24919 42.735 3.90499 45.9159 3.72053 46.0545C3.48222 46.2332 3.35734 46.5258 3.39285 46.8217C3.42837 47.1177 3.61933 47.3721 3.89354 47.4893C4.16736 47.6062 4.4832 47.568 4.72189 47.3893C4.76428 47.3576 8.92555 44.3374 17.5773 42.9561C17.5945 43.1814 17.7026 43.3907 17.8767 43.535C18.5683 44.0781 19.305 44.5616 20.0784 44.9798C20.0681 45.0925 20.0811 45.2063 20.117 45.3136C20.9705 47.3106 22.5257 48.9264 24.4887 49.8564C24.8599 50.0477 25.301 50.0477 25.6726 49.8564C27.6344 48.9268 29.1884 47.3117 30.0416 45.3151C30.0771 45.2116 30.0916 45.1016 30.084 44.9924C30.8841 44.609 31.6189 44.1022 32.2616 43.4907L32.2933 43.5274C32.5569 43.2643 32.6878 42.8965 32.6504 42.5264C34.8445 42.7063 37.0974 42.9847 39.4083 43.3605L40.1121 46.8886C40.1916 47.2774 40.5334 47.5562 40.9298 47.5562C40.9859 47.5565 41.0421 47.5508 41.0967 47.5393C41.3136 47.4954 41.5042 47.3667 41.626 47.1823C41.7482 46.9974 41.7918 46.7717 41.7475 46.5552L41.1712 43.6691C41.9648 43.8161 42.7641 43.9742 43.5688 44.1438L44.2837 47.723C44.3631 48.1114 44.705 48.3906 45.1014 48.3906C45.1575 48.3906 45.2133 48.3853 45.2683 48.3738C45.4852 48.3295 45.6754 48.2012 45.7976 48.0164C45.9194 47.8319 45.9633 47.6062 45.919 47.3893L45.3515 44.5368C46.0336 44.6926 46.7184 44.8564 47.4058 45.0283C47.4707 45.0447 47.5372 45.0531 47.6044 45.0535C48.0253 45.0524 48.3797 44.7381 48.4305 44.3203C48.4816 43.9024 48.2135 43.5121 47.8053 43.4098C47.2523 43.2712 46.7016 43.1421 46.1516 43.0134L48.1047 41.5491C48.3434 41.3704 48.4683 41.0779 48.4324 40.7823C48.3969 40.4863 48.2059 40.2316 47.9321 40.1147C47.6579 39.9974 47.342 40.0356 47.1037 40.2144L44.0091 42.5356C43.2499 42.3752 42.4952 42.224 41.7452 42.0815L44.0225 39.8031C44.3387 39.4758 44.3341 38.9556 44.0126 38.6337C43.6906 38.3117 43.1704 38.3071 42.8428 38.6233L39.7394 41.7271C37.3227 41.3265 34.9655 41.0347 32.668 40.851C32.6928 40.4855 32.7146 40.1193 32.7512 39.7557C32.941 37.8973 33.3951 36.076 34.0998 34.346C34.4572 33.4894 34.8937 32.6675 35.4036 31.8915C35.6404 31.5321 35.9157 31.1926 36.2087 30.832C36.5589 30.4154 36.8846 29.9789 37.1848 29.5248C38.5421 27.3876 39.2628 24.9075 39.2612 22.3758C39.2612 22.0287 39.2345 21.6865 39.2089 21.3436C40.7503 22.1574 42.4483 22.6321 44.1886 22.7352C45.1094 22.7654 46.0145 22.4919 46.765 21.9577C48.964 20.3334 48.6646 16.7851 48.2899 14.8187C48.2124 14.4051 47.9313 14.0587 47.5425 13.8975C47.1537 13.7367 46.71 13.7833 46.3628 14.0212C44.1527 15.5229 39.0042 14.9306 36.7284 14.4933C36.6452 14.3791 36.5539 14.2714 36.4691 14.1595C36.4825 9.79467 40.1106 3.86021 41.3079 1.90714C41.5832 1.45649 41.5462 0.881716 41.2151 0.47002C40.884 0.0587055 40.3302 -0.100932 39.831 0.0716904C32.1898 2.65797 29.4435 8.37283 29.3309 8.6142C29.2797 8.72724 29.2549 8.8506 29.2591 8.97433C26.4658 8.11352 23.4747 8.1391 20.6967 9.04804C20.715 8.90865 20.6975 8.76696 20.6452 8.63673C20.5375 8.39116 17.9871 2.6614 10.3291 0.069399C9.82762 -0.105515 9.27003 0.0575599 8.94235 0.475749C8.61009 0.885153 8.57381 1.45992 8.85146 1.9079C10.2473 4.1898 13.4928 9.95316 13.4928 14.1847C13.4981 14.2454 13.5104 14.3058 13.5294 14.3638C13.45 14.4723 13.3675 14.5792 13.2915 14.6892C11.3067 15.125 6.07308 15.8364 3.79653 14.2756ZM4.34304 20.6744C3.06823 19.7311 3.21489 17.2942 3.40355 15.9793C5.9524 17.295 9.99451 16.9245 12.2126 16.58C11.7887 17.4687 11.4637 18.4013 11.2433 19.3615C7.92304 21.1018 5.53612 21.5589 4.34304 20.6744ZM25.0783 48.2829C24.0281 47.7208 23.1111 46.9394 22.3893 45.9919C23.2563 46.2859 24.1633 46.4421 25.0783 46.4551C26.0045 46.4269 26.921 46.258 27.7964 45.9544C27.0711 46.9195 26.1435 47.7143 25.0783 48.2829ZM46.7501 15.7245C46.9425 17.0822 47.1003 19.636 45.7739 20.616C44.5717 21.504 42.1962 21.056 38.9049 19.3313C38.6666 18.3032 38.308 17.3072 37.8363 16.3631C40.1992 16.695 44.2413 16.9986 46.7501 15.7245ZM30.839 9.32073C32.7306 6.005 35.7061 3.44164 39.2654 2.06257C37.4911 5.05596 35.4888 8.91781 34.9457 12.4367C33.7041 11.2306 32.2647 10.2465 30.6908 9.52695C30.7504 9.46623 30.8005 9.39672 30.839 9.32073ZM33.8019 13.6474C34.3652 14.187 34.8773 14.7778 35.3318 15.4118C35.3769 15.6146 35.496 15.7929 35.6656 15.9124C36.9213 17.8342 37.5908 20.0798 37.5927 22.3758C37.5954 24.5913 36.9664 26.7621 35.779 28.633C35.514 29.0329 35.226 29.4167 34.9163 29.7833C34.6119 30.1595 34.2972 30.5475 34.0154 30.9749C33.4482 31.8368 32.9632 32.7504 32.566 33.7028C31.7995 35.5795 31.305 37.5563 31.0968 39.5728C31.033 40.1514 30.9864 40.7315 30.9578 41.3131C30.9578 41.3906 30.9578 41.5636 30.9685 41.7695C30.9742 41.9223 30.9876 42.2194 30.9861 42.4294C30.2035 43.0134 27.5989 44.7889 25.0783 44.7889C22.6089 44.7889 20.0494 43.0745 19.2141 42.4611C19.2008 42.2767 19.1782 42.0949 19.1614 41.9123C19.1614 41.9005 19.1614 41.8898 19.1614 41.8772C19.1595 41.8699 19.1569 41.8631 19.1542 41.8562C19.019 40.4595 18.7753 39.103 18.5317 37.7824C18.2162 35.5696 17.5135 33.4298 16.4552 31.461C16.0569 30.8141 15.6196 30.1916 15.1453 29.5981C14.5553 28.8904 14.0473 28.1182 13.631 27.2963C11.5114 22.6352 12.6075 17.141 16.3533 13.6496C18.6604 11.3238 21.8008 10.0158 25.0768 10.0158C28.3528 10.0158 31.4932 11.3238 33.8 13.6496L33.8019 13.6474ZM10.8828 2.05646C14.4044 3.40727 17.3245 5.97674 19.1114 9.29819C19.1618 9.41009 19.2367 9.50939 19.331 9.58844C17.8064 10.3045 16.4117 11.2685 15.203 12.4409C15.148 12.4936 15.101 12.552 15.0468 12.6078C14.5438 8.9285 12.4739 4.79398 10.8828 2.05646Z" fill="black"/>
<path d="M14.9299 20.8709C14.6289 20.9118 14.3734 21.113 14.2638 21.3968C14.1542 21.6802 14.2077 22.001 14.4032 22.2339C14.5988 22.4669 14.9054 22.575 15.2037 22.5162C15.3851 22.4944 15.5677 22.4852 15.7502 22.4883C14.831 23.453 14.8333 24.9703 15.7556 25.9319C16.6775 26.894 18.1933 26.9604 19.1958 26.0824C19.2118 26.2871 19.2382 26.4781 19.2382 26.6992C19.2382 27.1598 19.6117 27.5333 20.0727 27.5333C20.5332 27.5333 20.9067 27.1598 20.9067 26.6992C20.9067 24.5785 20.298 22.9867 19.0965 21.9685C17.9118 21.0577 16.4102 20.6616 14.9299 20.8709ZM17.5696 25.0306C17.1091 25.0306 16.7355 24.6571 16.7355 24.1962C16.7355 23.7356 17.1091 23.3621 17.5696 23.3621C18.0306 23.3621 18.4041 23.7356 18.4041 24.1962C18.4041 24.6571 18.0306 25.0306 17.5696 25.0306Z" fill="black"/>
<path d="M30.0841 27.5332C30.545 27.5332 30.9186 27.1597 30.9186 26.6991C30.9186 26.478 30.9453 26.2871 30.9602 26.0824C31.9634 26.9531 33.4735 26.884 34.3931 25.9254C35.3128 24.9668 35.3189 23.4556 34.4077 22.4894C34.591 22.4863 34.7743 22.4955 34.9565 22.5169C35.4052 22.5795 35.8219 22.2728 35.8952 21.8256C35.9685 21.3788 35.6718 20.9549 35.2268 20.8709C33.747 20.6623 32.2453 21.058 31.0602 21.9685C29.8591 22.9866 29.25 24.5784 29.25 26.6991C29.25 27.1597 29.6235 27.5332 30.0841 27.5332ZM32.5871 25.0306C32.1261 25.0306 31.7526 24.6571 31.7526 24.1961C31.7526 23.7355 32.1261 23.362 32.5871 23.362C33.0477 23.362 33.4212 23.7355 33.4212 24.1961C33.4212 24.6571 33.0477 25.0306 32.5871 25.0306Z" fill="black"/>
<path d="M22.1088 41.3645C22.2505 41.2977 22.4021 41.2556 22.558 41.24C22.5706 41.3091 22.5763 41.379 22.5755 41.4493C22.5755 41.9102 22.949 42.2837 23.4096 42.2837C23.8706 42.2837 24.2441 41.9102 24.2441 41.4493C24.3052 40.8027 24.0081 40.1741 23.4688 39.8116C22.7997 39.4935 22.0187 39.5149 21.3683 39.8693C20.9589 40.0755 20.7928 40.5739 20.9963 40.9845C21.1999 41.3954 21.6967 41.565 22.1088 41.3645Z" fill="black"/>
<path d="M26.7468 42.2837C27.2078 42.2837 27.5813 41.9102 27.5813 41.4493C27.5802 41.379 27.5863 41.3091 27.5989 41.24C27.7543 41.2556 27.9059 41.2977 28.0476 41.3633C28.4574 41.5512 28.9424 41.3794 29.1426 40.9757C29.3427 40.5716 29.1861 40.0817 28.7885 39.8693C28.1378 39.5149 27.3568 39.4935 26.6877 39.8116C26.1488 40.1741 25.8513 40.8027 25.9128 41.4493C25.9128 41.9102 26.2863 42.2837 26.7468 42.2837Z" fill="black"/>
</g>
<defs>
<clipPath id="clip0">
<rect width="50" height="50" fill="white"/>
</clipPath>
</defs>
</svg>
