<svg width="138" height="26" viewBox="0 0 138 26" fill="none" xmlns="http://www.w3.org/2000/svg">
<path d="M1.82812 7.92188V18.0781H24.1719V7.92188H1.82812Z" fill="#D8EC84"/>
<path d="M20.1094 14.0156C20.6703 14.0156 21.125 13.5609 21.125 13C21.125 12.4391 20.6703 11.9844 20.1094 11.9844C19.5485 11.9844 19.0938 12.4391 19.0938 13C19.0938 13.5609 19.5485 14.0156 20.1094 14.0156Z" fill="#F3EFF0"/>
<path d="M10.4254 18.0781H19.0938V18.1497C19.0938 19.37 18.7637 20.574 18.1015 21.5988C17.423 22.6489 17.0625 24.1764 17.0625 25.4257V25.4922H7.92188C7.92188 24.2135 7.31961 22.7048 6.29688 21.9375L5.48438 21.3281C4.46164 20.5608 3.85938 19.3568 3.85938 18.0781V9.95312C5.54227 9.95312 6.90625 11.3171 6.90625 13V16.0469C8.40988 16.0469 9.72258 16.8639 10.4254 18.0781Z" fill="#FCE8D0"/>
<path d="M13 9.95312C15.2435 9.95312 17.0625 11.3171 17.0625 13C17.0625 14.6829 15.2435 16.0469 13 16.0469C10.7565 16.0469 8.9375 14.6829 8.9375 13C8.9375 11.3171 10.7565 9.95312 13 9.95312Z" fill="#F3EFF0"/>
<path d="M13 14.0156C14.1218 14.0156 15.0312 13.5609 15.0312 13C15.0312 12.4391 14.1218 11.9844 13 11.9844C11.8782 11.9844 10.9688 12.4391 10.9688 13C10.9688 13.5609 11.8782 14.0156 13 14.0156Z" fill="#D8EC84"/>
<path d="M17.5703 4.57031C16.7289 4.57031 16.0469 5.2523 16.0469 6.09375V4.0625C16.0469 3.22105 15.3649 2.53906 14.5234 2.53906C13.682 2.53906 13 3.22105 13 4.0625V2.03125C13 1.1898 12.318 0.507812 11.4766 0.507812C10.6351 0.507812 9.95312 1.1898 9.95312 2.03125V4.0625C9.95312 3.22105 9.27113 2.53906 8.42969 2.53906C7.58824 2.53906 6.90625 3.22105 6.90625 4.0625V7.92188H19.0938V6.09375C19.0938 5.2523 18.4118 4.57031 17.5703 4.57031Z" fill="#FCE8D0"/>
<path d="M24.1719 7.41406H19.6016V6.09375C19.6016 4.97372 18.6903 4.0625 17.5703 4.0625C17.2005 4.0625 16.8537 4.16234 16.5547 4.3358V4.0625C16.5547 2.94247 15.6435 2.03125 14.5234 2.03125C14.1536 2.03125 13.8068 2.13109 13.5078 2.30455V2.03125C13.5078 0.911219 12.5966 0 11.4766 0C10.3565 0 9.44531 0.911219 9.44531 2.03125V2.3045C9.14631 2.13109 8.79953 2.03125 8.42969 2.03125C7.30966 2.03125 6.39844 2.94247 6.39844 4.0625V7.41406H1.82812C1.54766 7.41406 1.32031 7.64146 1.32031 7.92188V18.0781C1.32031 18.3585 1.54766 18.5859 1.82812 18.5859H3.38056C3.52122 19.8271 4.17132 20.9778 5.17969 21.7344L5.99214 22.3437C6.81606 22.9619 7.41406 24.286 7.41406 25.4922C7.41406 25.7726 7.64141 26 7.92188 26H10.207C10.4875 26 10.7148 25.7726 10.7148 25.4922C10.7148 25.2118 10.4875 24.9844 10.207 24.9844H8.40227C8.27547 23.7792 7.70463 22.3589 6.60156 21.5312L5.78911 20.9219C4.89877 20.254 4.36719 19.1908 4.36719 18.0781V10.512C5.5247 10.7479 6.39844 11.7739 6.39844 13V16.0469C6.39844 16.3273 6.62579 16.5547 6.90625 16.5547C8.83162 16.5547 10.4609 18.1135 10.4609 20.1094C10.4609 20.3898 10.6883 20.6172 10.9688 20.6172C11.2492 20.6172 11.4766 20.3898 11.4766 20.1094C11.4766 19.5885 11.387 19.0731 11.2151 18.5854H18.5707C18.5014 19.5792 18.1953 20.518 17.675 21.3232C17.0633 22.27 16.6461 23.6667 16.568 24.9844H14.7773C14.4969 24.9844 14.2695 25.2118 14.2695 25.4922C14.2695 25.7726 14.4969 26 14.7773 26H17.0625C17.3429 26 17.5703 25.7726 17.5703 25.4922V25.4257C17.5703 24.1688 17.9462 22.7749 18.528 21.8744C19.1542 20.9053 19.5164 19.776 19.5877 18.5859H24.1719C24.4523 18.5859 24.6797 18.3585 24.6797 18.0781V7.92188C24.6797 7.64146 24.4523 7.41406 24.1719 7.41406ZM17.5703 5.07812C18.1303 5.07812 18.5859 5.53373 18.5859 6.09375V7.41406H16.5547V6.09375C16.5547 5.53373 17.0103 5.07812 17.5703 5.07812ZM14.5234 3.04688C15.0835 3.04688 15.5391 3.50248 15.5391 4.0625V7.41406H13.5078V4.0625C13.5078 3.50248 13.9634 3.04688 14.5234 3.04688ZM10.4609 2.03125C10.4609 1.47123 10.9165 1.01562 11.4766 1.01562C12.0366 1.01562 12.4922 1.47123 12.4922 2.03125V7.41406H10.4609V2.03125ZM7.41406 4.0625C7.41406 3.50248 7.86967 3.04688 8.42969 3.04688C8.9897 3.04688 9.44531 3.50248 9.44531 4.0625V7.41406H7.41406V4.0625ZM23.6641 17.5703H10.7065C9.95653 16.4513 8.74494 15.7177 7.41406 15.5676V13C7.41406 11.0399 5.81943 9.44531 3.85938 9.44531C3.57891 9.44531 3.35156 9.67271 3.35156 9.95312V17.5703H2.33594V8.42969H23.6641V17.5703Z" fill="black"/>
<path d="M13 9.44531C10.7023 9.44531 8.42969 10.8515 8.42969 13C8.42969 15.1546 10.7107 16.5547 13 16.5547C15.2977 16.5547 17.5703 15.1485 17.5703 13C17.5703 10.8454 15.2893 9.44531 13 9.44531ZM13 15.5391C11.0399 15.5391 9.44531 14.4 9.44531 13C9.44531 11.6 11.0399 10.4609 13 10.4609C14.9601 10.4609 16.5547 11.6 16.5547 13C16.5547 14.4 14.9601 15.5391 13 15.5391Z" fill="black"/>
<path d="M13 11.4766C11.5525 11.4766 10.4609 12.1315 10.4609 13C10.4609 13.8685 11.5525 14.5234 13 14.5234C14.4475 14.5234 15.5391 13.8685 15.5391 13C15.5391 12.1315 14.4475 11.4766 13 11.4766ZM14.2092 13.264C13.8993 13.4189 13.4586 13.5078 13 13.5078C12.5414 13.5078 12.1007 13.4189 11.7908 13.264C11.5312 13.1343 11.4766 13.0176 11.4766 13C11.4766 12.9824 11.5312 12.8657 11.7908 12.736C12.1007 12.5811 12.5414 12.4922 13 12.4922C13.4586 12.4922 13.8993 12.5811 14.2092 12.736C14.4688 12.8658 14.5234 12.9824 14.5234 13C14.5234 13.0176 14.4688 13.1343 14.2092 13.264Z" fill="black"/>
<path d="M18.5859 13C18.5859 13.84 19.2694 14.5234 20.1094 14.5234C20.9494 14.5234 21.6328 13.84 21.6328 13C21.6328 12.16 20.9494 11.4766 20.1094 11.4766C19.2694 11.4766 18.5859 12.16 18.5859 13ZM20.1094 12.4922C20.3894 12.4922 20.6172 12.72 20.6172 13C20.6172 13.28 20.3894 13.5078 20.1094 13.5078C19.8294 13.5078 19.6016 13.28 19.6016 13C19.6016 12.72 19.8294 12.4922 20.1094 12.4922Z" fill="black"/>
<path d="M12.4922 26C12.7726 26 13 25.7726 13 25.4922C13 25.2117 12.7726 24.9844 12.4922 24.9844C12.2117 24.9844 11.9844 25.2117 11.9844 25.4922C11.9844 25.7726 12.2117 26 12.4922 26Z" fill="black"/>
<path d="M72.2436 12.9997C72.2436 17.4876 68.6081 21.1239 64.1218 21.1239C59.6356 21.1239 56 17.4868 56 12.9997C56 8.51266 59.6365 4.87549 64.1218 4.87549C68.6072 4.87549 72.2436 8.51266 72.2436 12.9997Z" fill="#E2574C"/>
<path d="M73.8761 4.87549C72.0546 4.87549 70.3777 5.48238 69.0226 6.4955L69.0291 6.49631C69.2957 6.75382 69.5897 6.93506 69.8164 7.23151L68.1265 7.25833C67.8617 7.52565 67.6204 7.81649 67.3929 8.11873H70.3728C70.5995 8.39086 70.8091 8.62734 70.9993 8.92789H66.8527C66.7007 9.1895 66.5602 9.45842 66.4375 9.73785H71.4713C71.6029 10.0165 71.7207 10.227 71.8207 10.5219H66.1394C66.0492 10.8022 65.972 11.089 65.9135 11.3814H72.0587C72.1189 11.6625 72.1651 11.9224 72.1968 12.1873H65.7916C65.7648 12.4547 65.751 12.726 65.751 12.9998H72.2431C72.2431 13.2874 72.2228 13.5539 72.1935 13.8123H65.7916C65.8192 14.0877 65.8599 14.3582 65.9135 14.6247H72.0489C71.9856 14.8879 71.9124 15.1528 71.8206 15.4274H66.1207C66.2067 15.7052 66.3116 15.9749 66.4261 16.2381H71.4713C71.3316 16.5339 71.1732 16.7703 70.9985 17.0473H66.8381C67.0023 17.3316 67.1834 17.603 67.38 17.863L70.3729 17.9076C70.1178 18.2139 69.7905 18.3983 69.4922 18.6664C69.5084 18.6794 69.0153 18.6648 68.0444 18.6494C69.5215 20.1736 71.5858 21.124 73.876 21.124C78.3631 21.124 82.0002 17.4868 82.0002 12.9998C82.0002 8.51284 78.3639 4.87549 73.8761 4.87549Z" fill="#F4B459"/>
<path d="M122.411 9.1311L121.089 16.8853H123.203L124.525 9.1311H122.411Z" fill="#A6DBFF"/>
<path d="M119.317 9.13981L117.247 14.428L117.027 13.6295C116.618 12.6674 115.46 11.2857 114.099 10.415L115.992 16.8815L118.228 16.8777L121.556 9.13818L119.317 9.13981Z" fill="#A6DBFF"/>
<path d="M116.224 9.69467C116.102 9.22233 115.746 9.08155 115.304 9.0647H112.027L112 9.21906C114.55 9.83762 116.237 11.328 116.937 13.1201L116.224 9.69467Z" fill="#A6DBFF"/>
<path d="M128.808 10.6176C129.499 10.6067 130.001 10.7578 130.39 10.9143L130.581 11.004L130.866 9.32339C130.448 9.1663 129.792 8.9978 128.973 8.9978C126.885 8.9978 125.413 10.0496 125.402 11.5568C125.388 12.6705 126.45 13.2924 127.252 13.6636C128.076 14.0441 128.352 14.286 128.348 14.6257C128.342 15.1448 127.692 15.3828 127.084 15.3828C126.238 15.3828 125.789 15.266 125.095 14.9768L124.822 14.8529L124.525 16.5884C125.02 16.8053 125.932 16.9917 126.88 17.0015C129.101 17.0015 130.545 15.9623 130.56 14.3517C130.569 13.4706 130.005 12.7983 128.784 12.2466C128.045 11.8868 127.593 11.6476 127.597 11.2845C127.597 10.9622 127.981 10.6176 128.808 10.6176Z" fill="#A6DBFF"/>
<path d="M136.29 9.13989H134.657C134.15 9.13989 133.773 9.27795 133.55 9.78345L130.412 16.8898H132.631C132.631 16.8898 132.993 15.9342 133.075 15.725C133.318 15.725 135.475 15.7282 135.782 15.7282C135.845 15.9989 136.039 16.8898 136.039 16.8898H138L136.29 9.13989ZM133.684 14.1378C133.858 13.6926 134.526 11.9707 134.526 11.9707C134.514 11.9919 134.698 11.5223 134.807 11.2304L134.95 11.8989C134.95 11.8989 135.355 13.7503 135.439 14.1378H133.684Z" fill="#A6DBFF"/>
</svg>
