<svg width="25" height="24" fill="none" xmlns="http://www.w3.org/2000/svg"><g clip-path="url(#clip0)"><path d="M19.091 9.663c-1.127-.62-1.774-1.713-1.774-2.999V4.075a.703.703 0 00-.058-1.403h-.094V.703A.703.703 0 0016.462 0h-2.813a.703.703 0 00-.703.703v1.969h-.094a.703.703 0 00-.058 1.403v2.589c0 1.286-.646 2.38-1.774 2.999a8.398 8.398 0 00-3.47 3.607 7.125 7.125 0 00-4.904-1.485.703.703 0 00-.65.65 7.124 7.124 0 002.435 5.907 7.127 7.127 0 00-3.69 2.266.703.703 0 000 .918 7.124 7.124 0 008.654 1.687c.256.235.527.454.814.657.118.085.26.13.406.13h8.881a.702.702 0 00.407-.13 8.41 8.41 0 003.543-6.85 8.396 8.396 0 00-4.355-7.357zm-4.739-8.257h1.407v1.266h-1.407V1.406zm-2.655 9.49a4.84 4.84 0 001.844-1.766 4.84 4.84 0 00.66-2.466V4.079h1.71v2.585c0 .884.228 1.737.66 2.466a4.84 4.84 0 001.843 1.765 6.994 6.994 0 013.052 3.355H8.645a6.993 6.993 0 013.052-3.355zm-8.31 2.28c1.34.05 2.622.569 3.621 1.472a8.381 8.381 0 00-.264 3.512l-.035-.003a5.72 5.72 0 01-3.321-4.981zm-1.139 7.891a5.717 5.717 0 014.832-1.449 8.428 8.428 0 001.32 2.51 5.72 5.72 0 01-6.152-1.06zm17.018 1.527h-8.421a7.002 7.002 0 01-2.639-6.938h13.699a6.98 6.98 0 01-2.639 6.938z" fill="#64552A"/></g><defs><clipPath id="clip0"><path fill="#fff" transform="translate(.008)" d="M0 0h24v24H0z"/></clipPath></defs></svg>