<svg width="24" height="24" fill="none" xmlns="http://www.w3.org/2000/svg"><g clip-path="url(#clip0)" fill="#5E4426"><path d="M7.736 5.717a.703.703 0 10.998-.99c-.177-.178-.502-.737.012-1.282A2.294 2.294 0 008.745.219a.703.703 0 10-1.006.983c.123.122.545.675-.019 1.281a2.306 2.306 0 00.016 3.234zm3.765 0a.703.703 0 10.998-.99c-.176-.178-.502-.737.013-1.282.9-.912.867-2.347-.002-3.226a.703.703 0 10-1.005.983c.122.122.544.675-.02 1.281a2.306 2.306 0 00.016 3.234zm3.766 0a.703.703 0 10.998-.99c-.176-.178-.502-.737.013-1.282a2.294 2.294 0 00-.002-3.226.703.703 0 10-1.006.983c.123.122.545.675-.019 1.281a2.306 2.306 0 00.016 3.234zm6.829 9.438C20.986 11.304 17.356 7.53 12 7.53c-5.103 0-8.92 3.525-10.093 7.623A2.59 2.59 0 000 17.649a2.59 2.59 0 001.793 2.46l3.244 3.244c.411.412.981.647 1.563.647h10.804c.588 0 1.142-.23 1.559-.647l3.244-3.243A2.59 2.59 0 0024 17.649a2.59 2.59 0 00-1.904-2.494zM12 8.938c4.062 0 7.382 2.631 8.594 6.125H3.41C4.62 11.56 7.95 8.938 12 8.938zm5.968 13.421a.794.794 0 01-.564.235H6.6a.81.81 0 01-.568-.235l-2.125-2.124h16.186l-2.125 2.124zm3.446-3.53H2.586a1.181 1.181 0 010-2.36h18.828c.65 0 1.18.53 1.18 1.18 0 .65-.53 1.18-1.18 1.18z"/><path d="M12 10.92a.703.703 0 00-.703.704v1.13a.703.703 0 101.406 0v-1.13A.703.703 0 0012 10.92zm-3.51.206l-.753.753a.703.703 0 00.995.995l.753-.754a.703.703 0 00-.995-.994zm7.02 0a.703.703 0 10-.995.995l.754.753a.703.703 0 00.994-.995l-.753-.753z"/></g><defs><clipPath id="clip0"><path fill="#fff" d="M0 0h24v24H0z"/></clipPath></defs></svg>