<svg width="24" height="24" fill="none" xmlns="http://www.w3.org/2000/svg"><path d="M13.406 8.438a.703.703 0 100-1.407.703.703 0 000 1.407zm-2.109-3.516a.703.703 0 100-1.406.703.703 0 000 1.406zM9.188 8.438a.703.703 0 100-1.407.703.703 0 000 1.407z" fill="#26425F"/><path d="M23.312 11.244c.446-.66.688-1.356.688-2.056 0-1.563-1.044-3.058-2.94-4.209-1.683-1.021-3.97-1.735-6.467-2.02l-.307-.368a5.295 5.295 0 00-1.565-1.27 5.28 5.28 0 00-7.295 2.51l-.032.01A4.887 4.887 0 014.266.704a.703.703 0 00-1.407 0c0 1.347.418 2.625 1.18 3.685-.922.432-1.72.941-2.353 1.507C.583 6.88 0 8.02 0 9.188c0 .72.225 1.431.66 2.099-.438.673-.66 1.384-.66 2.12 0 .725.224 1.434.658 2.1C.221 16.18 0 16.892 0 17.626 0 21.33 5.61 24 12 24c6.413 0 12-2.682 12-6.375 0-.733-.22-1.442-.656-2.114.433-.665.656-1.374.656-2.105 0-.75-.232-1.476-.688-2.162zM10.242 2.11a3.86 3.86 0 012.966 1.385l3.386 4.041a1.407 1.407 0 01-1.078 2.309h-5.274a3.872 3.872 0 01-3.867-3.867 3.872 3.872 0 013.867-3.868zM12 22.594c-5.99 0-10.594-2.442-10.594-4.969 0-.333.078-.664.232-.991.08.072.164.144.25.215 1.057.867 2.522 1.587 4.246 2.091a2.106 2.106 0 002.609.562c1.317.192 2.686.266 4.076.218a2.113 2.113 0 001.993 1.42 2.11 2.11 0 002.103-1.95c1.91-.445 3.998-1.25 5.449-2.554.152.327.23.657.23.989 0 2.51-4.569 4.969-10.594 4.969zM1.406 13.406c0-.334.079-.666.233-.994.889.798 2.127 1.494 3.593 2.018.263.094.44.355.44.65v2.233c-2.625-.943-4.266-2.418-4.266-3.907zm8.4 4.81c.055-.187.085-.386.085-.591v-1.452c0-.405.338-.721.748-.697.448.026.906.04 1.361.04.388 0 .703.315.703.703v2.098a21.76 21.76 0 01-2.897-.1zm11.087-2.2c-1.015.732-2.376 1.322-3.971 1.726v-2.228c0-.316.213-.594.519-.677 2.044-.556 3.738-1.439 4.892-2.484.173.348.26.7.26 1.053 0 1.143-.924 2.05-1.7 2.61zm-3.821-2.536a2.113 2.113 0 00-1.556 2.034v3.518a.704.704 0 01-1.407 0v-2.813c0-1.163-.946-2.11-2.109-2.11-.427 0-.858-.012-1.279-.037a2.106 2.106 0 00-2.237 2.101v1.452a.704.704 0 01-1.406 0V15.08c0-.888-.552-1.68-1.373-1.974-1.867-.667-4.299-2.047-4.299-3.918 0-.956.662-1.748 1.217-2.245.61-.545 1.417-1.034 2.367-1.44a5.28 5.28 0 005.252 5.747h5.274a2.816 2.816 0 002.812-2.813c0-.66-.233-1.3-.656-1.805l-.034-.04-1.675-2c1.687.334 3.198.88 4.367 1.59 1.46.885 2.264 1.953 2.264 3.005 0 1.617-2.323 3.422-5.522 4.293z" fill="#26425F"/></svg>