<svg width="24" height="24" fill="none" xmlns="http://www.w3.org/2000/svg"><path d="M8.19 1.563c.447-.46.954-.813 1.584-.97 1.151-.288 2.144.01 2.993.814.129.12.216.14.38.074 1.612-.653 3.357.064 4.046 1.665.07.162.142.219.323.221 1.749.022 3.099 1.37 3.12 3.113 0 .174.046.258.214.331 1.625.711 2.324 2.426 1.661 4.068-.06.155-.036.24.08.353 1.24 1.253 1.241 3.17 0 4.421-.132.132-.132.222-.067.38.65 1.596-.06 3.332-1.647 4.028-.185.081-.24.173-.244.374a3.12 3.12 0 01-3.206 3.088c-.78-.022-1.487-.289-2.047-.849-4.69-4.685-9.374-9.376-14.054-14.072C.464 7.734.263 6.633.666 5.474c.407-1.17 1.246-1.882 2.482-2.046.456-.06.735-.174.975-.633C4.828 1.448 6.482.9 7.91 1.445c.093.036.182.076.28.118zM3.738 4.717c-.705-.019-1.224.232-1.593.763-.537.774-.415 1.666.32 2.4 4.207 4.21 8.414 8.417 12.622 12.624.445.445.876.91 1.36 1.31.78.645 1.98.428 2.543-.418.304-.459.369-.953.232-1.482-.13-.498.113-.882.588-.945 1.462-.195 2.089-1.673 1.221-2.88-.315-.44-.256-.818.205-1.076 1.253-.703 1.264-2.43 0-3.146-.175-.1-.365-.346-.37-.529-.006-.23.144-.48.278-.691.696-1.092.036-2.571-1.224-2.727-.613-.075-.82-.39-.685-.987.146-.643.02-1.223-.462-1.704-.482-.48-1.073-.61-1.733-.448-.501.12-.917-.104-.948-.576a1.772 1.772 0 00-2.88-1.24c-.454.343-.797.26-1.107-.24-.747-1.205-2.337-1.207-3.081-.004-.32.516-.644.59-1.13.233A1.77 1.77 0 005.031 4.2c-.03.434-.39.68-.825.605l-.47-.088z" fill="#5C753D"/><path d="M10.894 6.13c-1.902-.025-3.53.66-4.908 1.96-.431.406-.96.304-1.147-.22-.105-.293.009-.518.215-.723 1.034-1.025 2.252-1.752 3.66-2.095 3.409-.827 6.3.09 8.612 2.724 1.02 1.167 1.613 2.563 1.822 4.11.37 2.723-.402 5.074-2.29 7.06-.42.441-1.014.308-1.171-.247-.076-.268.036-.48.22-.673.78-.82 1.374-1.752 1.686-2.846.674-2.374.288-4.553-1.255-6.493-1.178-1.482-2.745-2.297-4.608-2.552-.27-.037-.557-.006-.836-.006z" fill="#5C753D"/></svg>