<svg width="24" height="24" fill="none" xmlns="http://www.w3.org/2000/svg"><g clip-path="url(#clip0)"><path d="M2.276 17.944c-.243-.788-.525-1.543-.708-2.32-.452-1.911-.526-3.83.142-5.713.493-1.388 1.346-2.467 2.797-2.96 1.142-.389 2.237-.243 3.284.34.06.033.121.073.182.105.014.007.037-.004.092-.011 0-.344.01-.694-.01-1.042-.004-.06-.137-.145-.22-.158-.904-.132-1.77-.369-2.524-.915-.897-.65-1.367-1.57-1.592-2.62a9.105 9.105 0 01-.172-1.497c-.022-.477.268-.788.727-.78C5.48.39 6.638.61 7.64 1.338c.646.469 1.075 1.104 1.35 1.813.39-.233.756-.508 1.166-.68.364-.153.77-.224 1.166-.276a.699.699 0 01.804.638c.027.37-.273.66-.717.688-1.32.079-2.072 1.184-2.013 2.138.035.573.006 1.152.006 1.752a.98.98 0 00.148-.055c2-1.154 4.242-.645 5.54 1.269.613.9.915 1.914 1.039 2.984a11.544 11.544 0 01-.295 4.225.717.717 0 000 .148c.981.236 1.808.735 2.417 1.593.735-.334 1.46-.671 2.193-.994 1.273-.56 2.673.102 3.048 1.426a2.103 2.103 0 01-.166 1.579c-.074.146-.064.242.004.38a2.202 2.202 0 01-1.569 3.165c-.47.085-.955.017-1.384-.193-.635-.303-1.28-.584-1.918-.877-.127-.061-.213-.086-.328.06-.94 1.181-2.19 1.593-3.664 1.499-2.145-.137-4.23-.636-6.34-.994-1.87-.318-3.739-.654-5.606-.993-.546-.1-1.126-.12-1.576-.528-.542-.492-.743-1.098-.551-1.8.181-.666.637-1.078 1.31-1.241.2-.05.405-.086.573-.12zm1.454-.247l2.386-.424c1.533-.275 3.062-.565 4.598-.82a99.6 99.6 0 013.521-.502c.195-.024.219-.126.255-.263.332-1.269.456-2.553.313-3.86-.097-.883-.327-1.72-.834-2.457-.667-.973-1.576-1.435-2.773-1.249-.502.079-.914.34-1.314.637-.495.369-1.063.509-1.654.317-.335-.11-.65-.312-.944-.515-1.043-.721-2.383-.64-3.307.22-.903.839-1.219 1.939-1.36 3.107-.143 1.168-.02 2.313.242 3.449.177.824.471 1.62.874 2.36H3.73zm8.4-.14c-.896.157-1.746.303-2.594.463-.06.01-.126.14-.132.22-.02.21.005.424-.011.635-.032.409-.33.666-.728.644-.363-.02-.598-.286-.606-.69v-.527c-.113.008-.193.006-.27.02-.74.134-1.48.273-2.222.404-1.166.207-2.334.408-3.501.615-.23.041-.408.177-.41.416-.002.24.156.39.415.434.663.11 1.324.236 1.987.356l1.706.31c0-.155-.008-.275 0-.393.028-.397.347-.7.707-.68.38.023.619.292.625.712.003.19 0 .38 0 .596l2.78.5c0-.346-.009-.657 0-.97a.639.639 0 01.86-.568c.348.126.47.356.472.88 0 .281-.097.652.045.82.148.178.524.182.806.227.613.103 1.228.186 1.88.283 0-.393-.01-.744 0-1.095.014-.432.302-.704.71-.69.38.013.618.28.622.703v1.053c.037.01.074.016.113.02 1.074-.078 2.104-1.117 2.181-2.205.096-1.29-.693-2.5-1.878-2.696-.685-.114-1.403-.025-2.106-.011-.046 0-.122.14-.127.216-.012.424 0 .848-.008 1.272a.823.823 0 01-.073.348c-.14.275-.435.396-.745.33-.279-.061-.502-.337-.512-.67.008-.41.017-.823.017-1.282h-.003zM7.984 4.84c.121-1.572-1.633-3.307-3.051-3.045.195 1.896 1.16 2.833 3.051 3.045zm10.84 13.94l.13.92c.878-.087 1.74-.15 2.594-.266.485-.066.777-.587.654-1.044-.137-.504-.62-.812-1.08-.626-.777.313-1.538.674-2.298 1.014v.001zM19.48 21l-.013.06c.53.238 1.053.485 1.59.708.346.142.674.063.938-.21.243-.249.294-.575.17-.848L19.48 21z" fill="#295826"/></g><defs><clipPath id="clip0"><path fill="#fff" transform="translate(.008)" d="M0 0h23.818v24H0z"/></clipPath></defs></svg>