<svg width="24" height="24" fill="none" xmlns="http://www.w3.org/2000/svg"><g clip-path="url(#clip0)" fill="#602727"><path d="M22.803 5.068a8.634 8.634 0 00-5.304-4.014 8.633 8.633 0 00-6.59.911c-3.09 1.812-6.367 5.332-8.55 9.186C-.027 15.364-.638 19.07.683 21.324a3.83 3.83 0 002.352 1.781 3.832 3.832 0 002.923-.404c.543-.319 1.16-1.077 1.279-1.226a.675.675 0 00.034-.046c1.58-2.357 5.201-2.985 8.54-3.288a8.718 8.718 0 003.888-1.18 8.633 8.633 0 004.015-5.304 8.634 8.634 0 00-.911-6.589zm-.451 6.234a7.236 7.236 0 01-3.364 4.445 7.204 7.204 0 01-3.293.991c-3.66.331-7.66 1.052-9.577 3.882-.23.287-.642.732-.872.866a2.432 2.432 0 01-1.856.257 2.431 2.431 0 01-1.493-1.13c-1.044-1.782-.414-5.06 1.687-8.769 2.067-3.65 5.147-6.97 8.038-8.665a7.236 7.236 0 015.521-.764 7.236 7.236 0 014.445 3.365 7.235 7.235 0 01.764 5.522z"/><path d="M20.434 6.457a5.905 5.905 0 00-3.629-2.744 5.905 5.905 0 00-4.507.62c-2.658 1.558-5.621 4.765-7.55 8.17-.943 1.666-1.586 3.275-1.86 4.653-.139.697-.302 1.986.163 2.78a1.108 1.108 0 001.34.48.705.705 0 00.242-.15 5.709 5.709 0 00.431-.474c.644-.924 1.514-1.711 2.586-2.34 2.366-1.386 5.334-1.812 7.924-2.047l.07-.005a5.952 5.952 0 004.79-8.944zm-2.835 6.92a4.483 4.483 0 01-2.035.618l-.047.003-.022.001-.047.004c-2.746.249-5.905.708-8.51 2.235-1.119.656-2.054 1.467-2.783 2.415a5.265 5.265 0 01.114-1.223c.245-1.233.834-2.696 1.704-4.233 1.815-3.205 4.577-6.207 7.037-7.65a4.502 4.502 0 013.44-.473 4.507 4.507 0 012.77 2.094 4.543 4.543 0 01-1.62 6.21z"/><path d="M16.883 8.326a2.024 2.024 0 00-2.766-.722 2.024 2.024 0 00.511 3.7 2.01 2.01 0 001.533-.212c.466-.273.798-.711.934-1.234a2.008 2.008 0 00-.212-1.532zm-1.15 1.177a.61.61 0 01-.75.44.615.615 0 11.75-.44z"/></g><defs><clipPath id="clip0"><path fill="#fff" d="M0 0h24v24H0z"/></clipPath></defs></svg>