<svg width="24" height="24" fill="none" xmlns="http://www.w3.org/2000/svg"><g clip-path="url(#clip0)"><path d="M18.9 13.631a.702.702 0 00-.52-.232h-1.828v-3.048a5.62 5.62 0 00-.597-2.511l-1.94-3.862a1.92 1.92 0 00.842-1.588v-.47c0-1.058-.862-1.92-1.92-1.92H8.532c-1.059 0-1.92.862-1.92 1.92v.47c0 .66.334 1.242.842 1.588L5.515 7.84a5.622 5.622 0 00-.598 2.51v9.46c0 2.31 1.948 4.19 4.342 4.19l8.184-.02c.36 0 .662-.272.699-.63l.936-9.177a.703.703 0 00-.177-.542zm-1.485 2.999a4.236 4.236 0 00-1.093.25c-.32.11-.572.197-1.137.197a2.92 2.92 0 01-1.138-.197 4.301 4.301 0 00-.98-.238l-.187-1.838h4.72l-.186 1.826zM12.609 4.31l1.339 2.666c-.626-.007-.92-.141-1.288-.31-.448-.206-.956-.439-1.925-.439-.97 0-1.478.233-1.926.439-.368.169-.662.303-1.288.31l1.34-2.666h3.748zM8.018 1.92c0-.284.231-.515.515-.515h4.403c.284 0 .516.231.516.515v.47a.516.516 0 01-.516.515H8.533a.516.516 0 01-.515-.515v-.47zm1.24 20.675c-1.619 0-2.936-1.25-2.936-2.785v-9.46c0-.646.155-1.296.448-1.88l.064-.127c.199.026.408.039.635.039.97 0 1.478-.234 1.926-.44.378-.173.677-.31 1.34-.31s.961.137 1.34.31c.447.206.955.44 1.925.44.227 0 .437-.013.635-.039l.064.128a4.21 4.21 0 01.449 1.88v3.048h-3.046a.702.702 0 00-.7.774l.86 8.42-.051.002H9.259zm4.415-.02l-.458-4.482c.13.032.248.073.376.116.372.128.794.273 1.594.273s1.221-.145 1.593-.273c.164-.056.31-.106.49-.141l-.46 4.507h-3.135z" fill="#1C4B54"/></g><defs><clipPath id="clip0"><path fill="#fff" d="M0 0h24v24H0z"/></clipPath></defs></svg>