<svg width="25" height="26" fill="none" xmlns="http://www.w3.org/2000/svg"><g clip-path="url(#clip0)"><path d="M19.317 9.384l-1.25-7.923a.748.748 0 00-.74-.632H7.673a.748.748 0 00-.739.632l-1.25 7.923a6.893 6.893 0 001.57 5.56 6.892 6.892 0 004.5 2.378v7.012H8.456a.748.748 0 100 1.495h8.086a.748.748 0 000-1.495h-3.295v-7.012a6.892 6.892 0 004.5-2.378 6.893 6.893 0 001.57-5.56zM8.311 2.325h8.378l.645 4.084H7.666l.645-4.084zm8.3 11.647a5.4 5.4 0 01-4.111 1.895 5.4 5.4 0 01-4.11-1.895 5.4 5.4 0 01-1.23-4.355l.27-1.712h10.14l.27 1.712a5.4 5.4 0 01-1.23 4.355z" fill="#4A3888"/></g><defs><clipPath id="clip0"><path fill="#fff" transform="translate(0 .83)" d="M0 0h25v25H0z"/></clipPath></defs></svg>