<svg width="60" height="60" fill="none" xmlns="http://www.w3.org/2000/svg"><path d="M17.11 16.033v5.625c0 .647.524 1.172 1.171 1.172H41.72c.647 0 1.172-.525 1.172-1.172v-5.625c0-.647-.525-1.172-1.172-1.172H18.28c-.647 0-1.172.525-1.172 1.172zm2.343 1.172h21.094v3.281H19.453v-3.28zm-6.269 10.547c0 .647.524 1.172 1.171 1.172h31.29a1.172 1.172 0 000-2.344h-31.29c-.647 0-1.171.525-1.171 1.172zm2.285 9.492c-.308 0-.61.126-.829.344a1.18 1.18 0 00-.343.828c0 .309.125.61.343.829.218.218.52.343.829.343.308 0 .61-.125.828-.343a1.18 1.18 0 00.344-.829c0-.31-.126-.61-.344-.828a1.18 1.18 0 00-.828-.344zm12.828-2.975l-2.293 2.303a.583.583 0 01-.83 0l-.284-.284a2.91 2.91 0 00-2.072-.86 2.91 2.91 0 00-2.072.858l-1.301 1.301a1.172 1.172 0 001.657 1.658l1.301-1.302a.583.583 0 01.829 0l.284.285a2.91 2.91 0 002.073.86h.002a2.91 2.91 0 002.074-.863l2.293-2.302a1.172 1.172 0 00-1.66-1.654zm1.719-22.689c.308 0 .609-.125.828-.343a1.18 1.18 0 00.343-.829c0-.308-.125-.61-.343-.828a1.18 1.18 0 00-.828-.343 1.176 1.176 0 00-1.172 1.171c0 .309.125.611.343.829.218.218.52.343.829.343z" fill="#E97F54"/><path d="M58.828 4.08H1.172C.525 4.08 0 4.605 0 5.252v45c0 .647.525 1.172 1.172 1.172h35.625v3.324a1.172 1.172 0 002.007.822l2.915-2.96 2.915 2.96a1.172 1.172 0 002.007-.822v-3.324h12.187c.647 0 1.172-.525 1.172-1.172v-45c0-.647-.525-1.172-1.172-1.172zm-17.11 39.844a4.81 4.81 0 01-4.804-4.805 4.81 4.81 0 014.805-4.804 4.81 4.81 0 014.804 4.804 4.81 4.81 0 01-4.804 4.805zm2.579 7.963l-1.743-1.77a1.172 1.172 0 00-1.67 0l-1.743 1.77v-6.102a7.111 7.111 0 005.156 0v6.102zm13.36-2.807H46.64v-2.812h7.03c.648 0 1.173-.525 1.173-1.172V10.408c0-.647-.525-1.172-1.172-1.172H35.288a1.172 1.172 0 000 2.344H52.5v32.344h-5.493a7.12 7.12 0 001.86-4.805 7.156 7.156 0 00-7.148-7.148c-3.942 0-7.149 3.206-7.149 7.148a7.12 7.12 0 001.86 4.805H7.5V11.58h17.241a1.172 1.172 0 000-2.344H6.328c-.647 0-1.172.525-1.172 1.172v34.688c0 .647.525 1.172 1.172 1.172h30.469v2.812H2.344V6.424h55.312V49.08z" fill="#E97F54"/></svg>