<svg width="60" height="60" fill="none" xmlns="http://www.w3.org/2000/svg"><path d="M21.563 18.75v-1.875c-4.136 0-7.5 3.365-7.5 7.5h1.874a5.63 5.63 0 015.626-5.625z" fill="#C69C72"/><path d="M56.25.938h-22.5a2.816 2.816 0 00-2.813 2.812v2.334a5.56 5.56 0 00-4.572.364c-.995-1.65-2.798-2.698-4.85-2.698a5.552 5.552 0 00-4.756 2.7 5.546 5.546 0 00-5.468.04l-.082.047a5.553 5.553 0 00-2.77 4.715 5.552 5.552 0 00-4.715 2.77l-.047.082a5.553 5.553 0 00-.04 5.467 5.552 5.552 0 00-2.7 4.756v.095a5.552 5.552 0 002.7 4.757 5.55 5.55 0 00.04 5.467l.047.083a5.555 5.555 0 004.715 2.77c.01.573.12 1.132.296 1.665L.815 52.09l8.815-2.204 2.198 8.792 8.289-13.871c.476.126.976.193 1.492.193.482 0 .953-.065 1.404-.183l8.283 13.862 2.199-8.792 8.815 2.204-7.92-12.926a5.569 5.569 0 00.295-1.666 5.55 5.55 0 004.715-2.77l.048-.082a5.548 5.548 0 00.04-5.467 5.566 5.566 0 002.613-3.867H56.25a2.816 2.816 0 002.812-2.812V3.75A2.816 2.816 0 0056.25.937zm-10.313 3.75v1.875h-1.875V4.688h-1.875v1.875h-1.875v-3.75h9.375v3.75h-1.875V4.688h-1.875zm-15 13.482c-2.016-3.037-5.463-5.045-9.375-5.045-6.203 0-11.25 5.047-11.25 11.25s5.047 11.25 11.25 11.25c5.95 0 10.822-4.644 11.212-10.497.305.113.632.184.976.184h.89c-.484 6.8-6.157 12.188-13.078 12.188-7.237 0-13.125-5.887-13.125-13.125S14.325 11.25 21.562 11.25a13.16 13.16 0 019.375 3.96v2.96zm0 6.205c0 5.17-4.205 9.375-9.375 9.375s-9.375-4.206-9.375-9.375c0-5.17 4.206-9.375 9.375-9.375 5.17 0 9.375 4.206 9.375 9.375zm-18.39 29.446l-1.552-6.208-6.185 1.546 4.984-8.133c.397.462.867.87 1.415 1.187l.083.048a5.557 5.557 0 005.468.04 5.516 5.516 0 001.645 1.718l-5.859 9.802zm25.767-4.661l-6.184-1.546-1.552 6.208-5.854-9.795a5.573 5.573 0 001.642-1.725 5.555 5.555 0 005.468-.04l.082-.048a5.498 5.498 0 001.416-1.187l4.982 8.133zm-.531-21.248l-1.337.45.933 1.059a3.691 3.691 0 01.445 4.287l-.048.082a3.684 3.684 0 01-3.935 1.758l-1.383-.278.278 1.383a3.691 3.691 0 01-1.757 3.935l-.083.048a3.693 3.693 0 01-4.287-.445l-1.059-.933-.45 1.337c-.51 1.514-1.912 2.53-3.585 2.53a3.69 3.69 0 01-3.49-2.53l-.45-1.336-1.06.933a3.688 3.688 0 01-4.287.445l-.082-.048a3.691 3.691 0 01-1.758-3.936l.279-1.382-1.383.278a3.687 3.687 0 01-3.936-1.758L5.3 33.71a3.69 3.69 0 01.446-4.287l.933-1.059-1.337-.45a3.692 3.692 0 01-2.53-3.491v-.095a3.69 3.69 0 012.53-3.49l1.337-.45-.933-1.059a3.693 3.693 0 01-.446-4.287l.048-.082a3.691 3.691 0 013.936-1.76l1.383.278-.279-1.382a3.689 3.689 0 011.758-3.936l.082-.048a3.688 3.688 0 014.288.445l1.058.933.45-1.337c.51-1.513 1.913-2.529 3.585-2.529a3.69 3.69 0 013.491 2.53l.45 1.336 1.059-.933a3.695 3.695 0 014.287-.445l.041.024v4.556c-2.645-2.118-5.954-3.318-9.375-3.318-8.27 0-15 6.73-15 15s6.73 15 15 15c7.955 0 14.465-6.229 14.952-14.063h3.676a3.693 3.693 0 01-2.407 2.6zM57.187 22.5c0 .517-.42.938-.937.938h-22.5a.938.938 0 01-.938-.938V3.75c0-.518.42-.938.938-.938h4.687v5.626h13.125V2.811h4.688c.517 0 .937.42.937.938V22.5z" fill="#C69C72"/><path d="M49.688 19.688h1.874v1.875h-1.874v-1.875zm3.75 0h1.874v1.875h-1.874v-1.875zm-7.5 0h1.874v1.875h-1.874v-1.875zm0-3.75h9.374v1.874h-9.374v-1.875zm-26.25 12.736l-2.15-2.15-1.326 1.326 3.476 3.476 9.1-9.1-1.326-1.326-7.774 7.774z" fill="#C69C72"/></svg>