<svg width="18" height="18" fill="none" xmlns="http://www.w3.org/2000/svg"><g clip-path="url(#clip0)"><path fill-rule="evenodd" clip-rule="evenodd" d="M9 1.978a7.022 7.022 0 100 14.044A7.022 7.022 0 009 1.978zm-6.364.658a9 9 0 1112.728 12.728A9 9 0 012.636 2.636zM9 4.451c.546 0 .989.442.989.989v3.15l2.38 2.381a.99.99 0 01-1.398 1.399L8.301 9.7a.989.989 0 01-.29-.7V5.44A.99.99 0 019 4.45z" fill="#E97F54"/></g><defs><clipPath id="clip0"><path fill="#fff" d="M0 0h18v18H0z"/></clipPath></defs></svg>