<svg width="100" height="100" fill="none" xmlns="http://www.w3.org/2000/svg"><path d="M85.355 14.645C75.911 5.2 63.355 0 50 0 36.645 0 24.088 5.2 14.645 14.645 5.2 24.089 0 36.645 0 50c0 13.355 5.2 25.912 14.645 35.355C24.089 94.8 36.645 100 50 100c13.355 0 25.912-5.2 35.355-14.645C94.8 75.911 100 63.355 100 50c0-13.355-5.2-25.912-14.645-35.355zM50 96.094C24.584 96.094 3.906 75.416 3.906 50S24.584 3.906 50 3.906 96.094 24.584 96.094 50 75.416 96.094 50 96.094z" fill="#B7D041"/><path d="M79.07 20.929C65.095 6.95 43.124 4.89 26.83 16.029a1.953 1.953 0 002.204 3.224c14.743-10.078 34.625-8.212 47.274 4.438C83.337 30.718 87.206 40.06 87.206 50c0 9.938-3.87 19.281-10.897 26.309-7.028 7.027-16.371 10.897-26.31 10.897-9.938 0-19.282-3.87-26.309-10.897-12.519-12.52-14.474-32.27-4.649-46.962a1.953 1.953 0 00-3.247-2.17C4.936 43.413 7.095 65.238 20.928 79.071c7.765 7.765 18.09 12.041 29.071 12.041 10.982 0 21.307-4.276 29.072-12.041C86.836 71.306 91.113 60.982 91.113 50S86.836 28.694 79.07 20.93z" fill="#B7D041"/><path d="M22.19 24.383c.502 0 1.004-.192 1.386-.577l.041-.041.012-.012a1.946 1.946 0 00-.003-2.757A1.96 1.96 0 0020.86 21l-.056.055a1.953 1.953 0 001.387 3.33zM81.835 51.99a1.953 1.953 0 100-3.907h-2.759a1.953 1.953 0 100 3.906h2.759zm-63.671-3.98a1.953 1.953 0 100 3.907h2.759a1.953 1.953 0 100-3.906h-2.759zM48.01 79.077v2.759a1.953 1.953 0 103.906 0v-2.759a1.953 1.953 0 10-3.906 0zm3.906-58.082v-2.758a1.953 1.953 0 10-3.906 0v2.758a1.953 1.953 0 103.906 0zm24.776 39.939a28.904 28.904 0 01-9.234 12.036 1.953 1.953 0 002.362 3.112 32.82 32.82 0 0010.487-13.667 1.953 1.953 0 10-3.615-1.48zM61.931 80.347c.252 0 .509-.05.756-.153l.165-.07a1.953 1.953 0 00-1.529-3.595l-.15.064a1.953 1.953 0 00.758 3.754zm-33.675-8.639c.381.382.88.572 1.38.572.5 0 1-.19 1.382-.572l15.28-15.28a7.366 7.366 0 003.702.994c4.092 0 7.422-3.33 7.422-7.422s-3.33-7.422-7.422-7.422a7.374 7.374 0 00-3.68.98l-7.732-7.732a1.953 1.953 0 00-2.762 2.762l7.732 7.733a7.374 7.374 0 00-.98 3.679c0 1.329.353 2.576.967 3.656l-15.29 15.29c-.762.763-.762 2 0 2.762zM53.516 50A3.52 3.52 0 0150 53.516 3.52 3.52 0 0146.484 50 3.52 3.52 0 0150 46.484 3.52 3.52 0 0153.516 50z" fill="#B7D041"/></svg>