<svg width="60" height="60" fill="none" xmlns="http://www.w3.org/2000/svg"><path d="M34.505 42.258a3.755 3.755 0 00-3.448-5.226h-5.376l1.791-3.013a3.722 3.722 0 00.368-2.952 3.721 3.721 0 00-1.917-2.273 3.73 3.73 0 00-3.316.018 27.995 27.995 0 00-7.922 6.007 1.171 1.171 0 00-1.023-.6H3.35c-.647 0-1.172.524-1.172 1.172v6.445a1.172 1.172 0 002.343 0v-5.273h7.97v21.093H4.52v-5.273a1.172 1.172 0 00-2.343 0v6.445c0 .647.525 1.172 1.172 1.172h10.312c.647 0 1.172-.525 1.172-1.172v-.042A9.401 9.401 0 0019.428 60h10.816a3.752 3.752 0 003.748-3.748c0-.497-.098-.97-.274-1.405h.073a3.755 3.755 0 003.751-3.75c0-.998-.393-1.906-1.031-2.579a3.737 3.737 0 001.031-2.579 3.756 3.756 0 00-3.037-3.681zm-.714 10.245h-7.646a1.172 1.172 0 000 2.344h4.099c.774 0 1.404.63 1.404 1.405 0 .774-.63 1.404-1.404 1.404H19.428a7.059 7.059 0 01-4.594-1.719V38.292l.08-.105a25.618 25.618 0 018.752-7.284 1.372 1.372 0 011.221-.006c.346.17.597.467.706.837.11.37.062.755-.135 1.087l-2.844 4.783a1.172 1.172 0 001.008 1.771h7.435c.776 0 1.407.631 1.407 1.407s-.631 1.407-1.407 1.407h-4.912a1.172 1.172 0 000 2.343h7.646c.776 0 1.407.632 1.407 1.407 0 .776-.631 1.407-1.407 1.407h-7.646a1.172 1.172 0 000 2.344h7.646c.776 0 1.407.631 1.407 1.407 0 .775-.63 1.407-1.407 1.407zM40.505 14.5l-5.028-.73-2.248-4.556a1.172 1.172 0 00-2.102 0l-2.249 4.556-5.028.73a1.172 1.172 0 00-.65 2l3.639 3.546-.859 5.008a1.171 1.171 0 001.7 1.235l4.498-2.365 4.497 2.365a1.17 1.17 0 001.234-.09c.36-.262.541-.706.466-1.146l-.859-5.007 3.639-3.547a1.172 1.172 0 00-.65-1.999zm-5.066 4.297c-.276.27-.402.657-.337 1.038l.562 3.274-2.941-1.546a1.172 1.172 0 00-1.09 0l-2.941 1.546.561-3.274a1.173 1.173 0 00-.337-1.038l-2.379-2.319 3.288-.477c.382-.056.712-.296.882-.641l1.47-2.98 1.471 2.98c.17.346.5.585.883.64l3.287.478-2.379 2.32zm22.325-1.498a1.172 1.172 0 00-.946-.798l-3.852-.56-1.723-3.49a1.172 1.172 0 00-2.101 0l-1.723 3.49-3.852.56a1.172 1.172 0 00-.65 1.999l2.788 2.717-.658 3.836a1.172 1.172 0 001.7 1.236l3.446-1.812 3.445 1.812a1.17 1.17 0 001.7-1.236l-.658-3.836 2.788-2.717a1.17 1.17 0 00.296-1.201zm-5.16 2.67a1.17 1.17 0 00-.338 1.037l.36 2.103-1.888-.993a1.17 1.17 0 00-1.09 0l-1.89.993.361-2.103a1.173 1.173 0 00-.337-1.038l-1.528-1.49 2.112-.306c.381-.056.711-.295.882-.641l.945-1.914.944 1.914c.17.346.5.585.883.641l2.111.307-1.528 1.49zm-42.93 1.248l-.658 3.836a1.172 1.172 0 001.7 1.236l3.446-1.812 3.446 1.812a1.171 1.171 0 001.7-1.236l-.658-3.836 2.788-2.717a1.172 1.172 0 00-.65-2l-3.852-.559-1.723-3.49a1.172 1.172 0 00-2.102 0l-1.722 3.49-3.852.56a1.172 1.172 0 00-.65 1.999l2.787 2.717zm2.661-3.045c.382-.056.712-.295.883-.641l.944-1.914.945 1.914c.17.346.5.585.882.641l2.112.307-1.528 1.49a1.172 1.172 0 00-.337 1.037l.36 2.103-1.888-.993a1.17 1.17 0 00-1.091 0l-1.889.993.36-2.103a1.173 1.173 0 00-.336-1.038l-1.529-1.49 2.112-.306zM32.167 5.803c.647 0 1.172-.525 1.172-1.172v-3.46a1.172 1.172 0 00-2.344 0v3.46c0 .647.525 1.172 1.172 1.172zM23.52 8.329a1.169 1.169 0 001.658 0c.458-.458.458-1.2 0-1.658l-2.03-2.03A1.172 1.172 0 0021.491 6.3l2.03 2.03zm16.486.343c.3 0 .6-.115.829-.343l2.03-2.03a1.172 1.172 0 10-1.658-1.658l-2.03 2.03a1.172 1.172 0 00.829 2.001z" fill="#E97F54"/><path d="M4.178 47.938a1.18 1.18 0 00.343-.829c0-.308-.125-.61-.343-.828a1.183 1.183 0 00-.828-.343c-.309 0-.61.125-.83.343a1.18 1.18 0 00-.342.828c0 .309.124.61.342.829.22.218.52.343.83.343.308 0 .61-.125.828-.343z" fill="#E97F54"/></svg>