<svg width="60" height="60" fill="none" xmlns="http://www.w3.org/2000/svg"><path d="M46.875 45.938a2.816 2.816 0 00-2.813 2.812 2.816 2.816 0 002.813 2.813 2.816 2.816 0 002.813-2.813 2.816 2.816 0 00-2.813-2.813zm0 3.75a.938.938 0 110-1.876.938.938 0 010 1.876zm-30-3.75a2.816 2.816 0 00-2.813 2.812 2.816 2.816 0 002.813 2.813 2.816 2.816 0 002.813-2.813 2.816 2.816 0 00-2.813-2.813zm0 3.75a.938.938 0 110-1.876.938.938 0 010 1.876z" fill="#517159"/><path d="M56.471 33.75l-1.25-.625-1.274-7.645a4.673 4.673 0 00-4.624-3.918h-9.948c-1.525 0-2.87.744-3.726 1.875h-2.837v-9.375h-5.624V4.688H14.063v9.375H8.436v9.374H2.814v9.375a1.877 1.877 0 00-1.876 1.876v1.874c0 1.035.841 1.876 1.875 1.876v8.437a2.816 2.816 0 002.813 2.813h4.762c.458 3.174 3.189 5.624 6.488 5.624 3.3 0 6.03-2.45 6.488-5.624h17.025c.457 3.174 3.188 5.624 6.487 5.624 3.3 0 6.03-2.45 6.487-5.624h2.888a2.816 2.816 0 002.813-2.813v-8.932a4.663 4.663 0 00-2.592-4.193zm.717 8.796l-1.876-.938v-1.295h1.876v2.233zm-37.5-17.233h1.875v1.875h-1.875v-1.875zm3.75 3.75v-3.75h1.875v7.5h-9.375v-7.5h1.874v3.75h5.625zm11.25 3.75h-7.5v-7.5h1.875v3.75h5.625v3.75zm0-6.563v.938h-3.75v-1.875h3.844a4.681 4.681 0 00-.094.937zm-3.75-2.813h-9.375v-7.5h1.875v3.75h5.625v-3.75h1.875v7.5zm-5.625-7.5h1.875v1.876h-1.875v-1.875zm-5.625-9.374h1.875v1.875h-1.875V6.562zm-3.75 0h1.874v3.75h5.625v-3.75h1.875v7.5h-9.375v-7.5zm-1.876 9.375h1.876v1.874h-1.876v-1.875zm-3.75 0h1.876v3.75h5.624v-3.75h1.875v7.5h-9.374v-7.5zm-1.874 9.374h1.874v1.875H8.438v-1.875zm-3.75 0h1.875v3.75h5.625v-3.75h1.874v7.5H4.688v-7.5zm-1.875 9.375h31.875v1.876H2.811v-1.876zm1.874 7.5h3.487l-.469 1.876H4.687v-1.876zm0 4.688v-.938H9.17l1.406-5.624H4.687v-1.876h30v9.376H23.364c-.458-3.175-3.189-5.626-6.488-5.626-3.3 0-6.03 2.451-6.488 5.626H5.625a.938.938 0 01-.938-.938zm12.188 6.563a4.693 4.693 0 01-4.688-4.688 4.693 4.693 0 014.688-4.688 4.693 4.693 0 014.688 4.688 4.693 4.693 0 01-4.688 4.688zm29.063-20.626h3.75v1.876h-1.876a1.877 1.877 0 01-1.874-1.876zm0-1.874c-1.035 0-1.876.84-1.876 1.875 0 .686.2 1.32.522 1.874h-4.272v-7.5h8.481l.702 3.75h-3.557zm-5.626 5.625h9.377v6.267a6.52 6.52 0 00-2.813-.642c-3.3 0-6.03 2.45-6.487 5.624h-.075v-11.25zm6.563 16.874a4.693 4.693 0 01-4.688-4.687 4.693 4.693 0 014.688-4.688 4.693 4.693 0 014.688 4.688 4.693 4.693 0 01-4.688 4.688zm9.375-5.624h-2.888a6.54 6.54 0 00-1.8-3.646V31.875l-.925-5.03a1.876 1.876 0 00-1.843-1.532h-8.481c-1.035 0-1.876.84-1.876 1.875v20.625h-1.874V26.25a2.816 2.816 0 012.812-2.813h9.948c1.38 0 2.547.99 2.774 2.35l1.431 8.588 2.104 1.052a2.798 2.798 0 011.556 2.516v.495h-3.75v4.329l3.75 1.875v2.233c0 .517-.42.938-.938.938z" fill="#517159"/></svg>