<svg width="18" height="18" fill="none" xmlns="http://www.w3.org/2000/svg"><g clip-path="url(#clip0)"><path d="M17.317-.04H.683c-.4 0-.723.323-.723.723v16.634c0 .4.323.723.723.723h16.634c.4 0 .723-.323.723-.723V.683c0-.4-.323-.723-.723-.723zm-2.088 5.277h-1.445c-1.132 0-1.351.538-1.351 1.329v1.742h2.703l-.353 2.728h-2.35v7.004H9.615v-7H7.257V8.31h2.358V6.296c0-2.335 1.426-3.607 3.51-3.607.998 0 1.855.074 2.106.108v2.439h-.002z" fill="#B7D041"/></g><defs><clipPath id="clip0"><path fill="#fff" d="M0 0h18v18H0z"/></clipPath></defs></svg>