<svg width="100" height="100" fill="none" xmlns="http://www.w3.org/2000/svg"><path d="M92.188 81.25a1.562 1.562 0 001.562-1.563V26.563a1.562 1.562 0 00-2.43-1.3l-.809.539a11.683 11.683 0 00-3.281-6.691 8.03 8.03 0 011.147-.253l.892-.122a1.562 1.562 0 10-.422-3.097l-.894.122a11.2 11.2 0 00-3.678 1.18 11.503 11.503 0 00-8.962-.732 6.186 6.186 0 001.25-3.709 6.25 6.25 0 00-6.25-6.25c-.489 0-.975.06-1.449.178a7.783 7.783 0 00-12.728 0 5.968 5.968 0 00-1.448-.178 6.25 6.25 0 00-6.25 6.25c0 .488.06.975.178 1.448A7.749 7.749 0 0046.903 25a7.94 7.94 0 00-.607.948L38.75 12.866l-1.562-2.71a14.063 14.063 0 00-19.219-5.145 7.822 7.822 0 00-2.86 10.672l1.787 3.092a1.562 1.562 0 002.706-1.563l-1.79-3.092a4.687 4.687 0 011.72-6.406 10.938 10.938 0 0114.94 4.005l.781 1.351-5.41 3.125a1.563 1.563 0 101.562 2.708l5.413-3.125 2.343 4.063-5.412 3.125a1.562 1.562 0 00.457 2.875l-6.948 4.628-4.794-8.302a1.563 1.563 0 10-2.707 1.563l2.5 4.332-4.205-2.803a1.563 1.563 0 00-2.427 1.303v7.813a1.563 1.563 0 103.125 0v-4.892l6.946 4.63a1.562 1.562 0 001.734 0l8.508-5.675 8.508 5.671a1.562 1.562 0 001.734 0l8.508-5.672 8.508 5.672a1.562 1.562 0 001.734 0l6.945-4.628V93.75H51.563a1.562 1.562 0 100 3.125h40.625a1.562 1.562 0 001.562-1.563v-9.374a1.562 1.562 0 00-3.125 0v5.603l-6.25-6.25v-8.728a1.562 1.562 0 00-3.125 0v8.728L75 91.54V29.48l6.25 4.167v19.477a1.563 1.563 0 103.125 0V33.648l6.25-4.165v50.205a1.563 1.563 0 001.563 1.562zM81.394 19.12a11.281 11.281 0 00-1.483 1.95 1.562 1.562 0 102.678 1.61 8.055 8.055 0 011.72-2.014 8.576 8.576 0 013.191 6.678c0 .167-.026.326-.037.49l-4.65 3.104-8.508-5.672a1.563 1.563 0 00-.867-.266 6.17 6.17 0 00-.853-3.125c.131-.226.249-.46.351-.7a8.556 8.556 0 018.458-2.055zm-44.589 6.142a1.537 1.537 0 00-.44-.2l4.359-2.515 4.772 8.265-.183.125-8.508-5.675zm27.258 5.675l-6.352-4.234a16.214 16.214 0 018.227-7.328 1.563 1.563 0 10-1.163-2.903 19.314 19.314 0 00-4.967 2.937 18.186 18.186 0 00-.48-5.723 1.564 1.564 0 00-2.451-.884 1.563 1.563 0 00-.58 1.643 15.038 15.038 0 01-1.26 10.61 1.55 1.55 0 00-1.216.21l-5.285 3.524a4.658 4.658 0 011.524-2.61 1.563 1.563 0 000-2.345 4.622 4.622 0 01-1.622-3.521 4.697 4.697 0 012.75-4.255 1.561 1.561 0 00.739-2.138 3.072 3.072 0 01-.364-1.42 3.124 3.124 0 014.545-2.76A1.562 1.562 0 0058.246 9a4.665 4.665 0 018.509 0 1.562 1.562 0 002.138.74 3.107 3.107 0 112.23 5.758 1.563 1.563 0 00-1.041 2.09c.15.369.229.763.23 1.162a3.084 3.084 0 01-.815 2.08 1.563 1.563 0 000 2.09 3.105 3.105 0 01-2.264 5.205c-.04 0-.206-.023-.245-.025a1.549 1.549 0 00-1.597 1.952l-1.328.886zm18.75 57.21l5.603 5.603H77.21l5.603-5.603z" fill="#B7D041"/><path d="M82.813 60.938A1.563 1.563 0 0081.25 62.5v6.25a1.563 1.563 0 003.125 0V62.5a1.563 1.563 0 00-1.563-1.563zM50.081 80.405a1.563 1.563 0 00-1.673 1.445c-.35 4.806-3.686 11.9-6.22 11.9a6.185 6.185 0 01-3.75-1.281 1.562 1.562 0 00-1.885 0 6.184 6.184 0 01-3.74 1.281c-2.813 0-6.25-8.369-6.25-12.5a6.25 6.25 0 016.25-6.25 6.184 6.184 0 013.75 1.281 1.563 1.563 0 001.884 0 6.25 6.25 0 018.367.805A1.562 1.562 0 0049.133 75a9.376 9.376 0 00-6.946-3.125 9.138 9.138 0 00-3.288.625 12.2 12.2 0 00-.555-2.188h3.843A7.822 7.822 0 0050 62.5a1.563 1.563 0 00-1.563-1.563H43.75a7.802 7.802 0 00-7.5 5.73 12.05 12.05 0 00-2.575-2.344 1.564 1.564 0 00-2.4.997 1.562 1.562 0 00.666 1.603 8.929 8.929 0 013.75 5.435 9.126 9.126 0 00-2.879-.483 9.377 9.377 0 00-1.562.14v-1.97a12.153 12.153 0 00-3.583-8.65A9.044 9.044 0 0125 54.955v-6.517a1.563 1.563 0 001.563-1.563v-6.25A1.563 1.563 0 0025 39.062H10.937a1.562 1.562 0 00-1.562 1.563v6.25a1.563 1.563 0 001.563 1.563v6.517a9.043 9.043 0 01-2.668 6.44 12.154 12.154 0 00-3.582 8.65v25.267a1.563 1.563 0 001.562 1.563h17.188a1.563 1.563 0 100-3.125H7.813v-7.813h16.364c1.335 4.991 4.414 10.938 8.636 10.938a9.201 9.201 0 004.687-1.283 9.203 9.203 0 004.688 1.283c5.343 0 8.971-9.775 9.339-14.797a1.562 1.562 0 00-1.446-1.673zM43.75 64.062h2.858a4.697 4.697 0 01-4.42 3.126H39.33a4.697 4.697 0 014.42-3.126zM12.5 42.189h10.938v3.124H12.5v-3.124zM7.813 82.811V75h14.062a1.563 1.563 0 100-3.125H7.813v-1.83a9.046 9.046 0 012.667-6.44 12.153 12.153 0 003.582-8.65v-6.517h7.813v6.517a12.147 12.147 0 003.583 8.65 9.047 9.047 0 012.667 6.44v3.099a9.376 9.376 0 00-4.688 8.106c.008.523.047 1.044.116 1.563H7.813zm56.25-40.623H50a1.563 1.563 0 000 3.124h14.063a1.563 1.563 0 000-3.124zm0 7.812h-9.376a1.563 1.563 0 000 3.125h9.376a1.563 1.563 0 000-3.125z" fill="#B7D041"/></svg>