<svg width="24" height="24" fill="none" xmlns="http://www.w3.org/2000/svg"><path d="M23.42 5.508a7.399 7.399 0 00-3.915-3.93 7.294 7.294 0 00-7.504 1.103 7.294 7.294 0 00-7.504-1.103 7.318 7.318 0 00-2.333 1.577A7.435 7.435 0 000 8.405c0 .947.189 1.933.564 2.937.314.838.764 1.708 1.339 2.586.911 1.39 2.164 2.84 3.72 4.31 2.578 2.436 5.131 4.119 5.24 4.187l.658.432c.291.19.666.19.958 0l.659-.432a42.234 42.234 0 005.24-4.187c1.555-1.47 2.808-2.92 3.719-4.31.575-.878 1.028-1.748 1.339-2.586.375-1.004.564-1.99.564-2.937a7.383 7.383 0 00-.58-2.897zM12 20.608S2.11 14.124 2.11 8.405A5.238 5.238 0 017.343 3.16a5.23 5.23 0 014.658 2.854 5.231 5.231 0 014.66-2.854 5.238 5.238 0 015.23 5.245c0 5.72-9.89 12.204-9.89 12.204z" fill="#3A4336"/></svg>