<svg width="22" height="22" fill="none" xmlns="http://www.w3.org/2000/svg"><path d="M11 1.375c-5.315 0-9.625 4.31-9.625 9.625s4.31 9.625 9.625 9.625 9.625-4.31 9.625-9.625S16.315 1.375 11 1.375zm0 17.617A7.994 7.994 0 013.008 11 7.994 7.994 0 0111 3.008 7.994 7.994 0 0118.992 11 7.994 7.994 0 0111 18.992z" fill="#B7D041"/><path d="M14.753 13.72l-3.063-2.215V6.187a.172.172 0 00-.172-.171h-1.034a.172.172 0 00-.171.171v5.917a.17.17 0 00.07.14l3.554 2.59a.174.174 0 00.24-.036l.615-.838a.171.171 0 00-.039-.24z" fill="#B7D041"/></svg>