<svg width="18" height="18" fill="none" xmlns="http://www.w3.org/2000/svg"><path d="M13.805 5.275a1.08 1.08 0 100-2.16 1.08 1.08 0 000 2.16zM9 4.378a4.621 4.621 0 100 9.243 4.621 4.621 0 000-9.243zM9 12a3 3 0 110-6 3 3 0 010 6z" fill="#8D8D8D"/><path d="M9 1.621c2.403 0 2.688.01 3.637.053a4.98 4.98 0 011.67.31 2.98 2.98 0 011.71 1.708c.198.535.302 1.1.309 1.671.043.949.052 1.234.052 3.638s-.009 2.687-.052 3.636a4.981 4.981 0 01-.31 1.67 2.98 2.98 0 01-1.708 1.71c-.535.198-1.1.302-1.671.309-.949.043-1.234.052-3.637.052s-2.688-.009-3.637-.052a4.982 4.982 0 01-1.67-.31 2.981 2.981 0 01-1.71-1.708 4.98 4.98 0 01-.309-1.671c-.043-.949-.052-1.234-.052-3.637s.008-2.688.052-3.637c.007-.57.112-1.136.31-1.67a2.981 2.981 0 011.708-1.71 4.981 4.981 0 011.671-.309c.949-.043 1.234-.052 3.637-.052zM9 0C6.556 0 6.249.01 5.289.054a6.605 6.605 0 00-2.184.418A4.602 4.602 0 00.472 3.106 6.605 6.605 0 00.054 5.29C.011 6.25 0 6.555 0 9c0 2.445.01 2.751.054 3.711.015.746.157 1.485.418 2.184a4.601 4.601 0 002.633 2.633c.7.262 1.438.403 2.185.418.96.043 1.266.054 3.71.054s2.751-.01 3.711-.054a6.606 6.606 0 002.185-.419 4.6 4.6 0 002.632-2.632c.262-.7.403-1.438.418-2.185.043-.96.054-1.265.054-3.71 0-2.445-.01-2.751-.054-3.711a6.607 6.607 0 00-.419-2.184A4.6 4.6 0 0014.896.472 6.605 6.605 0 0012.71.055C11.75.01 11.445 0 9 0z" fill="#8D8D8D"/></svg>