<svg width="100" height="100" fill="none" xmlns="http://www.w3.org/2000/svg"><path d="M87.958 22.333l2.21 2.21 6.25-6.25a1.562 1.562 0 000-2.21l-6.25-6.25-2.21 2.21 3.583 3.582H73.438v3.125H91.54l-3.583 3.583zm-9.376 14.709l2.21-2.21-3.583-3.582h18.103v-3.125H77.21l3.583-3.583-2.21-2.21-6.25 6.25a1.562 1.562 0 000 2.21l6.25 6.25z" fill="#B7D041"/><path d="M95.047 48.703a6.217 6.217 0 00-8.453-.328 6.197 6.197 0 00-5.344-3.063 5.562 5.562 0 00-2.047.36 5.997 5.997 0 00-1.969 1.156 6.25 6.25 0 00-5.359-3.078 6.17 6.17 0 00-3.125.86V18.75a6.25 6.25 0 00-6.25-6.25 6.17 6.17 0 00-3.125.86V7.812a4.702 4.702 0 00-4.688-4.688h-37.5A4.702 4.702 0 0012.5 7.813v31.25h-1.563a7.813 7.813 0 00-7.812 7.812v6.39l3.125 32.75v9.297a1.563 1.563 0 001.563 1.563h34.374a1.563 1.563 0 001.563-1.563v-8.874l5.813-8.313h3.359l1.766 4.953v12.234a1.563 1.563 0 001.562 1.563H87.5a1.563 1.563 0 001.563-1.563V83.079l7.171-20.094a10.94 10.94 0 00.641-3.672v-6.187a6.25 6.25 0 00-1.828-4.422zM40.625 93.75H9.375V87.5h31.25v6.25zm.75-9.375H9.235L6.25 53.125v-6.25a4.702 4.702 0 014.688-4.688h10.937a4.688 4.688 0 010 9.376h-7.813a1.563 1.563 0 00-1.562 1.562v20.313a4.702 4.702 0 004.688 4.687H45.75l-4.375 6.25zM17.187 75a1.563 1.563 0 01-1.562-1.563V68.75H43.75v-3.125H15.625V54.687h6.25a7.813 7.813 0 000-15.624h-6.25V7.813a1.563 1.563 0 011.563-1.563h37.5a1.563 1.563 0 011.562 1.563v32.124a6.136 6.136 0 00-3.14-.874 6.25 6.25 0 00-6.235 6.234v14.016a11.11 11.11 0 00.64 3.687l4.282 12h-34.61zM62.5 93.75h-4.688v-9.375H62.5v9.375zm7.813 0h-4.688v-9.375h4.688v9.375zm7.812 0h-4.688v-9.375h4.688v9.375zm7.813 0H81.25v-9.375h4.688v9.375zm7.812-34.438a7.928 7.928 0 01-.453 2.626l-6.89 19.312H57.343l-6.89-19.297a8.088 8.088 0 01-.454-2.64V45.297a3.125 3.125 0 016.25.016v12.5h3.125V18.75a3.148 3.148 0 013.125-3.125 3.135 3.135 0 013.125 3.125v39.063h3.125V50a3.148 3.148 0 013.125-3.125A3.135 3.135 0 0175 50v7.813h3.125v-6.25a3.1 3.1 0 01.922-2.204c.33-.348.745-.607 1.203-.75.32-.115.66-.173 1-.172a3.135 3.135 0 013.125 3.126v7.812H87.5v-6.25A3.135 3.135 0 0190.625 50a3.148 3.148 0 013.125 3.125v6.188z" fill="#B7D041"/><path d="M35.938 9.375A15.625 15.625 0 1051.562 25 15.65 15.65 0 0035.938 9.375zm0 28.125a12.5 12.5 0 1112.5-12.5 12.517 12.517 0 01-12.5 12.5z" fill="#B7D041"/><path d="M40.625 28.125a4.703 4.703 0 01-3.125 4.406v1.844h-3.125v-1.844a4.703 4.703 0 01-3.125-4.406h3.125a1.563 1.563 0 101.563-1.563 4.687 4.687 0 01-1.563-9.093v-1.844H37.5v1.844a4.703 4.703 0 013.125 4.406H37.5a1.563 1.563 0 10-1.563 1.563 4.702 4.702 0 014.688 4.687z" fill="#B7D041"/></svg>