<svg width="100" height="100" fill="none" xmlns="http://www.w3.org/2000/svg"><path d="M83.333 17.657V8.333A8.344 8.344 0 0075 0H8.333A8.344 8.344 0 000 8.333V45a8.317 8.317 0 007.473 8.248l6.265 16.262a8.335 8.335 0 0010.772 4.78l39.123-15.07a24.094 24.094 0 002.076 21.392l.958 1.531v16.19c0 .921.745 1.667 1.666 1.667h30c.921 0 1.667-.746 1.667-1.667V43.32a21.811 21.811 0 00-6.385-15.363l-10.282-10.3zm0 9.967l5.059 13.131a5 5 0 01-2.87 6.462l-2.892 1.116c.462-1.05.7-2.186.703-3.333V27.624zM3.333 45V8.333a5 5 0 015-5H75a5 5 0 015 5v10.594h-.015l.015.038V45c-.013.29-.05.58-.113.863L64.62 30.595a8.892 8.892 0 00-12.833 12.296L58.295 50H8.333a5 5 0 01-5-5zm21.352 8.333l-11.852 4.563-1.753-4.563h13.605zM23.312 71.18a5 5 0 01-6.464-2.868L14.037 61l19.895-7.667v-.01H61.35l2.166 2.362L23.312 71.18zm73.355 25.487H70V83.333h26.667v13.334zm0-16.667H69.258l-.723-1.155a20.784 20.784 0 01-.422-21.345c.36-.63.272-1.42-.218-1.953l-13.658-14.9a5.558 5.558 0 018.026-7.688l26.559 26.553 2.356-2.357-6.166-6.167 1.71-.666A8.334 8.334 0 0091.5 39.555l-5.641-14.649 5.399 5.41a18.457 18.457 0 015.409 13.003V80z" fill="#B7D041"/><path d="M19 23.333A4.333 4.333 0 0023.334 19v-8A4.333 4.333 0 0019 6.667h-8A4.333 4.333 0 006.667 11v8A4.333 4.333 0 0011 23.333h8zM10 19v-2.333h3.334v-3.334H10V11a1 1 0 011-1h8a1 1 0 011 1v2.333h-3.333v3.334H20V19a1 1 0 01-1 1h-8a1 1 0 01-1-1zm-1.667 9.333H15v3.334H8.333v-3.334zm0 10H15v3.334H8.333v-3.334zm30 0H45v3.334h-6.667v-3.334zm-20-10H25v3.334h-6.667v-3.334zm10 0H35v3.334h-6.667v-3.334zm10 0H45v3.334h-6.667v-3.334zM70 8.333h3.333v5H70v-5zm-6.667 0h3.333v5h-3.333v-5zm-6.666 0H60v5h-3.333v-5zm-6.667 0h3.333v5H50v-5zm23.333 78.334h3.333V90h-3.333v-3.333z" fill="#B7D041"/></svg>