<svg width="60" height="60" fill="none" xmlns="http://www.w3.org/2000/svg"><path d="M40.313 4.688h-1.876v1.875h-1.874v5.625h3.75v1.874h-3.75v1.876h1.874v1.874h1.876v-1.875h1.874v-5.624h-3.75V8.437h3.75V6.563h-1.874V4.688z" fill="#64748D"/><path d="M57.188.938H21.562c-1.034 0-1.875.84-1.875 1.875v8.986l-8.362 8.363A12.973 12.973 0 007.5 29.395c0 .432.022.868.065 1.3l.839 8.393-7.466 9.333v10.642h15.768l2.892-14.46c.337-.25.675-.5 1.02-.75 2.013-1.468 4.176-3.05 5.661-4.998l5.87 5.87a4.303 4.303 0 003.064 1.27 4.3 4.3 0 003.064-1.27l10.2-10.198a4.304 4.304 0 001.269-3.064c0-1.156-.45-2.245-1.27-3.063l-6.838-6.837h15.55a1.876 1.876 0 001.874-1.875V2.813c0-1.035-.84-1.876-1.874-1.876zM21.562 2.813h11.902c-2.657 1.867-4.401 4.95-4.401 8.437v.046a4.286 4.286 0 00-2.595 1.223l-4.622 4.622c-.1.042-.19.098-.284.148V2.812zM15.17 57.187H2.812V49.08l6.822-8.526 8.057 4.028-2.522 12.606zm4.343-14.85c-.29.211-.572.421-.856.63l-8.4-4.2-.826-8.259c-.036-.37-.055-.741-.055-1.113a11.11 11.11 0 013.276-7.907l7.037-7.037v4.907l-2.644 3.304a5.07 5.07 0 00-1.107 3.155c0 1.085.359 2.16 1.01 3.029l1.586 2.115c-.645.58-1.527.914-2.596.914v1.875c3.313 0 5.626-2.313 5.626-5.625v-7.763c0-.89.722-1.612 1.611-1.612.98 0 1.31.025 1.747.563.263.325.43.765.485 1.275.254 2.374.844 8.41.844 13.162 0 3.674-3.425 6.172-6.738 8.587zm.175-19.978v5.766c0 .383-.056.734-.135 1.069l-1.104-1.472a3.19 3.19 0 01-.636-1.905c0-.718.247-1.422.696-1.983l1.18-1.475zM36.951 43.4c-.92.921-2.554.922-3.476 0l-6.179-6.178c.346-.702.595-1.45.722-2.251l2.257 2.256 1.325-1.325-3.49-3.49c-.063-3.139-.322-6.587-.557-9.156l14.771 14.77-5.373 5.375zm6.699-6.7L27.256 20.305c-.103-.836-.404-1.588-.88-2.174-.553-.681-1.147-.988-1.739-1.13l1.144-1.144 19.356 19.355L43.65 36.7zm3.5-6.974c.464.464.72 1.081.72 1.738a2.48 2.48 0 01-.72 1.739l-.687.686L27.107 14.53l.686-.686c.928-.928 2.547-.928 3.475 0l15.882 15.88zM39.744 19.67l-7.15-7.15a4.304 4.304 0 00-1.657-1.019v-.25c0-4.652 3.785-8.438 8.437-8.438 4.652 0 8.438 3.786 8.438 8.438 0 4.527-3.587 8.224-8.068 8.419zm17.444.018H45.285c2.657-1.867 4.401-4.95 4.401-8.437 0-3.487-1.744-6.57-4.401-8.438h11.901v16.875z" fill="#64748D"/><path d="M53.438 8.438h1.874v-3.75h-3.75v1.875h1.876v1.875zm1.875 5.625h-1.876v1.874h-1.874v1.876h3.75v-3.75zm-30-7.5h1.875V4.688h-3.75v3.75h1.875V6.562zm10.312 36.013l4.138-4.139-4.138-4.138-4.138 4.138 4.138 4.139zm1.487-4.139l-1.487 1.487-1.487-1.487 1.487-1.486 1.487 1.486zm-7.781-7.774l1.326-1.326 3.75 3.75-1.326 1.326-3.75-3.75z" fill="#64748D"/></svg>