<svg width="100" height="100" fill="none" xmlns="http://www.w3.org/2000/svg"><g clip-path="url(#clip0)" fill="#B7D041"><path d="M33.701 76.543a1.984 1.984 0 00-.533-1 1.929 1.929 0 00-1-.533 1.926 1.926 0 00-1.129.111 1.981 1.981 0 00-.633.422c-.09.09-.172.19-.242.297a1.893 1.893 0 00-.291.703 1.93 1.93 0 00.291 1.465 1.869 1.869 0 00.54.54 1.969 1.969 0 001.083.33 1.93 1.93 0 00.746-.15 1.93 1.93 0 00.877-.72 1.929 1.929 0 00.291-.703 1.924 1.924 0 000-.762z"/><path d="M89.842 77.145a1.637 1.637 0 00-.023-.058c-1.798-4.207-6.014-5.761-11.003-4.057l-13.607 3.763c-.787-2.383-2.75-4.41-5.524-5.44a2.27 2.27 0 00-.052-.018l-14.957-5.077c-1.245-1.609-5.145-5.726-12.446-5.726-5.102 0-9.616 3.5-12.199 7.315H1.953A1.953 1.953 0 000 69.801v24.624c0 1.079.874 1.953 1.953 1.953h11.613a1.953 1.953 0 001.953-1.953v-1.686h5.446a1.953 1.953 0 001.953-1.954v-.562c3.175.277 4.219.88 7.134 2.56 2.242 1.294 5.631 3.248 11.734 5.992.029.012.057.025.086.036a17.53 17.53 0 006.284 1.184c1.965 0 4.188-.35 6.47-1.385l30.078-10.77c.053-.019.106-.04.158-.064 2.874-1.323 7.158-5.05 4.981-10.632zm-78.23 15.327H3.907V71.754h7.707v20.718zm7.4-3.64h-3.493V71.754h3.493v17.078zM83.3 84.194L53.237 94.958a2.353 2.353 0 00-.167.068c-4.187 1.924-8.166.772-9.726.166-5.895-2.653-9.041-4.467-11.34-5.793-3.196-1.843-4.736-2.73-9.086-3.09v-15.73c1.851-3.035 5.442-6.141 9.312-6.141 6.638 0 9.45 4.317 9.561 4.491.239.388.606.68 1.037.827l15.522 5.268c2.48.93 3.79 3.054 3.187 5.17a3.78 3.78 0 01-1.808 2.284c-.88.49-1.898.612-2.868.344l-17.498-5.546A1.953 1.953 0 1038.183 81l17.529 5.555.056.017a7.67 7.67 0 005.863-.681 7.66 7.66 0 003.783-5.102l14.664-4.063c2.118-.723 4.899-.984 6.136 1.867 1.282 3.347-2.048 5.188-2.914 5.601zM70.129 25.692a1.897 1.897 0 00-.113-.367 1.845 1.845 0 00-.18-.336 1.865 1.865 0 00-.54-.54 1.982 1.982 0 00-.7-.29 1.933 1.933 0 00-1.13.111 1.93 1.93 0 00-.876.719 1.977 1.977 0 00-.33 1.084 1.923 1.923 0 00.15.746 1.922 1.922 0 00.719.877 1.93 1.93 0 00.703.29 1.923 1.923 0 001.465-.29 1.87 1.87 0 00.539-.54c.072-.105.13-.218.18-.337a1.837 1.837 0 00.15-.746c0-.127-.012-.256-.037-.381z"/><path d="M98.047 6.62H86.434a1.953 1.953 0 00-1.953 1.953v1.686h-5.446a1.953 1.953 0 00-1.953 1.953v.562c-3.175-.277-4.219-.879-7.134-2.56-2.242-1.293-5.631-3.247-11.734-5.991a1.656 1.656 0 00-.086-.036c-1.987-.782-7.193-2.32-12.754.2l-7.86 2.814L30.89.577c-.763-.763-2-.763-2.762 0l-21.75 21.75c-.703.703-.838 1.923 0 2.761l37.166 37.166c.594.595 1.987.775 2.762 0l19.856-19.856c.517.044 1.052.068 1.608.068 5.102 0 9.616-3.5 12.198-7.316h18.079A1.953 1.953 0 00100 33.197V8.573a1.953 1.953 0 00-1.953-1.954zm-68.538-1.9l4.451 4.45a8.431 8.431 0 01-4.451 1.257 8.429 8.429 0 01-4.452-1.257l4.453-4.45zM14.973 28.159l-4.452-4.452 4.452-4.451a8.43 8.43 0 011.256 4.451 8.43 8.43 0 01-1.256 4.452zM44.925 58.11l-4.45-4.45a8.503 8.503 0 018.9 0l-4.45 4.45zm7.265-7.264c-4.316-3.13-10.214-3.13-14.53 0L17.787 30.973a12.296 12.296 0 002.349-7.266c0-2.648-.824-5.168-2.349-7.265l4.456-4.457a12.296 12.296 0 007.266 2.35c2.648 0 5.168-.824 7.265-2.35L41 16.21c-.912.134-1.8.435-2.63.897a7.656 7.656 0 00-3.182 3.361 11.13 11.13 0 00-5.843 3.075c-4.34 4.34-4.34 11.404 0 15.745a11.099 11.099 0 007.873 3.256 11.1 11.1 0 007.873-3.256 11.09 11.09 0 002.896-5.04l6.595 2.239a12.47 12.47 0 002.069 9.899l-4.46 4.46zM40.315 31.644l.052.019 3.905 1.325a7.196 7.196 0 01-1.945 3.538c-2.818 2.817-7.403 2.818-10.22 0-2.818-2.818-2.818-7.403 0-10.221a7.222 7.222 0 012.356-1.572c.36 3 2.52 5.675 5.852 6.911zm19.15 11.927a8.542 8.542 0 01-1.249-4.061 15.19 15.19 0 003.445 1.864l-2.197 2.197zM77.081 32.42c-1.851 3.034-5.442 6.14-9.312 6.14a14.215 14.215 0 01-2.045-.144c-4.218-.613-6.487-3.01-7.235-3.96-.04-.058-.21-.28-.235-.317a1.945 1.945 0 00-1.076-.895l-15.53-5.27c-2.477-.93-3.787-3.053-3.187-5.169l.001-.004.002-.005a3.78 3.78 0 011.806-2.277 3.779 3.779 0 012.867-.343l17.499 5.545a1.953 1.953 0 101.18-3.723L47.9 17.587l-.121-.122-.004-.004-7.205-7.205 6.193-2.217a2.14 2.14 0 00.067-.026l.02-.008.08-.034c4.186-1.924 8.166-.773 9.726-.166 5.895 2.652 9.041 4.467 11.34 5.792 3.196 1.844 4.736 2.732 9.086 3.09V32.42zm7.399-1.175h-3.493v-17.08h3.493v17.079zm11.613 0h-7.707V10.526h7.707v20.718z"/></g><defs><clipPath id="clip0"><path fill="#fff" d="M0 0h100v100H0z"/></clipPath></defs></svg>