<svg width="100" height="100" fill="none" xmlns="http://www.w3.org/2000/svg"><path d="M30.156 68.672a1.968 1.968 0 00-1.38-.572 1.97 1.97 0 00-1.383.572c-.364.363-.57.867-.57 1.38 0 .514.206 1.018.57 1.381a1.97 1.97 0 001.382.573 1.97 1.97 0 001.381-.573c.364-.363.57-.867.57-1.38 0-.514-.206-1.018-.57-1.381z" fill="#B7D041"/><path d="M86.713 76.34L73.162 62.79c-3.648-3.648-9.583-3.648-13.23 0l-3.091 3.09a3.768 3.768 0 01-5.323 0L34.12 48.482a3.768 3.768 0 010-5.323l3.09-3.09c3.648-3.648 3.648-9.583 0-13.231l-13.55-13.55a9.294 9.294 0 00-6.616-2.741 9.295 9.295 0 00-6.616 2.74L7.186 16.53A24.375 24.375 0 000 33.88a24.375 24.375 0 007.186 17.348l14.768 14.768a1.953 1.953 0 002.762-2.763L9.948 48.466a20.494 20.494 0 01-6.042-14.587c0-5.51 2.146-10.69 6.042-14.586l3.243-3.243a5.413 5.413 0 013.853-1.596c1.455 0 2.824.567 3.853 1.596L34.448 29.6a5.455 5.455 0 010 7.706l-1.757 1.757-12.44-12.44a1.953 1.953 0 00-2.762 2.762l12.63 12.631a7.623 7.623 0 00-1.008 3.804 7.62 7.62 0 002.247 5.424l17.398 17.398a7.62 7.62 0 005.424 2.247 7.624 7.624 0 003.804-1.009L72.32 84.217a1.95 1.95 0 001.381.572 1.953 1.953 0 001.381-3.334L60.938 67.307l1.756-1.756a5.455 5.455 0 017.707 0l13.55 13.55a5.414 5.414 0 011.597 3.854 5.413 5.413 0 01-1.596 3.853l-3.243 3.243a20.494 20.494 0 01-14.586 6.042c-5.51 0-10.69-2.146-14.587-6.042L35.175 73.69a1.953 1.953 0 00-2.763 2.762l16.36 16.36A24.374 24.374 0 0066.123 100a24.374 24.374 0 0017.348-7.186l3.243-3.242a9.295 9.295 0 002.74-6.616 9.294 9.294 0 00-2.74-6.615z" fill="#B7D041"/><path d="M15.46 21.834a1.968 1.968 0 00-1.38-.572c-.514 0-1.018.209-1.38.572a1.964 1.964 0 00-.573 1.38c0 .514.209 1.018.572 1.382.364.363.867.572 1.381.572s1.018-.21 1.38-.572c.364-.364.573-.868.573-1.381 0-.516-.209-1.018-.572-1.381zM76.992 0h-11.84C52.468 0 42.148 10.32 42.148 23.006a22.965 22.965 0 0015.928 21.897V50a1.953 1.953 0 003.098 1.583l7.701-5.57h8.119c12.685 0 23.006-10.32 23.006-23.007C99.999 10.321 89.678 0 76.992 0zm0 42.107h-8.75c-.411 0-.812.13-1.145.37l-5.116 3.7V43.43c0-.896-.61-1.677-1.479-1.895a19.065 19.065 0 01-14.45-18.529c0-10.531 8.57-19.1 19.101-19.1h11.84c10.531 0 19.1 8.569 19.1 19.1 0 10.532-8.569 19.1-19.1 19.1z" fill="#B7D041"/><path d="M61.63 21.625a1.968 1.968 0 00-1.38-.572c-.514 0-1.018.209-1.38.572a1.968 1.968 0 00-.573 1.38c0 .516.209 1.018.572 1.382.363.363.867.572 1.381.572s1.018-.21 1.38-.572c.364-.364.573-.866.573-1.381 0-.514-.209-1.018-.572-1.381zm10.778 0a1.968 1.968 0 00-1.38-.572 1.96 1.96 0 00-1.382.572 1.956 1.956 0 001.38 3.334c.515 0 1.019-.21 1.382-.572.364-.364.573-.866.573-1.381a1.97 1.97 0 00-.573-1.381zm10.776 0a1.964 1.964 0 00-1.381-.572c-.514 0-1.018.209-1.381.572a1.968 1.968 0 00-.572 1.38c0 .516.209 1.018.572 1.382.363.363.867.572 1.38.572.516 0 1.018-.21 1.382-.572.363-.364.572-.866.572-1.381 0-.514-.21-1.018-.572-1.381z" fill="#B7D041"/></svg>