<svg width="22" height="22" fill="none" xmlns="http://www.w3.org/2000/svg"><path d="M17.875 19.938h-.117C4.25 19.16 2.331 7.761 2.063 4.283a2.063 2.063 0 011.897-2.22h3.788a1.375 1.375 0 011.28.866L10.071 5.5a1.375 1.375 0 01-.302 1.485L8.305 8.463a6.442 6.442 0 005.212 5.225l1.491-1.478a1.375 1.375 0 011.492-.282l2.592 1.038a1.375 1.375 0 01.846 1.279v3.63a2.062 2.062 0 01-2.063 2.063zm-13.75-16.5a.688.688 0 00-.687.687v.055c.316 4.07 2.344 13.695 14.396 14.383a.687.687 0 00.729-.647v-3.671l-2.592-1.038-1.973 1.96-.33-.042c-5.982-.75-6.793-6.73-6.793-6.793l-.041-.33L8.786 6.03l-1.03-2.591h-3.63z" fill="#B7D041"/></svg>