<svg width="100" height="100" fill="none" xmlns="http://www.w3.org/2000/svg"><g clip-path="url(#clip0)" fill="#B7D041"><path d="M52.93 0c1.93.26 3.869.459 5.787.781 7.031 1.201 13.465 3.875 19.361 7.865 1.088.735 1.367 1.928.733 2.858-.635.93-1.805 1.121-2.93.361a46.147 46.147 0 00-17.07-7.119C34.105-.104 9.96 15.916 4.962 40.636c-2.633 13.038-.145 25.141 7.514 36.092.72 1.03.904 1.977.552 3.182-.834 2.87-1.562 5.77-2.332 8.658-.072.268-.117.545-.209.977 1.827-.479 3.516-.916 5.192-1.367 1.476-.39 2.966-.744 4.416-1.219 1.197-.39 2.168-.195 3.181.553a43.118 43.118 0 0013.606 6.629c25.564 7.369 52.3-7.743 58.123-34.375 2.752-12.586.424-24.348-6.567-35.18-.158-.246-.332-.482-.474-.738-.559-.99-.336-2.09.531-2.68a1.907 1.907 0 012.735.586c1.22 1.953 2.46 3.906 3.505 5.963A48.063 48.063 0 0199.848 46.2c.033.293.084.583.152.87v5.859c-.072.277-.127.56-.164.843-.55 7.373-2.584 14.319-6.281 20.704C85.9 87.717 74.572 95.902 59.57 99.035c-2.12.442-4.297.649-6.445.965H47.07a4.568 4.568 0 00-.66-.144 49.91 49.91 0 01-24.742-8.631 1.82 1.82 0 00-1.316-.213c-3.907 1.002-7.786 2.062-11.678 3.095-2.195.586-3.365-.585-2.78-2.785.997-3.734 1.981-7.472 3.032-11.191.244-.863.119-1.492-.39-2.233a48.2 48.2 0 01-7.78-19.38c-.299-1.791-.51-3.596-.76-5.393v-6.25a8.92 8.92 0 00.18-.95c.422-5.357 1.611-10.546 3.816-15.439C11.393 14.068 23.954 4.15 41.674.73 43.455.39 45.272.238 47.07 0h5.86z"/><path d="M69.254 37.768c-.319 7.226-3.534 13.02-10.083 16.779-2.066 1.187-3.27 2.625-3.423 5.107-.22 3.489-3.065 5.819-6.485 5.625-3.32-.195-5.81-2.879-5.716-6.32.18-6.525 3.181-11.416 8.834-14.627 1.978-1.123 3.558-2.502 4.236-4.727 1.105-3.622-.96-7.56-4.67-8.956-3.42-1.286-7.422.456-8.944 3.894-.21.475-.374.977-.609 1.434a6.132 6.132 0 01-11.34-4.573c2.28-7.447 9.67-13.14 17.451-13.447a19.896 19.896 0 0120.573 17.1c.113.802.107 1.62.175 2.71zm-3.907-.196c-.25-6.29-3.172-10.972-8.623-13.914-5.32-2.87-10.664-2.435-15.728.8-2.973 1.898-5.006 4.608-6.172 7.944-.442 1.264.088 2.457 1.224 2.916 1.172.475 2.407-.068 2.967-1.314.092-.207.154-.428.239-.639 2.21-5.512 8.359-8.369 13.867-6.445 5.758 2.008 8.972 8.164 7.203 13.867-.967 3.113-3.022 5.29-5.86 6.848-4.46 2.443-6.865 6.234-7.017 11.365-.041 1.367.81 2.307 2.049 2.38 1.308.081 2.254-.757 2.41-2.148.056-.515.037-1.044.137-1.562.566-2.875 2.24-4.883 4.798-6.273 5.473-2.971 8.198-7.663 8.514-13.825h-.008zM49.61 82.076a6.14 6.14 0 110-12.281c3.41-.016 6.25 2.812 6.21 6.201a6.136 6.136 0 01-6.21 6.08zm.04-3.906a2.22 2.22 0 002.248-2.211 2.272 2.272 0 00-2.24-2.238 2.22 2.22 0 00-2.22 2.23 2.174 2.174 0 002.218 2.213l-.006.006zM84 14.088a1.988 1.988 0 011.912 1.941 1.968 1.968 0 01-2.747 1.792 1.905 1.905 0 01-1.134-1.868 1.953 1.953 0 011.97-1.865z"/></g><defs><clipPath id="clip0"><path fill="#fff" d="M0 0h100v100H0z"/></clipPath></defs></svg>