<svg width="60" height="60" fill="none" xmlns="http://www.w3.org/2000/svg"><g clip-path="url(#clip0)" fill="#E97F54"><path d="M58.842 18.263A5.81 5.81 0 0060 14.766V5.86C60 2.63 57.372 0 54.14 0H5.86A5.866 5.866 0 00.003 5.86v8.919c0 3.23 2.628 5.86 5.859 5.86h14.064l-.002 2.878a12.83 12.83 0 00-4.33-.75c-7.107 0-12.89 5.784-12.89 12.891v15.067A6.298 6.298 0 00.419 54.94L.007 58.7A1.172 1.172 0 001.172 60h57.656a1.172 1.172 0 001.165-1.3l-.41-3.76a6.294 6.294 0 00-5.047-5.51l-5.015-1a1.119 1.119 0 01-.898-1.094v-1.25c0-.036-.002-.073-.005-.109l2.34-1.337.063-.04c1.169-.771 1.936-2.148 2.053-3.683a.897.897 0 00.004-.089v-5.552c.79-.487 1.375-1.393 1.375-3.01l.002-2.99c0-.046-.002-.091-.007-.135a4.767 4.767 0 00-1.047-2.76c.025-.03.05-.062.073-.096l5.368-8.022zm-52.981.032A3.52 3.52 0 012.353 15h10.06a1.172 1.172 0 000-2.344H2.345V5.86a3.52 3.52 0 013.516-3.515h24.123A3.52 3.52 0 0133.5 5.86v8.92a3.52 3.52 0 01-3.516 3.515h-3.15c-.31 0-.609.123-.829.343l-3.737 3.737.002-2.907a1.172 1.172 0 00-1.172-1.173H5.861zm-.814 17.363c0-5.815 4.731-10.546 10.547-10.546 5.815 0 10.546 4.73 10.546 10.546v13.87a6.396 6.396 0 00-.416-.099l-5.013-.999a1.119 1.119 0 01-.898-1.094v-1.25c0-.038-.002-.076-.006-.113l2.326-1.334.062-.038c1.178-.778 1.95-2.155 2.067-3.684a.883.883 0 00.004-.089v-5.144c0-.425-.23-.817-.601-1.024l-5.241-2.925a1.172 1.172 0 00-1.41.205 8.562 8.562 0 01-6.098 2.572H8.094c-.647 0-1.172.524-1.172 1.172v5.144c0 .03.001.06.004.09.117 1.534.885 2.911 2.053 3.683l.064.04 2.34 1.336a1.166 1.166 0 00-.006.11v1.25c0 .53-.378.99-.898 1.093l-5.015 1c-.14.028-.28.061-.417.098v-13.87zM18.407 49.7a5.399 5.399 0 01-5.625 0 3.457 3.457 0 00.939-2.364v-.017c.588.335 1.23.503 1.873.503s1.286-.169 1.875-.504v.018c0 .903.353 1.74.938 2.364zm-1.939-4.514a1.23 1.23 0 00-.063.038 1.414 1.414 0 01-1.622 0 1.106 1.106 0 00-.064-.039l-4.476-2.558c-.536-.37-.907-1.07-.977-1.847v-3.925h1.65c2.607 0 5.152-.958 7.114-2.656l3.892 2.173v4.408c-.07.771-.447 1.473-.992 1.847l-4.462 2.559zm-13.99 12.47l.27-2.462a3.96 3.96 0 013.174-3.466l4.482-.893a7.702 7.702 0 005.19 2 7.702 7.702 0 005.19-2l4.482.893a3.96 3.96 0 013.175 3.467l.268 2.46H2.48zm47.119-6.82l4.481.892a3.96 3.96 0 013.175 3.466l.268 2.462h-26.23l.268-2.46a3.959 3.959 0 013.175-3.468l4.482-.893a7.702 7.702 0 005.19 2 7.701 7.701 0 005.19-2zM47.218 49.7a5.399 5.399 0 01-5.625-.001 3.458 3.458 0 00.938-2.364v-.018a3.781 3.781 0 001.875.505c.643 0 1.285-.17 1.874-.504v.017c0 .903.353 1.74.938 2.365zm3.516-8.921c-.07.776-.441 1.478-.977 1.847l-4.475 2.558a1.086 1.086 0 00-.065.04c-.515.34-1.106.34-1.622 0a1.189 1.189 0 00-.063-.04l-4.462-2.558c-.545-.374-.922-1.076-.992-1.847v-5.452c.71.295 1.487.458 2.302.458h10.354v4.994zm1.376-8.516c0 .682-.137.904-.195.969-.122.133-.463.21-.936.21H40.38a3.684 3.684 0 01-3.679-3.68V26.6a4.25 4.25 0 001.668.353h11.306a2.423 2.423 0 012.437 2.411l-.002 2.9zm1.223-13.639a1.172 1.172 0 00-.83-.343h-9.026a1.172 1.172 0 000 2.343h7.854L51.33 24.9a4.825 4.825 0 00-1.654-.29H38.369c-.54 0-1.032-.28-1.35-.514a1.666 1.666 0 00-1.748-.148 1.657 1.657 0 00-.914 1.486v4.33c0 1.452.517 2.787 1.378 3.829v7.235c0 .03 0 .06.003.09.117 1.528.89 2.905 2.067 3.682.02.014.041.027.063.04l2.325 1.333a1.163 1.163 0 00-.006.114v1.249c0 .53-.377.99-.898 1.094l-5.013.999A6.294 6.294 0 0030 52.525a6.276 6.276 0 00-1.516-1.8V35.657c0-4.393-2.21-8.28-5.576-10.608l4.411-4.412h2.665c3.23 0 5.86-2.628 5.86-5.859V5.86a5.829 5.829 0 00-1.175-3.515H54.14a3.52 3.52 0 013.515 3.515v8.906c0 .77-.244 1.501-.706 2.114a1.146 1.146 0 00-.039.054l-3.237 4.838.001-2.318a1.168 1.168 0 00-.342-.829z"/><path d="M39.032 18.625a1.18 1.18 0 00-.828-.343c-.308 0-.61.125-.828.343a1.18 1.18 0 00-.344.828c0 .309.126.611.344.829.218.218.52.343.828.343.308 0 .61-.125.828-.343a1.18 1.18 0 00.344-.829c0-.308-.125-.61-.343-.828zM17.637 13a1.18 1.18 0 00-.828-.343 1.176 1.176 0 00-1.172 1.172A1.175 1.175 0 0016.809 15c.308 0 .61-.126.828-.344a1.18 1.18 0 00.343-.828c0-.309-.125-.61-.343-.829z"/></g><defs><clipPath id="clip0"><path fill="#fff" d="M0 0h60v60H0z"/></clipPath></defs></svg>