<svg width="100" height="100" fill="none" xmlns="http://www.w3.org/2000/svg"><g clip-path="url(#clip0)" fill="#B7D041"><path d="M30.778 92.222c0 .809.656 1.465 1.465 1.465h35.514a1.465 1.465 0 100-2.93H32.243c-.809 0-1.465.655-1.465 1.465zm7.384-9.357a1.465 1.465 0 100 2.93h23.676a1.465 1.465 0 100-2.93H38.162zM15.118 70.178l.075.002c.775 0 1.422-.609 1.461-1.392l1.94-38.7 4.427 2.8a1.465 1.465 0 001.567 0l5.766-3.647 5.766 3.648a1.465 1.465 0 001.566 0l5.766-3.648 5.765 3.648a1.465 1.465 0 001.567 0l5.766-3.648 5.765 3.648a1.464 1.464 0 001.567 0l5.765-3.648 5.766 3.648a1.465 1.465 0 001.567 0l4.428-2.802.267 5.338a1.465 1.465 0 002.926-.146l-.393-7.844a1.464 1.464 0 00-2.246-1.165l-5.766 3.647-.66-.417v-6.701a1.465 1.465 0 10-2.93 0v4.847L70.43 26.27a1.465 1.465 0 00-1.566 0l-5.766 3.647-5.765-3.647a1.464 1.464 0 00-1.567 0l-4.301 2.72V13.5c0-5.829 4.742-10.57 10.57-10.57 5.829 0 10.57 4.741 10.57 10.57v2.443a1.465 1.465 0 102.93 0V13.5c0-7.444-6.056-13.5-13.5-13.5s-13.5 6.056-13.5 13.5v6.385l-1.381-1.566a6.422 6.422 0 01-1.608-4.252V10.07a3.25 3.25 0 001.776-2.891v-3.93A3.252 3.252 0 0044.073 0H30.278a3.252 3.252 0 00-3.248 3.248v3.93a3.25 3.25 0 001.775 2.892v3.997a6.422 6.422 0 01-1.607 4.253l-1.97 2.233a9.35 9.35 0 00-2.341 6.19v2.593l-4.848-3.066a1.464 1.464 0 00-2.246 1.164l-2.065 41.208a1.465 1.465 0 001.39 1.536zM29.96 3.248a.32.32 0 01.32-.318h13.794c.176 0 .319.142.319.318v3.93a.319.319 0 01-.319.32H30.278a.319.319 0 01-.319-.32v-3.93zm-2.535 19.243l1.97-2.233a9.35 9.35 0 002.34-6.19v-3.641h10.882v3.64a9.35 9.35 0 002.34 6.19l1.971 2.234a6.423 6.423 0 011.608 4.252v2.247l-4.301-2.72a1.464 1.464 0 00-1.567 0l-5.765 3.647-5.766-3.647a1.465 1.465 0 00-1.566 0l-3.755 2.374v-1.901a6.427 6.427 0 011.609-4.252z"/><path d="M84.943 42.126a1.457 1.457 0 00-1.536-1.39c-.808.04-1.43.729-1.39 1.536l2.746 54.798H15.237l1.074-21.436a1.465 1.465 0 00-2.926-.147l-1.15 22.975A1.464 1.464 0 0013.696 100h72.606a1.466 1.466 0 001.463-1.538l-2.823-56.336zM54.651 16.854c0 2.635 3.175 4.622 7.384 4.622 4.21 0 7.384-1.987 7.384-4.622s-3.174-4.622-7.384-4.622c-4.21 0-7.384 1.987-7.384 4.622zm11.838 0c0 .491-1.56 1.692-4.454 1.692-2.893 0-4.454-1.2-4.454-1.692 0-.49 1.56-1.692 4.454-1.692 2.894 0 4.454 1.201 4.454 1.692z"/><path d="M50 46.167c-7.88 0-14.29 6.41-14.29 14.29 0 7.879 6.41 14.289 14.29 14.289 7.88 0 14.29-6.41 14.29-14.29 0-7.878-6.41-14.289-14.29-14.289zm0 25.65c-6.264 0-11.36-5.097-11.36-11.36 0-6.264 5.096-11.36 11.36-11.36 6.264 0 11.36 5.096 11.36 11.36 0 6.263-5.096 11.36-11.36 11.36z"/></g><defs><clipPath id="clip0"><path fill="#fff" d="M0 0h100v100H0z"/></clipPath></defs></svg>