<svg width="22" height="23" fill="none" xmlns="http://www.w3.org/2000/svg"><g clip-path="url(#clip0)" fill-rule="evenodd" clip-rule="evenodd" fill="#3A4336"><path d="M8.25 19.584a.083.083 0 100-.167.083.083 0 000 .166zM6.333 19.5a1.917 1.917 0 113.833 0 1.917 1.917 0 01-3.833 0zm12 .084a.083.083 0 100-.167.083.083 0 000 .166zm-1.916-.084a1.917 1.917 0 113.833 0 1.917 1.917 0 01-3.834 0zM-.083 1.167a1 1 0 011-1h3.666a1 1 0 01.98.803l.757 3.78h14.763a1 1 0 01.983 1.187l-1.469 7.699a2.833 2.833 0 01-2.822 2.28H8.882a2.833 2.833 0 01-2.823-2.28L4.53 5.989a.992.992 0 01-.017-.081l-.749-3.74H.917a1 1 0 01-1-1zM6.72 6.75l1.3 6.496a.834.834 0 00.834.67h8.948a.833.833 0 00.833-.667v-.003l1.24-6.496H6.72z"/></g><defs><clipPath id="clip0"><path fill="#fff" transform="translate(0 .25)" d="M0 0h22v22H0z"/></clipPath></defs></svg>