<svg width="60" height="60" fill="none" xmlns="http://www.w3.org/2000/svg"><path d="M48.693 52.258l-2.24-6.722a6.775 6.775 0 00-5.216-4.522l-6.467-1.177v-.501a9.74 9.74 0 002.884-2.562h1.954a2.907 2.907 0 002.904-2.903V22.258c0-6.937-5.644-12.58-12.581-12.58-6.937 0-12.58 5.643-12.58 12.58v6.774a3.877 3.877 0 003.085 3.79 9.696 9.696 0 004.656 6.514v.501l-6.468 1.177a6.773 6.773 0 00-5.214 4.522l-.387 1.162-3.297-3.296a.97.97 0 010-1.37l3.823-3.82-7.175-7.176-4.32 4.32a6.73 6.73 0 00-1.984 4.79c0 1.81.705 3.51 1.984 4.79l13.08 13.08A6.731 6.731 0 0019.923 60a6.7 6.7 0 004.759-1.956l4.714-4.319-1.47-1.467h20.766zm-8.117-18.387a.969.969 0 01-.968.968h-.813c.28-.64.493-1.314.63-2.016a3.8 3.8 0 001.151-.458v1.506zm-.968-3.172v-3.333c.576.336.968.953.968 1.666a1.93 1.93 0 01-.968 1.667zm-19.354 0a1.93 1.93 0 01-.968-1.667c0-.713.392-1.33.967-1.666v3.333zm0-6.506V25.3c-.345.09-.668.225-.968.4v-3.441c0-5.87 4.776-10.645 10.645-10.645 5.87 0 10.645 4.776 10.645 10.645V25.7a3.8 3.8 0 00-.968-.4v-1.105h-.967a10.647 10.647 0 01-7.577-3.139l-1.133-1.133-1.133 1.133a10.647 10.647 0 01-7.577 3.139h-.968zm1.935 6.775v-4.876a12.547 12.547 0 007.742-3.44 12.541 12.541 0 007.742 3.44v4.876a7.684 7.684 0 01-1.047 3.87H29.93v1.936h5.104a7.7 7.7 0 01-5.104 1.936c-4.269 0-7.742-3.474-7.742-7.742zm10.645 9.231v.046l-2.903 2.903-2.903-2.904V40.2a9.664 9.664 0 005.806 0zm-17.59 5.949a4.84 4.84 0 013.725-3.232l6.765-1.229 4.197 4.198 4.196-4.197 6.764 1.23a4.839 4.839 0 013.724 3.23l1.393 4.174H25.991l-3.77-3.769-4.188 3.789a.988.988 0 01-1.368 0l-2.113-2.114.693-2.08zm-8.87-12.375l4.437 4.438-1.05 1.051-4.439-4.438 1.051-1.05zM23.342 56.65a4.815 4.815 0 01-3.421 1.416 4.812 4.812 0 01-3.422-1.418L3.42 43.569a4.807 4.807 0 01-1.416-3.421c0-1.293.503-2.509 1.417-3.422l.532-.532 4.438 4.438-.035.034a2.908 2.908 0 000 4.107l6.94 6.94a2.89 2.89 0 002.053.85 2.85 2.85 0 002.018-.817l.073-.065 4.458 4.459-.555.509zm1.983-1.82l-4.448-4.448 1.278-1.156 4.441 4.441-1.27 1.163zM57.027 0H43.48a2.907 2.907 0 00-2.903 2.903v7.742c0 1.6 1.302 2.903 2.903 2.903h2.585l-1 5.837 9.338-5.837h2.625c1.6 0 2.904-1.302 2.904-2.903V2.903c0-1.6-1.303-2.903-2.904-2.903zm.968 10.645a.97.97 0 01-.968.968h-3.18l-6.147 3.84.66-3.84h-4.881a.97.97 0 01-.968-.968V2.903a.97.97 0 01.968-.968h13.548a.97.97 0 01.968.968v7.742z" fill="#9A8AAE"/><path d="M56.06 3.871H44.447v1.935H56.06V3.871zm-3.871 3.871h-7.742v1.935h7.742V7.742zm3.871 0h-1.936v1.935h1.935V7.742zM29.93 2.903c-12.644 0-23.535 8.747-26.367 20.947l-1.834-3.057-1.66.996 3.402 5.668 5.668-3.402-.996-1.66-2.622 1.574C8.263 12.808 18.3 4.839 29.93 4.839c2.542 0 5.05.377 7.455 1.122l.573-1.848a27.079 27.079 0 00-8.028-1.21zm29.53 18.525l-5.668-3.402-3.4 5.67 1.66.995 1.693-2.823A25.057 25.057 0 0155.092 30a25.22 25.22 0 01-5.612 15.842l1.503 1.22A27.158 27.158 0 0057.027 30c0-2.96-.477-5.851-1.407-8.619l2.845 1.706.995-1.66z" fill="#9A8AAE"/></svg>