<svg width="100" height="100" fill="none" xmlns="http://www.w3.org/2000/svg"><g clip-path="url(#clip0)" fill="#B7D041"><path d="M0 46.875c0-1.66 1.896-2.93 4.085-2.947-1.29-2.344-2.271-4.66-1.443-7.338.828-2.678 2.715-4.268 5.307-5.205-1.323-2.63-2.696-5.137-4.747-7.182-.585-.586-1.341-1.015-2.05-1.465-.924-.586-1.23-1.312-.813-2.101.418-.79 1.22-.996 2.195-.543 1.885.877 3.24 2.365 4.493 3.96.302.44.648.85 1.033 1.22-.102-.34-.195-.686-.305-1.022-.703-2.059-1.422-4.113-2.117-6.176-.367-1.088-.068-1.916.754-2.213.91-.33 1.646.098 2.049 1.248 1.05 2.996 2.082 6 3.205 9.248.17-1.843.293-3.433.472-5.015.145-1.278 1.202-1.936 2.186-1.4.703.39.797 1.023.764 1.757a345.36 345.36 0 00-.217 6.04c.015.41.053.82.115 1.226 3.754-1.137 6.822-.281 9.2 2.851.083-.12.149-.251.195-.39.314-2.512 1.447-4.639 3.125-6.485 2.035-2.244 2.425-4.941 2.322-7.812a824.84 824.84 0 01-.33-11.762c-.026-1.367.709-2.05 2.05-2.062 2.278-.02 4.557-.02 6.837 0 1.324.011 2.064.734 2.072 2.058.02 3.416.03 6.836-.01 10.252-.016 1.38-.26 2.758-.234 4.133.035 1.926.822 3.613 2.107 5.02 2.463 2.69 3.57 5.837 3.399 9.46a.808.808 0 00.195.586c.762-1.449 1.521-2.9 2.328-4.437-2.316-1.13-1.85-3.217-1.674-5.117.098-1.07.924-1.772 2.004-2.018a6.21 6.21 0 011.367-.113 5278.81 5278.81 0 0115.918 0c2.584 0 3.498.951 3.549 3.515.031 1.563-.142 2.95-1.799 3.694.76 1.467 1.455 2.896 2.23 4.283.54.967.804 2.063.766 3.17-.035 2.115-.032 4.23.01 6.348 0 .412.24.832.408 1.23.338.793.705 1.576 1.131 2.522h.861c4.2 0 8.399.035 12.596-.018 1.877-.022 3.395.568 4.7 1.936 2.427 2.539 4.912 5.03 7.406 7.507 1.004.998 1.906 2.038 2.32 3.422v25c-.572 1.516-1.412 2.815-3.102 3.201-.827.162-1.671.222-2.513.178-.653-.016-.977.174-1.198.817-1.427 4.12-5.126 6.757-9.404 6.753-4.277-.003-7.969-2.628-9.398-6.757-.225-.645-.553-.809-1.2-.809-14.7.022-29.402.022-44.105 0-.646 0-.959.16-1.184.814A9.934 9.934 0 019.09 89.92c-.195-.586-.451-.838-1.09-.807-1.07.051-2.148-.054-3.218.028-2.274.175-4.391-.372-4.766-2.825C-.844 84.131 0 46.875 0 46.875zm2.98 33.299c2.424 0 4.699-.02 6.97.013a2.1 2.1 0 001.633-.644 9.943 9.943 0 0113.696-.113 2.515 2.515 0 001.88.761c13.474-.023 26.951-.029 40.43-.017h1.278v-1.158l-.012-30.47c0-1.48-.162-1.642-1.604-1.642H4.656c-1.514 0-1.682.166-1.682 1.67v30.469l.006 1.13zM93.8 86.15h1.297c1.563 0 1.932-.38 1.934-1.978 0-7.291 0-14.582.01-21.875a3.068 3.068 0 00-.958-2.344 625.736 625.736 0 01-7.888-7.992 3.155 3.155 0 00-2.489-1.055c-4.134.041-8.267.014-12.402.012h-1.379v35.156h1.861c.678-5.496 4.721-9.295 9.854-9.324 5.363-.027 9.4 3.656 10.16 9.4zM32.968 17.627c-.215 1.58-.316 3.107-.648 4.582-.467 2.082-1.743 3.746-3.11 5.34-1.107 1.289-1.847 2.79-1.888 4.492-.094 3.867-.092 7.738-.121 11.607 0 .084.08.166.105.217h3.281c0-1.562-.014-3.056 0-4.549.026-2.222 1.172-3.351 3.389-3.36 2.539-.013 5.078 0 7.617 0 .342 0 .686-.032 1.025-.048.334-3.53-.175-6.676-2.693-9.305-1.515-1.584-2.369-3.566-2.656-5.751-.137-1.053-.164-2.122-.244-3.227l-4.057.002zm-9.2 26.281c-.45-2.67-.882-5.232-1.316-7.795-.043-.256-.1-.511-.15-.765-.621-3.084-3.125-4.575-6.125-3.59a321.062 321.062 0 00-7.652 2.623c-2.067.732-3.397 2.443-3.178 4.4.121 1.088.728 2.12 1.111 3.18.225.623.576.697 1.201.469 2.227-.815 4.475-1.563 6.721-2.325 1.1-.37 1.908-.074 2.22.754.333.885-.12 1.664-1.23 2.069-.806.295-1.623.564-2.437.844l.037.136h10.799zm43.811 0c0-2.32 0-4.56-.011-6.799a1.698 1.698 0 00-.233-.732c-.908-1.758-1.806-3.527-2.77-5.258a1.317 1.317 0 00-.947-.586 575.042 575.042 0 00-11.42 0 1.438 1.438 0 00-1.005.65c-.72 1.235-1.346 2.522-1.998 3.794-.327.634-.88 1.265-.91 1.918-.112 2.322-.043 4.654-.043 6.962h1.935c0-1.347-.014-2.615 0-3.88.022-1.817.883-2.705 2.695-2.721 3.32-.025 6.64-.025 9.961 0 1.916 0 2.78.908 2.791 2.834v3.816l1.955.002zm1.19 42.217v-2.889h-40.84l.625 2.889h40.215zm8.008.586c-.096 3.68 3.109 6.932 6.92 7.02 3.693.085 6.949-3.012 7.09-6.747.146-3.877-3.063-7.226-6.965-7.27-3.797-.04-6.942 3.083-7.043 7.005l-.002-.008zm-58.223-6.998c-3.71-.06-6.978 3.084-7.043 6.777a7.031 7.031 0 006.879 7.24c3.78.104 7.031-3.058 7.11-6.927.085-3.781-3.102-7.028-6.946-7.09zm15.078-40.69v4.858h8.994v-4.858h-8.994zm3.403-24.462V6.326h-4.168v8.235h4.168zm16.167 25.722v3.59h9.399v-3.59h-9.399zm-3.755-12.822h16.9V26.2h-16.9v1.26zM2.986 83.234c0 .756-.059 1.471.029 2.166.035.268.39.694.621.702 1.613.062 3.229.033 4.813.033l.585-2.9H2.986z"/><path d="M27.63 62.762v-6.055c0-.355-.07-.812.117-1.043.354-.44.86-1.017 1.323-1.035.462-.017.998.527 1.398.93.184.183.158.615.158.935.01 4.227.01 8.454 0 12.682.008.227-.01.454-.05.678-.174.795-.649 1.277-1.493 1.252-.843-.026-1.347-.51-1.402-1.332-.069-1.035-.049-2.079-.055-3.125v-3.907l.004.02zm13.944.128c0-2.148-.01-4.296 0-6.445 0-1.215.562-1.906 1.48-1.904.918.002 1.477.697 1.479 1.908v12.87c0 1.14-.553 1.78-1.479 1.783-.926.001-1.463-.63-1.47-1.786-.02-2.129-.01-4.277-.01-6.425zm-27.868 4.493c0-.715-.039-1.432.01-2.149.066-.959.725-1.585 1.539-1.562.781.03 1.396.629 1.426 1.562a63.98 63.98 0 01-.012 4.381c-.035.942-.64 1.487-1.467 1.485-.826-.002-1.42-.56-1.484-1.487-.047-.728-.012-1.476-.012-2.23zm44.739-9.08c0 .78.033 1.562 0 2.343-.05.928-.633 1.492-1.457 1.498-.824.006-1.457-.556-1.484-1.478a74.437 74.437 0 010-4.576c.025-.905.678-1.518 1.467-1.526.828 0 1.433.627 1.476 1.604.031.713 0 1.427 0 2.148l-.002-.014zm-44.773-1.326c.014-.421.056-.84.125-1.256a1.34 1.34 0 011.469-1.137c.75.035 1.304.463 1.367 1.256.063.836.068 1.676.015 2.513-.05.84-.615 1.303-1.406 1.327-.79.023-1.338-.45-1.476-1.26-.056-.48-.088-.961-.094-1.444zM58.416 68.67c.024.39.024.782 0 1.172-.1.781-.567 1.222-1.35 1.271-.783.05-1.379-.351-1.485-1.103a9.865 9.865 0 010-2.606c.096-.757.692-1.191 1.461-1.148.803.045 1.315.517 1.39 1.353.03.354 0 .713 0 1.069l-.017-.008zm25.969 2.467c-2.344 0-4.688.013-7.032 0-2.046-.016-3.124-1.1-3.124-3.15-.01-3.712-.01-7.423 0-11.133 0-2.044 1.101-3.126 3.124-3.141 2.44 0 4.883.015 7.323-.012a3.208 3.208 0 012.443 1.008c2.147 2.18 4.296 4.355 6.445 6.525a3.275 3.275 0 011.038 2.438c-.012 1.498.023 2.996-.012 4.492-.045 1.9-1.104 2.95-2.996 2.969-2.39.023-4.801.004-7.21.004zm7.226-3.01c0-1.354.04-2.648-.023-3.938a2.002 2.002 0 00-.496-1.171c-1.125-1.217-2.307-2.381-3.477-3.557-.916-.922-1.693-2.197-2.804-2.648-1.147-.467-2.622-.137-3.954-.145h-3.593v11.459H91.61zm-3.08 18.605a4.746 4.746 0 11-4.76-4.755 4.732 4.732 0 014.76 4.755zm-2.982-.03a1.758 1.758 0 10-1.686 1.78 1.77 1.77 0 001.684-1.78h.002zm-62.308.06a4.744 4.744 0 01-4.816 4.716 4.755 4.755 0 01-3.3-8.144 4.757 4.757 0 013.374-1.367 4.755 4.755 0 014.742 4.795zm-4.765 1.722a1.793 1.793 0 001.789-1.794 1.819 1.819 0 00-1.758-1.731 1.758 1.758 0 00-.027 3.516l-.004.01z"/></g><defs><clipPath id="clip0"><path fill="#fff" d="M0 0h100v100H0z"/></clipPath></defs></svg>