<svg width="14" height="14" fill="none" xmlns="http://www.w3.org/2000/svg"><g clip-path="url(#clip0)" fill="#BAD14D"><path d="M6.9 6.744c.927 0 1.73-.332 2.385-.988a3.263 3.263 0 00.987-2.384A3.26 3.26 0 009.284.988 3.263 3.263 0 006.9 0c-.926 0-1.728.332-2.384.988a3.263 3.263 0 00-.988 2.384c0 .926.333 1.729.988 2.384a3.263 3.263 0 002.384.988zm5.9 4.021a8.35 8.35 0 00-.113-.884 6.963 6.963 0 00-.218-.89 4.388 4.388 0 00-.365-.83 3.13 3.13 0 00-.552-.718 2.431 2.431 0 00-.792-.497 2.737 2.737 0 00-1.01-.183c-.144 0-.282.058-.549.232l-.57.368a3.271 3.271 0 01-.74.325 2.927 2.927 0 01-.903.147c-.3 0-.604-.05-.903-.146a3.264 3.264 0 01-.739-.326l-.571-.368c-.267-.174-.405-.233-.548-.233-.364 0-.704.062-1.01.184a2.43 2.43 0 00-.793.497c-.208.2-.393.441-.551.719a4.402 4.402 0 00-.366.83c-.087.273-.16.572-.217.889a8.301 8.301 0 00-.114.884c-.018.268-.028.546-.028.827 0 .731.233 1.323.69 1.759.453.43 1.052.649 1.78.649h6.741c.728 0 1.327-.218 1.78-.649.457-.436.69-1.028.69-1.759a12 12 0 00-.029-.827z"/></g><defs><clipPath id="clip0"><path fill="#fff" d="M0 0h14v14H0z"/></clipPath></defs></svg>