<svg width="18" height="18" fill="none" xmlns="http://www.w3.org/2000/svg"><path d="M8.549.003C7.104.02 3.999.258 2.262 1.85.97 3.131.519 5.024.466 7.365.422 9.697.369 14.077 4.59 15.269v1.816s-.027.727.453.876c.592.188.93-.372 1.492-.972l1.049-1.187c2.888.24 5.1-.313 5.355-.395.586-.187 3.888-.61 4.427-4.99.554-4.523-.27-7.373-1.755-8.663h-.009c-.448-.412-2.25-1.725-6.275-1.74 0 0-.299-.02-.78-.012zm.05 1.272c.41-.003.659.014.659.014 3.407.01 5.033 1.035 5.417 1.38 1.25 1.072 1.895 3.642 1.423 7.418-.448 3.662-3.126 3.894-3.621 4.052-.211.068-2.16.548-4.614.39 0 0-1.829 2.206-2.4 2.774-.09.1-.196.129-.264.114-.097-.023-.126-.143-.12-.307l.017-3.015c-3.58-.99-3.37-4.725-3.33-6.677.043-1.951.41-3.547 1.5-4.629 1.466-1.326 4.104-1.505 5.33-1.514h.001zm.27 1.95a.223.223 0 00-.226.223c0 .126.102.226.225.226a4.226 4.226 0 013.024 1.192c.817.794 1.215 1.86 1.23 3.255 0 .123.1.225.226.225v-.009a.225.225 0 00.226-.222 4.844 4.844 0 00-1.36-3.572c-.89-.87-2.019-1.318-3.346-1.318zm-2.966.516a.704.704 0 00-.46.09h-.012a3.53 3.53 0 00-.858.707c-.205.237-.317.477-.346.708a.958.958 0 00.036.408l.014.009c.231.68.533 1.333.902 1.948.476.865 1.06 1.664 1.74 2.38l.021.028.032.024.02.024.024.02c.717.682 1.519 1.27 2.385 1.749.99.538 1.59.793 1.951.9v.005c.106.032.202.046.299.046a1.38 1.38 0 00.826-.354 3.41 3.41 0 00.698-.861v-.006c.172-.325.114-.633-.135-.84a10.39 10.39 0 00-1.612-1.158c-.383-.208-.773-.082-.931.129l-.337.425c-.173.21-.487.181-.487.181l-.009.006C7.324 9.711 6.7 7.341 6.7 7.341s-.029-.322.188-.486l.422-.34c.201-.164.342-.554.126-.938A10.12 10.12 0 006.28 3.966a.641.641 0 00-.378-.226l.001.001zm3.355.668c-.3 0-.3.452.002.452a2.828 2.828 0 011.987.86 2.622 2.622 0 01.674 1.928.227.227 0 00.225.223l.009.012a.227.227 0 00.226-.226c.02-.893-.258-1.643-.803-2.244-.548-.6-1.312-.938-2.288-1.005h-.032zm.37 1.213c-.309-.009-.32.451-.015.46.74.039 1.1.413 1.148 1.184a.224.224 0 00.223.22h.009a.226.226 0 00.216-.24c-.052-1.005-.6-1.57-1.573-1.623h-.009z" fill="#8D8D8D"/></svg>