<svg width="14" height="13" viewBox="0 0 14 13" fill="none" xmlns="http://www.w3.org/2000/svg">
<g clip-path="url(#clip0)">
<path d="M7.05102 9.86004L12.524 3.85704C12.6182 3.76208 12.671 3.63377 12.671 3.50004C12.671 3.36631 12.6182 3.238 12.524 3.14304C12.4775 3.09618 12.4222 3.05898 12.3613 3.03359C12.3004 3.00821 12.235 2.99514 12.169 2.99514C12.103 2.99514 12.0377 3.00821 11.9767 3.03359C11.9158 3.05898 11.8605 3.09618 11.814 3.14304L6.67002 8.78504L1.52702 3.14204C1.48054 3.09518 1.42524 3.05798 1.36431 3.03259C1.30338 3.00721 1.23803 2.99414 1.17202 2.99414C1.10601 2.99414 1.04066 3.00721 0.979733 3.03259C0.918803 3.05798 0.863502 3.09518 0.81702 3.14204C0.722856 3.237 0.670021 3.36531 0.670021 3.49904C0.670021 3.63277 0.722856 3.76108 0.81702 3.85604L6.29002 9.86104C6.33961 9.91044 6.39914 9.94873 6.46465 9.97338C6.53016 9.99804 6.60017 10.0085 6.67002 10.004C6.74001 10.0083 6.81011 9.99778 6.87576 9.97314C6.94141 9.94851 7.00113 9.91031 7.05102 9.86104V9.86004Z" fill="#9B9B9B"/>
</g>
<defs>
<clipPath id="clip0">
<rect width="12" height="13" fill="white" transform="translate(13.5 0.5) rotate(90)"/>
</clipPath>
</defs>
</svg>
