<svg width="60" height="60" viewBox="0 0 60 60" fill="none" xmlns="http://www.w3.org/2000/svg">
<path d="M21.5625 18.75V16.875C17.4272 16.875 14.0625 20.2397 14.0625 24.375H15.9375C15.9375 21.2728 18.4603 18.75 21.5625 18.75Z" fill="#C69C72"/>
<path d="M56.2498 0.9375H33.7498C32.1991 0.9375 30.9373 2.19937 30.9373 3.75V6.08437C29.4326 5.54344 27.7676 5.67281 26.3651 6.44812C25.3704 4.79719 23.5666 3.75 21.5154 3.75C19.542 3.75 17.7513 4.79719 16.7585 6.44906C15.072 5.51344 12.9991 5.50312 11.291 6.48938L11.2085 6.53719C9.50039 7.52344 8.47383 9.32531 8.43914 11.2519C6.51258 11.2866 4.7107 12.3131 3.72445 14.0213L3.67664 14.1037C2.69039 15.8119 2.70352 17.8856 3.63633 19.5712C1.98445 20.565 0.937266 22.3547 0.937266 24.3272V24.4219C0.937266 26.3953 1.98445 28.1859 3.63633 29.1788C2.70258 30.8644 2.69039 32.9372 3.67664 34.6463L3.72445 34.7287C4.71164 36.4369 6.51351 37.4634 8.43914 37.4981C8.44945 38.0719 8.5582 38.6306 8.73539 39.1641L0.814453 52.0903L9.62976 49.8863L11.8282 58.6781L20.1166 44.8069C20.5929 44.9334 21.0926 45 21.6091 45C22.091 45 22.5616 44.9353 23.0135 44.8172L31.2963 58.6791L33.4948 49.8872L42.3101 52.0912L34.3891 39.165C34.5673 38.6316 34.6751 38.0728 34.6854 37.4991C36.6129 37.4644 38.4148 36.4378 39.4001 34.7297L39.4479 34.6472C40.4351 32.9391 40.4219 30.8653 39.4882 29.1797C40.8776 28.3434 41.8301 26.9362 42.101 25.3134H56.2498C57.8004 25.3134 59.0623 24.0516 59.0623 22.5009V3.75C59.0623 2.19937 57.8004 0.9375 56.2498 0.9375ZM45.9373 4.6875V6.5625H44.0623V4.6875H42.1873V6.5625H40.3123V2.8125H49.6873V6.5625H47.8123V4.6875H45.9373ZM30.9373 18.1697C28.9207 15.1331 25.4735 13.125 21.5623 13.125C15.3588 13.125 10.3123 18.1716 10.3123 24.375C10.3123 30.5784 15.3588 35.625 21.5623 35.625C27.5116 35.625 32.3838 30.9806 32.7738 25.1278C33.0794 25.2412 33.4057 25.3125 33.7498 25.3125H34.6395C34.1557 32.1122 28.4829 37.5 21.5623 37.5C14.3248 37.5 8.43726 31.6125 8.43726 24.375C8.43726 17.1375 14.3248 11.25 21.5623 11.25C25.0854 11.25 28.4773 12.6956 30.9373 15.2091V18.1697ZM30.9373 24.375C30.9373 29.5444 26.7316 33.75 21.5623 33.75C16.3929 33.75 12.1873 29.5444 12.1873 24.375C12.1873 19.2056 16.3929 15 21.5623 15C26.7316 15 30.9373 19.2056 30.9373 24.375ZM12.5463 53.8209L10.9948 47.6128L4.81008 49.1588L9.79383 41.0259C10.1913 41.4881 10.661 41.8959 11.2095 42.2128L11.292 42.2606C13.0001 43.2459 15.0748 43.2337 16.7604 42.3009C17.1776 42.9937 17.7438 43.5722 18.4048 44.0194L12.5463 53.8209ZM38.3144 49.1597L32.1298 47.6137L30.5782 53.8219L24.7244 44.0269C25.3807 43.5788 25.947 42.9984 26.366 42.3019C28.0516 43.2347 30.1245 43.2469 31.8335 42.2616L31.916 42.2137C32.4644 41.8969 32.9341 41.4891 33.3316 41.0269L38.3144 49.1597ZM37.7829 27.9122L36.446 28.3622L37.3788 29.4206C38.4344 30.6178 38.6126 32.3409 37.8241 33.7078L37.7763 33.7903C36.9869 35.1562 35.4119 35.8659 33.8407 35.5481L32.4579 35.2697L32.7363 36.6525C33.0513 38.2172 32.3454 39.7987 30.9785 40.5881L30.896 40.6359C29.5301 41.4244 27.8051 41.2453 26.6088 40.1906L25.5504 39.2578L25.1004 40.5947C24.5904 42.1087 23.1879 43.125 21.5154 43.125C19.9357 43.125 18.5332 42.1087 18.0241 40.5956L17.5741 39.2588L16.5157 40.1916C15.3195 41.2472 13.5963 41.4272 12.2285 40.6369L12.146 40.5891C10.7791 39.7997 10.0732 38.2181 10.3882 36.6534L10.6666 35.2706L9.28383 35.5491C7.71633 35.8659 6.13758 35.1581 5.3482 33.7912L5.30039 33.7088C4.51101 32.3419 4.69008 30.6187 5.7457 29.4216L6.67851 28.3631L5.34164 27.9131C3.82852 27.4031 2.81227 26.0006 2.81227 24.4219V24.3272C2.81227 22.7484 3.82852 21.3459 5.34164 20.8369L6.67851 20.3869L5.7457 19.3284C4.69102 18.1313 4.51195 16.4081 5.30039 15.0413L5.3482 14.9588C6.13758 13.5919 7.72289 12.8841 9.28383 13.2009L10.6666 13.4794L10.3882 12.0966C10.0723 10.5309 10.7791 8.94938 12.146 8.16094L12.2285 8.11313C13.5963 7.32281 15.3185 7.50281 16.5157 8.55844L17.5741 9.49125L18.0241 8.15438C18.5341 6.64125 19.9366 5.625 21.6091 5.625C23.1888 5.625 24.5913 6.64125 25.1004 8.15438L25.5504 9.49125L26.6088 8.55844C27.8079 7.50469 29.531 7.32469 30.896 8.11313L30.9373 8.1375V12.6928C28.2916 10.575 24.9832 9.375 21.5623 9.375C13.2916 9.375 6.56226 16.1044 6.56226 24.375C6.56226 32.6456 13.2916 39.375 21.5623 39.375C29.5169 39.375 36.027 33.1463 36.5145 25.3125H40.1904C39.8885 26.5078 39.0026 27.5025 37.7829 27.9122ZM57.1873 22.5C57.1873 23.0175 56.7673 23.4375 56.2498 23.4375H33.7498C33.2323 23.4375 32.8123 23.0175 32.8123 22.5V3.75C32.8123 3.2325 33.2323 2.8125 33.7498 2.8125H38.4373V8.4375H51.5623V2.8125H56.2498C56.7673 2.8125 57.1873 3.2325 57.1873 3.75V22.5Z" fill="#C69C72"/>
<path d="M49.6875 19.6875H51.5625V21.5625H49.6875V19.6875Z" fill="#C69C72"/>
<path d="M53.4375 19.6875H55.3125V21.5625H53.4375V19.6875Z" fill="#C69C72"/>
<path d="M45.9375 19.6875H47.8125V21.5625H45.9375V19.6875Z" fill="#C69C72"/>
<path d="M45.9375 15.9375H55.3125V17.8125H45.9375V15.9375Z" fill="#C69C72"/>
<path d="M19.6877 28.6743L17.538 26.5247L16.2124 27.8503L19.6877 31.3256L28.788 22.2253L27.4624 20.8997L19.6877 28.6743Z" fill="#C69C72"/>
</svg>
