<svg width="60" height="60" viewBox="0 0 60 60" fill="none" xmlns="http://www.w3.org/2000/svg">
<path d="M17.1094 16.0332V21.6582C17.1094 22.3053 17.634 22.8301 18.2812 22.8301H41.7188C42.3659 22.8301 42.8906 22.3053 42.8906 21.6582V16.0332C42.8906 15.3861 42.3659 14.8613 41.7188 14.8613H18.2812C17.634 14.8613 17.1094 15.3861 17.1094 16.0332ZM19.4531 17.2051H40.5469V20.4863H19.4531V17.2051Z" fill="#E97F54"/>
<path d="M13.1836 27.752C13.1836 28.3991 13.7082 28.9238 14.3555 28.9238H45.6445C46.2916 28.9238 46.8164 28.3991 46.8164 27.752C46.8164 27.1048 46.2916 26.5801 45.6445 26.5801H14.3555C13.7082 26.5801 13.1836 27.1048 13.1836 27.752Z" fill="#E97F54"/>
<path d="M15.4688 37.2444C15.1605 37.2444 14.8582 37.3698 14.6402 37.5879C14.4223 37.8057 14.2969 38.1082 14.2969 38.4163C14.2969 38.7246 14.4223 39.0268 14.6402 39.2448C14.8582 39.4627 15.1605 39.5881 15.4688 39.5881C15.777 39.5881 16.0793 39.4629 16.2973 39.2448C16.5152 39.0268 16.6406 38.7246 16.6406 38.4163C16.6406 38.1069 16.5152 37.8057 16.2973 37.5879C16.0793 37.3699 15.777 37.2444 15.4688 37.2444Z" fill="#E97F54"/>
<path d="M28.2973 34.2689L26.0042 36.5719C25.855 36.7217 25.6804 36.7442 25.5896 36.7443C25.5894 36.7443 25.5892 36.7443 25.5891 36.7443C25.4982 36.7443 25.3239 36.7219 25.1745 36.5724L24.8902 36.2877C24.3371 35.7337 23.6012 35.4285 22.8184 35.4282C22.818 35.4282 22.8177 35.4282 22.8174 35.4282C22.035 35.4282 21.2993 35.733 20.7461 36.2861L19.4448 37.5872C18.9872 38.0448 18.9871 38.7869 19.4447 39.2446C19.6736 39.4734 19.9735 39.5878 20.2733 39.5878C20.5732 39.5878 20.8732 39.4734 21.102 39.2446L22.4032 37.9434C22.5524 37.7942 22.7267 37.7718 22.8174 37.7718H22.8176C22.9082 37.7718 23.0826 37.7942 23.2319 37.9437L23.5162 38.2285C24.0698 38.7827 24.8057 39.0879 25.589 39.0879H25.5911C26.3751 39.0873 27.1116 38.7811 27.6648 38.2255L29.958 35.9226C30.4145 35.464 30.413 34.722 29.9543 34.2653C29.496 33.8087 28.754 33.8104 28.2973 34.2689Z" fill="#E97F54"/>
<path d="M30.0156 11.5803C30.3238 11.5803 30.625 11.455 30.8441 11.237C31.062 11.019 31.1875 10.7168 31.1875 10.4084C31.1875 10.1002 31.0621 9.7979 30.8441 9.58005C30.6262 9.36208 30.3238 9.23657 30.0156 9.23657C29.7063 9.23657 29.4039 9.36196 29.1871 9.58005C28.9691 9.7979 28.8438 10.1002 28.8438 10.4084C28.8438 10.7168 28.9691 11.019 29.1871 11.237C29.4051 11.455 29.7063 11.5803 30.0156 11.5803Z" fill="#E97F54"/>
<path d="M58.8281 4.08008H1.17188C0.524648 4.08008 0 4.60473 0 5.25195V50.252C0 50.8991 0.524648 51.4238 1.17188 51.4238H36.7969V54.7478C36.7969 55.2235 37.0843 55.652 37.5245 55.8323C37.9648 56.0123 38.4701 55.9089 38.8038 55.57L41.7188 52.6095L44.6337 55.5702C44.8584 55.7983 45.1609 55.9198 45.469 55.9198C45.6184 55.9198 45.7692 55.8913 45.913 55.8324C46.3532 55.6521 46.6406 55.2236 46.6406 54.748V51.4239H58.8281C59.4752 51.4239 60 50.8992 60 50.2521V5.25207C60 4.60484 59.4752 4.08008 58.8281 4.08008ZM41.7188 43.9238C39.0695 43.9238 36.9141 41.7684 36.9141 39.1191C36.9141 36.4699 39.0695 34.3145 41.7188 34.3145C44.368 34.3145 46.5234 36.4699 46.5234 39.1191C46.5234 41.7685 44.368 43.9238 41.7188 43.9238ZM44.2969 51.8873L42.5538 50.117C42.3335 49.8932 42.0327 49.7673 41.7188 49.7673C41.4048 49.7673 41.104 49.8932 40.8837 50.117L39.1406 51.8873V45.7847C39.941 46.0953 40.81 46.2676 41.7188 46.2676C42.6275 46.2676 43.4965 46.0953 44.2969 45.7847V51.8873ZM57.6562 49.0801H46.6406V46.2676H53.6719C54.319 46.2676 54.8438 45.7428 54.8438 45.0957V10.4082C54.8438 9.76109 54.319 9.23633 53.6719 9.23633H35.2883C34.6411 9.23633 34.1164 9.76109 34.1164 10.4082C34.1164 11.0553 34.6411 11.5801 35.2883 11.5801H52.5V43.9238H47.0073C48.1623 42.6536 48.8672 40.9672 48.8672 39.1191C48.8672 35.1774 45.6605 31.9707 41.7188 31.9707C37.777 31.9707 34.5703 35.1774 34.5703 39.1191C34.5703 40.9672 35.2752 42.6536 36.4302 43.9238H7.5V11.5801H24.7413C25.3886 11.5801 25.9132 11.0553 25.9132 10.4082C25.9132 9.76109 25.3886 9.23633 24.7413 9.23633H6.32812C5.6809 9.23633 5.15625 9.76109 5.15625 10.4082V45.0957C5.15625 45.7428 5.6809 46.2676 6.32812 46.2676H36.7969V49.0801H2.34375V6.42383H57.6562V49.0801Z" fill="#E97F54"/>
</svg>
