<svg width="100" height="100" viewBox="0 0 100 100" fill="none" xmlns="http://www.w3.org/2000/svg">
<path d="M85.3553 14.6447C75.9115 5.20078 63.3555 0 50 0C36.6445 0 24.0885 5.20078 14.6447 14.6447C5.20078 24.0885 0 36.6445 0 50C0 63.3555 5.20078 75.9115 14.6447 85.3553C24.0885 94.7992 36.6445 100 50 100C63.3555 100 75.9115 94.7992 85.3553 85.3553C94.7992 75.9115 100 63.3555 100 50C100 36.6445 94.7992 24.0885 85.3553 14.6447ZM50 96.0938C24.5838 96.0938 3.90625 75.4162 3.90625 50C3.90625 24.5838 24.5838 3.90625 50 3.90625C75.4162 3.90625 96.0938 24.5838 96.0938 50C96.0938 75.4162 75.4162 96.0938 50 96.0938Z" fill="#B7D041"/>
<path d="M79.0708 20.9286C65.0935 6.9513 43.123 4.89075 26.8298 16.0286C25.9394 16.6374 25.7109 17.8527 26.3197 18.7433C26.9286 19.6341 28.1441 19.8622 29.0343 19.2534C43.7773 9.17513 63.6591 11.0413 76.3085 23.6908C83.3361 30.7183 87.2064 40.0618 87.2064 50.0001C87.2064 59.9386 83.3363 69.282 76.3087 76.3095C69.2812 83.337 59.9376 87.2072 49.9994 87.2072C40.0611 87.2072 30.7175 83.337 23.69 76.3095C11.171 63.7908 9.21595 44.0408 19.041 29.3484C19.6406 28.4517 19.3997 27.2388 18.5031 26.6392C17.6064 26.0394 16.3935 26.2804 15.7939 27.1771C4.93587 43.414 7.09505 65.239 20.9279 79.0718C28.6931 86.8368 39.0175 91.1134 49.9994 91.1134C60.9812 91.1134 71.3056 86.8368 79.0708 79.0716C86.8361 71.3064 91.1126 60.982 91.1126 50.0001C91.1126 39.0183 86.8361 28.6939 79.0708 20.9286Z" fill="#B7D041"/>
<path d="M22.1896 24.3833C22.6918 24.3833 23.1939 24.1909 23.5755 23.8064L23.6171 23.7646L23.6291 23.7526C24.3927 22.9909 24.3884 21.7601 23.6265 20.9964C22.8648 20.2327 21.6224 20.237 20.8586 20.9987L20.8035 21.054C20.0435 21.8194 20.0478 23.0562 20.8132 23.8161C21.1945 24.1942 21.6921 24.3833 22.1896 24.3833Z" fill="#B7D041"/>
<path d="M81.8348 51.9894C82.9135 51.9894 83.7879 51.115 83.7879 50.0363C83.7879 48.9575 82.9135 48.0831 81.8348 48.0831H79.0762C77.9975 48.0831 77.123 48.9575 77.123 50.0363C77.123 51.115 77.9975 51.9894 79.0762 51.9894H81.8348Z" fill="#B7D041"/>
<path d="M18.1641 48.0106C17.0854 48.0106 16.2109 48.885 16.2109 49.9637C16.2109 51.0425 17.0854 51.9169 18.1641 51.9169H20.9227C22.0014 51.9169 22.8758 51.0425 22.8758 49.9637C22.8758 48.885 22.0014 48.0106 20.9227 48.0106H18.1641Z" fill="#B7D041"/>
<path d="M48.0098 79.0774V81.836C48.0098 82.9147 48.8842 83.7891 49.9629 83.7891C51.0416 83.7891 51.916 82.9147 51.916 81.836V79.0774C51.916 77.9987 51.0416 77.1243 49.9629 77.1243C48.8842 77.1243 48.0098 77.9989 48.0098 79.0774Z" fill="#B7D041"/>
<path d="M51.916 20.9952V18.2368C51.916 17.1581 51.0416 16.2837 49.9629 16.2837C48.8842 16.2837 48.0098 17.1581 48.0098 18.2368V20.9952C48.0098 22.0739 48.8842 22.9483 49.9629 22.9483C51.0416 22.9483 51.916 22.0739 51.916 20.9952Z" fill="#B7D041"/>
<path d="M76.6917 60.9343C74.8599 65.406 71.9204 69.3691 68.1915 72.3951C67.9511 72.5902 67.7044 72.7837 67.4581 72.9704C66.5989 73.6226 66.4308 74.8478 67.0829 75.707C67.4671 76.2132 68.0503 76.4796 68.6403 76.4796C69.0517 76.4796 69.4665 76.3501 69.8196 76.0824C70.0993 75.8701 70.3796 75.6501 70.653 75.4285C74.8892 71.9908 78.2275 67.4908 80.3066 62.415C80.7155 61.4169 80.2378 60.2761 79.2396 59.8673C78.2409 59.4579 77.1003 59.9361 76.6917 60.9343Z" fill="#B7D041"/>
<path d="M61.931 80.3469C62.1834 80.3469 62.4398 80.2977 62.6869 80.1938L62.8523 80.1239C63.8449 79.7016 64.3072 78.5545 63.8849 77.5619C63.4626 76.5693 62.316 76.107 61.323 76.5293L61.1734 76.5926C60.1791 77.0106 59.7117 78.1555 60.1296 79.1498C60.4437 79.8973 61.1683 80.3469 61.931 80.3469Z" fill="#B7D041"/>
<path d="M28.2556 71.708C28.6371 72.0895 29.1369 72.2801 29.6367 72.2801C30.1365 72.2801 30.6365 72.0895 31.0177 71.708L46.2974 56.4283C47.3882 57.059 48.6521 57.4219 49.9999 57.4219C54.0923 57.4219 57.4218 54.0924 57.4218 50C57.4218 45.9076 54.0923 42.5782 49.9999 42.5782C48.6617 42.5782 47.406 42.936 46.3206 43.5584L38.588 35.8258C37.8253 35.0631 36.5886 35.0631 35.8257 35.8258C35.0628 36.5885 35.063 37.8252 35.8257 38.5881L43.5583 46.3207C42.9359 47.4061 42.5781 48.6617 42.5781 50C42.5781 51.3289 42.9308 52.5762 43.5451 53.6563L28.2556 68.9457C27.4929 69.7086 27.4929 70.9453 28.2556 71.708ZM53.5156 50C53.5156 51.9385 51.9384 53.5156 49.9999 53.5156C48.0615 53.5156 46.4843 51.9385 46.4843 50C46.4843 48.0615 48.0615 46.4844 49.9999 46.4844C51.9384 46.4844 53.5156 48.0615 53.5156 50Z" fill="#B7D041"/>
</svg>
