<svg width="18" height="18" viewBox="0 0 18 18" fill="none" xmlns="http://www.w3.org/2000/svg">
<g clip-path="url(#clip0)">
<path fill-rule="evenodd" clip-rule="evenodd" d="M9 1.97802C7.13766 1.97802 5.35159 2.71784 4.03471 4.03471C2.71784 5.35159 1.97802 7.13766 1.97802 9C1.97802 9.92214 2.15965 10.8352 2.51254 11.6872C2.86543 12.5391 3.38266 13.3132 4.03471 13.9653C4.68676 14.6173 5.46086 15.1346 6.31281 15.4875C7.16475 15.8403 8.07786 16.022 9 16.022C9.92214 16.022 10.8352 15.8403 11.6872 15.4875C12.5391 15.1346 13.3132 14.6173 13.9653 13.9653C14.6173 13.3132 15.1346 12.5391 15.4875 11.6872C15.8403 10.8352 16.022 9.92214 16.022 9C16.022 7.13766 15.2822 5.35159 13.9653 4.03471C12.6484 2.71784 10.8623 1.97802 9 1.97802ZM2.63604 2.63604C4.32387 0.948212 6.61305 0 9 0C11.3869 0 13.6761 0.948212 15.364 2.63604C17.0518 4.32387 18 6.61305 18 9C18 10.1819 17.7672 11.3522 17.3149 12.4442C16.8626 13.5361 16.1997 14.5282 15.364 15.364C14.5282 16.1997 13.5361 16.8626 12.4442 17.3149C11.3522 17.7672 10.1819 18 9 18C7.8181 18 6.64778 17.7672 5.55585 17.3149C4.46392 16.8626 3.47177 16.1997 2.63604 15.364C1.80031 14.5282 1.13738 13.5361 0.685084 12.4442C0.232792 11.3522 0 10.1819 0 9C5.89497e-08 6.61305 0.948212 4.32387 2.63604 2.63604ZM9 4.45055C9.54622 4.45055 9.98901 4.89334 9.98901 5.43956V8.59034L12.3697 10.971C12.7559 11.3572 12.7559 11.9834 12.3697 12.3697C11.9834 12.7559 11.3572 12.7559 10.971 12.3697L8.30066 9.69934C8.11519 9.51386 8.01099 9.2623 8.01099 9V5.43956C8.01099 4.89334 8.45378 4.45055 9 4.45055Z" fill="#E97F54"/>
</g>
<defs>
<clipPath id="clip0">
<rect width="18" height="18" fill="white"/>
</clipPath>
</defs>
</svg>
