<svg width="60" height="60" viewBox="0 0 60 60" fill="none" xmlns="http://www.w3.org/2000/svg">
<path d="M34.5046 42.2576C34.6994 41.8044 34.8077 41.3055 34.8077 40.7818C34.8077 38.7138 33.1252 37.0312 31.0571 37.0312H29.4605H25.6816L27.4724 34.0186C27.9995 33.1319 28.1336 32.0563 27.8404 31.0673C27.5471 30.0785 26.8482 29.2499 25.9232 28.7941C24.8821 28.2811 23.6424 28.2879 22.6069 28.8119C19.6398 30.3142 16.9398 32.3676 14.6846 34.819C14.4839 34.4611 14.1016 34.2187 13.6621 34.2187H3.34961C2.7025 34.2187 2.17773 34.7435 2.17773 35.3906V41.8359C2.17773 42.483 2.7025 43.0078 3.34961 43.0078C3.99672 43.0078 4.52148 42.483 4.52148 41.8359V36.5625H12.4902V57.6562H4.52148V52.3828C4.52148 51.7357 3.99672 51.2109 3.34961 51.2109C2.7025 51.2109 2.17773 51.7357 2.17773 52.3828V58.8281C2.17773 59.4752 2.7025 60 3.34961 60H13.6621C14.3092 60 14.834 59.4752 14.834 58.8281V58.786C16.2278 59.5699 17.8155 60 19.4277 60H30.2441C32.311 60 33.9923 58.3185 33.9923 56.2517C33.9923 55.7552 33.8944 55.2814 33.7183 54.8474H33.7913C35.8594 54.8474 37.542 53.1649 37.542 51.0968C37.542 50.0985 37.1492 49.1908 36.511 48.5181C37.1492 47.8453 37.542 46.9376 37.542 45.9392C37.5419 44.1151 36.2327 42.5917 34.5046 42.2576ZM33.7912 52.5035H26.1446C25.4975 52.5035 24.9727 53.0283 24.9727 53.6754C24.9727 54.3225 25.4975 54.8472 26.1446 54.8472H30.2439C31.0183 54.8472 31.6483 55.4772 31.6483 56.2516C31.6483 57.026 31.0184 57.6562 30.244 57.6562H19.4276C17.7463 57.6562 16.1003 57.034 14.8339 55.9373V38.2915L14.9139 38.1865C17.2305 35.1473 20.2567 32.6289 23.6657 30.903C24.0469 30.7099 24.5034 30.7073 24.8871 30.8965C25.233 31.0667 25.4837 31.3642 25.5933 31.7338C25.703 32.1034 25.6547 32.4894 25.4579 32.8208L22.6143 37.6043C22.3989 37.9664 22.3947 38.4163 22.6029 38.7825C22.8113 39.1488 23.2002 39.375 23.6215 39.375H31.057C31.8326 39.375 32.4638 40.0062 32.4638 40.7818C32.4638 41.5575 31.8326 42.1887 31.057 42.1887H26.1446C25.4975 42.1887 24.9727 42.7134 24.9727 43.3605C24.9727 44.0076 25.4975 44.5324 26.1446 44.5324H33.7912C34.567 44.5324 35.1981 45.1636 35.1981 45.9392C35.1981 46.715 34.567 47.3462 33.7912 47.3462H26.1446C25.4975 47.3462 24.9727 47.871 24.9727 48.5181C24.9727 49.1652 25.4975 49.6899 26.1446 49.6899H33.7912C34.567 49.6899 35.1981 50.3211 35.1981 51.0968C35.1981 51.8724 34.5671 52.5035 33.7912 52.5035Z" fill="#E97F54"/>
<path d="M40.505 14.5004L35.4771 13.77L33.2285 9.21375C33.031 8.81379 32.6237 8.56055 32.1776 8.56055C31.7314 8.56055 31.3241 8.81379 31.1266 9.21375L28.878 13.77L23.8501 14.5004C23.4085 14.5646 23.042 14.8739 22.9041 15.2981C22.7662 15.7223 22.8812 16.188 23.2005 16.4994L26.8389 20.0459L25.98 25.0535C25.9045 25.4932 26.0853 25.9375 26.4463 26.1996C26.8072 26.4618 27.2857 26.4962 27.6804 26.2889L32.1776 23.9245L36.6748 26.2889C36.8462 26.3791 37.0335 26.4234 37.2199 26.4234C37.4628 26.4234 37.7047 26.3479 37.9089 26.1996C38.2697 25.9375 38.4505 25.4932 38.3751 25.0535L37.5163 20.0459L41.1546 16.4994C41.474 16.188 41.5889 15.7223 41.4511 15.2981C41.3133 14.8739 40.9466 14.5646 40.505 14.5004ZM35.4391 18.7975C35.163 19.0668 35.0369 19.4545 35.1021 19.8348L35.6638 23.1094L32.723 21.5633C32.5523 21.4736 32.3649 21.4288 32.1777 21.4288C31.9904 21.4288 31.803 21.4737 31.6324 21.5633L28.6916 23.1094L29.2533 19.8348C29.3184 19.4546 29.1923 19.0668 28.9162 18.7975L26.5371 16.4784L29.8249 16.0008C30.2067 15.9452 30.5366 15.7055 30.7073 15.3596L32.1777 12.3803L33.648 15.3596C33.8188 15.7055 34.1487 15.9452 34.5305 16.0008L37.8183 16.4784L35.4391 18.7975Z" fill="#E97F54"/>
<path d="M57.7643 17.2985C57.6264 16.8743 57.2597 16.565 56.8182 16.5008L52.9662 15.9412L51.2435 12.4504C51.046 12.0505 50.6387 11.7972 50.1926 11.7972C49.7464 11.7972 49.3391 12.0505 49.1416 12.4504L47.419 15.9412L43.5669 16.5008C43.1253 16.565 42.7588 16.8743 42.6208 17.2985C42.483 17.7227 42.598 18.1884 42.9173 18.4998L45.7048 21.2169L45.0467 25.0534C44.9713 25.4931 45.1521 25.9373 45.513 26.1995C45.874 26.4619 46.3524 26.4961 46.7471 26.2888L50.1926 24.4774L53.638 26.2888C53.8094 26.3789 53.9967 26.4233 54.1832 26.4233C54.4261 26.4233 54.668 26.3477 54.8721 26.1995C55.2329 25.9373 55.4137 25.4931 55.3384 25.0534L54.6804 21.2169L57.4678 18.4998C57.7871 18.1884 57.902 17.7227 57.7643 17.2985ZM52.6031 19.9685C52.327 20.2378 52.2009 20.6256 52.2661 21.0058L52.6269 23.1092L50.7378 22.1161C50.5671 22.0263 50.3798 21.9815 50.1926 21.9815C50.0053 21.9815 49.818 22.0264 49.6473 22.1161L47.7582 23.1092L48.1191 21.0058C48.1842 20.6257 48.0581 20.2378 47.782 19.9685L46.2537 18.4788L48.3656 18.172C48.7474 18.1165 49.0773 17.8767 49.248 17.5309L50.1926 15.617L51.1371 17.5309C51.3078 17.8767 51.6377 18.1165 52.0195 18.172L54.1315 18.4788L52.6031 19.9685Z" fill="#E97F54"/>
<path d="M9.67448 21.2169L9.01647 25.0534C8.941 25.4931 9.12183 25.9373 9.48276 26.1995C9.8437 26.4619 10.3221 26.4961 10.7169 26.2888L14.1623 24.4774L17.6077 26.2888C17.7792 26.3789 17.9664 26.4233 18.1529 26.4233C18.3958 26.4233 18.6377 26.3477 18.8418 26.1995C19.2026 25.9373 19.3835 25.4931 19.3081 25.0534L18.6501 21.2169L21.4375 18.4998C21.757 18.1884 21.8718 17.7227 21.734 17.2985C21.5961 16.8743 21.2294 16.565 20.788 16.5008L16.9359 15.9412L15.2132 12.4504C15.0158 12.0505 14.6084 11.7972 14.1623 11.7972C13.7162 11.7972 13.3088 12.0505 13.1114 12.4504L11.3887 15.9412L7.53663 16.5008C7.09507 16.565 6.72851 16.8743 6.59058 17.2985C6.45276 17.7227 6.56772 18.1884 6.88706 18.4998L9.67448 21.2169ZM12.3353 18.172C12.7171 18.1165 13.047 17.8767 13.2178 17.5309L14.1623 15.617L15.1068 17.5309C15.2776 17.8767 15.6075 18.1165 15.9892 18.172L18.1012 18.4788L16.5728 19.9685C16.2967 20.2378 16.1707 20.6256 16.2358 21.0058L16.5966 23.1092L14.7076 22.1161C14.5368 22.0263 14.3496 21.9815 14.1623 21.9815C13.975 21.9815 13.7878 22.0264 13.617 22.1161L11.728 23.1092L12.0888 21.0058C12.1539 20.6257 12.0278 20.2378 11.7517 19.9685L10.2234 18.4788L12.3353 18.172Z" fill="#E97F54"/>
<path d="M32.167 5.80301C32.8141 5.80301 33.3389 5.27824 33.3389 4.63113V1.17188C33.3389 0.524766 32.8141 0 32.167 0C31.5199 0 30.9951 0.524766 30.9951 1.17188V4.63113C30.9951 5.27824 31.5199 5.80301 32.167 5.80301Z" fill="#E97F54"/>
<path d="M23.5207 8.32864C23.7496 8.55739 24.0495 8.67188 24.3493 8.67188C24.6492 8.67188 24.9491 8.55739 25.178 8.32864C25.6356 7.87103 25.6356 7.129 25.178 6.67126L23.1481 4.64134C22.6903 4.18384 21.9485 4.18384 21.4907 4.64134C21.0331 5.09896 21.0331 5.84099 21.4907 6.29872L23.5207 8.32864Z" fill="#E97F54"/>
<path d="M40.006 8.67197C40.3058 8.67197 40.6057 8.55748 40.8346 8.32873L42.8646 6.2988C43.3223 5.84119 43.3223 5.09927 42.8646 4.64142C42.407 4.18404 41.6652 4.18392 41.2073 4.64142L39.1772 6.67146C38.7196 7.12908 38.7196 7.87099 39.1772 8.32884C39.4062 8.55748 39.706 8.67197 40.006 8.67197Z" fill="#E97F54"/>
<path d="M4.17812 47.9378C4.39609 47.7199 4.52148 47.4176 4.52148 47.1094C4.52148 46.8012 4.39621 46.4988 4.17812 46.2809C3.95898 46.0629 3.65781 45.9375 3.34961 45.9375C3.04141 45.9375 2.73906 46.0628 2.51992 46.2809C2.30207 46.4988 2.17773 46.8012 2.17773 47.1094C2.17773 47.4176 2.30207 47.7199 2.51992 47.9378C2.73906 48.1557 3.04023 48.2812 3.34961 48.2812C3.65781 48.2812 3.96015 48.1559 4.17812 47.9378Z" fill="#E97F54"/>
</svg>
