<svg width="60" height="60" viewBox="0 0 60 60" fill="none" xmlns="http://www.w3.org/2000/svg">
<path d="M46.875 45.9375C45.3244 45.9375 44.0625 47.1994 44.0625 48.75C44.0625 50.3006 45.3244 51.5625 46.875 51.5625C48.4256 51.5625 49.6875 50.3006 49.6875 48.75C49.6875 47.1994 48.4256 45.9375 46.875 45.9375ZM46.875 49.6875C46.3575 49.6875 45.9375 49.2675 45.9375 48.75C45.9375 48.2325 46.3575 47.8125 46.875 47.8125C47.3925 47.8125 47.8125 48.2325 47.8125 48.75C47.8125 49.2675 47.3925 49.6875 46.875 49.6875Z" fill="#517159"/>
<path d="M16.875 45.9375C15.3244 45.9375 14.0625 47.1994 14.0625 48.75C14.0625 50.3006 15.3244 51.5625 16.875 51.5625C18.4256 51.5625 19.6875 50.3006 19.6875 48.75C19.6875 47.1994 18.4256 45.9375 16.875 45.9375ZM16.875 49.6875C16.3575 49.6875 15.9375 49.2675 15.9375 48.75C15.9375 48.2325 16.3575 47.8125 16.875 47.8125C17.3925 47.8125 17.8125 48.2325 17.8125 48.75C17.8125 49.2675 17.3925 49.6875 16.875 49.6875Z" fill="#517159"/>
<path d="M56.4712 33.75L55.2206 33.1247L53.9466 25.4803C53.5687 23.2097 51.6234 21.5625 49.3228 21.5625H39.375C37.8497 21.5625 36.5053 22.3059 35.6494 23.4375H32.8125V14.0625H27.1875V4.6875H14.0625V14.0625H8.4375V23.4375H2.8125V32.8125C1.77844 32.8125 0.9375 33.6534 0.9375 34.6875V36.5625C0.9375 37.5966 1.77844 38.4375 2.8125 38.4375V46.875C2.8125 48.4256 4.07437 49.6875 5.625 49.6875H10.3875C10.845 52.8619 13.5759 55.3125 16.875 55.3125C20.1741 55.3125 22.905 52.8619 23.3625 49.6875H40.3875C40.845 52.8619 43.5759 55.3125 46.875 55.3125C50.1741 55.3125 52.905 52.8619 53.3625 49.6875H56.25C57.8006 49.6875 59.0625 48.4256 59.0625 46.875V37.9425C59.0625 36.1556 58.0697 34.5506 56.4712 33.75ZM57.1875 42.5456L55.3125 41.6081V40.3125H57.1875V42.5456ZM19.6875 25.3125H21.5625V27.1875H19.6875V25.3125ZM23.4375 29.0625V25.3125H25.3125V32.8125H15.9375V25.3125H17.8125V29.0625H23.4375ZM34.6875 32.8125H27.1875V25.3125H29.0625V29.0625H34.6875V32.8125ZM34.6875 26.25V27.1875H30.9375V25.3125H34.7822C34.7203 25.6153 34.6875 25.9294 34.6875 26.25ZM30.9375 23.4375H27.1875H25.3125H21.5625V15.9375H23.4375V19.6875H29.0625V15.9375H30.9375V23.4375ZM25.3125 15.9375H27.1875V17.8125H25.3125V15.9375ZM19.6875 6.5625H21.5625V8.4375H19.6875V6.5625ZM15.9375 6.5625H17.8125V10.3125H23.4375V6.5625H25.3125V14.0625H21.5625H19.6875H15.9375V6.5625ZM14.0625 15.9375H15.9375V17.8125H14.0625V15.9375ZM10.3125 15.9375H12.1875V19.6875H17.8125V15.9375H19.6875V23.4375H15.9375H14.0625H10.3125V15.9375ZM8.4375 25.3125H10.3125V27.1875H8.4375V25.3125ZM4.6875 25.3125H6.5625V29.0625H12.1875V25.3125H14.0625V32.8125H4.6875V25.3125ZM2.8125 34.6875H34.6875V36.5625H2.8125V34.6875ZM4.6875 42.1875H8.17406L7.70531 44.0625H4.6875V42.1875ZM4.6875 46.875V45.9375H9.16969L10.5759 40.3125H4.6875V38.4375H34.6875V47.8125H23.3625C22.905 44.6381 20.1741 42.1875 16.875 42.1875C13.5759 42.1875 10.845 44.6381 10.3875 47.8125H5.625C5.1075 47.8125 4.6875 47.3925 4.6875 46.875ZM16.875 53.4375C14.2903 53.4375 12.1875 51.3347 12.1875 48.75C12.1875 46.1653 14.2903 44.0625 16.875 44.0625C19.4597 44.0625 21.5625 46.1653 21.5625 48.75C21.5625 51.3347 19.4597 53.4375 16.875 53.4375ZM45.9375 32.8125H49.6875V34.6875H48.75H47.8125C46.7784 34.6875 45.9375 33.8466 45.9375 32.8125ZM45.9375 30.9375C44.9034 30.9375 44.0625 31.7784 44.0625 32.8125C44.0625 33.4988 44.2612 34.1334 44.5837 34.6875H40.3125V27.1875H48.7931L49.4953 30.9375H45.9375ZM40.3125 36.5625H47.8125H48.75H49.6875V42.8297C48.8334 42.4228 47.8819 42.1875 46.875 42.1875C43.5759 42.1875 40.845 44.6381 40.3875 47.8125H40.3125V36.5625ZM46.875 53.4375C44.2903 53.4375 42.1875 51.3347 42.1875 48.75C42.1875 46.1653 44.2903 44.0625 46.875 44.0625C49.4597 44.0625 51.5625 46.1653 51.5625 48.75C51.5625 51.3347 49.4597 53.4375 46.875 53.4375ZM56.25 47.8125H53.3625C53.16 46.4044 52.5131 45.1387 51.5625 44.1666V31.875L50.6372 26.8444C50.4722 25.9575 49.6969 25.3125 48.7941 25.3125H40.3125C39.2784 25.3125 38.4375 26.1534 38.4375 27.1875V47.8125H36.5625V26.25C36.5625 24.6994 37.8244 23.4375 39.375 23.4375H49.3228C50.7038 23.4375 51.87 24.4266 52.0969 25.7878L53.5284 34.3753L55.6322 35.4272C56.5913 35.9072 57.1875 36.8709 57.1875 37.9425V38.4375H53.4375V42.7669L57.1875 44.6419V46.875C57.1875 47.3925 56.7675 47.8125 56.25 47.8125Z" fill="#517159"/>
</svg>
