<svg width="18" height="18" viewBox="0 0 18 18" fill="none" xmlns="http://www.w3.org/2000/svg">
<g clip-path="url(#clip0)">
<path d="M17.3169 -0.0402832H0.682931C0.282903 -0.0402832 -0.0402832 0.282903 -0.0402832 0.682931V17.3169C-0.0402832 17.7169 0.282903 18.0401 0.682931 18.0401H17.3169C17.7169 18.0401 18.0401 17.7169 18.0401 17.3169V0.682931C18.0401 0.282903 17.7169 -0.0402832 17.3169 -0.0402832ZM15.2286 5.23692H13.7844C12.6521 5.23692 12.4329 5.77481 12.4329 6.56583V8.30832H15.1359L14.7834 11.0362H12.4329V18.0401H9.61463V11.0385H7.2574V8.30832H9.61463V6.29688C9.61463 3.96226 11.0407 2.68985 13.1245 2.68985C14.1234 2.68985 14.98 2.76443 15.2308 2.79833V5.23692H15.2286Z" fill="#B7D041"/>
</g>
<defs>
<clipPath id="clip0">
<rect width="18" height="18" fill="white"/>
</clipPath>
</defs>
</svg>
