<svg width="100" height="100" viewBox="0 0 100 100" fill="none" xmlns="http://www.w3.org/2000/svg">
<path d="M92.1878 81.25C92.6022 81.25 92.9996 81.0854 93.2926 80.7924C93.5856 80.4994 93.7503 80.1019 93.7503 79.6875V26.5625C93.7503 26.2796 93.6736 26.0021 93.5282 25.7594C93.3828 25.5167 93.1743 25.3181 92.9249 25.1846C92.6755 25.0511 92.3945 24.9879 92.112 25.0016C91.8294 25.0154 91.5559 25.1055 91.3206 25.2625L90.5112 25.8016C90.1771 23.273 89.0247 20.9232 87.2299 19.111C87.6055 18.9987 87.9889 18.9141 88.3768 18.8578L89.269 18.736C89.4724 18.7083 89.6683 18.6408 89.8455 18.5374C90.0228 18.434 90.1779 18.2967 90.3021 18.1333C90.4263 17.9699 90.5171 17.7837 90.5694 17.5852C90.6216 17.3867 90.6342 17.1799 90.6065 16.9766C90.5788 16.7732 90.5113 16.5773 90.4079 16.4001C90.3045 16.2228 90.1672 16.0677 90.0038 15.9435C89.8405 15.8193 89.6542 15.7285 89.4558 15.6762C89.2573 15.624 89.0505 15.6114 88.8471 15.6391L87.9534 15.761C86.6683 15.9383 85.4238 16.3374 84.2753 16.9407C82.907 16.2232 81.4082 15.7887 79.8684 15.6631C78.3286 15.5375 76.7792 15.7233 75.3128 16.2094C76.12 15.1408 76.5586 13.8392 76.5628 12.5C76.5628 10.8424 75.9043 9.25271 74.7322 8.08061C73.5601 6.90851 71.9704 6.25003 70.3128 6.25003C69.8245 6.24984 69.338 6.30966 68.8643 6.42815C68.146 5.40777 67.1929 4.57506 66.0853 4.00025C64.9777 3.42545 63.7481 3.12539 62.5003 3.12539C61.2524 3.12539 60.0228 3.42545 58.9152 4.00025C57.8077 4.57506 56.8545 5.40777 56.1362 6.42815C55.6625 6.30975 55.176 6.24993 54.6878 6.25003C53.0302 6.25003 51.4405 6.90851 50.2683 8.08061C49.0962 9.25271 48.4378 10.8424 48.4378 12.5C48.4376 12.9883 48.4974 13.4748 48.6159 13.9485C47.7603 14.5478 47.0348 15.3139 46.4828 16.2008C45.9308 17.0876 45.5638 18.0769 45.4039 19.1092C45.2439 20.1415 45.2943 21.1954 45.552 22.2078C45.8097 23.2201 46.2693 24.1699 46.9034 25C46.6786 25.3014 46.4755 25.6183 46.2956 25.9485L38.7503 12.8657L37.1878 10.1563C36.2642 8.55594 35.0344 7.15329 33.5685 6.02849C32.1026 4.9037 30.4295 4.0788 28.6446 3.60096C26.8598 3.12312 24.9983 3.0017 23.1665 3.24363C21.3347 3.48557 19.5686 4.08612 17.969 5.01096C16.1766 6.04877 14.869 7.75511 14.3329 9.75573C13.7969 11.7563 14.0762 13.8879 15.1096 15.6828L16.8956 18.775C17.1043 19.131 17.4452 19.3899 17.8441 19.4954C18.243 19.6009 18.6675 19.5443 19.0248 19.338C19.3821 19.1316 19.6433 18.7924 19.7514 18.3942C19.8595 17.996 19.8058 17.5712 19.6018 17.2125L17.8128 14.1203C17.5046 13.5869 17.3047 12.998 17.2243 12.3873C17.1439 11.7765 17.1847 11.1559 17.3443 10.561C17.5039 9.966 17.7793 9.40833 18.1546 8.91984C18.5299 8.43135 18.9978 8.02163 19.5315 7.71409C20.7755 6.99602 22.1487 6.53 23.5728 6.34264C24.9968 6.15528 26.4439 6.25024 27.8312 6.62211C29.2186 6.99398 30.5191 7.63547 31.6586 8.50996C32.798 9.38445 33.7541 10.4748 34.4721 11.7188L35.2534 13.0703L29.8425 16.1953C29.6647 16.2979 29.5088 16.4345 29.3838 16.5974C29.2588 16.7602 29.1671 16.946 29.1139 17.1443C29.0607 17.3426 29.0471 17.5494 29.0739 17.7529C29.1006 17.9564 29.1672 18.1527 29.2698 18.3305C29.3724 18.5083 29.509 18.6641 29.6718 18.7891C29.8347 18.9141 30.0205 19.0059 30.2188 19.059C30.417 19.1122 30.6238 19.1258 30.8274 19.0991C31.0309 19.0723 31.2272 19.0057 31.405 18.9032L36.8175 15.7782L39.1612 19.8407L33.7487 22.9657C33.4773 23.1246 33.2602 23.3618 33.1258 23.6462C32.9914 23.9306 32.946 24.2489 32.9955 24.5595C33.0449 24.8702 33.187 25.1586 33.4031 25.3872C33.6191 25.6158 33.8992 25.7738 34.2065 25.8407L27.2581 30.4688L22.4643 22.1672C22.2571 21.8081 21.9158 21.5461 21.5154 21.4387C21.1149 21.3313 20.6883 21.3874 20.3292 21.5946C19.9701 21.8018 19.708 22.1431 19.6006 22.5435C19.4932 22.944 19.5493 23.3706 19.7565 23.7297L22.2565 28.0625L18.0518 25.2594C17.8163 25.1031 17.5428 25.0136 17.2605 25.0004C16.9782 24.9873 16.6975 25.051 16.4485 25.1847C16.1995 25.3184 15.9914 25.5172 15.8465 25.7598C15.7015 26.0025 15.625 26.2799 15.6253 26.5625V34.375C15.6253 34.7894 15.7899 35.1869 16.0829 35.4799C16.3759 35.7729 16.7734 35.9375 17.1878 35.9375C17.6022 35.9375 17.9996 35.7729 18.2926 35.4799C18.5856 35.1869 18.7503 34.7894 18.7503 34.375V29.4828L25.6956 34.1125C25.9523 34.2838 26.2541 34.3753 26.5628 34.3753C26.8714 34.3753 27.1732 34.2838 27.43 34.1125L35.9378 28.4375L44.4456 34.1094C44.7023 34.2807 45.0041 34.3721 45.3128 34.3721C45.6214 34.3721 45.9232 34.2807 46.18 34.1094L54.6878 28.4375L63.1956 34.1094C63.4523 34.2807 63.7541 34.3721 64.0628 34.3721C64.3714 34.3721 64.6732 34.2807 64.93 34.1094L71.8753 29.4813V93.75H51.5628C51.1484 93.75 50.7509 93.9146 50.4579 94.2077C50.1649 94.5007 50.0003 94.8981 50.0003 95.3125C50.0003 95.7269 50.1649 96.1244 50.4579 96.4174C50.7509 96.7104 51.1484 96.875 51.5628 96.875H92.1878C92.6022 96.875 92.9996 96.7104 93.2926 96.4174C93.5856 96.1244 93.7503 95.7269 93.7503 95.3125V85.9375C93.7503 85.5231 93.5856 85.1257 93.2926 84.8327C92.9996 84.5396 92.6022 84.375 92.1878 84.375C91.7734 84.375 91.3759 84.5396 91.0829 84.8327C90.7899 85.1257 90.6253 85.5231 90.6253 85.9375V91.5406L84.3753 85.2906V76.5625C84.3753 76.1481 84.2106 75.7507 83.9176 75.4577C83.6246 75.1646 83.2272 75 82.8128 75C82.3984 75 82.0009 75.1646 81.7079 75.4577C81.4149 75.7507 81.2503 76.1481 81.2503 76.5625V85.2906L75.0003 91.5406V29.4813L81.2503 33.6485V53.125C81.2503 53.5394 81.4149 53.9369 81.7079 54.2299C82.0009 54.5229 82.3984 54.6875 82.8128 54.6875C83.2272 54.6875 83.6246 54.5229 83.9176 54.2299C84.2106 53.9369 84.3753 53.5394 84.3753 53.125V33.6485L90.6253 29.4828V79.6875C90.6253 80.1019 90.7899 80.4994 91.0829 80.7924C91.3759 81.0854 91.7734 81.25 92.1878 81.25ZM81.394 19.1203C80.8304 19.7146 80.3332 20.3684 79.9112 21.0703C79.8011 21.2463 79.7271 21.4424 79.6937 21.6473C79.6602 21.8521 79.6679 22.0616 79.7163 22.2634C79.7647 22.4653 79.8528 22.6555 79.9755 22.8229C80.0982 22.9903 80.253 23.1316 80.4309 23.2385C80.6088 23.3454 80.8063 23.4158 81.0117 23.4456C81.2171 23.4753 81.4264 23.4639 81.6273 23.4118C81.8283 23.3598 82.0168 23.2683 82.182 23.1426C82.3472 23.0169 82.4856 22.8595 82.5893 22.6797C83.0472 21.9182 83.628 21.2376 84.3081 20.6657C85.3051 21.4698 86.1093 22.487 86.6617 23.6426C87.2141 24.7982 87.5006 26.0629 87.5003 27.3438C87.5003 27.511 87.4737 27.6703 87.4628 27.8344L82.8128 30.9375L74.305 25.2657C74.0485 25.0933 73.7467 25.0009 73.4378 25C73.4368 23.901 73.1423 22.8221 72.5846 21.875C72.7161 21.6491 72.8335 21.4153 72.9362 21.175C74.0332 20.1072 75.3967 19.3533 76.8843 18.9919C78.372 18.6305 79.9293 18.6748 81.394 19.1203ZM36.805 25.2625C36.6696 25.173 36.5209 25.1055 36.3643 25.0625L40.7237 22.5469L45.4956 30.8125L45.3128 30.9375L36.805 25.2625ZM64.0628 30.9375L57.7112 26.7032C59.514 23.3751 62.4243 20.7827 65.9378 19.375C66.3227 19.2209 66.6307 18.9201 66.7939 18.5389C66.9571 18.1576 66.9622 17.7272 66.8081 17.3422C66.6539 16.9572 66.3531 16.6493 65.9719 16.486C65.5907 16.3228 65.1602 16.3177 64.7753 16.4719C62.9818 17.1968 61.3074 18.187 59.8081 19.4094C59.9524 17.4882 59.7904 15.5563 59.3284 13.686C59.2797 13.4857 59.1919 13.297 59.07 13.1307C58.9481 12.9645 58.7945 12.8241 58.6181 12.7175C58.4417 12.6109 58.2459 12.5402 58.042 12.5096C57.8382 12.479 57.6303 12.4891 57.4304 12.5392C57.2304 12.5893 57.0423 12.6784 56.877 12.8015C56.7117 12.9246 56.5723 13.0792 56.467 13.2564C56.3616 13.4336 56.2924 13.6298 56.2633 13.8339C56.2341 14.0379 56.2456 14.2458 56.2971 14.4453C57.1901 18.0167 56.742 21.7916 55.0378 25.0547C54.8312 25.0046 54.6166 24.9975 54.4073 25.0338C54.1979 25.0701 53.9982 25.149 53.8206 25.2657L48.5362 28.7891C48.7396 27.7736 49.2757 26.8549 50.0596 26.1782C50.2259 26.0315 50.3591 25.8512 50.4503 25.6491C50.5415 25.4471 50.5886 25.228 50.5886 25.0063C50.5886 24.7846 50.5415 24.5655 50.4503 24.3634C50.3591 24.1614 50.2259 23.981 50.0596 23.8344C49.5504 23.3998 49.1417 22.8598 48.8617 22.2517C48.5816 21.6436 48.437 20.982 48.4378 20.3125C48.4417 19.4147 48.7028 18.5368 49.1902 17.7828C49.6776 17.0288 50.3708 16.4302 51.1878 16.0578C51.3801 15.9699 51.5526 15.8439 51.6947 15.6874C51.8369 15.5309 51.9459 15.3472 52.015 15.1473C52.0841 14.9475 52.1119 14.7357 52.0967 14.5248C52.0816 14.3139 52.0238 14.1083 51.9268 13.9203C51.6926 13.4832 51.5677 12.9959 51.5628 12.5C51.5666 11.9671 51.7067 11.444 51.9697 10.9805C52.2327 10.517 52.6098 10.1284 53.0653 9.85175C53.5208 9.57508 54.0395 9.41949 54.5721 9.39977C55.1046 9.38005 55.6334 9.49686 56.1081 9.73909C56.296 9.83604 56.5016 9.89384 56.7125 9.90899C56.9234 9.92414 57.1352 9.89632 57.3351 9.82722C57.5349 9.75812 57.7186 9.64918 57.8752 9.507C58.0317 9.36481 58.1577 9.19234 58.2456 9.00003C58.6144 8.18037 59.2122 7.4847 59.967 6.99666C60.7217 6.50863 61.6014 6.249 62.5003 6.249C63.3991 6.249 64.2788 6.50863 65.0336 6.99666C65.7884 7.4847 66.3861 8.18037 66.755 9.00003C66.8428 9.19256 66.9688 9.36523 67.1254 9.50759C67.282 9.64994 67.4659 9.759 67.6659 9.82815C67.8659 9.89598 68.0775 9.92304 68.2882 9.90775C68.4989 9.89245 68.7043 9.8351 68.8925 9.73909C69.2801 9.53632 69.7063 9.41769 70.143 9.39096C70.5797 9.36424 71.0171 9.43001 71.4266 9.58399C71.8361 9.73797 72.2085 9.97668 72.5194 10.2845C72.8303 10.5923 73.0727 10.9623 73.2308 11.3703C73.3888 11.7782 73.4589 12.215 73.4366 12.6519C73.4142 13.0888 73.2998 13.5161 73.1009 13.9058C72.902 14.2955 72.6231 14.6388 72.2824 14.9133C71.9416 15.1877 71.5468 15.3871 71.1237 15.4985C70.9109 15.5561 70.7126 15.6581 70.542 15.7978C70.3714 15.9376 70.2323 16.1118 70.1339 16.3091C70.0354 16.5065 69.9799 16.7224 69.9708 16.9427C69.9618 17.1631 69.9995 17.3828 70.0815 17.5875C70.2321 17.9567 70.3105 18.3513 70.3128 18.75C70.3103 19.5208 70.0193 20.2628 69.4971 20.8297C69.2389 21.1166 69.096 21.489 69.096 21.875C69.096 22.2611 69.2389 22.6334 69.4971 22.9203C69.9036 23.3629 70.1729 23.9139 70.2724 24.5065C70.3718 25.0991 70.2972 25.7079 70.0575 26.2589C69.8178 26.8099 69.4233 27.2795 68.922 27.6108C68.4207 27.942 67.834 28.1207 67.2331 28.125C67.1925 28.125 67.0268 28.1016 66.9878 28.1C66.7416 28.0837 66.4951 28.1263 66.2688 28.2245C66.0424 28.3227 65.8429 28.4735 65.6866 28.6645C65.5304 28.8554 65.422 29.0809 65.3706 29.3222C65.3192 29.5635 65.3261 29.8135 65.3909 30.0516L64.0628 30.9375ZM82.8128 88.1469L88.4159 93.75H77.2096L82.8128 88.1469Z" fill="#B7D041"/>
<path d="M82.8125 60.9375C82.3981 60.9375 82.0007 61.1021 81.7076 61.3951C81.4146 61.6882 81.25 62.0856 81.25 62.5V68.75C81.25 69.1644 81.4146 69.5618 81.7076 69.8549C82.0007 70.1479 82.3981 70.3125 82.8125 70.3125C83.2269 70.3125 83.6243 70.1479 83.9174 69.8549C84.2104 69.5618 84.375 69.1644 84.375 68.75V62.5C84.375 62.0856 84.2104 61.6882 83.9174 61.3951C83.6243 61.1021 83.2269 60.9375 82.8125 60.9375Z" fill="#B7D041"/>
<path d="M50.0813 80.4047C49.8765 80.3896 49.6707 80.415 49.4757 80.4795C49.2807 80.5439 49.1004 80.6462 48.945 80.7804C48.7895 80.9147 48.6621 81.0782 48.5699 81.2618C48.4778 81.4453 48.4227 81.6452 48.4079 81.85C48.0579 86.6562 44.7219 93.75 42.1875 93.75C40.8308 93.7458 39.5132 93.2956 38.4375 92.4688C38.1662 92.2637 37.8354 92.1527 37.4954 92.1527C37.1553 92.1527 36.8245 92.2637 36.5532 92.4688C35.4801 93.2937 34.166 93.7438 32.8125 93.75C30 93.75 26.5625 85.3813 26.5625 81.25C26.5625 79.5924 27.221 78.0027 28.3931 76.8306C29.5652 75.6585 31.1549 75 32.8125 75C34.1692 75.0042 35.4869 75.4544 36.5625 76.2813C36.8338 76.4863 37.1646 76.5973 37.5047 76.5973C37.8448 76.5973 38.1756 76.4863 38.4469 76.2813C39.692 75.351 41.239 74.9181 42.786 75.0669C44.333 75.2157 45.7691 75.9355 46.8141 77.0859C47.0979 77.3644 47.4771 77.5242 47.8746 77.5328C48.272 77.5414 48.6578 77.3981 48.9534 77.1322C49.2489 76.8664 49.432 76.4978 49.4654 76.1017C49.4987 75.7055 49.3798 75.3116 49.1329 75C48.2583 74.0222 47.1882 73.2388 45.9918 72.7005C44.7955 72.1622 43.4994 71.8809 42.1875 71.875C41.0621 71.879 39.947 72.0909 38.8985 72.5C38.7816 71.7553 38.5959 71.023 38.3438 70.3125H42.1875C44.2588 70.31 46.2445 69.4861 47.7091 68.0215C49.1737 66.5569 49.9976 64.5712 50 62.5C50 62.0856 49.8354 61.6882 49.5424 61.3951C49.2494 61.1021 48.8519 60.9375 48.4375 60.9375H43.75C42.0457 60.9422 40.3897 61.5049 39.0353 62.5396C37.681 63.5743 36.7027 65.024 36.25 66.6672C35.5097 65.7654 34.6423 64.9759 33.675 64.3234C33.5043 64.2096 33.3128 64.1304 33.1115 64.0905C32.9102 64.0507 32.7031 64.0508 32.5018 64.091C32.3006 64.1312 32.1092 64.2106 31.9387 64.3248C31.7681 64.4389 31.6217 64.5855 31.5079 64.7563C31.394 64.927 31.3148 65.1184 31.275 65.3197C31.2351 65.5211 31.2352 65.7282 31.2754 65.9295C31.3156 66.1307 31.395 66.3221 31.5092 66.4926C31.6233 66.6632 31.77 66.8096 31.9407 66.9234C33.8392 68.1892 35.181 70.1337 35.6907 72.3578C34.7634 72.0435 33.7916 71.8805 32.8125 71.875C32.2887 71.8781 31.766 71.9252 31.25 72.0156V70.0453C31.2544 68.4382 30.94 66.8462 30.325 65.3614C29.7101 63.8767 28.8067 62.5286 27.6672 61.3953C26.8187 60.5516 26.1461 59.5478 25.6883 58.4423C25.2304 57.3367 24.9965 56.1513 25 54.9547V48.4375C25.4144 48.4375 25.8119 48.2729 26.1049 47.9799C26.3979 47.6868 26.5625 47.2894 26.5625 46.875V40.625C26.5625 40.2106 26.3979 39.8132 26.1049 39.5201C25.8119 39.2271 25.4144 39.0625 25 39.0625H10.9375C10.5231 39.0625 10.1257 39.2271 9.83269 39.5201C9.53967 39.8132 9.37505 40.2106 9.37505 40.625V46.875C9.37505 47.2894 9.53967 47.6868 9.83269 47.9799C10.1257 48.2729 10.5231 48.4375 10.9375 48.4375V54.9547C10.9411 56.1513 10.7072 57.3367 10.2493 58.4423C9.7915 59.5478 9.11885 60.5516 8.27036 61.3953C7.1309 62.5286 6.22753 63.8767 5.61254 65.3614C4.99755 66.8462 4.68315 68.4382 4.68755 70.0453V95.3125C4.68755 95.7269 4.85217 96.1243 5.14519 96.4174C5.43822 96.7104 5.83564 96.875 6.25005 96.875H23.4375C23.8519 96.875 24.2494 96.7104 24.5424 96.4174C24.8354 96.1243 25 95.7269 25 95.3125C25 94.8981 24.8354 94.5007 24.5424 94.2076C24.2494 93.9146 23.8519 93.75 23.4375 93.75H7.81255V85.9375H24.1766C25.5125 90.9281 28.5907 96.875 32.8125 96.875C34.4617 96.8749 36.0806 96.4319 37.5 95.5922C38.9194 96.4321 40.5383 96.8751 42.1875 96.875C47.5313 96.875 51.1594 87.1 51.5266 82.0781C51.5417 81.8733 51.5163 81.6675 51.4518 81.4726C51.3874 81.2776 51.2851 81.0972 51.1509 80.9418C51.0166 80.7864 50.8531 80.6589 50.6695 80.5668C50.486 80.4746 50.2861 80.4195 50.0813 80.4047ZM43.75 64.0625H46.6079C46.2835 64.9758 45.6846 65.7664 44.8932 66.3259C44.1018 66.8853 43.1567 67.1863 42.1875 67.1875H39.3297C39.6541 66.2742 40.253 65.4836 41.0444 64.9241C41.8358 64.3647 42.7809 64.0637 43.75 64.0625ZM12.5 42.1875H23.4375V45.3125H12.5V42.1875ZM7.81255 82.8125V75H21.875C22.2894 75 22.6869 74.8354 22.9799 74.5424C23.2729 74.2493 23.4375 73.8519 23.4375 73.4375C23.4375 73.0231 23.2729 72.6257 22.9799 72.3326C22.6869 72.0396 22.2894 71.875 21.875 71.875H7.81255V70.0453C7.80901 68.8487 8.04293 67.6633 8.50076 66.5577C8.95859 65.4522 9.63124 64.4485 10.4797 63.6047C11.6192 62.4714 12.5226 61.1233 13.1376 59.6386C13.7525 58.1538 14.0669 56.5618 14.0625 54.9547V48.4375H21.875V54.9547C21.8703 56.5618 22.1845 58.1539 22.7996 59.6388C23.4146 61.1236 24.3181 62.4716 25.4579 63.6047C26.3063 64.4485 26.979 65.4522 27.4368 66.5577C27.8947 67.6633 28.1286 68.8487 28.125 70.0453V73.1438C26.7017 73.9655 25.5195 75.147 24.6967 76.5697C23.874 77.9925 23.4398 79.6065 23.4375 81.25C23.445 81.7727 23.4836 82.2944 23.5532 82.8125H7.81255Z" fill="#B7D041"/>
<path d="M64.0625 42.1875H50C49.5856 42.1875 49.1882 42.3521 48.8951 42.6451C48.6021 42.9382 48.4375 43.3356 48.4375 43.75C48.4375 44.1644 48.6021 44.5618 48.8951 44.8549C49.1882 45.1479 49.5856 45.3125 50 45.3125H64.0625C64.4769 45.3125 64.8743 45.1479 65.1674 44.8549C65.4604 44.5618 65.625 44.1644 65.625 43.75C65.625 43.3356 65.4604 42.9382 65.1674 42.6451C64.8743 42.3521 64.4769 42.1875 64.0625 42.1875Z" fill="#B7D041"/>
<path d="M64.0625 50H54.6875C54.2731 50 53.8757 50.1646 53.5826 50.4576C53.2896 50.7507 53.125 51.1481 53.125 51.5625C53.125 51.9769 53.2896 52.3743 53.5826 52.6674C53.8757 52.9604 54.2731 53.125 54.6875 53.125H64.0625C64.4769 53.125 64.8743 52.9604 65.1674 52.6674C65.4604 52.3743 65.625 51.9769 65.625 51.5625C65.625 51.1481 65.4604 50.7507 65.1674 50.4576C64.8743 50.1646 64.4769 50 64.0625 50Z" fill="#B7D041"/>
</svg>
