<svg width="24" height="24" viewBox="0 0 24 24" fill="none" xmlns="http://www.w3.org/2000/svg">
<path d="M23.4193 5.50846C23.047 4.62621 22.51 3.82672 21.8386 3.15475C21.1667 2.48077 20.3745 1.94517 19.505 1.57708C18.6035 1.19387 17.6365 0.997721 16.6602 1.00002C15.2906 1.00002 13.9544 1.38378 12.7931 2.10865C12.5153 2.28205 12.2514 2.47251 12.0014 2.68003C11.7513 2.47251 11.4874 2.28205 11.2096 2.10865C10.0484 1.38378 8.71211 1.00002 7.34251 1.00002C6.35628 1.00002 5.40062 1.19332 4.49774 1.57708C3.62542 1.94662 2.83921 2.4782 2.16414 3.15475C1.49183 3.82596 0.95477 4.62564 0.5834 5.50846C0.197245 6.42664 0 7.40167 0 8.40512C0 9.35172 0.188911 10.3381 0.563954 11.3416C0.877878 12.1802 1.32793 13.05 1.903 13.9284C2.81421 15.3184 4.06713 16.7682 5.62287 18.2378C8.20094 20.674 10.754 22.3568 10.8624 22.4251L11.5208 22.8572C11.8125 23.0476 12.1875 23.0476 12.4792 22.8572L13.1376 22.4251C13.246 22.354 15.7963 20.674 18.3771 18.2378C19.9328 16.7682 21.1858 15.3184 22.097 13.9284C22.672 13.05 23.1249 12.1802 23.436 11.3416C23.8111 10.3381 24 9.35172 24 8.40512C24.0027 7.40167 23.8055 6.42664 23.4193 5.50846V5.50846ZM12.0014 20.6086C12.0014 20.6086 2.11135 14.1245 2.11135 8.40512C2.11135 5.50846 4.45329 3.16043 7.34251 3.16043C9.3733 3.16043 11.1346 4.32023 12.0014 6.01445C12.8681 4.32023 14.6295 3.16043 16.6602 3.16043C19.5495 3.16043 21.8914 5.50846 21.8914 8.40512C21.8914 14.1245 12.0014 20.6086 12.0014 20.6086Z" fill="#3A4336"/>
</svg>
