<svg width="100" height="100" viewBox="0 0 100 100" fill="none" xmlns="http://www.w3.org/2000/svg">
<path d="M87.9578 22.3328L90.1672 24.5421L96.4172 18.2921C96.7101 17.9991 96.8747 17.6018 96.8747 17.1875C96.8747 16.7731 96.7101 16.3758 96.4172 16.0828L90.1672 9.83276L87.9578 12.0421L91.5406 15.625H73.4375V18.75H91.5406L87.9578 22.3328Z" fill="#B7D041"/>
<path d="M78.5825 37.0421L80.7919 34.8328L77.209 31.2499H95.3122V28.1249H77.209L80.7919 24.5421L78.5825 22.3328L72.3325 28.5828C72.0396 28.8758 71.875 29.2731 71.875 29.6874C71.875 30.1018 72.0396 30.4991 72.3325 30.7921L78.5825 37.0421Z" fill="#B7D041"/>
<path d="M95.0469 48.7031C93.9393 47.5919 92.4525 46.9406 90.8847 46.8797C89.317 46.8189 87.7842 47.353 86.5938 48.375C86.0473 47.443 85.2667 46.6701 84.3293 46.1329C83.3919 45.5956 82.3304 45.3128 81.25 45.3125C80.5512 45.3026 79.8568 45.4246 79.2031 45.6719C78.4789 45.9277 77.8105 46.3202 77.2344 46.8281C76.6845 45.8945 75.9014 45.1199 74.9618 44.5802C74.0222 44.0406 72.9585 43.7545 71.875 43.75C70.7754 43.7532 69.6966 44.0499 68.75 44.6094V18.75C68.75 17.0924 68.0915 15.5027 66.9194 14.3306C65.7473 13.1585 64.1576 12.5 62.5 12.5C61.4004 12.5032 60.3216 12.7999 59.375 13.3594V7.8125C59.3713 6.57044 58.8762 5.38031 57.998 4.50203C57.1197 3.62376 55.9296 3.12871 54.6875 3.125H17.1875C15.9454 3.12871 14.7553 3.62376 13.877 4.50203C12.9988 5.38031 12.5037 6.57044 12.5 7.8125V39.0625H10.9375C8.8655 39.0625 6.87836 39.8856 5.41323 41.3507C3.9481 42.8159 3.125 44.803 3.125 46.875V53.2656L6.25 86.0156V95.3125C6.25 95.7269 6.41462 96.1243 6.70765 96.4174C7.00067 96.7104 7.3981 96.875 7.8125 96.875H42.1875C42.6019 96.875 42.9993 96.7104 43.2924 96.4174C43.5854 96.1243 43.75 95.7269 43.75 95.3125V86.4375L49.5625 78.125H52.9219L54.6875 83.0781V95.3125C54.6875 95.7269 54.8521 96.1243 55.1451 96.4174C55.4382 96.7104 55.8356 96.875 56.25 96.875H87.5C87.9144 96.875 88.3118 96.7104 88.6049 96.4174C88.8979 96.1243 89.0625 95.7269 89.0625 95.3125V83.0781L96.2344 62.9844C96.6564 61.8061 96.8731 60.5641 96.875 59.3125V53.125C96.8756 52.304 96.7145 51.4909 96.4008 50.7322C96.0872 49.9735 95.6271 49.284 95.0469 48.7031ZM40.625 93.75H9.375V87.5H40.625V93.75ZM41.375 84.375H9.23438L6.25 53.125V46.875C6.25371 45.6329 6.74876 44.4428 7.62704 43.5645C8.50531 42.6863 9.69544 42.1912 10.9375 42.1875H21.875C23.1182 42.1875 24.3105 42.6814 25.1896 43.5604C26.0686 44.4395 26.5625 45.6318 26.5625 46.875C26.5625 48.1182 26.0686 49.3105 25.1896 50.1896C24.3105 51.0686 23.1182 51.5625 21.875 51.5625H14.0625C13.6481 51.5625 13.2507 51.7271 12.9576 52.0201C12.6646 52.3132 12.5 52.7106 12.5 53.125V73.4375C12.5037 74.6796 12.9988 75.8697 13.877 76.748C14.7553 77.6262 15.9454 78.1213 17.1875 78.125H45.75L41.375 84.375ZM17.1875 75C16.7731 75 16.3757 74.8354 16.0826 74.5424C15.7896 74.2493 15.625 73.8519 15.625 73.4375V68.75H43.75V65.625H15.625V54.6875H21.875C23.947 54.6875 25.9341 53.8644 27.3993 52.3993C28.8644 50.9341 29.6875 48.947 29.6875 46.875C29.6875 44.803 28.8644 42.8159 27.3993 41.3507C25.9341 39.8856 23.947 39.0625 21.875 39.0625H15.625V7.8125C15.625 7.3981 15.7896 7.00067 16.0826 6.70765C16.3757 6.41462 16.7731 6.25 17.1875 6.25H54.6875C55.1019 6.25 55.4993 6.41462 55.7924 6.70765C56.0854 7.00067 56.25 7.3981 56.25 7.8125V39.9375C55.3012 39.368 54.216 39.0656 53.1094 39.0625C51.4572 39.0666 49.8738 39.7248 48.7056 40.8931C47.5373 42.0613 46.8791 43.6447 46.875 45.2969V59.3125C46.8782 60.5691 47.0948 61.816 47.5156 63L51.7969 75H17.1875ZM62.5 93.75H57.8125V84.375H62.5V93.75ZM70.3125 93.75H65.625V84.375H70.3125V93.75ZM78.125 93.75H73.4375V84.375H78.125V93.75ZM85.9375 93.75H81.25V84.375H85.9375V93.75ZM93.75 59.3125C93.7481 60.2068 93.5949 61.0943 93.2969 61.9375L86.4062 81.25H57.3438L50.4531 61.9531C50.1563 61.1042 50.0032 60.2118 50 59.3125V45.2969C50.0021 44.4681 50.3333 43.674 50.9208 43.0895C51.5083 42.5049 52.304 42.1776 53.1328 42.1797C53.9616 42.1818 54.7556 42.513 55.3402 43.1005C55.9248 43.688 56.2521 44.4837 56.25 45.3125V57.8125H59.375V18.75C59.3811 17.9231 59.7123 17.1318 60.2971 16.5471C60.8818 15.9623 61.6731 15.6311 62.5 15.625C63.328 15.6275 64.1215 15.9575 64.707 16.543C65.2925 17.1285 65.6225 17.922 65.625 18.75V57.8125H68.75V50C68.7561 49.1731 69.0873 48.3818 69.6721 47.7971C70.2568 47.2123 71.0481 46.8811 71.875 46.875C72.703 46.8775 73.4965 47.2075 74.082 47.793C74.6675 48.3785 74.9975 49.172 75 50V57.8125H78.125V51.5625C78.1253 51.1525 78.2069 50.7467 78.3651 50.3685C78.5234 49.9904 78.7551 49.6474 79.0469 49.3594C79.3773 49.0107 79.7915 48.7525 80.25 48.6094C80.5707 48.4941 80.9092 48.436 81.25 48.4375C82.078 48.44 82.8715 48.77 83.457 49.3555C84.0425 49.941 84.3725 50.7345 84.375 51.5625V59.375H87.5V53.125C87.5025 52.297 87.8325 51.5035 88.418 50.918C89.0035 50.3325 89.797 50.0025 90.625 50C91.4519 50.0061 92.2432 50.3373 92.8279 50.9221C93.4127 51.5068 93.7439 52.2981 93.75 53.125V59.3125Z" fill="#B7D041"/>
<path d="M35.9375 9.375C32.8472 9.375 29.8262 10.2914 27.2567 12.0083C24.6872 13.7252 22.6845 16.1655 21.5019 19.0206C20.3193 21.8757 20.0098 25.0173 20.6127 28.0483C21.2156 31.0792 22.7038 33.8633 24.889 36.0485C27.0742 38.2337 29.8583 39.7219 32.8892 40.3248C35.9202 40.9277 39.0618 40.6182 41.9169 39.4356C44.772 38.253 47.2123 36.2503 48.9292 33.6808C50.6461 31.1113 51.5625 28.0903 51.5625 25C51.5559 20.858 49.9076 16.8876 46.9788 13.9588C44.0499 11.0299 40.0795 9.38161 35.9375 9.375ZM35.9375 37.5C33.4652 37.5 31.0485 36.7669 28.9929 35.3934C26.9373 34.0198 25.3351 32.0676 24.389 29.7835C23.4429 27.4995 23.1954 24.9861 23.6777 22.5614C24.16 20.1366 25.3505 17.9093 27.0987 16.1612C28.8468 14.413 31.0741 13.2225 33.4989 12.7402C35.9236 12.2579 38.437 12.5054 40.7211 13.4515C43.0051 14.3976 44.9574 15.9998 46.3309 18.0554C47.7044 20.111 48.4375 22.5277 48.4375 25C48.433 28.3138 47.1145 31.4906 44.7713 33.8338C42.4281 36.177 39.2513 37.4955 35.9375 37.5Z" fill="#B7D041"/>
<path d="M40.625 28.125C40.62 29.0916 40.3174 30.0331 39.7582 30.8215C39.199 31.6099 38.4105 32.2069 37.5 32.5312V34.375H34.375V32.5312C33.4645 32.2069 32.676 31.6099 32.1168 30.8215C31.5576 30.0331 31.255 29.0916 31.25 28.125H34.375C34.375 28.434 34.4666 28.7361 34.6383 28.9931C34.81 29.25 35.054 29.4503 35.3396 29.5686C35.6251 29.6868 35.9392 29.7178 36.2423 29.6575C36.5454 29.5972 36.8238 29.4484 37.0424 29.2299C37.2609 29.0113 37.4097 28.7329 37.47 28.4298C37.5303 28.1267 37.4993 27.8126 37.3811 27.5271C37.2628 27.2415 37.0625 26.9975 36.8056 26.8258C36.5486 26.6541 36.2465 26.5625 35.9375 26.5625C34.8382 26.554 33.7769 26.1594 32.9391 25.4476C32.1012 24.7359 31.5402 23.7524 31.3541 22.6689C31.1679 21.5855 31.3685 20.4711 31.9207 19.5205C32.4729 18.57 33.3416 17.8437 34.375 17.4688V15.625H37.5V17.4688C38.4105 17.7931 39.199 18.3901 39.7582 19.1785C40.3174 19.9669 40.62 20.9084 40.625 21.875H37.5C37.5 21.566 37.4084 21.2639 37.2367 21.0069C37.065 20.75 36.821 20.5497 36.5354 20.4314C36.2499 20.3132 35.9358 20.2822 35.6327 20.3425C35.3296 20.4028 35.0512 20.5516 34.8326 20.7701C34.6141 20.9887 34.4653 21.2671 34.405 21.5702C34.3447 21.8733 34.3757 22.1874 34.4939 22.4729C34.6122 22.7585 34.8125 23.0025 35.0694 23.1742C35.3264 23.3459 35.6285 23.4375 35.9375 23.4375C37.1796 23.4412 38.3697 23.9363 39.248 24.8145C40.1262 25.6928 40.6213 26.8829 40.625 28.125Z" fill="#B7D041"/>
</svg>
