<svg width="60" height="60" viewBox="0 0 60 60" fill="none" xmlns="http://www.w3.org/2000/svg">
<path d="M40.3125 4.6875H38.4375V6.5625H36.5625V12.1875H40.3125V14.0625H36.5625V15.9375H38.4375V17.8125H40.3125V15.9375H42.1875V10.3125H38.4375V8.4375H42.1875V6.5625H40.3125V4.6875Z" fill="#64748D"/>
<path d="M57.1875 0.9375H21.5625C20.5284 0.9375 19.6875 1.77844 19.6875 2.8125V11.7994L11.325 20.1619C8.85844 22.6284 7.5 25.9078 7.5 29.3953C7.5 29.8266 7.52156 30.2634 7.56469 30.6947L8.40375 39.0881L0.9375 48.4209V59.0625H16.7062L19.5984 44.6025C19.935 44.3531 20.2725 44.1038 20.6184 43.8525C22.6313 42.3853 24.7941 40.8037 26.2791 38.8547L32.1497 44.7253C32.9681 45.5438 34.0556 45.9947 35.2134 45.9947C36.3713 45.9947 37.4597 45.5438 38.2772 44.7253L48.4762 34.5272C49.2947 33.7087 49.7456 32.6213 49.7456 31.4634C49.7456 30.3066 49.2956 29.2181 48.4762 28.3997L41.6381 21.5625H57.1875C58.2216 21.5625 59.0625 20.7216 59.0625 19.6875V2.8125C59.0625 1.77844 58.2216 0.9375 57.1875 0.9375ZM21.5625 2.8125H33.4641C30.8072 4.68 29.0625 7.7625 29.0625 11.25V11.2959C28.0837 11.4019 27.1734 11.8134 26.4675 12.5194L21.8456 17.1413C21.7463 17.1825 21.6562 17.2387 21.5625 17.2894V2.8125ZM15.1688 57.1875H2.8125V49.0791L9.63375 40.5525L17.6906 44.5809L15.1688 57.1875ZM19.5122 42.3375C19.2225 42.5484 18.9403 42.7584 18.6562 42.9675L10.2562 38.7675L9.43031 30.5081C9.39375 30.1388 9.375 29.7666 9.375 29.3953C9.375 26.4084 10.5384 23.5997 12.6506 21.4875L19.6875 14.4506V19.3584L17.0438 22.6622C16.3303 23.5547 15.9375 24.675 15.9375 25.8169C15.9375 26.9025 16.2956 27.9778 16.9472 28.8459L18.5334 30.9609C17.8884 31.5403 17.0063 31.875 15.9375 31.875V33.75C19.2497 33.75 21.5625 31.4372 21.5625 28.125V20.3616C21.5625 19.4728 22.2853 18.75 23.1741 18.75C24.1537 18.75 24.4847 18.7753 24.9206 19.3134C25.1841 19.6378 25.3509 20.0784 25.4062 20.5884C25.6603 22.9622 26.25 28.9978 26.25 33.75C26.25 37.4241 22.8253 39.9216 19.5122 42.3375ZM19.6875 22.3594V28.125C19.6875 28.5084 19.6313 28.8591 19.5516 29.1937L18.4481 27.7219C18.0375 27.1753 17.8125 26.4994 17.8125 25.8169C17.8125 25.0988 18.0591 24.3947 18.5081 23.8341L19.6875 22.3594ZM36.9506 43.3997C36.0309 44.3203 34.3969 44.3213 33.4753 43.3997L27.2962 37.2206C27.6422 36.5194 27.8906 35.7712 28.0181 34.9697L30.2747 37.2262L31.6003 35.9006L28.11 32.4103C28.0472 29.2725 27.7875 25.8244 27.5531 23.2547L42.3244 38.025L36.9506 43.3997ZM43.65 36.6994L27.2559 20.3053C27.1528 19.4691 26.8519 18.7172 26.3766 18.1313C25.8234 17.4497 25.2291 17.1431 24.6375 17.0006L25.7812 15.8569L45.1369 35.2125L43.65 36.6994ZM47.1497 29.7253C47.6138 30.1894 47.8697 30.8063 47.8697 31.4634C47.8697 32.1103 47.6072 32.7441 47.1497 33.2016L46.4634 33.8878L27.1069 14.5312L27.7931 13.845C28.7213 12.9169 30.3403 12.9169 31.2684 13.845L47.1497 29.7253ZM39.7444 19.6687L32.5941 12.5184C32.1206 12.045 31.5516 11.7122 30.9366 11.5003V11.25C30.9366 6.59812 34.7222 2.8125 39.3741 2.8125C44.0259 2.8125 47.8116 6.59812 47.8116 11.25C47.8125 15.7772 44.2247 19.4737 39.7444 19.6687ZM57.1875 19.6875H45.2859C47.9428 17.82 49.6875 14.7375 49.6875 11.25C49.6875 7.7625 47.9428 4.68 45.2859 2.8125H57.1875V19.6875Z" fill="#64748D"/>
<path d="M53.4375 8.4375H55.3125V4.6875H51.5625V6.5625H53.4375V8.4375Z" fill="#64748D"/>
<path d="M55.3125 14.0625H53.4375V15.9375H51.5625V17.8125H55.3125V14.0625Z" fill="#64748D"/>
<path d="M25.3125 6.5625H27.1875V4.6875H23.4375V8.4375H25.3125V6.5625Z" fill="#64748D"/>
<path d="M35.6249 42.5756L39.7631 38.4374L35.6249 34.2993L31.4868 38.4374L35.6249 42.5756ZM37.1118 38.4374L35.6249 39.9243L34.1381 38.4374L35.6249 36.9506L37.1118 38.4374Z" fill="#64748D"/>
<path d="M29.3311 30.6633L30.6569 29.3375L34.407 33.0876L33.0812 34.4134L29.3311 30.6633Z" fill="#64748D"/>
</svg>
