<svg width="100" height="100" viewBox="0 0 100 100" fill="none" xmlns="http://www.w3.org/2000/svg">
<g clip-path="url(#clip0)">
<path d="M33.7012 76.5433C33.6758 76.4183 33.6387 76.2953 33.5898 76.1761C33.541 76.059 33.4805 75.9457 33.4102 75.8402C33.3398 75.7328 33.2578 75.6332 33.168 75.5433C33.0781 75.4535 32.9785 75.3715 32.8711 75.3011C32.7656 75.2308 32.6523 75.1703 32.5332 75.1215C32.416 75.0726 32.293 75.0336 32.168 75.0101C31.916 74.9594 31.6563 74.9594 31.4063 75.0101C31.2813 75.0336 31.1582 75.0726 31.0391 75.1215C30.9219 75.1703 30.8086 75.2308 30.7031 75.3011C30.5957 75.3715 30.4961 75.4535 30.4062 75.5433C30.3164 75.6332 30.2344 75.7328 30.1641 75.8402C30.0918 75.9457 30.0332 76.059 29.9844 76.1761C29.9355 76.2953 29.8965 76.4183 29.873 76.5433C29.8477 76.6683 29.834 76.7972 29.834 76.9242C29.834 77.0511 29.8477 77.1801 29.873 77.3051C29.8965 77.4301 29.9355 77.5531 29.9844 77.6703C30.0332 77.7894 30.0918 77.9027 30.1641 78.0082C30.2344 78.1156 30.3164 78.2152 30.4062 78.305C30.4961 78.3949 30.5957 78.4769 30.7031 78.5472C30.8086 78.6177 30.9219 78.6783 31.0391 78.7271C31.1582 78.7759 31.2813 78.815 31.4063 78.8385C31.5313 78.8638 31.6602 78.8775 31.7871 78.8775C31.9141 78.8775 32.043 78.8638 32.168 78.8385C32.293 78.815 32.416 78.7759 32.5332 78.7271C32.6523 78.6783 32.7656 78.6175 32.8711 78.5472C32.9785 78.4769 33.0781 78.3949 33.168 78.305C33.2578 78.2152 33.3398 78.1156 33.4102 78.0082C33.4805 77.9027 33.541 77.7894 33.5898 77.6703C33.6387 77.5531 33.6758 77.4301 33.7012 77.3051C33.7266 77.1801 33.7402 77.0511 33.7402 76.9242C33.7402 76.7972 33.7266 76.6683 33.7012 76.5433Z" fill="#B7D041"/>
<path d="M89.8424 77.1449C89.8348 77.1254 89.827 77.106 89.8187 77.0869C88.0211 72.8804 83.8051 71.3258 78.8156 73.0299L65.2086 76.7927C64.4219 74.4103 62.4596 72.383 59.685 71.3533C59.6678 71.347 59.6506 71.3408 59.6332 71.3349L44.676 66.2584C43.4311 64.6492 39.5314 60.5316 32.2301 60.5316C27.1275 60.5316 22.6137 64.032 20.0312 67.8474H1.95312C0.874414 67.8474 0 68.7219 0 69.8006V94.425C0 95.5037 0.874414 96.3781 1.95312 96.3781H13.5658C14.6445 96.3781 15.5189 95.5037 15.5189 94.425V92.7386H20.9648C22.0436 92.7386 22.918 91.8642 22.918 90.7855V90.2234C26.0926 90.5004 27.1367 91.1025 30.0523 92.7838C32.2945 94.0767 35.6834 96.0308 41.7861 98.7748C41.8145 98.7875 41.8432 98.7996 41.8719 98.8109C43.0432 99.2717 45.3328 99.9955 48.1557 99.9955C50.1205 99.9955 52.3441 99.6445 54.6266 98.6099L84.7029 87.8412C84.7564 87.822 84.8092 87.8006 84.8607 87.7767C87.7352 86.4543 92.0186 82.7271 89.8424 77.1449ZM11.6127 92.4717H3.90625V71.7535H11.6127V92.4717ZM19.0117 88.8322H15.5189V71.7535H19.0117V88.8322ZM83.3 84.1941L53.2371 94.958C53.2107 94.9674 53.175 94.9814 53.149 94.992C53.1227 95.0027 53.0963 95.014 53.0703 95.026C48.8834 96.9502 44.9035 95.7982 43.3438 95.1918C37.4488 92.5392 34.3025 90.725 32.0037 89.3994C28.8076 87.5564 27.2676 86.6681 22.918 86.309V70.5781C24.7693 67.5437 28.3596 64.4377 32.2303 64.4377C38.8682 64.4377 41.6809 68.7551 41.7914 68.9293C42.0299 69.3172 42.3965 69.6095 42.8275 69.7558L58.35 75.0242C60.8291 75.9547 62.1393 78.0777 61.5371 80.1949C61.2592 81.1726 60.617 81.9836 59.7291 82.4783C58.8488 82.9687 57.8312 83.09 56.8613 82.8217L39.3627 77.2763C38.3338 76.9504 37.2365 77.5199 36.9107 78.5482C36.5848 79.5765 37.1543 80.6742 38.1826 81.0002L55.7117 86.5551C55.7303 86.5609 55.7488 86.5666 55.7676 86.5718C56.4674 86.7709 57.1799 86.8693 57.8881 86.8693C59.1846 86.8693 60.4668 86.539 61.6305 85.8906C63.4299 84.8881 64.7311 83.2447 65.2943 81.2633C65.3393 81.1051 65.3791 80.9469 65.4137 80.7886L80.0783 76.7262C82.1963 76.0027 84.9766 75.742 86.2145 78.5929C87.4957 81.94 84.1656 83.7812 83.3 84.1941Z" fill="#B7D041"/>
<path d="M70.1289 25.6919C70.1035 25.5669 70.0664 25.4438 70.0156 25.3247C69.9668 25.2075 69.9082 25.0942 69.8359 24.9888C69.7656 24.8813 69.6836 24.7817 69.5938 24.6919C69.5039 24.6021 69.4043 24.52 69.2969 24.4497C69.1914 24.3794 69.0781 24.3188 68.9609 24.27C68.8418 24.2212 68.7187 24.1821 68.5957 24.1587C68.3437 24.1079 68.084 24.1079 67.832 24.1587C67.707 24.1821 67.584 24.2212 67.4668 24.27C67.3477 24.3188 67.2344 24.3794 67.1289 24.4497C67.0215 24.52 66.9219 24.6021 66.832 24.6919C66.7422 24.7817 66.6602 24.8813 66.5898 24.9888C66.5195 25.0942 66.459 25.2075 66.4102 25.3247C66.3613 25.4438 66.3223 25.5669 66.2988 25.6919C66.2734 25.8169 66.2598 25.9458 66.2598 26.0728C66.2598 26.1997 66.2734 26.3286 66.2988 26.4536C66.3223 26.5786 66.3613 26.7017 66.4102 26.8188C66.459 26.938 66.5195 27.0513 66.5898 27.1567C66.6602 27.2642 66.7422 27.3638 66.832 27.4536C66.9219 27.5435 67.0215 27.6255 67.1289 27.6958C67.2344 27.7661 67.3477 27.8267 67.4668 27.8755C67.584 27.9243 67.707 27.9614 67.832 27.9868C67.957 28.0122 68.0859 28.0259 68.2129 28.0259C68.3398 28.0259 68.4687 28.0122 68.5957 27.9868C68.7187 27.9614 68.8418 27.9243 68.9609 27.8755C69.0781 27.8267 69.1914 27.7661 69.2969 27.6958C69.4043 27.6255 69.5039 27.5435 69.5938 27.4536C69.6836 27.3638 69.7656 27.2642 69.8359 27.1567C69.9082 27.0513 69.9668 26.938 70.0156 26.8188C70.0664 26.7017 70.1035 26.5786 70.1289 26.4536C70.1543 26.3286 70.166 26.1997 70.166 26.0728C70.166 25.9458 70.1543 25.8169 70.1289 25.6919Z" fill="#B7D041"/>
<path d="M98.0467 6.61943H86.434C85.3553 6.61943 84.4809 7.49385 84.4809 8.57256V10.2589H79.035C77.9563 10.2589 77.0819 11.1333 77.0819 12.212V12.7741C73.9073 12.497 72.8631 11.895 69.9477 10.2138C67.7055 8.9208 64.3167 6.9667 58.2137 4.22275C58.1854 4.20986 58.1569 4.19795 58.1278 4.18662C56.1413 3.40498 50.9348 1.86709 45.3741 4.38721L37.5147 7.20127L30.8899 0.57666C30.1272 -0.186035 28.8905 -0.186035 28.1278 0.57666L6.37818 22.3261C5.67466 23.0298 5.5397 24.2499 6.37818 25.0884L43.5436 62.2538C44.1383 62.8487 45.5309 63.0286 46.3059 62.2538L66.1624 42.3976C66.6786 42.4421 67.2143 42.4661 67.7696 42.4661C72.8723 42.4661 77.386 38.9657 79.9682 35.1505H98.0467C99.1254 35.1505 99.9999 34.2761 99.9999 33.1974V8.57256C99.9999 7.49385 99.1254 6.61943 98.0467 6.61943ZM29.5086 4.71982L33.9602 9.17139C32.637 9.98975 31.1071 10.4276 29.5086 10.4276C27.91 10.4276 26.3803 9.98994 25.0571 9.17139L29.5086 4.71982ZM14.9731 28.1589L10.5215 23.7071L14.9731 19.2556C15.7915 20.5788 16.2294 22.1087 16.2294 23.7071C16.2294 25.3056 15.7917 26.8354 14.9731 28.1589ZM44.9249 58.1104L40.4741 53.6597C43.1915 51.9827 46.6579 51.9827 49.3754 53.6597L44.9249 58.1104ZM52.1895 50.846C47.8735 47.7151 41.9762 47.7151 37.6602 50.846L17.787 30.9726C19.3122 28.8749 20.1356 26.3552 20.1356 23.7071C20.1356 21.0589 19.3124 18.5394 17.787 16.4417L22.2434 11.9854C24.3411 13.5106 26.8606 14.3341 29.5088 14.3341C32.1571 14.3341 34.6766 13.5106 36.7743 11.9854L40.9987 16.2099C40.0872 16.3444 39.1983 16.6448 38.3694 17.1067C36.9694 17.8868 35.871 19.055 35.187 20.4683C32.9838 20.8763 30.9442 21.9429 29.3442 23.5427C25.0034 27.8837 25.0034 34.9468 29.3444 39.2878C31.5147 41.4581 34.3657 42.5435 37.2168 42.5435C40.0678 42.5435 42.919 41.4583 45.0895 39.2878C46.5016 37.8757 47.4909 36.1401 47.9864 34.2487L54.5809 36.4868C53.8385 39.9259 54.5989 43.5438 56.6499 46.3856L52.1895 50.846ZM40.3149 31.6442C40.3321 31.6505 40.3493 31.6567 40.3667 31.6626L44.2721 32.9882C43.9772 34.3192 43.3098 35.5431 42.3274 36.5257C39.5094 39.3433 34.9243 39.3437 32.1067 36.5257C29.2887 33.7079 29.2887 29.1229 32.1067 26.305C32.7864 25.6249 33.5885 25.0935 34.4626 24.7331C34.8231 27.7335 36.9834 30.4079 40.3149 31.6442ZM59.4641 43.5712C58.7102 42.3427 58.2836 40.9405 58.2163 39.5095C59.1518 40.1858 60.2952 40.8485 61.6608 41.3745L59.4641 43.5712ZM77.0817 32.4187C75.2305 35.4534 71.6403 38.5595 67.7696 38.5595C67.0454 38.5595 66.3667 38.5079 65.7321 38.4161C65.7295 38.4157 65.727 38.4153 65.7245 38.4149C61.5065 37.8022 59.2375 35.405 58.4897 34.4558C58.4499 34.3972 58.2801 34.1751 58.2549 34.1382C58.0274 33.7315 57.6544 33.4046 57.1786 33.2431L41.6497 27.9726C39.1715 27.0425 37.8616 24.9204 38.462 22.804C38.4624 22.8026 38.4627 22.8013 38.4631 22.7999C38.4637 22.7983 38.4641 22.7966 38.4645 22.795C38.7436 21.8204 39.3846 21.012 40.2706 20.5185C41.1506 20.028 42.168 19.9063 43.1383 20.1753L60.637 25.7204C61.6655 26.0468 62.7631 25.4769 63.0889 24.4485C63.4147 23.4202 62.8454 22.3226 61.817 21.9966L47.9001 17.5864L47.7786 17.4649C47.7774 17.4638 47.7762 17.4624 47.7749 17.4612L40.5698 10.2562L46.7627 8.03857C46.7836 8.03096 46.8094 8.02139 46.8301 8.01299C46.8354 8.01084 46.8456 8.00693 46.8506 8.00479C46.8772 7.99404 46.9034 7.98272 46.9294 7.9708C51.1161 6.04658 55.0958 7.19834 56.6557 7.80498C62.5508 10.4575 65.6973 12.2718 67.9961 13.5974C71.1922 15.4405 72.7323 16.3286 77.0817 16.6878V32.4187ZM84.4809 31.2438H80.9881V14.1651H84.4809V31.2438ZM96.0936 31.2438H88.3872V10.5257H96.0936V31.2438Z" fill="#B7D041"/>
</g>
<defs>
<clipPath id="clip0">
<rect width="100" height="100" fill="white"/>
</clipPath>
</defs>
</svg>
