<svg width="100" height="100" viewBox="0 0 100 100" fill="none" xmlns="http://www.w3.org/2000/svg">
<path d="M83.3333 17.6567V8.33333C83.3275 3.73333 79.6 0.00583333 75 0H8.33333C3.73333 0.00583333 0.00583333 3.73333 0 8.33333V45C0.0129167 49.2563 3.23917 52.8158 7.47333 53.2475L13.7383 69.5104C15.3933 73.8046 20.2158 75.9437 24.5104 74.2908L63.6333 59.22C60.93 66.2812 61.6992 74.2025 65.7092 80.6121L66.6667 82.1433V98.3333C66.6667 99.2542 67.4125 100 68.3333 100H98.3333C99.2542 100 100 99.2542 100 98.3333V43.3188C99.9842 37.555 97.6896 32.0325 93.6146 27.9563L83.3333 17.6567ZM83.3333 27.6242L88.3917 40.755C89.3829 43.3325 88.0983 46.2246 85.5213 47.2167L82.63 48.3333C83.0917 47.2825 83.3308 46.1467 83.3333 45V27.6242ZM3.33333 45V8.33333C3.33333 5.5725 5.5725 3.33333 8.33333 3.33333H75C77.7608 3.33333 80 5.5725 80 8.33333V18.9267H79.9854L80 18.9646V45C79.9871 45.2908 79.9492 45.5792 79.8867 45.8633L64.62 30.595C61.1883 27.2425 55.7175 27.2167 52.255 30.5342C48.7917 33.8538 48.5838 39.3204 51.7867 42.8913L58.295 50H8.33333C5.5725 50 3.33333 47.7608 3.33333 45ZM24.685 53.3333L12.8333 57.8963L11.08 53.3333H24.685ZM23.3117 71.1796C20.735 72.1729 17.8413 70.8883 16.8483 68.3117L14.0367 61L33.9317 53.3333V53.3233H61.35L63.5163 55.685L23.3117 71.1796ZM96.6667 96.6667H70V83.3333H96.6667V96.6667ZM96.6667 80H69.2583L68.5354 78.845C64.4717 72.3508 64.31 64.1483 68.1133 57.5C68.4733 56.8708 68.385 56.0808 67.895 55.5467L54.2371 40.6467C52.2004 38.4175 52.315 34.9713 54.4954 32.8833C56.6767 30.795 60.1246 30.8292 62.2629 32.9592L88.8217 59.5117L91.1783 57.155L85.0117 50.9883L86.7217 50.3217C91.0125 48.6663 93.1508 43.8479 91.5 39.5546L85.8587 24.9062L91.2579 30.3167C94.7079 33.7658 96.6533 38.44 96.6667 43.3188V80Z" fill="#B7D041"/>
<path d="M19.0003 23.3333C21.3937 23.3333 23.3337 21.3933 23.3337 19V11C23.3337 8.60663 21.3937 6.66663 19.0003 6.66663H11.0003C8.60699 6.66663 6.66699 8.60663 6.66699 11V19C6.66699 21.3933 8.60699 23.3333 11.0003 23.3333H19.0003ZM10.0003 19V16.6666H13.3337V13.3333H10.0003V11C10.0003 10.4479 10.4482 9.99996 11.0003 9.99996H19.0003C19.5524 9.99996 20.0003 10.4479 20.0003 11V13.3333H16.667V16.6666H20.0003V19C20.0003 19.552 19.5524 20 19.0003 20H11.0003C10.4482 20 10.0003 19.552 10.0003 19Z" fill="#B7D041"/>
<path d="M8.33301 28.3334H14.9997V31.6667H8.33301V28.3334Z" fill="#B7D041"/>
<path d="M8.33301 38.3334H14.9997V41.6667H8.33301V38.3334Z" fill="#B7D041"/>
<path d="M38.333 38.3334H44.9997V41.6667H38.333V38.3334Z" fill="#B7D041"/>
<path d="M18.333 28.3334H24.9997V31.6667H18.333V28.3334Z" fill="#B7D041"/>
<path d="M28.333 28.3334H34.9997V31.6667H28.333V28.3334Z" fill="#B7D041"/>
<path d="M38.333 28.3334H44.9997V31.6667H38.333V28.3334Z" fill="#B7D041"/>
<path d="M70 8.33337H73.3333V13.3334H70V8.33337Z" fill="#B7D041"/>
<path d="M63.333 8.33337H66.6663V13.3334H63.333V8.33337Z" fill="#B7D041"/>
<path d="M56.667 8.33337H60.0003V13.3334H56.667V8.33337Z" fill="#B7D041"/>
<path d="M50 8.33337H53.3333V13.3334H50V8.33337Z" fill="#B7D041"/>
<path d="M73.333 86.6666H76.6663V90H73.333V86.6666Z" fill="#B7D041"/>
</svg>
