<svg width="100" height="100" viewBox="0 0 100 100" fill="none" xmlns="http://www.w3.org/2000/svg">
<path d="M30.1562 68.6718C29.793 68.3085 29.2891 68.0995 28.7754 68.0995C28.2598 68.0995 27.7559 68.3085 27.3926 68.6718C27.0293 69.035 26.8223 69.5389 26.8223 70.0526C26.8223 70.5663 27.0293 71.0702 27.3926 71.4335C27.7559 71.7967 28.2598 72.0057 28.7754 72.0057C29.2891 72.0057 29.793 71.7967 30.1562 71.4335C30.5195 71.0702 30.7266 70.5663 30.7266 70.0526C30.7266 69.5389 30.5195 69.0352 30.1562 68.6718Z" fill="#B7D041"/>
<path d="M86.7127 76.3407L73.162 62.7897C69.5141 59.1421 63.579 59.1421 59.9311 62.7897L56.8409 65.88C55.3733 67.3475 52.9854 67.3475 51.5183 65.88L34.1199 48.4816C32.6523 47.0142 32.6523 44.6263 34.1199 43.1589L37.2101 40.0687C40.8577 36.4208 40.8577 30.4857 37.2101 26.8379L23.6591 13.2871C21.8921 11.5201 19.5427 10.5469 17.0437 10.5469C14.5449 10.5469 12.1953 11.5201 10.4283 13.2871L7.18592 16.5293C2.55195 21.1635 0 27.3246 0 33.8781C0 40.4316 2.55195 46.5927 7.18592 51.2269L21.9539 65.9948C22.7166 66.7575 23.9533 66.7575 24.7162 65.9948C25.4789 65.2321 25.4789 63.9954 24.7162 63.2325L9.94803 48.4646C6.05194 44.5683 3.90624 39.388 3.90624 33.8781C3.90624 28.3681 6.05194 23.1879 9.94822 19.2916L13.1906 16.0492C14.2197 15.0199 15.5883 14.4531 17.0437 14.4531C18.4992 14.4531 19.8677 15.0199 20.897 16.0492L34.448 29.6C36.5728 31.7246 36.5728 35.1818 34.448 37.3064L32.6913 39.063L20.2515 26.6232C19.4888 25.8605 18.2521 25.8607 17.4894 26.6232C16.7267 27.3859 16.7267 28.6226 17.4894 29.3855L30.1199 42.016C29.463 43.1618 29.1111 44.4638 29.1111 45.8202C29.1111 47.8691 29.9089 49.795 31.3576 51.2439L48.756 68.6423C50.2046 70.0909 52.1308 70.8887 54.1796 70.8887C55.5362 70.8887 56.838 70.537 57.9839 69.8802L72.3204 84.2167C72.7018 84.5981 73.2016 84.7887 73.7014 84.7887C74.2012 84.7887 74.7012 84.5979 75.0825 84.2167C75.8452 83.454 75.8452 82.2172 75.0825 81.4544L60.9368 67.3085L62.6934 65.5518C64.818 63.427 68.2753 63.4272 70.3999 65.5518L83.9508 79.1028C84.9801 80.1321 85.5469 81.5005 85.5469 82.9561C85.5469 84.4118 84.9801 85.7801 83.9508 86.8094L80.7084 90.0518C76.8121 93.9479 71.6319 96.0936 66.1217 96.0936C60.6116 96.0936 55.4313 93.9479 51.5352 90.0516L35.1745 73.6909C34.4118 72.9282 33.1751 72.9282 32.4122 73.6909C31.6495 74.4536 31.6495 75.6903 32.4122 76.453L48.7729 92.8137C53.4071 97.4479 59.5684 99.9998 66.1217 99.9998C72.6751 99.9998 78.8364 97.4479 83.4703 92.8139L86.7127 89.5715C88.4797 87.8045 89.4529 85.4549 89.4529 82.9561C89.4529 80.4571 88.4797 78.1077 86.7127 76.3407Z" fill="#B7D041"/>
<path d="M15.4609 21.8339C15.0976 21.4706 14.5937 21.2616 14.0801 21.2616C13.5664 21.2616 13.0625 21.4706 12.6992 21.8339C12.3359 22.1971 12.127 22.6991 12.127 23.2147C12.127 23.7284 12.3359 24.2323 12.6992 24.5956C13.0625 24.9589 13.5664 25.1678 14.0801 25.1678C14.5937 25.1678 15.0976 24.9589 15.4609 24.5956C15.8242 24.2323 16.0332 23.7284 16.0332 23.2147C16.0332 22.6991 15.8242 22.1973 15.4609 21.8339Z" fill="#B7D041"/>
<path d="M76.9923 0H65.1529C52.4672 0 42.1465 10.3207 42.1465 23.0064C42.1465 33.0671 48.6224 41.8616 58.075 44.9026V49.9999C58.075 50.7335 58.4861 51.4054 59.1394 51.7392C59.4199 51.8823 59.7244 51.953 60.0279 51.953C60.4316 51.953 60.8334 51.828 61.1726 51.5825L68.8744 46.0128H76.9925C89.6782 46.0128 99.9989 35.6921 99.9989 23.0064C99.9989 10.3207 89.678 0 76.9923 0ZM76.9923 42.1066H68.2419C67.831 42.1066 67.4304 42.2362 67.0974 42.4771L61.9812 46.1771V43.4302C61.9812 42.5341 61.3713 41.7528 60.5021 41.5355C51.9945 39.4073 46.0529 31.788 46.0529 23.0064C46.0529 12.4746 54.6213 3.90624 65.1531 3.90624H76.9925C87.5241 3.90624 96.0925 12.4746 96.0925 23.0064C96.0925 33.5382 87.5241 42.1066 76.9923 42.1066Z" fill="#B7D041"/>
<path d="M61.6309 21.6249C61.2676 21.2616 60.7637 21.0526 60.25 21.0526C59.7363 21.0526 59.2324 21.2616 58.8691 21.6249C58.5059 21.9882 58.2969 22.4921 58.2969 23.0057C58.2969 23.5214 58.5059 24.0233 58.8691 24.3866C59.2324 24.7499 59.7363 24.9589 60.25 24.9589C60.7637 24.9589 61.2676 24.7499 61.6309 24.3866C61.9941 24.0233 62.2031 23.5214 62.2031 23.0057C62.2031 22.4921 61.9941 21.9884 61.6309 21.6249Z" fill="#B7D041"/>
<path d="M72.4082 21.6249C72.0449 21.2616 71.541 21.0526 71.0273 21.0526C70.5117 21.0526 70.0078 21.2616 69.6465 21.6249C69.2812 21.9882 69.0742 22.4921 69.0742 23.0057C69.0742 23.5214 69.2812 24.0233 69.6465 24.3866C70.0078 24.7499 70.5117 24.9589 71.0273 24.9589C71.541 24.9589 72.0449 24.7499 72.4082 24.3866C72.7715 24.0233 72.9805 23.5214 72.9805 23.0057C72.9805 22.4921 72.7715 21.9884 72.4082 21.6249Z" fill="#B7D041"/>
<path d="M83.1836 21.6249C82.8203 21.2616 82.3184 21.0526 81.8027 21.0526C81.2891 21.0526 80.7852 21.2616 80.4219 21.6249C80.0586 21.9882 79.8496 22.4921 79.8496 23.0057C79.8496 23.5214 80.0586 24.0233 80.4219 24.3866C80.7852 24.7499 81.2891 24.9589 81.8027 24.9589C82.3184 24.9589 82.8203 24.7499 83.1836 24.3866C83.5469 24.0233 83.7559 23.5214 83.7559 23.0057C83.7559 22.4921 83.5469 21.9884 83.1836 21.6249Z" fill="#B7D041"/>
</svg>
