<svg width="100" height="100" viewBox="0 0 100 100" fill="none" xmlns="http://www.w3.org/2000/svg">
<g clip-path="url(#clip0)">
<path d="M52.9297 0C54.8594 0.259766 56.7988 0.458984 58.7168 0.78125C65.748 1.98242 72.1816 4.65625 78.0781 8.64649C79.166 9.38086 79.4453 10.5742 78.8105 11.5039C78.1758 12.4336 77.0059 12.625 75.8809 11.8652C70.7295 8.36453 64.9228 5.94285 58.8105 4.74609C34.1055 -0.103518 9.96094 15.916 4.96289 40.6367C2.33008 53.6738 4.81836 65.7773 12.4766 76.7285C13.1973 77.7578 13.3809 78.7051 13.0293 79.9102C12.1953 82.7793 11.4668 85.6797 10.6973 88.5684C10.625 88.8359 10.5801 89.1133 10.4883 89.5449C12.3145 89.0664 14.0039 88.6289 15.6797 88.1777C17.1562 87.7871 18.6465 87.4336 20.0957 86.959C21.293 86.5684 22.2637 86.7637 23.2773 87.5117C27.3862 90.5062 31.9923 92.7504 36.8828 94.1406C62.4473 101.51 89.1836 86.3984 95.0059 59.7656C97.7578 47.1797 95.4297 35.418 88.4395 24.5859C88.2812 24.3398 88.1074 24.1035 87.9648 23.8477C87.4062 22.8574 87.6289 21.7578 88.4961 21.168C88.711 21.0173 88.9547 20.9127 89.212 20.8605C89.4692 20.8084 89.7344 20.8098 89.991 20.8648C90.2477 20.9198 90.4902 21.0271 90.7035 21.1801C90.9167 21.3331 91.0961 21.5284 91.2305 21.7539C92.4512 23.707 93.6914 25.6602 94.7363 27.7168C97.6645 33.4723 99.4029 39.7589 99.8476 46.2012C99.8813 46.4936 99.9322 46.7838 100 47.0703V52.9297C99.9282 53.2073 99.8734 53.4891 99.8359 53.7734C99.2851 61.1465 97.252 68.0918 93.5547 74.4766C85.8997 87.7161 74.5716 95.9024 59.5703 99.0352C57.4492 99.4766 55.2734 99.6836 53.125 100H47.0703C46.8541 99.9356 46.6335 99.8873 46.4102 99.8555C37.5412 99.2336 28.9994 96.2539 21.668 91.2246C21.2719 90.9897 20.8015 90.9136 20.3516 91.0117C16.4453 92.0137 12.5664 93.0742 8.67383 94.1074C6.47851 94.6934 5.30859 93.5215 5.89453 91.3223C6.89062 87.5879 7.875 83.8496 8.92578 80.1309C9.16992 79.2676 9.04492 78.6387 8.53516 77.8984C4.55689 72.0843 1.90147 65.4687 0.755856 58.5176C0.457028 56.7266 0.246094 54.9219 -0.00390625 53.125V46.875C0.0730925 46.5621 0.133073 46.2452 0.175778 45.9258C0.597653 40.5684 1.78711 35.3789 3.99219 30.4863C11.3932 14.0684 23.9538 4.14974 41.6738 0.730467C43.4551 0.390623 45.2715 0.238281 47.0703 0H52.9297Z" fill="#B7D041"/>
<path d="M69.2535 37.7676C68.9351 44.9942 65.7203 50.7871 59.1715 54.5469C57.1051 55.7344 55.9019 57.1719 55.7476 59.6543C55.5289 63.1426 52.6832 65.4727 49.2633 65.2793C45.943 65.084 43.4527 62.4004 43.5465 58.959C43.7262 52.4336 46.7281 47.543 52.3805 44.3321C54.359 43.209 55.9391 41.8301 56.6168 39.6055C57.7223 35.9825 55.6578 32.045 51.9469 30.6485C48.5269 29.3633 44.525 31.1055 43.0035 34.543C42.7926 35.0176 42.6285 35.5195 42.3941 35.9766C41.7057 37.3566 40.5226 38.4267 39.0805 38.9734C37.6384 39.5202 36.0432 39.5036 34.6129 38.9268C33.1825 38.3501 32.022 37.2556 31.3625 35.8615C30.703 34.4674 30.5929 32.876 31.0543 31.4043C33.3336 23.9571 40.7242 18.2637 48.5055 17.9571C53.4464 17.7406 58.2909 19.3722 62.0942 22.5335C65.8976 25.6949 68.3872 30.1594 69.0777 35.0567C69.191 35.8594 69.1851 36.6778 69.2535 37.7676ZM65.3473 37.5723C65.0973 31.2813 62.1754 26.5996 56.7242 23.6582C51.4039 20.7871 46.0602 21.2227 40.9957 24.4571C38.023 26.3555 35.9898 29.0664 34.8238 32.4024C34.3824 33.666 34.9117 34.8594 36.0484 35.3184C37.2203 35.793 38.4547 35.25 39.0152 34.0039C39.107 33.7969 39.1695 33.5762 39.2535 33.3653C41.4644 27.8535 47.6129 24.9961 53.1207 26.9199C58.8785 28.9278 62.0933 35.084 60.3238 40.7871C59.357 43.9004 57.3023 46.0762 54.4644 47.6348C50.0035 50.0781 47.5992 53.8692 47.4469 59C47.4058 60.3672 48.2574 61.3067 49.4957 61.3809C50.8043 61.461 51.7496 60.6231 51.9059 59.2324C51.9625 58.7168 51.943 58.1875 52.0426 57.6699C52.609 54.7949 54.2828 52.7871 56.8414 51.3965C62.3141 48.4258 65.0387 43.7344 65.3551 37.5723H65.3473Z" fill="#B7D041"/>
<path d="M49.6094 82.0761C47.9808 82.0761 46.4189 81.4292 45.2673 80.2776C44.1157 79.126 43.4688 77.5641 43.4688 75.9355C43.4688 74.3069 44.1157 72.745 45.2673 71.5934C46.4189 70.4418 47.9808 69.7949 49.6094 69.7949C53.0195 69.7792 55.8594 72.6074 55.8203 75.996C55.8129 76.8034 55.6463 77.6014 55.3299 78.3443C55.0135 79.0871 54.5537 79.7603 53.9767 80.3251C53.3997 80.8899 52.717 81.3353 51.9675 81.6358C51.2181 81.9363 50.4167 82.0859 49.6094 82.0761ZM49.6504 78.1699C49.9436 78.1737 50.2346 78.1195 50.5067 78.0102C50.7787 77.9009 51.0264 77.7388 51.2355 77.5332C51.4445 77.3276 51.6107 77.0826 51.7245 76.8124C51.8383 76.5422 51.8974 76.2521 51.8984 75.9589C51.8898 75.3676 51.651 74.803 51.2327 74.385C50.8143 73.9671 50.2495 73.7287 49.6582 73.7206C49.3657 73.7204 49.076 73.778 48.8058 73.8901C48.5356 74.0022 48.2903 74.1667 48.0839 74.374C47.8775 74.5812 47.7141 74.8273 47.6032 75.098C47.4923 75.3687 47.436 75.6586 47.4375 75.9511C47.4322 76.2437 47.486 76.5343 47.5957 76.8056C47.7054 77.0768 47.8687 77.3232 48.0759 77.5298C48.2831 77.7364 48.5298 77.8991 48.8014 78.0081C49.0729 78.1171 49.3637 78.1701 49.6562 78.164L49.6504 78.1699Z" fill="#B7D041"/>
<path d="M84.0002 14.0878C84.5062 14.1071 84.9858 14.3187 85.3411 14.6795C85.6964 15.0403 85.9007 15.523 85.9123 16.0293C85.9105 16.2887 85.8574 16.5452 85.7561 16.7841C85.6547 17.0229 85.5071 17.2393 85.3218 17.4209C85.1364 17.6024 84.917 17.7455 84.6761 17.8419C84.4352 17.9382 84.1776 17.986 83.9182 17.9824C83.6587 17.9805 83.4023 17.9257 83.1648 17.8212C82.9273 17.7167 82.7137 17.5648 82.537 17.3748C82.3603 17.1848 82.2243 16.9606 82.1374 16.7161C82.0505 16.4717 82.0144 16.212 82.0315 15.9531C82.0542 15.4478 82.2721 14.971 82.6393 14.6231C83.0065 14.2752 83.4944 14.0833 84.0002 14.0878Z" fill="#B7D041"/>
</g>
<defs>
<clipPath id="clip0">
<rect width="100" height="100" fill="white"/>
</clipPath>
</defs>
</svg>
