<svg width="24" height="24" viewBox="0 0 24 24" fill="none" xmlns="http://www.w3.org/2000/svg">
<g clip-path="url(#clip0)">
<path d="M0.00510272 16.6537C0.00510272 19.8091 2.56287 22.3668 5.71817 22.3668C8.87352 22.3668 11.4313 19.8091 11.4313 16.6537C11.4313 13.4984 8.87352 10.9407 5.71817 10.9407C5.0697 10.9407 4.44897 11.0537 3.86787 11.2529C5.15355 3.87918 10.9037 -0.87604 5.57333 3.0376C-0.337198 7.3774 -0.00122744 16.4791 0.00538616 16.6459C0.00538616 16.6485 0.00510272 16.6508 0.00510272 16.6537Z" fill="#D9D9DA"/>
<path d="M12.5737 16.6537C12.5737 19.8091 15.1315 22.3668 18.2868 22.3668C21.4422 22.3668 23.9999 19.8091 23.9999 16.6537C23.9999 13.4984 21.4421 10.9407 18.2868 10.9407C17.6383 10.9407 17.0176 11.0537 16.4365 11.2529C17.7222 3.87918 23.4723 -0.87604 18.1419 3.0376C12.2314 7.3774 12.5673 16.4791 12.574 16.6459C12.574 16.6485 12.5737 16.6508 12.5737 16.6537Z" fill="#D9D9DA"/>
</g>
<defs>
<clipPath id="clip0">
<rect width="24" height="24" fill="white"/>
</clipPath>
</defs>
</svg>
