<svg width="60" height="60" viewBox="0 0 60 60" fill="none" xmlns="http://www.w3.org/2000/svg">
<g clip-path="url(#clip0)">
<path d="M58.842 18.2632C59.5998 17.246 60.0002 16.0376 60.0002 14.7661V5.8601C60.0002 2.62936 57.3718 0.000854492 54.1409 0.000854492H5.86092C2.63019 0.000854492 0.00167803 2.62925 0.00167803 5.8601V14.779C0.00167803 18.0097 2.63007 20.6382 5.86092 20.6382H19.9255L19.9228 23.5166C18.5691 23.0325 17.112 22.7679 15.5938 22.7679C8.48615 22.7679 2.70355 28.5505 2.70355 35.6581V50.7254C1.44707 51.7476 0.603669 53.2407 0.417927 54.9398L0.00695145 58.7001C-0.0292594 59.031 0.0771466 59.3617 0.299334 59.6097C0.521521 59.8577 0.838864 59.9992 1.17179 59.9992H58.8282C59.1611 59.9992 59.4784 59.8575 59.7006 59.6097C59.9228 59.3618 60.0292 59.031 59.993 58.7001L59.5821 54.9398C59.2812 52.1853 57.2531 49.9708 54.5357 49.4294L49.5212 48.4303C49.001 48.3267 48.6233 47.8663 48.6233 47.3358V46.0867C48.6233 46.0498 48.621 46.0134 48.6178 45.9773L50.9571 44.6399C50.979 44.6275 51.0003 44.6143 51.0213 44.6005C52.1897 43.8289 52.9573 42.4519 53.0745 40.9173C53.0769 40.8876 53.0779 40.8577 53.0779 40.828V35.2762C53.8688 34.7894 54.453 33.883 54.4532 32.2654L54.4553 29.2751C54.4553 29.2296 54.4529 29.1847 54.4478 29.1406C54.3943 28.0919 54.0111 27.1398 53.4005 26.3818C53.4262 26.3509 53.4515 26.3194 53.4742 26.2854L58.842 18.2632ZM5.86092 18.2946C3.99683 18.2946 2.46788 16.8361 2.35304 15.0006H12.4129C13.06 15.0006 13.5847 14.4758 13.5847 13.8287C13.5847 13.1816 13.06 12.6568 12.4129 12.6568H2.34542V5.86022C2.34542 3.92171 3.92253 2.34472 5.86092 2.34472H29.9844C31.9229 2.34472 33.4999 3.92182 33.4999 5.86022V14.7791C33.4999 16.7176 31.9228 18.2946 29.9844 18.2946H26.8339C26.5232 18.2946 26.2251 18.4181 26.0053 18.6378L22.2676 22.3755L22.2702 19.4675C22.2704 19.1566 22.1471 18.8583 21.9273 18.6383C21.7075 18.4182 21.4092 18.2946 21.0983 18.2946H5.86092ZM5.04718 35.6582C5.04729 29.8428 9.77849 25.1116 15.5939 25.1116C21.4093 25.1116 26.1405 29.8428 26.1405 35.6582V49.5278C26.0035 49.4909 25.8651 49.4573 25.7243 49.4293L20.7107 48.4304C20.1905 48.3268 19.8129 47.8665 19.8129 47.336V46.0869C19.8129 46.0483 19.8108 46.0103 19.8071 45.9727L22.1326 44.6394C22.1539 44.6272 22.1748 44.6143 22.1953 44.6007C23.3727 43.8233 24.1454 42.4464 24.2623 40.9175C24.2646 40.8878 24.2657 40.858 24.2657 40.8282V35.6836C24.2657 35.2589 24.0359 34.8674 23.665 34.6604L18.424 31.7346C17.9614 31.4762 17.3832 31.5606 17.0136 31.9399C15.4206 33.5744 13.1981 34.5117 10.9159 34.5117H8.09416C7.44705 34.5117 6.92229 35.0364 6.92229 35.6836V40.8282C6.92229 40.858 6.92346 40.8878 6.92569 40.9175C7.04299 42.4524 7.81069 43.8291 8.97916 44.6007C9.00014 44.6145 9.02147 44.6276 9.04326 44.6402L11.3823 45.9774C11.3789 46.0135 11.3768 46.0499 11.3768 46.087V47.3361C11.3768 47.8666 10.9991 48.3269 10.4789 48.4305L5.46436 49.4296C5.32327 49.4577 5.18452 49.4914 5.04718 49.5284V35.6582ZM18.4072 49.6999C16.688 50.7543 14.5011 50.7545 12.7817 49.7006C13.367 49.076 13.7206 48.239 13.7206 47.3358V47.3188C14.309 47.6537 14.9511 47.8225 15.594 47.8225C16.2373 47.8224 16.8804 47.6532 17.4693 47.3178V47.3357C17.4693 48.2387 17.8223 49.0752 18.4072 49.6999ZM16.468 45.1858C16.4467 45.198 16.4258 45.211 16.4052 45.2245C15.8896 45.565 15.2984 45.565 14.7829 45.2245C14.7619 45.2106 14.7406 45.1975 14.7186 45.185L10.2434 42.6267C9.70736 42.2578 9.33611 41.5563 9.26592 40.7798V36.8554H10.9159C13.5225 36.8554 16.0681 35.8966 18.0304 34.199L21.9218 36.3716V40.7798C21.8517 41.5512 21.4753 42.253 20.9305 42.627L16.468 45.1858ZM2.4789 57.6557L2.74784 55.1945C2.93722 53.4618 4.21304 52.0688 5.92245 51.7283L10.4039 50.8353C11.8719 52.1683 13.7327 52.8351 15.594 52.8351C17.4554 52.8351 19.3164 52.1682 20.7844 50.8349L25.2664 51.728C26.9764 52.0687 28.2521 53.4622 28.4412 55.1954L28.7094 57.6557H2.4789ZM49.5966 50.8352L54.078 51.7281C55.7875 52.0687 57.0632 53.4618 57.2526 55.1944L57.5214 57.6556H31.291L31.5594 55.1952C31.7482 53.4619 33.0241 52.0686 34.734 51.7279L39.2161 50.8348C40.6843 52.1681 42.5449 52.835 44.4064 52.835C46.2672 52.835 48.1286 52.1679 49.5966 50.8352ZM47.2185 49.7007C45.4989 50.7547 43.3122 50.7544 41.593 49.7C42.1778 49.0753 42.5312 48.2387 42.5312 47.336V47.318C43.1202 47.6534 43.7629 47.8226 44.4064 47.8226C45.0489 47.8225 45.6914 47.6537 46.2798 47.3191V47.336C46.2796 48.2391 46.6332 49.0761 47.2185 49.7007ZM50.7343 40.7797C50.6641 41.5563 50.2929 42.2576 49.7569 42.6267L45.2817 45.185C45.2598 45.1974 45.2384 45.2106 45.2174 45.2245C44.7018 45.565 44.1106 45.565 43.5951 45.2245C43.5746 45.211 43.5536 45.198 43.5323 45.1858L39.0695 42.6269C38.5248 42.2528 38.1484 41.5511 38.0783 40.7797V35.3281C38.788 35.6229 39.5654 35.7863 40.3805 35.7863H50.7343V40.7797ZM52.1096 32.264C52.1096 32.2643 52.1096 32.2646 52.1096 32.2649C52.1096 32.9458 51.9734 33.1685 51.9148 33.2327C51.7928 33.3663 51.4518 33.4428 50.9791 33.4428H40.3805C38.3516 33.4428 36.701 31.7921 36.701 29.7633V26.6001C37.2484 26.833 37.8118 26.9535 38.3689 26.9535H49.6747C51.0024 26.9535 52.0718 27.9929 52.1095 29.3198C52.1099 29.3348 52.1106 29.3496 52.1116 29.3644L52.1096 32.264ZM53.3328 18.6252C53.1129 18.4053 52.8148 18.2817 52.5039 18.2817H43.4773C42.8302 18.2817 42.3055 18.8065 42.3055 19.4536C42.3055 20.1007 42.8302 20.6255 43.4773 20.6255H51.3313L51.329 24.9002C50.8141 24.7127 50.2572 24.6097 49.6747 24.6097H38.3689C37.8295 24.6097 37.3368 24.33 37.0188 24.0955C36.5073 23.7184 35.8378 23.6617 35.2713 23.9476C34.7075 24.2325 34.3572 24.8021 34.3572 25.4345V29.7631C34.3572 31.2164 34.8745 32.5509 35.7347 33.5925V40.828C35.7347 40.8577 35.7358 40.8876 35.7381 40.9173C35.8549 42.4463 36.6276 43.823 37.805 44.6005C37.8255 44.614 37.8465 44.6269 37.8677 44.6391L40.1932 45.9726C40.1895 46.0102 40.1874 46.0482 40.1874 46.0866V47.3357C40.1874 47.8662 39.8097 48.3265 39.2895 48.4301L34.2759 49.429C32.4171 49.7995 30.8816 50.9526 30.0001 52.5255C29.6121 51.8333 29.0973 51.2228 28.484 50.7242V35.6582C28.484 31.2645 26.2739 27.378 22.9076 25.05L27.3192 20.6382H29.9842C33.2149 20.6382 35.8434 18.0098 35.8434 14.779V5.86022C35.8434 4.54221 35.4057 3.32487 34.6685 2.34483L54.1407 2.34472C56.0792 2.34472 57.6562 3.92182 57.6562 5.86022V14.7662C57.6562 15.536 57.4118 16.2672 56.9495 16.88C56.9363 16.8976 56.9234 16.9157 56.9112 16.9341L53.6742 21.7721L53.6754 19.4543C53.676 19.1434 53.5525 18.8452 53.3328 18.6252Z" fill="#E97F54"/>
<path d="M39.0325 18.625C38.8146 18.407 38.5123 18.2816 38.2041 18.2816C37.8959 18.2816 37.5936 18.4069 37.3756 18.625C37.1576 18.8431 37.0322 19.1453 37.0322 19.4535C37.0322 19.7617 37.1575 20.064 37.3756 20.2819C37.5936 20.4999 37.8959 20.6254 38.2041 20.6254C38.5123 20.6254 38.8146 20.5 39.0325 20.2819C39.2505 20.064 39.376 19.7617 39.376 19.4535C39.376 19.1453 39.2506 18.8429 39.0325 18.625Z" fill="#E97F54"/>
<path d="M17.6371 13.0002C17.4191 12.7821 17.1168 12.6569 16.8086 12.6569C16.4991 12.6569 16.198 12.7821 15.9801 13.0002C15.7609 13.2182 15.6367 13.5205 15.6367 13.8287C15.6367 14.1369 15.7609 14.4393 15.9801 14.6571C16.198 14.8751 16.4992 15.0006 16.8086 15.0006C17.1168 15.0006 17.4191 14.8752 17.6371 14.6571C17.855 14.4393 17.9805 14.1369 17.9805 13.8287C17.9803 13.5205 17.855 13.2182 17.6371 13.0002Z" fill="#E97F54"/>
</g>
<defs>
<clipPath id="clip0">
<rect width="60" height="60" fill="white"/>
</clipPath>
</defs>
</svg>
