<svg width="22" height="23" viewBox="0 0 22 23" fill="none" xmlns="http://www.w3.org/2000/svg">
<g clip-path="url(#clip0)">
<path fill-rule="evenodd" clip-rule="evenodd" d="M8.24967 19.5835C8.2957 19.5835 8.33301 19.5462 8.33301 19.5002C8.33301 19.4541 8.2957 19.4168 8.24967 19.4168C8.20364 19.4168 8.16634 19.4541 8.16634 19.5002C8.16634 19.5462 8.20364 19.5835 8.24967 19.5835ZM6.33301 19.5002C6.33301 18.4416 7.19112 17.5835 8.24967 17.5835C9.30822 17.5835 10.1663 18.4416 10.1663 19.5002C10.1663 20.5587 9.30822 21.4168 8.24967 21.4168C7.19112 21.4168 6.33301 20.5587 6.33301 19.5002Z" fill="#3A4336"/>
<path fill-rule="evenodd" clip-rule="evenodd" d="M18.3332 19.5835C18.3792 19.5835 18.4165 19.5462 18.4165 19.5002C18.4165 19.4541 18.3792 19.4168 18.3332 19.4168C18.2871 19.4168 18.2498 19.4541 18.2498 19.5002C18.2498 19.5462 18.2871 19.5835 18.3332 19.5835ZM16.4165 19.5002C16.4165 18.4416 17.2746 17.5835 18.3332 17.5835C19.3917 17.5835 20.2498 18.4416 20.2498 19.5002C20.2498 20.5587 19.3917 21.4168 18.3332 21.4168C17.2746 21.4168 16.4165 20.5587 16.4165 19.5002Z" fill="#3A4336"/>
<path fill-rule="evenodd" clip-rule="evenodd" d="M-0.0834961 1.16675C-0.0834961 0.614463 0.364219 0.166748 0.916504 0.166748H4.58317C5.0598 0.166748 5.47018 0.503133 5.56372 0.970491L6.32021 4.75008H21.0832C21.3812 4.75008 21.6637 4.88301 21.8537 5.11264C22.0436 5.34226 22.1213 5.64466 22.0655 5.93741L20.5974 13.6357C20.4678 14.288 20.113 14.8738 19.595 15.2908C19.0798 15.7056 18.4357 15.9269 17.7746 15.9167H8.88174C8.22061 15.9269 7.57659 15.7056 7.06135 15.2908C6.54359 14.874 6.18885 14.2885 6.05917 13.6366C6.05911 13.6363 6.05922 13.6369 6.05917 13.6366L4.52829 5.98789C4.52177 5.96119 4.51633 5.93407 4.51201 5.90658L3.76349 2.16675H0.916504C0.364219 2.16675 -0.0834961 1.71903 -0.0834961 1.16675ZM6.7205 6.75008L8.02068 13.2461C8.05878 13.4379 8.16314 13.6102 8.31549 13.7329C8.46784 13.8555 8.65847 13.9207 8.85401 13.9169L8.87317 13.9167H17.7832L17.8023 13.9169C17.9979 13.9207 18.1885 13.8555 18.3409 13.7329C18.4924 13.6109 18.5965 13.4397 18.6351 13.2491C18.6353 13.2481 18.6355 13.2471 18.6357 13.2461L19.8744 6.75008H6.7205Z" fill="#3A4336"/>
</g>
<defs>
<clipPath id="clip0">
<rect width="22" height="22" fill="white" transform="translate(0 0.25)"/>
</clipPath>
</defs>
</svg>
