<svg width="100" height="100" viewBox="0 0 100 100" fill="none" xmlns="http://www.w3.org/2000/svg">
<g clip-path="url(#clip0)">
<path d="M30.7783 92.2217C30.7783 93.0309 31.434 93.6865 32.2432 93.6865H67.7568C68.566 93.6865 69.2217 93.0309 69.2217 92.2217C69.2217 91.4125 68.566 90.7568 67.7568 90.7568H32.2432C31.434 90.7568 30.7783 91.4125 30.7783 92.2217Z" fill="#B7D041"/>
<path d="M38.1621 82.865C37.3529 82.865 36.6973 83.5207 36.6973 84.3298C36.6973 85.139 37.3529 85.7947 38.1621 85.7947H61.8377C62.6469 85.7947 63.3025 85.139 63.3025 84.3298C63.3025 83.5207 62.6469 82.865 61.8377 82.865H38.1621Z" fill="#B7D041"/>
<path d="M15.1181 70.1779C15.1431 70.1793 15.1679 70.1799 15.1925 70.1799C15.9679 70.1799 16.6152 69.5713 16.6542 68.7883L18.5931 30.0873L23.0214 32.8885C23.4997 33.191 24.1093 33.191 24.5878 32.8885L30.3536 29.2414L36.1195 32.8885C36.5978 33.191 37.2073 33.191 37.6859 32.8885L43.4515 29.2414L49.2173 32.8885C49.6956 33.191 50.3052 33.191 50.7837 32.8885L56.5495 29.2414L62.3152 32.8885C62.7935 33.1914 63.4031 33.191 63.8816 32.8885L69.6474 29.2414L75.4132 32.8885C75.8915 33.191 76.5011 33.191 76.9796 32.8885L81.4077 30.0875L81.6749 35.425C81.7154 36.233 82.3984 36.857 83.2111 36.8146C84.0191 36.7742 84.6411 36.0863 84.6007 35.2785L84.2081 27.4348C84.1822 26.9146 83.882 26.4473 83.4195 26.2076C82.9574 25.968 82.4025 25.9916 81.962 26.2701L76.1962 29.9172L75.5361 29.4996V22.7988C75.5361 21.9896 74.8804 21.334 74.0712 21.334C73.262 21.334 72.6064 21.9896 72.6064 22.7988V27.6461L70.4304 26.2697C69.9521 25.9672 69.3425 25.9672 68.864 26.2697L63.0982 29.9168L57.3325 26.2697C56.8542 25.9668 56.2447 25.9672 55.7661 26.2697L51.4648 28.9904V26.7434V13.5C51.4648 7.67148 56.2066 2.92969 62.0351 2.92969C67.8636 2.92969 72.6054 7.67148 72.6054 13.5V15.9434C72.6054 16.7525 73.2611 17.4082 74.0702 17.4082C74.8794 17.4082 75.5351 16.7525 75.5351 15.9434V13.5C75.5351 6.05606 69.479 0 62.0351 0C54.5911 0 48.5351 6.05606 48.5351 13.5V19.8854L47.1536 18.3195C46.1169 17.1447 45.546 15.6348 45.546 14.0674V10.0701C46.5982 9.53203 47.3216 8.43926 47.3216 7.17871V3.24824C47.3216 1.45723 45.8644 0 44.0734 0H30.2781C28.487 0 27.0298 1.45723 27.0298 3.24824V7.17871C27.0298 8.43926 27.7532 9.53203 28.8054 10.0701V14.0674C28.8054 15.6346 28.2343 17.1447 27.1976 18.3195L25.2273 20.5527C23.7177 22.2633 22.8866 24.4619 22.8866 26.7432V29.3359L18.0392 26.2697C17.5988 25.9908 17.0437 25.9674 16.5818 26.2072C16.1195 26.4471 15.8191 26.9143 15.7931 27.4344L13.7284 68.6416C13.6878 69.4496 14.3103 70.1375 15.1181 70.1779ZM29.9595 3.24824C29.9595 3.07266 30.1023 2.92969 30.2781 2.92969H44.0734C44.249 2.92969 44.3919 3.07246 44.3919 3.24824V7.17871C44.3919 7.3543 44.2491 7.49727 44.0734 7.49727H30.2781C30.1025 7.49727 29.9595 7.35449 29.9595 7.17871V3.24824ZM27.424 22.491L29.3941 20.258C30.9036 18.5475 31.7349 16.3488 31.7349 14.0674V10.4268H42.6161V14.0674C42.6161 16.349 43.4476 18.5475 44.9568 20.2578L46.9271 22.491C47.964 23.6662 48.5349 25.1762 48.5349 26.7432V28.9902L44.2339 26.2697C43.7556 25.9668 43.146 25.9672 42.6675 26.2697L36.9019 29.9168L31.1361 26.2697C30.6577 25.9672 30.0482 25.9672 29.5697 26.2697L25.8154 28.6443V26.743C25.8161 25.1762 26.3872 23.6662 27.424 22.491Z" fill="#B7D041"/>
<path d="M84.9433 42.1259C84.903 41.3179 84.2206 40.69 83.4072 40.7363C82.5991 40.7767 81.9769 41.4646 82.0175 42.2724L84.7626 97.0703H15.2372L16.3105 75.6338C16.3509 74.8258 15.7286 74.1381 14.9208 74.0976C14.1085 74.0556 13.4251 74.6795 13.3847 75.4873L12.2343 98.4619C12.214 98.8627 12.3595 99.2541 12.6359 99.5447C12.9124 99.8353 13.296 100 13.6974 100H86.3028C86.7042 100 87.0878 99.8353 87.3644 99.5447C87.6409 99.2541 87.7861 98.8627 87.7659 98.4619L84.9433 42.1259Z" fill="#B7D041"/>
<path d="M54.6514 16.8541C54.6514 19.4887 57.8258 21.4756 62.0352 21.4756C66.2445 21.4756 69.4189 19.4887 69.4189 16.8541C69.4189 14.2193 66.2445 12.2324 62.0352 12.2324C57.8258 12.2324 54.6514 14.2193 54.6514 16.8541ZM66.4893 16.8541C66.4893 17.3451 64.9285 18.5459 62.0352 18.5459C59.1418 18.5459 57.5811 17.3451 57.5811 16.8541C57.5811 16.3631 59.1418 15.1621 62.0352 15.1621C64.9285 15.1621 66.4893 16.3631 66.4893 16.8541Z" fill="#B7D041"/>
<path d="M50 46.1675C42.1209 46.1675 35.7109 52.5776 35.7109 60.4567C35.7109 68.3358 42.1209 74.7458 50 74.7458C57.8791 74.7458 64.2891 68.3358 64.2891 60.4567C64.2891 52.5776 57.8791 46.1675 50 46.1675ZM50 71.8161C43.7365 71.8161 38.6406 66.7202 38.6406 60.4567C38.6406 54.1931 43.7365 49.0972 50 49.0972C56.2635 49.0972 61.3594 54.1931 61.3594 60.4567C61.3594 66.7202 56.2635 71.8161 50 71.8161Z" fill="#B7D041"/>
</g>
<defs>
<clipPath id="clip0">
<rect width="100" height="100" fill="white"/>
</clipPath>
</defs>
</svg>
