<svg width="60" height="60" viewBox="0 0 60 60" fill="none" xmlns="http://www.w3.org/2000/svg">
<path d="M48.6926 52.258L46.4523 45.5361C45.6693 43.1893 43.6719 41.457 41.2371 41.0138L34.7697 39.837V39.3358C35.8952 38.6825 36.8745 37.8087 37.6545 36.7741H39.6084C41.209 36.7741 42.5116 35.4716 42.5116 33.8709V22.258C42.5116 15.3212 36.8677 9.67737 29.931 9.67737C22.9942 9.67737 17.3503 15.3212 17.3503 22.258V29.0322C17.3503 30.898 18.6771 32.459 20.4364 32.8229C20.9793 35.6041 22.7174 37.9577 25.0922 39.3358V39.837L18.6239 41.0138C16.19 41.457 14.1916 43.1893 13.4097 45.5361L13.0226 46.6983L9.72644 43.4022C9.34902 43.0248 9.34902 42.4103 9.72644 42.0329L13.549 38.2112L6.37418 31.0364L2.05418 35.3564C0.774829 36.6358 0.0703125 38.337 0.0703125 40.1467C0.0703125 41.9564 0.774829 43.6567 2.05418 44.9361L15.1332 58.0151C16.4126 59.2945 18.1139 60 19.9235 60C21.7332 60 23.4335 59.2945 24.6829 58.0441L29.3968 53.7251L27.9268 52.258H48.6926ZM40.5761 33.8709C40.5761 34.4051 40.1416 34.8387 39.6084 34.8387H38.7945C39.0752 34.199 39.2881 33.5245 39.4255 32.8229C39.8397 32.7367 40.221 32.5722 40.5761 32.3651V33.8709ZM39.6084 30.6987V27.3658C40.1842 27.7016 40.5761 28.319 40.5761 29.0322C40.5761 29.7454 40.1842 30.3629 39.6084 30.6987ZM20.2535 30.6987C19.6777 30.3629 19.2858 29.7454 19.2858 29.0322C19.2858 28.319 19.6777 27.7016 20.2535 27.3658V30.6987ZM20.2535 24.1935V25.2987C19.909 25.3887 19.5858 25.5241 19.2858 25.6993V22.258C19.2858 16.3887 24.0616 11.6129 29.931 11.6129C35.8003 11.6129 40.5761 16.3887 40.5761 22.258V25.6993C40.2761 25.5241 39.9529 25.3877 39.6084 25.2987V24.1935H38.6406C35.779 24.1935 33.0887 23.0787 31.0642 21.0551L29.931 19.9219L28.7977 21.0551C26.7732 23.0787 24.0829 24.1935 21.2213 24.1935H20.2535ZM22.189 30.9677V26.0922C25.0952 25.8735 27.8048 24.6745 29.931 22.6529C32.0571 24.6745 34.7668 25.8745 37.6729 26.0922V30.9677C37.6729 32.3787 37.2877 33.6987 36.6258 34.8387H29.931V36.7741H35.0348C33.6703 37.9751 31.8868 38.7096 29.931 38.7096C25.6622 38.7096 22.189 35.2364 22.189 30.9677ZM32.8342 40.199V40.2445L29.931 43.1477L27.0277 40.2445V40.199C27.9452 40.4874 28.9197 40.6451 29.931 40.6451C30.9422 40.6451 31.9168 40.4874 32.8342 40.199ZM15.2445 46.1477C15.8029 44.4716 17.2303 43.2338 18.9693 42.9164L25.7339 41.6874L29.931 45.8845L34.1271 41.6883L40.8906 42.9174C42.6297 43.2348 44.0571 44.4716 44.6155 46.1487L46.0081 50.3225H25.9913L22.2219 46.5532L18.0335 50.3419C17.6687 50.7087 17.031 50.7087 16.6652 50.3419L14.5516 48.2283L15.2445 46.1477ZM6.37322 33.7732L10.8113 38.2112L9.76031 39.2622L5.32225 34.8241L6.37322 33.7732ZM23.3426 56.6487C22.429 57.5603 21.2135 58.0645 19.9216 58.0645C18.6297 58.0645 17.4142 57.5603 16.4997 56.6467L3.42063 43.5687C2.50709 42.6551 2.00386 41.4396 2.00386 40.1477C2.00386 38.8548 2.50709 37.6393 3.42063 36.7258L3.95289 36.1935L8.39096 40.6316L8.35612 40.6664C7.22483 41.7987 7.22483 43.6403 8.35612 44.7725L15.2958 51.7122C15.8445 52.26 16.5732 52.5629 17.3493 52.5629C18.1255 52.5629 18.8542 52.2609 19.3671 51.7461L19.4397 51.6812L23.8981 56.1396L23.3426 56.6487ZM25.3264 54.8293L20.8777 50.3806L22.1561 49.2251L26.5971 53.6661L25.3264 54.8293Z" fill="#9A8AAE"/>
<path d="M57.0273 0H43.4789C41.8783 0 40.5757 1.30258 40.5757 2.90323V10.6452C40.5757 12.2458 41.8783 13.5484 43.4789 13.5484H46.0637L45.0631 19.3848L54.4018 13.5484H57.0273C58.6279 13.5484 59.9305 12.2458 59.9305 10.6452V2.90323C59.9305 1.30258 58.6279 0 57.0273 0ZM57.995 10.6452C57.995 11.1784 57.5605 11.6129 57.0273 11.6129H53.8463L47.7002 15.4539L48.3592 11.6129H43.4789C42.9457 11.6129 42.5112 11.1784 42.5112 10.6452V2.90323C42.5112 2.37 42.9457 1.93548 43.4789 1.93548H57.0273C57.5605 1.93548 57.995 2.37 57.995 2.90323V10.6452Z" fill="#9A8AAE"/>
<path d="M56.0597 3.87097H44.4468V5.80646H56.0597V3.87097Z" fill="#9A8AAE"/>
<path d="M52.1887 7.74194H44.4468V9.67743H52.1887V7.74194Z" fill="#9A8AAE"/>
<path d="M56.0595 7.74194H54.124V9.67743H56.0595V7.74194Z" fill="#9A8AAE"/>
<path d="M29.9309 2.9032C17.2864 2.9032 6.3945 11.6497 3.56288 23.85L1.72901 20.7929L0.0693359 21.7887L3.47095 27.4568L9.13901 24.0551L8.14321 22.3955L5.52063 23.969C8.26321 12.808 18.2997 4.83868 29.9309 4.83868C32.4732 4.83868 34.9816 5.2161 37.3864 5.96126L37.9593 4.11288C35.3687 3.30965 32.6677 2.9032 29.9309 2.9032Z" fill="#9A8AAE"/>
<path d="M59.4603 21.4277L53.7922 18.0261L50.3916 23.6952L52.0513 24.691L53.7448 21.8681C54.6361 24.4761 55.0919 27.2042 55.0919 30C55.0919 35.7552 53.0984 41.3816 49.48 45.8419L50.9829 47.0613C54.8809 42.2574 57.0274 36.1974 57.0274 30C57.0274 27.0397 56.5503 24.149 55.6203 21.3813L58.4645 23.0874L59.4603 21.4277Z" fill="#9A8AAE"/>
</svg>
