<svg width="100" height="100" viewBox="0 0 100 100" fill="none" xmlns="http://www.w3.org/2000/svg">
<g clip-path="url(#clip0)">
<path d="M-0.000678927 46.875C-0.000678927 45.2148 1.89581 43.9453 4.08526 43.9277C2.79425 41.584 1.81377 39.2676 2.6419 36.5898C3.47002 33.9121 5.35674 32.3223 7.94854 31.3848C6.62628 28.7558 5.25323 26.2481 3.20245 24.2031C2.61651 23.6172 1.86065 23.1875 1.15166 22.7383C0.227835 22.1524 -0.0788059 21.4258 0.339163 20.6367C0.757132 19.8477 1.55987 19.6406 2.53448 20.0938C4.41925 20.9707 5.77471 22.459 7.02667 24.0547C7.32884 24.4949 7.67502 24.9033 8.05986 25.2734C7.9583 24.9336 7.86455 24.5879 7.75518 24.252C7.05205 22.1934 6.3333 20.1387 5.63799 18.0762C5.2708 16.9883 5.56963 16.1602 6.3919 15.8633C7.30206 15.5332 8.03838 15.9609 8.44073 17.1113C9.49151 20.1074 10.5228 23.1113 11.6458 26.3594C11.8157 24.5156 11.9388 22.9258 12.1185 21.3438C12.263 20.0664 13.3196 19.4082 14.304 19.9434C15.0071 20.334 15.1009 20.9668 15.0677 21.7012C14.9739 23.7129 14.9095 25.7266 14.8509 27.7402C14.8659 28.151 14.9044 28.5605 14.9661 28.9668C18.72 27.8301 21.7884 28.6856 24.1653 31.8184C24.2491 31.6983 24.3148 31.5667 24.3607 31.4277C24.6751 28.916 25.8079 26.7891 27.4857 24.9434C29.5208 22.6992 29.9114 20.0019 29.8079 17.1309C29.6699 13.2116 29.5599 9.29101 29.4778 5.36914C29.4524 4.00195 30.1868 3.31836 31.5286 3.30664C33.806 3.28711 36.0846 3.28711 38.3646 3.30664C39.6888 3.31836 40.429 4.04101 40.4368 5.36523C40.4563 8.78125 40.4661 12.2012 40.4271 15.6172C40.4114 16.9961 40.1673 18.375 40.1927 19.75C40.2278 21.6758 41.0149 23.3633 42.3001 24.7695C44.763 27.4609 45.8704 30.6074 45.6985 34.2305C45.691 34.3362 45.7044 34.4423 45.7379 34.5429C45.7714 34.6434 45.8244 34.7364 45.8938 34.8164C46.6556 33.3672 47.4153 31.916 48.222 30.3789C45.9056 29.2481 46.3724 27.1621 46.5482 25.2617C46.6458 24.1914 47.472 23.4902 48.5521 23.2441C49.0022 23.1558 49.4607 23.1178 49.9192 23.1309C55.2252 23.1231 60.5312 23.1231 65.8372 23.1309C68.4212 23.1309 69.3353 24.082 69.386 26.6465C69.4173 28.209 69.2435 29.5957 67.5872 30.3398C68.347 31.8066 69.0423 33.2363 69.8177 34.623C70.3566 35.5903 70.6213 36.6863 70.5833 37.793C70.5481 39.9076 70.5514 42.0234 70.5931 44.1406C70.5931 44.5527 70.8333 44.9727 71.0013 45.3711C71.3392 46.1641 71.7064 46.9473 72.1321 47.8926H72.9935C77.1927 47.8926 81.3919 47.9277 85.5892 47.875C87.4661 47.8535 88.9837 48.4434 90.2884 49.8106C92.7161 52.3496 95.2005 54.8418 97.6946 57.3184C98.6985 58.3164 99.6009 59.3555 100.015 60.7402V85.7402C99.4427 87.2559 98.6028 88.5547 96.9134 88.9414C96.0859 89.1034 95.2417 89.1631 94.3997 89.1191C93.7474 89.1035 93.4231 89.293 93.2024 89.9355C91.7747 94.0566 88.0755 96.6934 83.7981 96.6895C79.5208 96.6856 75.8294 94.0605 74.3997 89.9316C74.1751 89.2871 73.847 89.1231 73.2005 89.1231C58.5 89.1452 43.7981 89.1452 29.095 89.1231C28.4485 89.1231 28.136 89.2832 27.9114 89.9375C27.2445 91.9056 25.9772 93.6151 24.2878 94.8252C22.5984 96.0353 20.5721 96.6851 18.494 96.6832C16.4159 96.6813 14.3908 96.0276 12.7037 94.8144C11.0165 93.6011 9.75239 91.8893 9.08916 89.9199C8.89385 89.334 8.63799 89.082 7.99932 89.1133C6.92901 89.1641 5.85089 89.0586 4.78057 89.1406C2.50714 89.3164 0.389938 88.7695 0.0149435 86.3164C-0.844432 84.1308 -0.000678927 46.875 -0.000678927 46.875ZM2.97979 80.1738C5.40362 80.1738 7.67901 80.1543 9.95049 80.1875C10.253 80.2043 10.5556 80.1553 10.8375 80.0441C11.1193 79.9328 11.3738 79.7619 11.5833 79.543C13.4166 77.7725 15.8598 76.7736 18.4083 76.7526C20.9569 76.7315 23.4163 77.6898 25.2786 79.4297C25.522 79.6804 25.8149 79.8776 26.1388 80.0088C26.4626 80.1399 26.8102 80.2021 27.1595 80.1914C40.6334 80.168 54.11 80.1621 67.5892 80.1738H68.8665V79.0156L68.8548 48.5469C68.8548 47.0664 68.6927 46.9043 67.2513 46.9043H4.65557C3.1419 46.9043 2.97393 47.0703 2.97393 48.5742V79.043L2.97979 80.1738ZM93.8001 86.1504H95.097C96.6595 86.1504 97.0286 85.7695 97.0306 84.1719C97.0306 76.8809 97.0306 69.5898 97.0403 62.2969C97.0566 61.8606 96.9797 61.4259 96.8146 61.0218C96.6496 60.6176 96.4003 60.2533 96.0833 59.9531C93.4297 57.3125 90.8001 54.6484 88.1946 51.9609C87.8839 51.6118 87.4995 51.336 87.0692 51.1536C86.6388 50.9712 86.1733 50.8867 85.7064 50.9062C81.5716 50.9473 77.4388 50.9199 73.304 50.918H71.9251V86.0742H73.7864C74.4642 80.5781 78.5071 76.7793 83.6399 76.75C89.0032 76.7226 93.0403 80.4062 93.8001 86.1504ZM32.9681 17.627C32.7532 19.207 32.6517 20.7344 32.3196 22.209C31.8528 24.291 30.5774 25.9551 29.2103 27.5488C28.1028 28.8379 27.3626 30.3399 27.3216 32.041C27.2278 35.9082 27.2298 39.7793 27.2005 43.6484C27.2005 43.7324 27.2806 43.8144 27.306 43.8652H30.5872C30.5872 42.3027 30.5735 40.8086 30.5872 39.3164C30.6126 37.0938 31.7591 35.9648 33.9759 35.9551C36.5149 35.9434 39.054 35.9551 41.5931 35.9551C41.9349 35.9551 42.2786 35.9238 42.6185 35.9082C42.9524 32.3789 42.4427 29.2324 39.9251 26.6035C38.4095 25.0195 37.556 23.0371 37.2689 20.8516C37.1321 19.7988 37.1048 18.7305 37.0247 17.625L32.9681 17.627ZM23.7689 43.9082C23.3177 41.2383 22.886 38.6758 22.4524 36.1133C22.4095 35.8574 22.3528 35.6016 22.3021 35.3477C21.681 32.2637 19.1771 30.7734 16.1771 31.7578C13.6146 32.6003 11.0638 33.4746 8.52471 34.3809C6.4583 35.1133 5.12823 36.8242 5.34698 38.7813C5.46807 39.8691 6.07549 40.9004 6.45831 41.9609C6.68291 42.584 7.03448 42.6582 7.65948 42.4297C9.88604 41.6152 12.1341 40.8672 14.3802 40.1055C15.4798 39.7344 16.2884 40.0312 16.6009 40.8594C16.9329 41.7441 16.4798 42.5234 15.3704 42.9277C14.5638 43.2227 13.7474 43.4922 12.9329 43.7715L12.97 43.9082H23.7689ZM67.5794 43.9082C67.5794 41.5879 67.5794 39.3477 67.5677 37.1094C67.5467 36.8508 67.4672 36.6003 67.3353 36.377C66.4271 34.6191 65.5286 32.8496 64.5657 31.1191C64.4603 30.9582 64.3208 30.8223 64.1571 30.721C63.9935 30.6198 63.8096 30.5557 63.6185 30.5332C59.8112 30.4954 56.0045 30.4954 52.1985 30.5332C51.994 30.5629 51.7982 30.6364 51.6246 30.7486C51.4511 30.8609 51.3037 31.0092 51.1927 31.1836C50.4739 32.418 49.847 33.7051 49.1946 34.9766C48.8685 35.6113 48.3157 36.2422 48.2845 36.8945C48.1731 39.2168 48.2415 41.5488 48.2415 43.8574H50.177C50.177 42.5098 50.1634 41.2422 50.177 39.9766C50.1985 38.1602 51.0599 37.2715 52.8724 37.2559C56.1914 37.2311 59.5117 37.2311 62.8333 37.2559C64.7493 37.2559 65.6126 38.1641 65.6243 40.0898C65.6243 41.3477 65.6243 42.6074 65.6243 43.9063L67.5794 43.9082ZM68.7688 86.125V83.2363H27.929L28.554 86.125H68.7688ZM76.7767 86.7109C76.681 90.3906 79.886 93.6426 83.6966 93.7305C87.39 93.8164 90.6458 90.7187 90.7864 86.9844C90.9329 83.1074 87.7239 79.7578 83.8216 79.7148C80.0247 79.6738 76.8802 82.7969 76.7786 86.7188L76.7767 86.7109ZM18.554 79.7129C14.8431 79.6523 11.5755 82.7969 11.511 86.4902C11.4832 87.4183 11.6395 88.3428 11.9709 89.2102C12.3023 90.0775 12.8022 90.8707 13.4417 91.5438C14.0813 92.217 14.8478 92.7568 15.6971 93.1321C16.5464 93.5074 17.4616 93.7108 18.3899 93.7305C22.1692 93.834 25.4212 90.6719 25.4993 86.8027C25.5853 83.0215 22.3978 79.7754 18.554 79.7129ZM33.6321 39.0234V43.8809H42.6263V39.0234H33.6321ZM37.0345 14.5606V6.32618H32.8665V14.5606H37.0345ZM53.2024 40.2832V43.873H62.6009V40.2832H53.2024ZM49.4466 27.4609H66.347V26.2012H49.4466V27.4609ZM2.98565 83.2344C2.98565 83.9902 2.92706 84.7051 3.01495 85.4004C3.0501 85.668 3.40557 86.0937 3.63604 86.1016C5.24932 86.1641 6.86456 86.1348 8.44854 86.1348L9.03448 83.2344H2.98565Z" fill="#B7D041"/>
<path d="M27.6301 62.7619C27.6301 60.7463 27.6301 58.7306 27.6301 56.7072C27.6301 56.3517 27.5598 55.8947 27.7473 55.6642C28.1008 55.2248 28.6067 54.6467 29.0696 54.6291C29.5324 54.6115 30.0676 55.1564 30.468 55.5588C30.6516 55.7424 30.6262 56.174 30.6262 56.4943C30.6353 60.7209 30.6353 64.9481 30.6262 69.176C30.6337 69.403 30.6167 69.6303 30.5754 69.8537C30.4016 70.6486 29.927 71.131 29.0832 71.1056C28.2395 71.0803 27.7356 70.5959 27.6809 69.7736C27.6125 68.7385 27.6321 67.6955 27.6262 66.6486C27.6262 65.3478 27.6262 64.047 27.6262 62.7424L27.6301 62.7619Z" fill="#B7D041"/>
<path d="M41.5737 62.8906C41.5737 60.7422 41.5639 58.5937 41.5737 56.4453C41.5737 55.2305 42.1362 54.5391 43.0542 54.541C43.9721 54.543 44.5307 55.2383 44.5327 56.4492C44.5327 60.7383 44.5327 65.028 44.5327 69.3183C44.5327 70.459 43.9799 71.0996 43.0542 71.1016C42.1284 71.1035 41.5913 70.4726 41.5834 69.3164C41.5639 67.1875 41.5737 65.0391 41.5737 62.8906Z" fill="#B7D041"/>
<path d="M13.7062 67.3828C13.7062 66.668 13.6671 65.9512 13.716 65.2344C13.7824 64.2754 14.4406 63.6485 15.255 63.6719C16.0363 63.7012 16.6515 64.3008 16.6808 65.2344C16.7257 66.6934 16.7238 68.1641 16.6691 69.6152C16.6339 70.5566 16.0285 71.1016 15.2023 71.0996C14.3761 71.0976 13.7824 70.5391 13.7179 69.6133C13.671 68.8848 13.7062 68.1367 13.7062 67.3828Z" fill="#B7D041"/>
<path d="M58.4453 58.3025C58.4453 59.0837 58.4785 59.865 58.4453 60.6462C58.3945 61.574 57.8125 62.1384 56.9883 62.1443C56.1641 62.1501 55.5313 61.5876 55.5039 60.6658C55.457 59.1423 55.457 57.6169 55.5039 56.0896C55.5293 55.1853 56.1816 54.572 56.9707 54.5642C57.7988 54.5642 58.4043 55.1912 58.4473 56.1677C58.4785 56.8806 58.4473 57.5954 58.4473 58.3161L58.4453 58.3025Z" fill="#B7D041"/>
<path d="M13.6719 56.9765C13.6863 56.5557 13.7281 56.1362 13.7969 55.7207C13.8474 55.3782 14.0285 55.0685 14.3023 54.8566C14.5762 54.6446 14.9214 54.547 15.2656 54.584C16.0156 54.6191 16.5703 55.0469 16.6328 55.8398C16.6956 56.6764 16.7009 57.5162 16.6484 58.3535C16.5977 59.1933 16.0332 59.6562 15.2422 59.6797C14.4512 59.7031 13.9043 59.2304 13.7656 58.4199C13.7098 57.9407 13.6785 57.4589 13.6719 56.9765Z" fill="#B7D041"/>
<path d="M58.4155 68.6699C58.4403 69.0601 58.4403 69.4516 58.4155 69.8418C58.3159 70.623 57.8491 71.0645 57.0659 71.1133C56.2827 71.1621 55.687 70.7617 55.5815 70.0098C55.4663 69.1451 55.4663 68.269 55.5815 67.4043C55.6772 66.6465 56.2729 66.2129 57.0425 66.2558C57.8452 66.3008 58.3569 66.7734 58.4312 67.6094C58.4624 67.9629 58.4312 68.3223 58.4312 68.6777L58.4155 68.6699Z" fill="#B7D041"/>
<path d="M84.3848 71.1367C82.041 71.1367 79.6973 71.1504 77.3535 71.1367C75.3066 71.1211 74.2285 70.0371 74.2285 67.9863C74.2194 64.2754 74.2194 60.5644 74.2285 56.8535C74.2285 54.8105 75.3301 53.7285 77.3535 53.7129C79.793 53.7129 82.2363 53.7285 84.6758 53.7011C85.1313 53.6859 85.5848 53.7679 86.0061 53.9417C86.4274 54.1154 86.8069 54.377 87.1191 54.709C89.2663 56.8886 91.4147 59.0638 93.5645 61.2344C93.8975 61.546 94.1618 61.9238 94.3404 62.3436C94.519 62.7633 94.608 63.2157 94.6016 63.6719C94.5899 65.1699 94.625 66.6679 94.5899 68.164C94.5449 70.0644 93.4863 71.1132 91.5938 71.1328C89.2031 71.1562 86.793 71.1367 84.3848 71.1367ZM91.6113 68.1269C91.6113 66.7734 91.6504 65.4785 91.5879 64.1894C91.5544 63.7552 91.3802 63.3438 91.0918 63.0176C89.9668 61.8008 88.7852 60.6367 87.6153 59.4609C86.6992 58.539 85.9219 57.2637 84.8106 56.8125C83.6641 56.3457 82.1895 56.6758 80.8574 56.6679C79.6699 56.6679 78.4824 56.6679 77.2637 56.6679V68.1269H91.6113Z" fill="#B7D041"/>
<path d="M88.5313 86.7324C88.5293 87.6701 88.2497 88.5862 87.7276 89.3651C87.2055 90.144 86.4644 90.7508 85.5978 91.1089C84.7312 91.467 83.7779 91.5604 82.8583 91.3773C81.9386 91.1942 81.0939 90.7427 80.4305 90.08C79.7672 89.4172 79.3151 88.5728 79.1312 87.6533C78.9473 86.7338 79.0399 85.7805 79.3974 84.9136C79.7548 84.0467 80.361 83.3051 81.1394 82.7824C81.9179 82.2596 82.8338 81.9792 83.7715 81.9765C84.3972 81.9729 85.0175 82.0934 85.5963 82.3311C86.1752 82.5688 86.7012 82.9189 87.1438 83.3612C87.5865 83.8035 87.937 84.3292 88.1752 84.9078C88.4133 85.4865 88.5344 86.1066 88.5313 86.7324ZM85.5488 86.7011C85.5439 86.3515 85.4347 86.0113 85.2354 85.724C85.0361 85.4367 84.7556 85.2154 84.4298 85.0884C84.104 84.9613 83.7478 84.9343 83.4066 85.0108C83.0654 85.0873 82.7547 85.2639 82.5144 85.5179C82.2741 85.7719 82.1149 86.0917 82.0574 86.4366C81.9998 86.7815 82.0464 87.1358 82.1912 87.454C82.336 87.7723 82.5725 88.0402 82.8703 88.2233C83.1682 88.4065 83.5139 88.4967 83.8633 88.4824C84.3196 88.4602 84.7496 88.2624 85.0634 87.9304C85.3772 87.5984 85.5504 87.158 85.5469 86.7011H85.5488Z" fill="#B7D041"/>
<path d="M23.2414 86.7617C23.2376 87.3885 23.1097 88.0083 22.865 88.5853C22.6204 89.1624 22.2639 89.6853 21.8161 90.1238C21.3683 90.5624 20.8381 90.9079 20.256 91.1404C19.674 91.3729 19.0516 91.4878 18.425 91.4785C17.8004 91.4737 17.1829 91.3458 16.6078 91.1023C16.0326 90.8588 15.5111 90.5044 15.0729 90.0593C14.6347 89.6143 14.2885 89.0873 14.054 88.5084C13.8195 87.9295 13.7013 87.3101 13.7062 86.6856C13.7111 86.061 13.8389 85.4435 14.0824 84.8684C14.3259 84.2933 14.6803 83.7717 15.1254 83.3335C15.5705 82.8954 16.0975 82.5491 16.6764 82.3146C17.2552 82.0801 17.8746 81.9619 18.4992 81.9668C19.1259 81.9683 19.7462 82.0938 20.3243 82.3359C20.9024 82.5781 21.4269 82.9322 21.8677 83.3778C22.3084 83.8235 22.6567 84.3519 22.8924 84.9326C23.1282 85.5133 23.2468 86.135 23.2414 86.7617ZM18.4757 88.4844C18.9509 88.4834 19.4063 88.2937 19.7417 87.9572C20.0772 87.6206 20.2653 87.1646 20.2648 86.6895C20.2429 86.2329 20.0499 85.8013 19.7242 85.4806C19.3984 85.1599 18.9639 84.9737 18.507 84.959C18.0408 84.9554 17.5922 85.1371 17.26 85.4642C16.9278 85.7913 16.7391 86.2369 16.7355 86.7031C16.7319 87.1693 16.9136 87.6179 17.2407 87.9501C17.5678 88.2823 18.0134 88.471 18.4796 88.4746L18.4757 88.4844Z" fill="#B7D041"/>
</g>
<defs>
<clipPath id="clip0">
<rect width="100" height="100" fill="white"/>
</clipPath>
</defs>
</svg>
