<svg width="14" height="14" viewBox="0 0 14 14" fill="none" xmlns="http://www.w3.org/2000/svg">
<g clip-path="url(#clip0)">
<path d="M6.90035 6.74384C7.82683 6.74384 8.62908 6.41155 9.28458 5.75594C9.94008 5.10044 10.2724 4.2984 10.2724 3.37181C10.2724 2.44555 9.94008 1.6434 9.28448 0.987682C8.62887 0.332289 7.82672 0 6.90035 0C5.97376 0 5.17172 0.332289 4.51622 0.987789C3.86072 1.64329 3.52832 2.44544 3.52832 3.37181C3.52832 4.2984 3.86072 5.10055 4.51632 5.75605C5.17193 6.41144 5.97408 6.74384 6.90035 6.74384Z" fill="#BAD14D"/>
<path d="M12.8004 10.7652C12.7814 10.4924 12.7432 10.1948 12.6869 9.88059C12.6301 9.564 12.5569 9.26471 12.4693 8.99117C12.3789 8.70844 12.2558 8.42924 12.1037 8.16168C11.9459 7.88397 11.7604 7.64215 11.5524 7.44316C11.3348 7.23498 11.0684 7.06761 10.7604 6.94553C10.4534 6.82408 10.1132 6.76256 9.74929 6.76256C9.60638 6.76256 9.46817 6.8212 9.20125 6.99498C9.03697 7.10211 8.84482 7.22601 8.63034 7.36305C8.44695 7.4799 8.1985 7.58938 7.89164 7.6885C7.59224 7.78538 7.28826 7.83451 6.98823 7.83451C6.6882 7.83451 6.38432 7.78538 6.08461 7.6885C5.77806 7.58949 5.52962 7.48001 5.34643 7.36316C5.13399 7.2274 4.94173 7.1035 4.77499 6.99487C4.50839 6.82109 4.37007 6.76245 4.22716 6.76245C3.86315 6.76245 3.52306 6.82408 3.21619 6.94563C2.90836 7.0675 2.64187 7.23488 2.42408 7.44327C2.21612 7.64236 2.03059 7.88407 1.87294 8.16168C1.72095 8.42924 1.5979 8.70834 1.50732 8.99128C1.41984 9.26482 1.34668 9.564 1.28986 9.88059C1.23357 10.1944 1.19533 10.4921 1.17642 10.7655C1.15784 11.0334 1.14844 11.3114 1.14844 11.5922C1.14844 12.323 1.38075 12.9147 1.83886 13.351C2.29132 13.7815 2.88999 14 3.61802 14H10.3591C11.0871 14 11.6856 13.7817 12.1381 13.351C12.5963 12.915 12.8287 12.3233 12.8287 11.5921C12.8286 11.31 12.819 11.0318 12.8004 10.7652Z" fill="#BAD14D"/>
</g>
<defs>
<clipPath id="clip0">
<rect width="13.9999" height="14" fill="white"/>
</clipPath>
</defs>
</svg>
