<svg width="18" height="18" viewBox="0 0 18 18" fill="none" xmlns="http://www.w3.org/2000/svg">
<path d="M8.54883 0.00286334C7.10433 0.0203008 3.99877 0.257676 2.26177 1.85124C0.969706 3.13149 0.518581 5.0243 0.465706 7.36486C0.421831 9.69699 0.368956 14.0766 4.59052 15.2691V17.0854C4.59052 17.0854 4.56408 17.8122 5.04446 17.9612C5.63621 18.1486 5.97314 17.5894 6.53564 16.9887L7.5847 15.8024C10.4731 16.0426 12.6855 15.4891 12.9403 15.4069C13.5264 15.2196 16.8277 14.7977 17.3671 10.4176C17.9206 5.89393 17.0977 3.04374 15.6121 1.75449H15.6031C15.1548 1.34161 13.3531 0.0287383 9.32789 0.0141133C9.32789 0.0141133 9.0292 -0.00613666 8.54883 0.00230084V0.00286334ZM8.59833 1.27468C9.00839 1.27186 9.25758 1.2893 9.25758 1.2893C12.6646 1.2983 14.2908 2.32374 14.6745 2.66911C15.9255 3.74124 16.5701 6.31074 16.0981 10.0874C15.6498 13.7492 12.9723 13.981 12.4768 14.1391C12.2658 14.2066 10.3173 14.6869 7.86258 14.5289C7.86258 14.5289 6.03445 16.735 5.46295 17.3031C5.37239 17.4027 5.26664 17.4319 5.19914 17.4173C5.10239 17.3937 5.07314 17.2739 5.07877 17.1096L5.09621 14.0952C1.51589 13.1052 1.72683 9.36961 1.76508 7.4183C1.80896 5.46699 2.17514 3.87061 3.26527 2.78949C4.73283 1.46255 7.36983 1.28368 8.5972 1.27468H8.59833ZM8.86833 3.22543C8.83886 3.22513 8.80963 3.23067 8.78231 3.24172C8.75499 3.25278 8.73013 3.26913 8.70917 3.28983C8.6882 3.31054 8.67154 3.33519 8.66014 3.36237C8.64874 3.38954 8.64284 3.41871 8.64277 3.44818C8.64277 3.57418 8.74514 3.67374 8.86833 3.67374C9.42605 3.66313 9.98035 3.76304 10.4993 3.96772C11.0182 4.17239 11.4914 4.47776 11.8918 4.86624C12.7091 5.65993 13.1073 6.72643 13.1225 8.12086C13.1225 8.24405 13.2221 8.34643 13.3481 8.34643V8.33743C13.4075 8.33758 13.4645 8.31425 13.5067 8.27252C13.549 8.23079 13.573 8.17406 13.5736 8.11468C13.601 7.45832 13.4945 6.80327 13.2608 6.18933C13.0271 5.57539 12.671 5.01539 12.2141 4.54336C11.3236 3.67318 10.1953 3.22486 8.86833 3.22486V3.22543ZM5.90339 3.74124C5.74417 3.71797 5.58179 3.74993 5.44327 3.8318H5.43146C5.10985 4.02032 4.82014 4.25858 4.57308 4.53774C4.36777 4.77511 4.25639 5.0153 4.22714 5.24649C4.2097 5.3843 4.22152 5.52211 4.26258 5.65374L4.2772 5.66274C4.50839 6.34224 4.81046 6.99586 5.17945 7.61124C5.65478 8.47578 6.23974 9.27532 6.91983 9.99005L6.94008 10.0193L6.97214 10.0429L6.99239 10.0666L7.01602 10.0868C7.73333 10.7689 8.53482 11.3566 9.40102 11.8356C10.391 12.3745 10.9918 12.6293 11.3523 12.7351V12.7407C11.4581 12.7727 11.5543 12.7874 11.651 12.7874C11.9583 12.7648 12.2492 12.6401 12.4773 12.433C12.7552 12.1859 12.9908 11.895 13.1748 11.5718V11.5662C13.3475 11.2411 13.289 10.9334 13.0398 10.7252C12.5408 10.289 12.0011 9.90156 11.4283 9.56818C11.0446 9.36005 10.6548 9.48605 10.4968 9.69699L10.1598 10.1217C9.98714 10.3326 9.67327 10.3034 9.67327 10.3034L9.66427 10.309C7.3237 9.71105 6.69933 7.34124 6.69933 7.34124C6.69933 7.34124 6.67008 7.01893 6.88664 6.85468L7.30852 6.51493C7.51045 6.35068 7.65108 5.96143 7.43452 5.57724C7.10343 5.00357 6.71683 4.4638 6.28027 3.96568C6.18483 3.84824 6.05093 3.76834 5.90227 3.74011L5.90339 3.74124ZM9.25758 4.40949C8.95889 4.40949 8.95889 4.86061 9.26039 4.86061C9.6318 4.86664 9.99838 4.9458 10.3392 5.09356C10.68 5.24133 10.9883 5.45481 11.2466 5.7218C11.4822 5.98168 11.6632 6.2862 11.779 6.61732C11.8947 6.94845 11.9428 7.29943 11.9205 7.64949C11.9215 7.70873 11.9457 7.76522 11.9878 7.80685C12.03 7.84848 12.0868 7.87195 12.146 7.87224L12.155 7.88405C12.2147 7.88361 12.2718 7.8597 12.314 7.8175C12.3562 7.77529 12.3801 7.71817 12.3806 7.65849C12.4008 6.76468 12.123 6.01486 11.5779 5.41411C11.03 4.81336 10.2656 4.47643 9.28964 4.40949H9.25758ZM9.62714 5.62224C9.31945 5.61324 9.30764 6.07336 9.61252 6.08236C10.3539 6.12061 10.7139 6.49524 10.7611 7.26586C10.7622 7.32436 10.7861 7.38013 10.8277 7.42123C10.8693 7.46234 10.9254 7.48552 10.9839 7.4858H10.9929C11.023 7.48451 11.0525 7.47724 11.0797 7.46442C11.107 7.4516 11.1314 7.43348 11.1515 7.41112C11.1717 7.38876 11.1872 7.36261 11.1971 7.33419C11.2071 7.30578 11.2113 7.27566 11.2095 7.24561C11.1566 6.24099 10.6087 5.67511 9.63614 5.6228H9.62714V5.62224Z" fill="#8D8D8D"/>
</svg>
