<svg width="26" height="26" viewBox="0 0 26 26" fill="none" xmlns="http://www.w3.org/2000/svg">
<path d="M13 16.25C14.7949 16.25 16.25 14.7949 16.25 13C16.25 11.2051 14.7949 9.75 13 9.75C11.2051 9.75 9.75 11.2051 9.75 13C9.75 14.7949 11.2051 16.25 13 16.25Z" fill="white"/>
<path d="M25.1389 12.7238C24.1833 10.2518 22.5243 8.11413 20.3669 6.57482C18.2096 5.03551 15.6485 4.16209 13.0001 4.0625C10.3518 4.16209 7.79071 5.03551 5.63337 6.57482C3.47603 8.11413 1.81702 10.2518 0.861393 12.7238C0.796854 12.9023 0.796854 13.0977 0.861393 13.2762C1.81702 15.7482 3.47603 17.8859 5.63337 19.4252C7.79071 20.9645 10.3518 21.8379 13.0001 21.9375C15.6485 21.8379 18.2096 20.9645 20.3669 19.4252C22.5243 17.8859 24.1833 15.7482 25.1389 13.2762C25.2034 13.0977 25.2034 12.9023 25.1389 12.7238ZM13.0001 18.2812C11.9556 18.2812 10.9345 17.9715 10.066 17.3912C9.19754 16.8109 8.52063 15.9861 8.1209 15.021C7.72118 14.056 7.61659 12.9941 7.82037 11.9697C8.02415 10.9452 8.52714 10.0042 9.26573 9.26559C10.0043 8.527 10.9454 8.02401 11.9698 7.82023C12.9943 7.61645 14.0562 7.72104 15.0212 8.12076C15.9862 8.52049 16.811 9.1974 17.3913 10.0659C17.9717 10.9344 18.2814 11.9555 18.2814 13C18.2792 14.4 17.7221 15.7421 16.7322 16.732C15.7422 17.722 14.4002 18.2791 13.0001 18.2812Z" fill="white"/>
</svg>
